<svg width="32" height="32" viewBox="0 0 32 32" fill="none" xmlns="http://www.w3.org/2000/svg">
<path d="M5.91941 5.91989C6.29441 5.54536 6.80274 5.33499 7.33274 5.33499C7.86274 5.33499 8.37107 5.54536 8.74607 5.91989L15.9994 13.1706L23.2527 5.91989C23.4383 5.73429 23.6587 5.58707 23.9012 5.48662C24.1437 5.38617 24.4036 5.33447 24.6661 5.33447C24.9286 5.33447 25.1885 5.38617 25.431 5.48662C25.6735 5.58707 25.8938 5.73429 26.0794 5.91989C26.265 6.1055 26.4122 6.32584 26.5127 6.56834C26.6131 6.81084 26.6648 7.07075 26.6648 7.33323C26.6648 7.59571 26.6131 7.85562 26.5127 8.09812C26.4122 8.34062 26.265 8.56096 26.0794 8.74656L18.8287 15.9999L26.0794 23.2532C26.4542 23.6281 26.6648 24.1365 26.6648 24.6666C26.6648 25.1967 26.4542 25.7051 26.0794 26.0799C25.7046 26.4547 25.1962 26.6653 24.6661 26.6653C24.136 26.6653 23.6276 26.4547 23.2527 26.0799L15.9994 18.8292L8.74607 26.0799C8.37123 26.4547 7.86284 26.6653 7.33274 26.6653C6.80264 26.6653 6.29425 26.4547 5.91941 26.0799C5.54457 25.7051 5.33398 25.1967 5.33398 24.6666C5.33398 24.1365 5.54457 23.6281 5.91941 23.2532L13.1701 15.9999L5.91941 8.74656C5.54487 8.37156 5.3345 7.86323 5.3345 7.33323C5.3345 6.80323 5.54487 6.2949 5.91941 5.91989Z" fill="white"/>
</svg>
