<svg width="28" height="32" viewBox="0 0 28 32" fill="none" xmlns="http://www.w3.org/2000/svg">
<path d="M25.8172 13.9062L27.2047 15.2937C27.7922 15.8812 27.7922 16.8313 27.2047 17.4125L15.0609 29.5625C14.4734 30.15 13.5234 30.15 12.9422 29.5625L0.792187 17.4125C0.204688 16.825 0.204688 15.875 0.792187 15.2937L2.17969 13.9062C2.77344 13.3125 3.74219 13.325 4.32344 13.9312L11.4984 21.4625V3.5C11.4984 2.66875 12.1672 2 12.9984 2H14.9984C15.8297 2 16.4984 2.66875 16.4984 3.5V21.4625L23.6734 13.9312C24.2547 13.3187 25.2234 13.3062 25.8172 13.9062Z" fill="black"/>
</svg>
