<svg width="16" height="16" viewBox="0 0 16 16" fill="none" xmlns="http://www.w3.org/2000/svg">
<path d="M4.0013 13.3333C3.81242 13.3333 3.65419 13.2693 3.52664 13.1413C3.39908 13.0133 3.33508 12.8551 3.33464 12.6667C3.33419 12.4782 3.39819 12.32 3.52664 12.192C3.65508 12.064 3.8133 12 4.0013 12H4.4013L5.71797 7.61667C5.80686 7.32778 5.97086 7.09733 6.20997 6.92533C6.44908 6.75333 6.71286 6.66711 7.0013 6.66667H9.0013C9.29019 6.66667 9.55419 6.75289 9.7933 6.92533C10.0324 7.09778 10.1962 7.32822 10.2846 7.61667L11.6013 12H12.0013C12.1902 12 12.3486 12.064 12.4766 12.192C12.6046 12.32 12.6684 12.4782 12.668 12.6667C12.6675 12.8551 12.6035 13.0136 12.476 13.142C12.3484 13.2704 12.1902 13.3342 12.0013 13.3333H4.0013ZM7.33464 4.66667V2.66667C7.33464 2.47778 7.39864 2.31956 7.52664 2.192C7.65464 2.06445 7.81286 2.00045 8.0013 2C8.18975 1.99956 8.34819 2.06356 8.47664 2.192C8.60508 2.32045 8.66886 2.47867 8.66797 2.66667V4.66667C8.66797 4.85556 8.60397 5.014 8.47597 5.142C8.34797 5.27 8.18975 5.33378 8.0013 5.33334C7.81286 5.33289 7.65464 5.26889 7.52664 5.14134C7.39864 5.01378 7.33464 4.85556 7.33464 4.66667ZM10.8346 5.56667L12.2513 4.15C12.3735 4.02778 12.5264 3.96378 12.71 3.958C12.8935 3.95222 13.0517 4.01622 13.1846 4.15C13.3069 4.27222 13.368 4.42778 13.368 4.61667C13.368 4.80556 13.3069 4.96111 13.1846 5.08334L11.768 6.51667C11.6346 6.65 11.4791 6.71667 11.3013 6.71667C11.1235 6.71667 10.968 6.65 10.8346 6.51667C10.7013 6.38334 10.6346 6.22511 10.6346 6.042C10.6346 5.85889 10.7013 5.70045 10.8346 5.56667ZM12.668 8.66667H14.668C14.8569 8.66667 15.0153 8.73067 15.1433 8.85867C15.2713 8.98667 15.3351 9.14489 15.3346 9.33334C15.3342 9.52178 15.2702 9.68022 15.1426 9.80867C15.0151 9.93711 14.8569 10.0009 14.668 10H12.668C12.4791 10 12.3209 9.936 12.1933 9.808C12.0657 9.68 12.0017 9.52178 12.0013 9.33334C12.0009 9.14489 12.0649 8.98667 12.1933 8.85867C12.3217 8.73067 12.48 8.66667 12.668 8.66667ZM4.23464 6.5L2.81797 5.08334C2.69575 4.96111 2.63197 4.80845 2.62664 4.62534C2.6213 4.44222 2.68508 4.28378 2.81797 4.15C2.94019 4.02778 3.09575 3.96667 3.28464 3.96667C3.47353 3.96667 3.62908 4.02778 3.7513 4.15L5.18464 5.56667C5.31797 5.7 5.38464 5.85556 5.38464 6.03334C5.38464 6.21111 5.31797 6.36667 5.18464 6.5C5.0513 6.63334 4.89308 6.7 4.70997 6.7C4.52686 6.7 4.36842 6.63334 4.23464 6.5ZM1.33464 10C1.14575 10 0.987527 9.936 0.859971 9.808C0.732415 9.68 0.668415 9.52178 0.667971 9.33334C0.667527 9.14489 0.731527 8.98667 0.859971 8.85867C0.988416 8.73067 1.14664 8.66667 1.33464 8.66667H3.33464C3.52353 8.66667 3.68197 8.73067 3.80997 8.85867C3.93797 8.98667 4.00175 9.14489 4.0013 9.33334C4.00086 9.52178 3.93686 9.68022 3.8093 9.80867C3.68175 9.93711 3.52353 10.0009 3.33464 10H1.33464Z" fill="#EC1C23"/>
</svg>
