<svg width="32" height="32" viewBox="0 0 32 32" fill="none" xmlns="http://www.w3.org/2000/svg">
<path fill-rule="evenodd" clip-rule="evenodd" d="M22.6667 13.3335V14.8348C23.156 14.9615 23.6187 15.1548 24.0427 15.4055L25.104 14.3428L26.9907 16.2295L25.928 17.2908C26.1787 17.7148 26.372 18.1775 26.4987 18.6668H28V21.3335H26.4987C26.372 21.8228 26.1787 22.2855 25.928 22.7095L26.9907 23.7708L25.104 25.6575L24.0427 24.5948C23.613 24.8485 23.1498 25.0406 22.6667 25.1655V26.6668H20V25.1655C19.5169 25.0406 19.0537 24.8485 18.624 24.5948L17.5627 25.6575L15.676 23.7708L16.7387 22.7095C16.485 22.2798 16.2929 21.8166 16.168 21.3335H14.6667V18.6668H16.168C16.2947 18.1775 16.488 17.7148 16.7387 17.2908L15.676 16.2295L17.5627 14.3428L18.624 15.4055C19.0537 15.1518 19.5169 14.9597 20 14.8348V13.3335H22.6667ZM23.208 18.1042L23.2293 18.1255C23.7013 18.6028 23.9947 19.2588 24 19.9815V20.0188C23.9965 20.5439 23.8381 21.0562 23.5446 21.4916C23.2511 21.927 22.8356 22.266 22.3501 22.4662C21.8647 22.6664 21.331 22.7189 20.8159 22.617C20.3008 22.5151 19.8273 22.2634 19.4547 21.8935L19.4413 21.8775C18.9552 21.3749 18.6859 20.7015 18.6915 20.0023C18.6971 19.3031 18.9771 18.634 19.4711 18.1393C19.9652 17.6445 20.6339 17.3636 21.3331 17.357C22.0323 17.3504 22.7047 17.6188 23.208 18.1042ZM6.66667 10.6668C6.66694 9.92695 6.82115 9.19522 7.1195 8.51816C7.41785 7.8411 7.85381 7.23353 8.39966 6.73406C8.94552 6.2346 9.58932 5.85417 10.2902 5.61697C10.991 5.37976 11.7335 5.29097 12.4705 5.35624C13.2075 5.42151 13.9228 5.63941 14.5711 5.99609C15.2193 6.35277 15.7862 6.84042 16.2358 7.42804C16.6854 8.01566 17.0078 8.6904 17.1825 9.40936C17.3572 10.1283 17.3804 10.8758 17.2507 11.6042C15.3722 12.5208 13.854 14.039 12.9373 15.9175C12.1697 16.0545 11.3813 16.0216 10.6278 15.821C9.87427 15.6203 9.1739 15.2569 8.57603 14.7563C7.97816 14.2557 7.49734 13.63 7.16745 12.9235C6.83756 12.2169 6.66662 11.4466 6.66667 10.6668ZM12.3867 17.3335H9.33333C7.91885 17.3335 6.56229 17.8954 5.5621 18.8956C4.5619 19.8958 4 21.2523 4 22.6668V24.0002C4 24.7074 4.28095 25.3857 4.78105 25.8858C5.28115 26.3859 5.95942 26.6668 6.66667 26.6668H14.8013C13.9132 25.7987 13.2078 24.7617 12.7267 23.6167C12.2456 22.4718 11.9985 21.2421 12 20.0002C12 19.0735 12.1347 18.1788 12.3867 17.3335Z" fill="white"/>
</svg>
