<svg width="26" height="24" viewBox="0 0 26 24" fill="none" xmlns="http://www.w3.org/2000/svg">
<g clip-path="url(#clip0_328_3069)">
<path d="M23.2671 11.9999C23.2671 18.6271 18.5963 24.0001 12.8346 24.0001C7.07317 24.0001 2.40234 18.6274 2.40234 11.9999C2.40234 5.37241 7.07291 0 12.8343 0C18.596 0 23.2671 5.37241 23.2671 11.9999Z" fill="white"/>
<path d="M22.9798 11.9902C22.9798 18.4347 18.4381 23.6586 12.8355 23.6586C7.23309 23.6586 2.69141 18.4347 2.69141 11.9902C2.69141 5.54594 7.23309 0.321777 12.8355 0.321777C18.4381 0.321777 22.9798 5.54594 22.9798 11.9902Z" fill="#131230"/>
<path d="M20.7612 11.9799C20.7612 17.0099 17.2166 21.0877 12.8435 21.0877C8.47057 21.0877 4.92578 17.0099 4.92578 11.9799C4.92578 6.94983 8.47083 2.87207 12.8435 2.87207C17.2164 2.87207 20.7612 6.94983 20.7612 11.9799Z" fill="white"/>
<path d="M10.857 11.9067C10.857 11.8871 10.856 11.8678 10.856 11.8482L11.424 12.2132L11.5166 12.0221L10.8513 11.5945C10.8449 11.3095 10.8296 11.0248 10.8053 10.741L11.4048 11.078L11.4883 10.8817L10.7804 10.4832C10.7507 10.2024 10.7119 9.92491 10.6649 9.65047L11.3111 9.89261L11.3702 9.68489L10.6221 9.4041C10.575 9.15889 10.521 8.91551 10.4602 8.67435L11.0906 8.82229L11.1284 8.60793L10.3998 8.43674C10.3428 8.22722 10.2807 8.01962 10.2134 7.81417L10.8707 7.96846L10.9087 7.75409L10.1318 7.57143C10.048 7.33193 9.9573 7.0957 9.85987 6.86312L10.5297 6.94464L10.5494 6.72725L9.76144 6.63124C9.65348 6.38802 9.53809 6.14925 9.41549 5.91538L10.0654 5.91508V5.69619H9.30052C9.17491 5.46805 9.04245 5.245 8.90339 5.02743L9.51917 4.96825L9.50342 4.75057L8.76874 4.82092C8.70522 4.72551 8.64196 4.6304 8.57582 4.53711L8.33066 4.69169C8.40153 4.79042 8.46951 4.89096 8.53723 4.99241L8.26872 5.83054L8.4472 5.90603L8.6732 5.20134C8.81352 5.42024 8.94703 5.64481 9.07348 5.87463L8.75693 6.65479L8.92938 6.74718L9.19186 6.10016C9.31207 6.33264 9.42573 6.56965 9.53203 6.81209L9.16062 7.52161L9.32336 7.63423L9.63204 7.04548C9.7239 7.2683 9.80921 7.49595 9.88874 7.72662L9.45959 8.39205L9.61261 8.52188L9.97037 7.96695C10.0307 8.15414 10.0864 8.34375 10.1384 8.53517L9.67954 9.24559L9.83257 9.37602L10.2053 8.79784C10.2641 9.03605 10.3168 9.27699 10.3623 9.52124L9.86774 10.129L10.0069 10.2788L10.4084 9.78482C10.4502 10.0393 10.484 10.2969 10.5108 10.5571L9.94675 11.0819L10.0664 11.2519L10.536 10.8153C10.5581 11.081 10.5709 11.3494 10.5767 11.6196L9.96775 12.1244L10.0793 12.3023L10.5819 11.8856L10.5822 11.9067C10.5822 12.1253 10.5749 12.3421 10.5644 12.558L9.92575 12.9855L10.0213 13.1748L10.5489 12.8216C10.5347 13.0331 10.5152 13.2441 10.4906 13.4544L9.8142 13.852L9.90108 14.0471L10.4544 13.7216C10.4234 13.942 10.3888 14.1609 10.3473 14.3768L9.67508 14.7252L9.75304 14.9244L10.2901 14.6467C10.2462 14.8515 10.1973 15.0549 10.1436 15.2566L9.45565 15.5681L9.52521 15.7716L10.0672 15.5262C10.0034 15.7436 9.9352 15.9579 9.86065 16.1693L9.15931 16.3954L9.21076 16.6059L9.76564 16.4271C9.69372 16.617 9.6176 16.8042 9.53728 16.9887L8.82071 17.1375L8.85457 17.3534L9.42704 17.2342C9.34609 17.4084 9.26119 17.5801 9.17243 17.7492L8.43749 17.8105L8.45114 18.0288L9.05117 17.979C8.96253 18.1386 8.87046 18.2956 8.77504 18.45L8.07422 18.4639L8.07763 18.6828L8.6354 18.6713C8.53708 18.8241 8.43547 18.9741 8.33066 19.1212L8.48342 19.4041C8.63436 19.1962 8.77898 18.9824 8.91704 18.7631L9.22624 19.4922L9.39712 19.3956L9.04303 18.5617C9.13558 18.4084 9.22494 18.2526 9.31102 18.0943L9.6365 18.7646L9.80265 18.658L9.4252 17.8803C9.52389 17.6904 9.61891 17.4974 9.70842 17.3009L10.1008 17.94L10.2562 17.8138L9.80475 17.0793C9.89268 16.8755 9.97693 16.6696 10.0546 16.4591L10.4998 17.0551L10.6442 16.912L10.1349 16.23C10.2145 16.0005 10.2893 15.7686 10.3565 15.5322L10.8473 16.0681L10.9783 15.9093L10.4192 15.2988C10.4762 15.0817 10.5284 14.8626 10.5749 14.6406L11.0859 15.1473L11.2101 14.9818L10.6232 14.3997C10.6646 14.1805 10.6998 13.9589 10.7308 13.7355L11.2421 14.1932L11.3589 14.0205L10.7644 13.4885C10.7911 13.2627 10.81 13.0338 10.8253 12.804L11.367 13.237L11.4754 13.0574L10.8402 12.5495C10.8502 12.3364 10.857 12.1229 10.857 11.9067ZM17.6198 18.4639L16.9193 18.4497C16.8239 18.2954 16.7319 18.1383 16.6434 17.9787L17.2434 18.0288L17.2565 17.8105L16.5221 17.7492C16.4333 17.5802 16.3484 17.4084 16.2675 17.2342L16.8397 17.3531L16.8736 17.1375L16.1573 16.9887C16.0767 16.804 16.0005 16.6167 15.9289 16.4271L16.4833 16.6059L16.5347 16.3954L15.8336 16.1693C15.7591 15.9575 15.6902 15.7431 15.6271 15.5265L16.1686 15.7716L16.2384 15.5681L15.5507 15.2566C15.4966 15.0555 15.4483 14.852 15.4037 14.6464L15.9407 14.9244L16.019 14.7252L15.347 14.3768C15.3053 14.1609 15.2709 13.942 15.2399 13.7216L15.7927 14.0471L15.8796 13.852L15.2037 13.4547C15.1791 13.2443 15.1596 13.0332 15.1452 12.8216L15.6727 13.1748L15.7683 12.9855L15.1299 12.558C15.1187 12.341 15.1127 12.1238 15.1121 11.9064L15.1123 11.8853L15.6147 12.3019L15.726 12.1244L15.1176 11.6202C15.1234 11.3494 15.1362 11.081 15.1583 10.8153L15.6276 11.2519L15.747 11.0819L15.183 10.5574C15.21 10.2972 15.2441 10.0393 15.2858 9.78482L15.6874 10.2788L15.8263 10.1293L15.332 9.52124C15.3774 9.27829 15.4296 9.03713 15.4887 8.79814L15.8615 9.37602L16.0142 9.24559L15.5559 8.53517C15.6074 8.34429 15.6632 8.15502 15.7234 7.96755L16.0812 8.52188L16.2342 8.39205L15.8053 7.72662C15.8851 7.49595 15.9699 7.2686 16.062 7.04548L16.3704 7.63423L16.5334 7.52131L16.162 6.8124C16.268 6.56995 16.382 6.33234 16.5024 6.10046L16.7644 6.74718L16.9368 6.65479L16.6206 5.87493C16.7465 5.64456 16.8809 5.42053 17.0208 5.20164L17.2466 5.90633L17.4253 5.83085L17.1565 4.99271C17.2245 4.89126 17.293 4.79042 17.3636 4.69169L17.1182 4.53711C17.0521 4.6301 16.9888 4.72551 16.9253 4.82092L16.1906 4.75057L16.1749 4.96856L16.7906 5.02773C16.6515 5.24526 16.5191 5.46831 16.3935 5.69649H15.6286V5.91508H16.2785C16.1559 6.14905 16.0406 6.38792 15.9326 6.63124L15.1444 6.72725L15.1643 6.94464L15.8339 6.86312C15.7368 7.0953 15.6462 7.3311 15.5625 7.57143L14.7853 7.75409L14.8234 7.96846L15.4806 7.81448C15.4133 8.01981 15.3512 8.22732 15.2942 8.43674L14.5653 8.60823L14.6031 8.8226L15.2339 8.67435C15.1735 8.91468 15.1184 9.15743 15.0717 9.4041L14.3236 9.68489L14.3827 9.89261L15.0289 9.65047C14.9822 9.92491 14.9433 10.2024 14.9134 10.4835L14.2057 10.8817L14.2889 11.078L14.8887 10.7407C14.8646 11.0227 14.8493 11.3074 14.8428 11.5948L14.1774 12.0221L14.2698 12.2129L14.8381 11.8485C14.8381 11.8678 14.8367 11.8871 14.8367 11.9064C14.8367 12.1226 14.8436 12.3367 14.8538 12.5495L14.2186 13.0574L14.327 13.237L14.8688 12.804C14.884 13.0338 14.9029 13.2627 14.9294 13.4885L14.3354 14.0205L14.4519 14.1932L14.9633 13.7352C14.9942 13.9586 15.0294 14.1805 15.0709 14.3997L14.484 14.9818L14.6081 15.1473L15.1192 14.6403C15.1656 14.8623 15.2179 15.0817 15.2751 15.2985L14.716 15.9096L14.847 16.0681L15.3376 15.5322C15.4047 15.7686 15.4796 16.0008 15.5593 16.23L15.0501 16.9123L15.1942 17.0551L15.6394 16.4591C15.7168 16.6696 15.8014 16.8758 15.889 17.0793L15.4378 17.8135L15.5932 17.9397L15.9859 17.3006C16.0751 17.4974 16.1704 17.6901 16.2694 17.8803L15.8919 18.6577L16.0581 18.7643L16.383 18.094C16.4696 18.2522 16.5586 18.4083 16.6513 18.5614L16.2969 19.3956L16.4678 19.4919L16.7775 18.7631C16.9155 18.9824 17.06 19.196 17.2109 19.4038L17.3639 19.1212C17.2589 18.9744 17.1576 18.8238 17.0589 18.6713L17.6164 18.6825L17.6198 18.4639Z" fill="#C7C6C6"/>
<path d="M8.61988 6.9221H8.72488C8.92909 6.92119 8.97423 6.86382 9.08841 6.48431C9.20548 6.10811 9.19839 6.04833 8.99392 6.04894H8.88866L8.61988 6.9221ZM8.44219 5.78626L9.20784 5.78687C9.81837 5.78777 9.74645 6.11928 9.63358 6.48401C9.51966 6.85145 9.38606 7.18326 8.77842 7.18326H8.01172L8.44219 5.78626ZM10.2848 6.96557C10.4465 6.96497 10.4945 6.86352 10.6111 6.48431C10.7268 6.10842 10.7418 6.00486 10.5806 6.00576C10.4187 6.00606 10.3696 6.10842 10.2551 6.48431C10.137 6.86322 10.1228 6.96467 10.2848 6.96557ZM10.6565 5.75879C11.1945 5.75909 11.3161 5.96228 11.1565 6.48431C10.9948 7.00845 10.7478 7.21194 10.2087 7.21194C9.66954 7.21134 9.54906 7.00784 9.70917 6.48431C9.86929 5.96289 10.1168 5.75969 10.6565 5.75879ZM11.8095 6.96497C11.9702 6.96618 12.0195 6.86413 12.1355 6.48431C12.251 6.10872 12.266 6.00637 12.1027 6.00546C11.9426 6.00576 11.8951 6.10781 11.7778 6.48552C11.6625 6.86443 11.6484 6.96497 11.8095 6.96497ZM12.1804 5.75909C12.719 5.75909 12.8413 5.96289 12.6804 6.48431C12.5188 7.00814 12.2728 7.21134 11.7334 7.21104C11.194 7.21104 11.0728 7.00814 11.2331 6.48431C11.3951 5.96319 11.6413 5.76 12.1804 5.75909ZM13.6595 6.19054L13.6713 6.15763C13.6949 6.0746 13.6682 6.00667 13.5663 6.00637C13.4534 6.00637 13.3834 6.06735 13.3632 6.12864C13.2797 6.40551 14.1821 6.27085 14.0249 6.7814C13.9338 7.07849 13.6406 7.21164 13.176 7.21194C12.739 7.21194 12.5272 7.10838 12.6161 6.81823L12.6311 6.76993L13.1403 6.77053L13.1311 6.80314C13.0938 6.9221 13.1516 6.96497 13.2547 6.96437C13.3616 6.96618 13.4414 6.90609 13.4647 6.82941C13.5514 6.55375 12.6799 6.69113 12.8324 6.19477C12.9198 5.91488 13.1847 5.75939 13.6306 5.75909C14.0905 5.76 14.2459 5.89043 14.1527 6.18993L13.6595 6.19054ZM15.0391 6.07279H15.0336L14.706 6.66667H15.0013L15.0391 6.07279ZM14.7924 5.78747L15.4546 5.78808L15.5171 7.18416L14.9559 7.18356L14.9785 6.93931L14.5585 6.9381L14.4304 7.18386L13.8684 7.18326L14.7924 5.78747ZM16.0147 5.78777H16.6027L16.6783 6.64855H16.6846L16.9497 5.78717H17.4431L17.0127 7.18447L16.4339 7.18356L16.3483 6.32218L16.3428 6.32127L16.0761 7.18477L15.5843 7.18326L16.0147 5.78777ZM11.1066 17.6428V18.2215L10.8389 18.5241H10.2953L10.0459 18.2318V17.9166H10.4798V18.0715H10.6617V17.826H10.2347L10.0346 17.5884V17.0948L10.2953 16.8001H10.8525L11.0885 17.077V17.3608H10.6725V17.25H10.4796V17.4151H10.9153L11.1066 17.6428Z" fill="black"/>
<path d="M10.9782 17.7044L10.8457 17.5519H10.4008L10.3493 17.4924V17.2005L10.4346 17.1047H10.7176L10.7963 17.2005V17.2261H10.9782V17.1618L10.7961 16.9474H10.3603L10.1719 17.1618V17.5286L10.3089 17.6887H10.7491L10.7963 17.7484V18.1204L10.7065 18.2213H10.4346L10.3493 18.1204V18.048H10.1719V18.1539L10.3606 18.3737H10.7782L10.9782 18.1539V17.7044ZM12.2882 16.7998V17.3529H11.8864V17.2497H11.6929V17.4332H12.0481V17.8722H11.6929V18.0715H11.8864V17.9474H12.2882V18.5241H11.1404V18.0712H11.2438V17.2497H11.1404V16.7998H12.2882Z" fill="black"/>
<path d="M12.152 16.9474H11.2734V17.105H11.3769V18.2213H11.2734V18.3737H12.152V18.0996H12.0173V18.2213H11.5543V17.7201H11.9139V17.5806H11.5543V17.105H12.0173V17.2056H12.152V16.9474ZM13.41 17.105V18.2213L13.1449 18.5238H12.5766L12.3181 18.2213V17.0969L12.5832 16.7998H13.1449L13.41 17.105Z" fill="black"/>
<path d="M13.2763 17.1668L13.0852 16.9473H12.6469L12.4492 17.1668V18.151L12.6314 18.3735H13.0852L13.2763 18.1589V17.1668Z" fill="black"/>
<path d="M13.0977 17.2055V18.1179L13.01 18.2212H12.7134L12.6328 18.1179V17.2055L12.7223 17.105H13.01L13.0977 17.2055Z" fill="black"/>
<path d="M12.9638 17.2495H12.7617V18.071H12.9638V17.2495Z" fill="white"/>
<path d="M14.7395 16.8001V17.25H14.6203V18.2216L14.3576 18.5241H13.8071L13.5465 18.2216V17.25H13.4297V16.8001H14.0541V17.2349H13.9959V18.0715H14.1754V17.2346H14.1171V16.7998L14.7395 16.8001Z" fill="black"/>
<path d="M14.609 16.9474H14.2384V17.105H14.3103V18.1231L14.2247 18.2213H13.9462L13.8654 18.1231V17.105H13.9373V16.9474H13.5664V17.105H13.6835V18.1566L13.8654 18.3737H14.3011L14.4898 18.1669V17.105H14.609V16.9474ZM15.4738 16.7998V17.2497H15.3505V18.0712H15.5164V17.7949H15.9164V18.5238H14.8019V18.0712H14.9056V17.2497H14.8019V16.7998H15.4738Z" fill="black"/>
<path d="M15.342 16.9473H14.9375V17.1049H15.0409V18.2211H14.9375V18.3735H15.7843V17.9418H15.6496V18.2211H15.2186V17.1049H15.342V16.9473Z" fill="black"/>
<path d="M12.8442 3.37828C15.6981 3.37828 18.1778 5.21789 19.4379 7.92221H19.9327C18.6355 4.92925 15.9491 2.87256 12.8442 2.87256C9.73906 2.87256 7.05258 4.92925 5.7554 7.92221H6.25018C7.51008 5.21789 9.98973 3.37828 12.8442 3.37828ZM12.8442 20.5815C9.96978 20.5815 7.47596 18.7156 6.22446 15.9802H5.73047C7.01819 19.0046 9.71911 21.0875 12.8442 21.0875C15.9687 21.0875 18.6699 19.0043 19.9577 15.9802H19.4637C18.2119 18.7156 15.7181 20.5815 12.8439 20.5815" fill="#ED1C24"/>
<path d="M5.2658 9.37914V11.2544L4.99413 11.6004L5.2658 11.9337V13.9104L4.15682 15.1489H0.539062V13.1559H0.950106V10.2239L0.5409 10.2203V8.22852H4.26969L5.2658 9.37914Z" fill="white"/>
<path d="M9.87718 8.22793V10.4905H8.12119V10.1014H7.55869V10.601H8.93041V12.5104H7.55869V13.0626H8.12119V12.6755H9.86773L9.87718 15.0505H5.22656V13.094H5.59745V10.0962H5.25832V8.22461L9.87718 8.22793Z" fill="white"/>
<path d="M13.5422 8.22754L14.8536 13.1576H15.3906V15.1485H12.7648V13.2642H13.1304L13.0755 13.055H12.0973L12.0605 13.2642H12.3808V15.1485H9.85938L9.86777 12.6752L10.3353 13.2458L11.7776 8.22754H13.5422Z" fill="white"/>
<path d="M20.543 13.1576V15.1484H18.01V13.2865H18.0956L17.8636 12.6555H17.6169V13.2865H17.9644V15.1484H15.3398V13.1564H15.7973V10.2202H15.3879V8.22656H19.0692L20.0842 9.41734L20.0676 11.4562L19.5828 12.0244L20.022 13.1576H20.543Z" fill="white"/>
<path d="M24.7803 11.5368L24.7604 13.9275L23.6595 15.1484H21.4967L20.4791 13.9933L20.4788 12.5564H22.3261V13.1702H22.8564V12.4547H21.272L20.4397 11.4982L20.4331 9.44874L21.5077 8.22777L23.7635 8.22656L24.6887 9.31288V10.6622H22.8839V10.2039H22.317V10.6199L24.0619 10.6694L24.7803 11.5368ZM5.73823 10.0236V11.8049L5.7293 12.1703L5.73823 12.4843L5.63953 14.4607L4.60773 15.6279L0.947187 15.6258L0.542969 15.1442L1.43435 13.7107V10.776H1.01281V8.77848H4.69146L5.73823 10.0236Z" fill="white"/>
<path d="M10.3197 8.76704V11.0912H8.5637V10.7153H8.00147V11.0004H9.38631V13.1241H8.00147V13.6766H8.5637V13.2189L10.3197 13.2355L10.3176 15.6279H5.7074L5.16406 14.9758L6.03996 13.7077V10.7096H5.66934L9.86875 8.23535L10.3197 8.76704Z" fill="white"/>
<path d="M13.9919 8.76104L15.3182 13.7428H15.8552V15.6258L12.2015 15.628V13.8149H13.595L13.5399 13.606H12.5619L12.5252 13.8149H12.8454V15.628H10.3164V13.7428H10.8162L13.5428 8.22754L13.9919 8.76104Z" fill="white"/>
<path d="M20.9829 13.7701V15.626H17.9355L18.4788 13.8649H18.5644L18.3326 13.2336H18.0856V13.8649H18.4334V15.626H15.8086V13.7701H16.2566V10.7826H15.8359V8.81104H19.5636L20.507 9.91305L20.5114 11.9172L20.0091 12.4921L20.4868 13.6883L20.9829 13.7701Z" fill="white"/>
<path d="M25.2022 12.0355V14.382L24.1045 15.6311L21.9191 15.6341L20.9716 14.5463L20.9314 13.1423H22.7971V13.7214H23.3273V13.0059L21.7393 13.0101L20.9361 12.0533L20.8789 9.96884L21.9454 8.76266L24.1927 8.73096L25.1324 9.83267L25.1308 11.1189H23.3549V10.755H22.7879V11.1711H24.4707L25.2022 12.0355Z" fill="white"/>
<path d="M25.097 12.0855V14.33L24.0602 15.5026H21.9517L20.985 14.3698V13.147H22.6664V13.7484H23.372V12.7968H21.7168L20.9414 11.875V9.96083L21.952 8.81836H24.1122L25.0272 9.89079V10.9931H23.4155V10.562H22.6664V11.2035H24.3568L25.097 12.0855Z" fill="white"/>
<path d="M5.614 10.001V11.7346L5.33131 12.0849L5.61373 12.4094V14.3197L4.55962 15.5026H1.03976L0.652344 15.0398L1.44976 13.7484V10.562L1.49858 10.5333L1.04029 8.81836H4.62077L5.614 10.001Z" fill="#131230"/>
<path d="M0.757812 14.9964L1.49223 13.7975V10.4522H1.07515V8.85352L4.54093 8.86378L5.56303 10.0214V11.7009L5.24569 12.0892L5.56198 12.4488V13.3274L5.50423 13.3165L5.48035 14.3838L4.55904 15.4083L1.10691 15.4089L0.757812 14.9964Z" fill="#131230"/>
<path d="M5.22631 9.5378V11.2717L4.95648 11.6023L5.22631 11.9326V13.8571L4.17219 15.0397H0.652344V13.2856H1.06181V10.0991H0.652344V8.35547H4.23309L5.22631 9.5378Z" fill="#ED1C24"/>
<path d="M4.83052 9.84867L3.91919 8.81006H1.04766V9.64336H1.45634V13.7401H1.04688V14.5849H3.87509L4.83026 13.5267V12.1538L4.24125 11.6228L4.83026 11.0917L4.83052 9.84867Z" fill="white"/>
<path d="M3.55728 9.64258L3.87961 9.91914V10.981L3.57487 11.2153H2.39923V9.64258H3.55728ZM3.53891 12.038L3.87856 12.324V13.4462L3.51293 13.7388H2.39844V12.038H3.53891Z" fill="#ED1C24"/>
<path d="M3.48483 10.0992H2.79688V10.7604H3.48536L3.48483 10.0992ZM3.48483 12.4946H2.79688V13.2857H3.48536L3.48483 12.4946ZM10.2103 8.81843L10.2085 10.9648H8.64072L8.65096 10.562H7.9021L8.51184 10.3398L9.27828 11.2779V12.9771H7.9021V13.7485H8.65096L9.82162 12.805L10.2101 13.2676V15.5027H5.75896L5.37022 15.0398L6.32329 14.6036L6.1595 10.562L6.39652 10.6487L9.8224 8.35498L10.2103 8.81843Z" fill="#131230"/>
<path d="M8.85577 10.8964L9.19568 11.3152V12.8837H7.82423V13.8408H8.72033L9.8175 12.9347L10.1285 13.3031V15.4084H5.79106L5.4375 14.9869L6.23281 13.8305V10.4852H5.83699L9.76762 8.42822L10.1285 8.85937V10.8702H8.85446L8.85577 10.8964Z" fill="#131230"/>
<path d="M9.82275 8.35547V10.5H8.26362V10.0991H7.51424V10.811H8.89068V12.5138H7.51424V13.2856H8.26362V12.8049H9.82275V15.0397H5.37109V13.2856H5.7719V10.0991H5.37109V8.35547H9.82275Z" fill="#ED1C24"/>
<path d="M9.42695 8.80859H5.76562V9.64281H6.16696V13.7399H5.76562V14.5835H9.42695V13.2592H8.65841V13.7399H7.11844V12.0582H8.49463V11.2653H7.11739V9.64281H8.65815V10.0441H9.42695V8.80859ZM13.7497 12.1844H12.0315V14.4355H13.7497V12.1844ZM19.0353 12.1844H17.3171V14.4355H19.0353V12.1844ZM23.6625 12.4157H21.9443V14.6668H23.6625V12.4157Z" fill="white"/>
<path d="M19.0307 12.1846H17.3125V14.4357H19.0307V12.1846ZM23.6582 12.4158H21.9398V14.667H23.6582V12.4158Z" fill="white"/>
<path d="M13.8916 8.81929L15.141 13.5021L15.341 13.2865L15.7297 13.7494V15.5036H13.2903L12.9238 15.0461L13.6651 13.8194L13.5606 13.439H12.4537L12.3495 13.8194H12.7065L13.3811 15.5033H10.3455L9.95703 15.0404L10.8245 13.7494L13.5031 8.35645L13.8916 8.81929Z" fill="#131230"/>
<path d="M13.8223 8.86998L15.1452 13.8324L15.3097 13.3819L15.6515 13.7907V15.4084H13.018L12.6348 14.5416L13.8065 13.9L13.6409 13.3372H12.3799L12.2324 13.9H12.6178L13.2918 15.4084H10.3827L10.0273 14.9827L10.9321 13.8526L13.4842 8.46631L13.8223 8.86998Z" fill="#131230"/>
<path d="M13.7492 12.1851H12.0312V14.4365H13.7492V12.1851Z" fill="#131230"/>
<path d="M13.5034 8.35645L14.8184 13.2865H15.3413V15.0407H12.9021V13.3566H13.2766L13.1721 12.9762H12.0653L11.9608 13.3566H12.3178V15.0404H9.95703V13.2862H10.4363L11.8563 8.35645H13.5034Z" fill="#ED1C24"/>
<path d="M13.212 8.81201H12.1451L10.7271 13.7394H10.3555V14.5851H11.9261V13.7397H11.423L11.7923 12.5214H13.4569L13.8087 13.7382H13.3V14.5848H14.9494V13.7394H14.5278L13.212 8.81201Z" fill="white"/>
<path d="M12.6844 9.53906L13.3551 12.0254H11.8828L12.5889 9.53906H12.6844Z" fill="#ED1C24"/>
<path d="M12.6339 10.8813L12.4336 11.5731H12.8255L12.6339 10.8813Z" fill="#131230"/>
<path d="M20.4254 13.3842L20.8197 13.8389V15.4137H18.6251L17.9014 14.4995L18.817 13.9367L18.4056 12.9165H17.9025V13.937H18.2135L18.7663 15.4134H15.9586L15.5664 14.9526L16.3846 13.8422V10.4969H15.9586V8.89307L19.3808 8.91541L20.3257 10.0171V11.8118L19.7774 12.4567L20.2425 13.5315L20.4254 13.3842Z" fill="white"/>
<path d="M19.0349 12.1851H17.3164V14.4365H19.0349V12.1851ZM23.6621 12.4166H21.9437V14.6678H23.6621V12.4166Z" fill="white"/>
<path d="M20.4816 13.2864L20.8722 13.7417L20.8748 15.5022L18.5545 15.501L17.7859 14.5572L18.6855 13.8655L18.3455 13.0138H17.9715V13.8652H18.276L18.829 15.501L15.9037 15.5022L15.5 15.0412L16.2985 13.7653V10.5788L16.1218 10.5389L15.889 8.83519L19.4157 8.81104L20.4 9.96317L20.4005 11.8695L19.8771 12.4664L20.2992 13.5156L20.4816 13.2864ZM25.09 12.086V14.3308L24.0532 15.5034L21.9517 15.505L20.9848 14.3721L20.9779 13.1485H22.6594V13.7496H23.3652V12.7973H21.7092L20.9339 11.8758V9.96166L21.9444 8.81949H24.1049L25.0196 9.89162V10.9936H23.4082V10.5631H22.6594V11.2041H24.3495L25.09 12.086Z" fill="#131230"/>
<path d="M25.0924 12.086V14.3308L24.0556 15.5035L21.9542 15.505L20.9872 14.3722L20.9804 13.1485H22.6618V13.7496H23.3676V12.7973H21.7116L20.9363 11.8759V9.96169L21.9468 8.81952L24.1081 8.81348L25.0225 9.88228L25.022 10.994H23.4104V10.5631H22.6618L22.455 10.9668H24.1453L25.0924 12.086ZM20.4181 13.3613L20.7882 13.803L20.7943 15.4084L18.6096 15.4087L17.8834 14.5026L18.7992 13.9398L18.3876 12.9196H17.8844V13.9401H18.1957L18.7509 15.4087L15.9289 15.4099L15.5273 14.9519L16.3665 13.8453V10.5H15.9407V8.8962L19.3609 8.90315L20.306 10.0052L20.3079 11.8249L19.769 12.4483L20.2095 13.5494C20.2234 13.566 20.4181 13.3613 20.4181 13.3613Z" fill="#131230"/>
<path d="M25.0105 12.1227L25.01 14.2932L24.0241 15.4085L21.9886 15.4097L21.0499 14.3149L21.057 13.2416H22.5988V13.8309H23.4495V12.7048H21.7395L21.0145 11.8425V10.0074L22.0014 8.89238L24.0569 8.88574L24.942 9.92556L24.9407 10.8993H23.4952V10.4751H22.581V11.2848L24.2903 11.2655L25.0105 12.1227ZM19.0307 12.1848H17.3125V14.4363H19.0304L19.0307 12.1848Z" fill="#131230"/>
<path d="M23.656 12.4167H21.9375V14.6678H23.656V12.4167ZM23.9667 9.13477H22.2488V11.3862H23.9667V9.13477Z" fill="#131230"/>
<path d="M20.4832 13.2867V15.0409H18.1655V13.3873H18.2967L17.9565 12.5352H17.582V13.3873H17.8873V15.0406H15.5V13.2864H15.9095V10.1005H15.5V8.35693H19.028L20.0128 9.50907V11.3825L19.4726 12.0039L19.9863 13.2864L20.4832 13.2867Z" fill="#ED1C24"/>
<path d="M20.0874 13.7375H19.7367L18.9978 11.91L19.6183 11.1832L19.6165 9.68539L18.8587 8.80469H15.8945V9.64162H16.304V13.7378H15.8953V14.5832H17.4925V13.7378H17.188V12.0787L18.2211 12.0818L18.8931 13.7378H18.5592V14.5832H20.0876L20.0874 13.7375Z" fill="white"/>
<path d="M18.7262 10.0104V10.8202L18.3603 11.241H17.2461V9.63965H18.395L18.7262 10.0104Z" fill="#ED1C24"/>
<path d="M18.3291 10.0962H17.6406V10.7876H18.3288L18.3291 10.0962Z" fill="#131230"/>
<path d="M24.7025 11.6232V13.8677L23.6657 15.0404H21.5572L20.5904 13.9079V12.6851H22.2716V13.2865H22.9772V12.3346H21.3222L20.5469 11.4125V9.49862L21.5574 8.35645H23.7176L24.6326 9.42887V10.5309H23.021V10.1H22.2716V10.741H23.962L24.7025 11.6232Z" fill="#ED1C24"/>
<path d="M24.3074 11.809L23.7914 11.1961L22.0774 11.1946L21.8771 10.9633V10.0153L22.2079 9.6451H23.1113L23.4163 10.0156V10.0756H24.3098L24.3095 9.69673L23.5491 8.80908H21.717L20.9414 9.69673L20.9425 11.2281L21.4868 11.879H23.1903L23.373 12.1094V13.3503L23.0244 13.741H22.2071L21.8761 13.3503V13.1389H20.9858V13.7235L21.7299 14.5879L23.4995 14.5827L24.3072 13.6869L24.3074 11.809Z" fill="white"/>
</g>
<defs>
<clipPath id="clip0_328_3069">
<rect width="24.6621" height="24" fill="white" transform="translate(0.539062)"/>
</clipPath>
</defs>
</svg>
