<svg width="26" height="24" viewBox="0 0 26 24" fill="none" xmlns="http://www.w3.org/2000/svg">
<g clip-path="url(#clip0_328_3255)">
<path d="M21.2055 11.9998C21.2055 18.627 17.7826 24 13.5598 24C9.33704 24 5.91406 18.6271 5.91406 11.9998C5.91413 5.37257 9.33704 0 13.5598 0C17.7826 0 21.2055 5.37257 21.2055 11.9998Z" fill="#F15A28"/>
<path d="M20.7338 11.9996C20.7338 18.2172 17.5221 23.2582 13.5602 23.2582C9.59845 23.2582 6.38672 18.2171 6.38672 11.9996C6.38672 5.78144 9.59852 0.740723 13.5602 0.740723C17.5222 0.740723 20.7338 5.78144 20.7338 11.9996Z" fill="black"/>
<path d="M18.2121 12.4652C18.0485 16.4971 15.8332 19.5581 13.264 19.3016C10.6946 19.0446 8.74439 15.5677 8.90803 11.5355C9.07166 7.50297 11.2867 4.44231 13.8562 4.69913C16.4256 4.95563 18.3756 8.43253 18.2121 12.4652Z" fill="white"/>
<path d="M9.90158 16.1154C9.90158 16.1154 9.89076 16.2476 9.88672 16.3375C9.90816 16.3814 9.92884 16.4234 9.95014 16.4648C9.94377 16.4146 9.92227 16.2227 9.93768 16.1804L9.90158 16.1154ZM10.0683 16.346C10.0683 16.346 10.053 16.493 10.0579 16.6763C10.085 16.7265 10.1126 16.7741 10.141 16.8232C10.1183 16.7031 10.1204 16.5723 10.1126 16.4394L10.0683 16.346ZM10.3745 16.7974L10.2754 16.6639C10.2754 16.6639 10.2921 16.943 10.3215 17.0225C10.3248 17.0743 10.323 17.1044 10.3317 17.1384C10.373 17.2016 10.4137 17.2631 10.4554 17.3236C10.4424 17.2714 10.4158 17.1605 10.4282 17.0987C10.3734 17.0003 10.3782 16.8891 10.3745 16.7974ZM10.6624 17.1061L10.5605 16.9763C10.5476 17.0133 10.5732 17.2843 10.618 17.407C10.613 17.4715 10.6245 17.5246 10.6339 17.568C10.6734 17.6198 10.7118 17.668 10.7513 17.7185C10.7463 17.6935 10.7187 17.5597 10.7272 17.4741C10.6687 17.3706 10.662 17.2207 10.6624 17.1061ZM10.9506 17.9463C10.9332 17.8857 10.8767 17.8161 10.9002 17.7355C10.858 17.6393 10.8341 17.422 10.8511 17.2746L10.9502 17.4246C10.948 17.5354 10.9527 17.7156 11.0074 17.8323C10.9824 17.8883 11.089 18.0765 11.0999 18.1044L10.9506 17.9463ZM11.2668 18.1916C11.2487 18.1293 11.2613 18.1269 11.2526 18.0658C11.2122 17.9696 11.1602 17.7583 11.1546 17.5962L11.2913 17.6787C11.2909 17.7875 11.3159 17.9481 11.3706 18.0659C11.3461 18.1228 11.4142 18.3057 11.4235 18.3332L11.2668 18.1916ZM11.8251 18.5947C11.8112 18.5128 11.8402 18.4513 11.8617 18.3698C11.7889 18.2414 11.669 18.0658 11.6177 17.8299L11.469 17.7589C11.5335 18.0176 11.6381 18.2592 11.7079 18.3642C11.6903 18.4239 11.687 18.5244 11.687 18.5244L11.8251 18.5947ZM12.2716 18.7391C12.2587 18.6558 12.3003 18.5833 12.3219 18.5023C12.2362 18.419 12.1073 18.1808 12.0268 17.8923L11.8605 17.8621C11.9992 18.2844 12.0968 18.4188 12.1845 18.5069C12.1551 18.5951 12.1521 18.6854 12.1521 18.6854L12.2716 18.7391ZM12.7343 18.7811C12.7315 18.6604 12.7709 18.6342 12.793 18.5548C12.7076 18.4711 12.5388 18.2947 12.4578 18.0048L12.2924 17.976C12.4605 18.3894 12.5734 18.5978 12.6471 18.5689C12.6169 18.6548 12.5997 18.776 12.5997 18.776L12.7343 18.7811ZM13.1589 18.795C13.1648 18.7007 13.2254 18.589 13.2464 18.5073C13.1596 18.424 13.025 18.3419 12.9463 18.0513L12.765 18.052C12.8972 18.3917 13.0265 18.5679 13.1017 18.5388C13.0539 18.6419 13.0193 18.8292 13.0193 18.8292L13.1589 18.795ZM13.5859 18.7534C13.5836 18.6342 13.6522 18.5459 13.6729 18.4668C13.5887 18.3828 13.4466 18.2707 13.3652 17.9808L13.1921 17.9938C13.3189 18.3209 13.452 18.5031 13.5256 18.4729C13.4615 18.6084 13.4347 18.7994 13.4347 18.7994L13.5859 18.7534ZM14.0703 18.636C14.066 18.5173 14.1265 18.4038 14.1488 18.3215C14.0622 18.2395 13.9422 18.1529 13.8615 17.8633L13.7042 17.8944C13.8793 18.2858 13.9415 18.3714 14.0148 18.3418C13.9617 18.4753 13.9192 18.6985 13.9192 18.6985L14.0703 18.636ZM14.5185 18.517C14.5147 18.3943 14.5751 18.282 14.5968 18.2004C14.5114 18.1183 14.3625 17.985 14.282 17.6963L14.128 17.7512C14.2964 18.1297 14.3875 18.2779 14.4625 18.2486C14.4327 18.3363 14.3747 18.5988 14.3747 18.5988L14.5185 18.517ZM14.9748 18.3247C14.9934 18.1857 15.0645 18.0264 15.0875 17.9455C15.0008 17.8628 14.8215 17.7759 14.743 17.4884L14.6132 17.5552C14.7818 17.9262 14.8332 17.9605 14.9438 17.985C14.9136 18.0738 14.8225 18.4152 14.8225 18.4152L14.9748 18.3247ZM15.4572 18.0866C15.4828 17.8443 15.5402 17.7009 15.5574 17.6211C15.4718 17.6303 15.3337 17.4938 15.2428 17.2142L15.1065 17.2986C15.2412 17.6054 15.3313 17.7171 15.4058 17.7021C15.3764 17.7947 15.3126 18.1819 15.3126 18.1819L15.4572 18.0866ZM15.9346 17.7502C15.926 17.6507 16.0246 17.3567 16.0461 17.275C16.0344 17.2724 16.0064 17.2821 15.9755 17.2753C15.9202 17.2633 15.8152 17.1753 15.7078 16.8726L15.5846 16.9681C15.7204 17.3051 15.8158 17.3635 15.8478 17.3723C15.874 17.3849 15.9068 17.3679 15.9262 17.3595C15.8572 17.4975 15.8027 17.858 15.8027 17.858L15.9346 17.7502ZM16.7551 16.9933C16.7292 16.873 16.7209 16.7069 16.742 16.6256C16.6556 16.5446 16.594 16.3699 16.5831 16.0894L16.4607 16.2139C16.488 16.5421 16.5528 16.6598 16.6244 16.7206C16.594 16.8091 16.6339 17.125 16.6339 17.125L16.7551 16.9933ZM16.3584 17.3847C16.3567 17.264 16.3913 17.042 16.4153 16.9639C16.3351 16.9639 16.2798 16.9314 16.1778 16.4821L16.0552 16.5962C16.2248 17.081 16.2491 17.0465 16.293 17.024C16.261 17.1122 16.2197 17.5221 16.2197 17.5221L16.3584 17.3847ZM17.0701 16.5749C17.0436 16.4412 17.0493 16.3311 17.0718 16.2488C17.0234 16.2644 17.0149 16.1697 17.0051 16.0462C16.9974 15.9341 17.0011 15.8429 16.9964 15.7107L16.8742 15.835C16.8695 16.1375 16.8849 16.4141 16.9578 16.3842C16.9272 16.4726 16.9501 16.76 16.9501 16.76L17.0701 16.5749ZM17.3475 16.203C17.3349 16.0854 17.3407 15.9799 17.3668 15.8946C17.3189 15.7993 17.3086 15.6869 17.3233 15.371L17.2116 15.5003C17.1793 15.8384 17.2275 15.9423 17.2587 16.0221C17.225 16.1135 17.2327 16.3512 17.2327 16.3512L17.3475 16.203ZM17.6246 15.601C17.6634 15.3014 17.63 15.1563 17.6187 14.9726L17.5076 15.1374C17.5307 15.2859 17.562 15.6075 17.5109 15.8998L17.6246 15.601ZM17.8373 14.5966C17.8373 14.5966 17.831 14.8212 17.8156 15.0114C17.8408 14.9244 17.8645 14.8374 17.8878 14.7486C17.8869 14.6622 17.8841 14.5582 17.8736 14.4849L17.8373 14.5966Z" fill="#F9A983"/>
<path d="M13.3012 7.99495C13.3327 8.08289 13.2839 8.7108 13.2495 8.92215L13.0843 8.77412C13.0843 8.77412 13.184 8.3066 13.1962 8.18308C13.2089 8.05956 13.1871 7.95346 13.1442 7.89734L13.3012 7.99495ZM12.7687 8.46441L12.6421 8.36131C12.7096 7.9913 12.7075 7.83004 12.7109 7.7291C12.7126 7.66546 12.601 7.62665 12.6081 7.62891C12.7022 7.58333 13.0546 7.25556 13.1353 7.17139L13.2773 7.28072C13.1247 7.44401 12.8061 7.68288 12.727 7.68159C12.6492 7.67997 12.7224 7.68599 12.7224 7.68599L12.7933 7.66503C12.8914 7.78554 12.7753 8.35734 12.7687 8.46441ZM12.299 8.15631L12.1953 8.08891C12.1996 7.95206 12.2261 7.7707 12.3192 7.451L12.4302 7.51001C12.3225 7.87821 12.2889 8.09568 12.299 8.15631Z" fill="#F9A983"/>
<path d="M12.8095 6.98091L12.6866 6.90674C12.5274 7.0223 12.3582 7.19355 12.2148 7.37759L12.3208 7.45897C12.5181 7.24709 12.7016 7.03434 12.8095 6.98091Z" fill="#F9A983"/>
<path d="M18.0528 11.3901L17.9519 11.4266C17.9213 11.2458 17.9039 10.9759 17.7799 10.7871C17.832 10.6089 17.8677 10.464 17.803 10.2441L17.8947 10.2492C17.9237 10.4875 17.9085 10.6034 17.8632 10.7664C17.9457 10.905 18.0396 11.1037 18.0528 11.3901ZM17.8049 11.4839L17.6852 11.5108C17.6544 11.3267 17.6134 11.0386 17.4895 10.8488C17.5933 10.6764 17.5899 10.4741 17.5692 10.2727L17.6789 10.2658C17.7078 10.504 17.6607 10.6698 17.6072 10.8327C17.6901 10.9722 17.7652 11.1997 17.8049 11.4839ZM18.0363 10.7537C18.1608 10.9441 18.1431 11.1278 18.1737 11.3114L18.2117 11.2971C18.2048 11.1632 18.1953 11.0297 18.1832 10.8967C18.1634 10.8347 18.1373 10.7783 18.1058 10.7297C18.1302 10.5987 18.1329 10.5076 18.1288 10.4083C18.12 10.3386 18.1085 10.2691 18.0992 10.1998L18.0345 10.1963C18.0647 10.3523 18.0594 10.5944 18.0363 10.7537ZM17.2521 10.8766C17.3636 11.1014 17.431 11.2971 17.4725 11.5543L17.352 11.5603C17.3201 11.3778 17.2449 11.0765 17.1211 10.8862L17.2521 10.8766Z" fill="#F9A983"/>
<path d="M17.0877 10.8843C17.167 10.7612 17.2449 10.4484 17.2264 10.2695L17.3498 10.3021C17.3538 10.612 17.3003 10.6918 17.2318 10.8814L17.0877 10.8843ZM16.9596 10.8511C17.0336 11.0415 17.1109 11.2593 17.1227 11.5459L17.0035 11.5386C16.9714 11.3555 16.9442 11.0288 16.832 10.8381L16.9596 10.8511Z" fill="#F9A983"/>
<path d="M16.814 10.8393C16.8944 10.7161 16.9769 10.3831 16.9577 10.2056L17.081 10.2379C17.1097 10.4754 17.0225 10.6633 16.9412 10.851L16.814 10.8393ZM16.5746 10.7963C16.6395 10.7914 16.6938 11.2311 16.7116 11.5012L16.5783 11.4589C16.5394 11.0635 16.6125 11.0992 16.457 10.7223L16.5746 10.7963Z" fill="#F9A983"/>
<path d="M16.4191 10.6988C16.6031 10.4225 16.6697 10.2659 16.6439 10.1267L16.7671 10.1712C16.7982 10.3486 16.6204 10.6111 16.5358 10.7734L16.4191 10.6988ZM16 10.5904C16.1093 10.4593 16.261 10.1003 16.2738 9.91406L16.391 9.99867C16.3825 10.252 16.1909 10.5611 16.1379 10.6619L16 10.5904Z" fill="#F9A983"/>
<path d="M15.7675 10.3196C15.8334 10.4738 15.8337 10.829 15.8164 11.1224L15.6776 11.0149C15.7064 10.8129 15.7138 10.4551 15.6289 10.248L15.7675 10.3196ZM16.1623 10.6705C16.2282 10.824 16.2298 11.1812 16.2118 11.4722L16.0724 11.364C16.1023 11.1635 16.1093 10.806 16.0257 10.5979L16.1623 10.6705Z" fill="#F9A983"/>
<path d="M15.5898 10.2319C15.6992 10.1009 15.8939 9.8431 15.9045 9.65723L16.0436 9.76473C15.9764 10.0165 15.8809 10.0903 15.7266 10.3037L15.5898 10.2319Z" fill="#F9A983"/>
<path d="M15.3317 9.95751C15.3918 10.1278 15.3694 10.5051 15.3325 10.8109L15.1933 10.6748C15.2368 10.4673 15.2665 10.0902 15.1914 9.8584L15.3317 9.95751Z" fill="#F9A983"/>
<path d="M15.1523 9.83436C15.2752 9.71277 15.4975 9.47068 15.5202 9.27686L15.6593 9.41274C15.5739 9.66719 15.4676 9.73105 15.2924 9.92949L15.1523 9.83436Z" fill="#F9A983"/>
<path d="M14.8547 9.52762C14.9072 9.70478 14.867 10.0764 14.8182 10.3775L14.6836 10.2268C14.7367 10.0246 14.7841 9.65297 14.7192 9.4126L14.8547 9.52762Z" fill="#F9A983"/>
<path d="M14.6797 9.38349C14.8089 9.27664 15.0401 9.06206 15.0731 8.87061L15.2056 9.02089C15.1072 9.26503 14.9987 9.31738 14.8152 9.4983L14.6797 9.38349Z" fill="#F9A983"/>
<path d="M14.3851 9.08085C14.4378 9.25844 14.398 9.63028 14.3476 9.93182L14.2148 9.78089C14.2673 9.57911 14.3142 9.20576 14.2499 8.96582L14.3851 9.08085Z" fill="#F9A983"/>
<path d="M14.2109 8.93817C14.3402 8.83089 14.5707 8.61492 14.604 8.42432L14.736 8.57374C14.6379 8.81874 14.5305 8.86937 14.3458 9.05115L14.2109 8.93817Z" fill="#F9A983"/>
<path d="M13.8582 8.55882C13.9101 8.7348 13.8711 9.10815 13.8207 9.40991L13.6875 9.25812C13.7404 9.05698 13.7875 8.68428 13.723 8.44434L13.8582 8.55882Z" fill="#F9A983"/>
<path d="M13.6836 8.41601C13.8131 8.30841 14.0448 8.09222 14.076 7.8999L14.2092 8.05191C14.1107 8.29647 14.0039 8.34893 13.8182 8.52803L13.6836 8.41601Z" fill="#F9A983"/>
<path d="M13.1475 7.88381C13.2764 7.77599 13.5087 7.56023 13.5414 7.36834L13.6736 7.52099C13.5758 7.76405 13.4674 7.81565 13.2834 7.99615L13.1475 7.88381ZM12.474 6.78031L12.3454 6.70732C12.1779 6.83632 12.0012 7.02746 11.8839 7.2L11.9703 7.25493C12.1437 7.05175 12.3628 6.84116 12.474 6.78031ZM12.1259 6.5666L11.9922 6.50715C11.7244 6.75956 11.6593 6.85255 11.5427 7.0266L11.6524 7.06841C11.6982 6.97661 11.7589 6.87997 12.1259 6.5666ZM11.764 6.40277L11.6093 6.37858C11.4498 6.50081 11.2916 6.75526 11.1742 6.92802L11.2935 6.94672C11.4031 6.75505 11.6172 6.49597 11.764 6.40277ZM11.3433 6.32085L11.2107 6.31494C11.0368 6.48576 10.8788 6.88857 10.9447 6.91791L11.0179 6.91523C11.0758 6.67174 11.181 6.49855 11.3433 6.32085ZM11.0132 6.33225L10.8945 6.36568C10.6609 6.67786 10.636 6.96048 10.6999 6.92211L10.7491 6.93157C10.7584 6.83632 10.7655 6.67131 11.0132 6.33225ZM10.7185 6.39782L10.5885 6.4619C10.4508 6.61702 10.3739 6.9793 10.4356 6.96167L10.4958 6.94275C10.5077 6.81407 10.5426 6.64712 10.7185 6.39782ZM11.6235 7.82146L11.5122 7.76911C11.5197 7.56991 11.5863 7.2416 11.6509 7.08035L11.7535 7.11389C11.6696 7.29051 11.6215 7.66526 11.6235 7.82146Z" fill="#F9A983"/>
<path d="M11.9565 7.95114L11.8469 7.89879C11.854 7.69938 11.9197 7.37139 11.984 7.21014L12.0858 7.24164C12.0037 7.4202 11.9556 7.79408 11.9565 7.95114ZM11.2644 7.67755L11.1642 7.62284C11.1704 7.41665 11.2172 7.1179 11.284 6.9545L11.3902 6.9673C11.3068 7.14607 11.2662 7.56597 11.2644 7.67755ZM10.9472 7.55178L10.845 7.51878C10.8524 7.31915 10.9246 7.08168 10.9905 6.92021L11.0835 6.92612C11.0007 7.10565 10.9481 7.39418 10.9472 7.55178ZM10.6564 7.48835L10.5633 7.4747C10.5705 7.27582 10.6371 7.09006 10.7015 6.92731L10.8027 6.92774C10.7204 7.10533 10.6571 7.33086 10.6564 7.48835ZM10.4004 7.47631L10.3213 7.47524C10.3536 7.21928 10.3978 7.11178 10.4633 6.94902L10.5486 6.93515C10.4493 7.12736 10.4283 7.24067 10.4004 7.47631ZM10.1747 7.49147L10.1056 7.51577C10.1469 7.25303 10.1571 7.19004 10.2235 7.02621L10.2969 7.01578C10.2144 7.19294 10.1934 7.31764 10.1747 7.49147ZM10.2559 7.01169C10.2592 6.93827 10.2728 6.857 10.3052 6.75391C10.2696 6.81002 10.2341 6.86528 10.1991 6.9244L10.1789 7.02793L10.2559 7.01169ZM9.97386 7.53533C10.0003 7.39278 10.0296 7.25164 10.0988 7.09458C10.0447 7.19075 9.99226 7.28911 9.94146 7.38956C9.93166 7.43073 9.92262 7.4847 9.91016 7.56178L9.97386 7.53533Z" fill="#F9A983"/>
<path d="M11.1086 6.45261C10.5407 6.82704 9.76319 7.11514 8.56508 7.04645C8.56508 7.04645 6.70872 6.83392 5.70876 6.96711V6.96862C5.31786 6.98378 3.6609 7.24748 2.14263 8.13221C1.97393 8.23046 1.89331 8.31905 1.81701 8.44149C1.78399 8.50954 1.71283 8.70057 1.67707 8.81742C1.67707 8.81742 1.21329 8.90396 0.930751 9.08682C0.528753 9.34697 0.378132 9.68646 0.48793 10.281C0.745197 11.6695 1.79653 11.942 1.79653 11.942C1.79653 11.942 1.54371 10.9632 1.77831 10.956C1.88413 10.9529 2.18983 11.0699 2.41387 11.2338C2.53758 11.3176 3.10122 11.7427 3.66055 12.4908L3.00088 15.7633H10.6052C10.8491 15.7581 11.0903 15.6845 11.3177 15.546C11.2732 15.6295 11.2408 15.6793 11.2056 15.7757L10.6444 17.3188H13.7366C14.5107 17.3014 15.175 16.6866 15.4486 15.7634H22.4514C23.3223 15.7634 23.9898 15.1602 24.2411 14.2436C24.542 13.1814 24.1957 12.6082 24.1957 12.6082C24.5392 12.2769 24.7034 11.8308 24.765 11.5187L25.1151 9.81739H18.3231L18.6913 7.97644H17.7872C16.9405 7.98859 16.3017 8.76431 16.0865 9.81406H10.1267C10.694 9.42749 11.6081 8.51781 12.0687 5.68506C12.0687 5.68506 11.6682 6.12345 11.1086 6.45261Z" fill="black"/>
<path d="M7.58021 13.0978C8.01844 13.0846 8.34674 12.7949 8.49256 12.5996C8.49256 12.5996 8.26851 14.6862 6.69792 14.6981H3.54235L4.08086 12.004C4.08086 12.004 3.44831 10.8444 2.28129 10.3963C1.8695 10.2111 1.27017 10.1547 1.22681 10.4646C1.20968 10.5591 1.24338 10.8667 1.28249 11.1132C1.28249 11.1132 1.09708 10.9784 0.984061 10.7616C0.947074 10.7035 0.769192 10.3589 0.754603 9.98096C0.746589 9.77563 0.808371 9.63008 0.907484 9.52386C1.15859 9.26834 1.86388 9.1518 1.86388 9.1518L1.92833 8.92756C1.99306 8.70073 2.05245 8.59764 2.14279 8.54141C3.75072 7.53714 5.65125 7.36396 5.66776 7.36396L5.65666 7.36439C5.79269 7.35106 5.97023 7.3417 6.17037 7.33644C7.02971 7.24861 8.1981 7.42254 8.28317 7.43555C9.12676 7.5193 9.67575 7.48006 10.0402 7.3933C10.5952 7.29956 11.0975 6.76367 11.0975 6.76367C11.0975 6.76367 10.6221 8.44531 9.48821 8.91691C9.01299 9.12665 8.52503 9.13654 8.07317 9.13826H7.21574C6.78772 9.13826 6.67552 9.39271 6.6271 9.61298L6.51442 10.2007H7.94734C8.47777 10.2295 8.84182 9.88743 9.00491 9.66974C9.00491 9.66974 8.78394 11.7318 7.21568 11.7677L6.20914 11.7682L5.94174 13.0978H7.58021Z" fill="white"/>
<path d="M7.15591 8.73386C6.68083 8.73386 6.4802 9.02605 6.3952 9.41197L6.20876 10.37H7.88531C8.17203 10.3654 8.46327 10.3625 8.67718 10.0769C8.51184 10.7051 8.03922 11.4005 7.15611 11.3696L6.01512 11.3702L5.64045 13.2687H7.39078C7.67722 13.2643 7.94929 13.2422 8.17703 12.9938C8.01929 13.6178 7.51064 14.3147 6.64569 14.2811H3.7478L4.24583 11.7762C4.24583 11.7762 3.19689 10.0596 1.68356 9.93884C1.40362 9.93206 1.22012 9.97184 1.10752 10.0653C0.974705 10.1759 1.05416 10.5329 1.05416 10.5329C1.05416 10.5329 0.896142 10.2875 0.865798 9.98173C0.835592 9.67879 1.08026 9.50453 1.43849 9.3966C1.70404 9.32232 1.92665 9.292 1.92665 9.292L2.02391 8.96176C2.05131 8.87339 2.082 8.80223 2.11919 8.75031C2.1796 8.6642 2.28145 8.60959 2.28145 8.60959C3.80869 7.76119 5.60778 7.53318 5.60778 7.53318H5.60806C5.73998 7.5205 5.9167 7.51093 6.11533 7.50577C6.9844 7.41547 8.21087 7.60435 8.21087 7.60435C10.2455 7.83569 10.6325 7.30291 10.8272 7.08576C10.8301 7.08114 10.8268 7.09082 10.8298 7.08576C10.1017 8.56218 9.20967 8.74246 8.0134 8.73386H7.15591Z" fill="#F15A28"/>
<path d="M4.43226 10.8392L4.60541 9.9719C4.72089 9.36344 4.82083 9.16983 5.17782 8.9315C5.53475 8.69317 6.22224 8.56976 6.22224 8.56976C5.22248 8.34315 3.154 8.48441 2.40131 8.87818C2.24041 8.96257 2.18301 9.19037 2.18301 9.19037L3.23798 9.05094L2.83975 9.43601C2.44843 9.22315 2.15144 9.32098 2.15144 9.32098C1.89999 9.49502 1.85938 9.83204 1.85938 9.83204C3.17674 9.84376 4.43226 10.8392 4.43226 10.8392Z" fill="white"/>
<path d="M17.7936 8.37305C17.1459 8.37745 16.5788 8.97021 16.4355 9.69757L15.4489 14.6968H16.7998L18.0535 8.37305H17.7936ZM20.5486 12.5695C20.7299 12.3586 20.8629 12.0886 20.9255 11.7722C20.9259 11.7707 21.2273 10.2332 21.2273 10.2332H19.0743C18.2687 10.259 17.9118 10.8644 17.7954 11.3781L17.794 11.3834L17.1333 14.6961H19.3287C19.9238 14.6946 20.4325 14.2546 20.6086 13.3702L20.7652 12.5695H20.5486ZM19.0622 11.8039L19.1339 11.4508H19.6412L19.5692 11.8039H19.0622ZM19.2558 13.4565H18.7349C18.7743 13.2587 18.7966 13.1563 18.8238 13.0192H19.4619C19.3617 13.1495 19.307 13.2607 19.2558 13.4565ZM13.7034 15.0197H12.8208C12.1709 15.0197 11.7738 15.2717 11.5776 15.8101L11.4169 16.2526H13.7179C14.3687 16.2377 14.9112 15.7068 15.0705 14.9311L16.001 10.2332H13.864C13.864 10.2332 12.8307 10.2007 12.5581 11.5417L11.9337 14.6962H13.3621C13.5384 14.694 13.6758 14.6544 13.7893 14.5799L13.7034 15.0197ZM14.4089 11.4337C14.3091 11.9366 14.0626 13.1598 14.0045 13.4544H13.5351C13.6348 12.9511 13.8814 11.7283 13.9396 11.4337H14.4089ZM8.36328 14.6968H10.5862C11.1887 14.6831 11.704 14.1604 11.847 13.4253C11.8471 13.4251 12.4801 10.2332 12.4801 10.2332H10.2913C9.66955 10.2275 9.14584 10.7445 8.9935 11.5167C8.99255 11.5228 8.82418 12.3729 8.82418 12.3729H9.03871C8.85919 12.5699 8.72096 12.8796 8.65836 13.2023L8.36328 14.6968ZM9.966 13.4544L10.0378 13.0889H10.5653L10.4935 13.4544H9.966ZM10.8921 11.4508L10.8079 11.8793H10.1285C10.2577 11.7566 10.3158 11.5908 10.3558 11.4508H10.8921ZM20.5458 14.6948H22.4444C23.1937 14.6948 23.5954 14.0115 23.7216 13.3716C23.7216 13.3716 23.7922 13.0163 23.707 12.7096C23.6573 12.52 23.5807 12.3746 23.4382 12.2587C23.3632 12.2018 23.2159 12.0911 23.0855 11.9926C23.848 11.9063 24.1125 11.3969 24.1973 10.9678L24.2678 10.6123L24.3443 10.2287H22.4268C21.7943 10.239 21.3254 10.733 21.1701 11.5511C21.0477 12.3011 21.413 12.5655 21.413 12.5655L21.8422 12.8924C21.0622 12.9388 20.7879 13.49 20.7021 13.9254L20.5458 14.6948ZM22.5244 11.5707L22.5503 11.4508H22.7566L22.704 11.7059L22.5244 11.5707ZM22.1502 13.4542C22.1668 13.3716 22.188 13.2671 22.188 13.2671L22.2074 13.1706C22.2722 13.2199 22.362 13.2882 22.3855 13.3058L22.356 13.4543L22.1502 13.4542Z" fill="white"/>
<path d="M15.6519 14.2843L16.554 9.72364C16.6973 9.07208 17.2052 8.57091 17.7355 8.55908L16.6003 14.2841H15.6519V14.2843ZM19.5881 12.6257C20.1442 12.5876 20.5688 12.1561 20.6847 11.5719L20.9113 10.403H19.0135C18.4835 10.4238 18.0506 10.8016 17.9 11.4669L17.3374 14.2833H19.2681C19.8356 14.2804 20.2094 13.8835 20.3648 13.1739L20.4488 12.756C19.936 12.7538 19.4536 12.9727 19.3297 13.5856L19.3209 13.6398H18.4177L18.619 12.6276L19.5881 12.6257ZM19.8309 11.0597L19.6473 11.9873H18.7455L18.9288 11.0597H19.8309ZM14.0822 13.6375H13.2183L13.7288 11.0597H14.593L14.0822 13.6375ZM11.6919 15.8439H13.657C14.1877 15.8322 14.6895 15.4141 14.8304 14.7277L15.685 10.403H13.8033C13.2724 10.4238 12.8416 10.8765 12.6836 11.5257L12.1369 14.2835H13.3011C13.8164 14.2835 14.0216 13.9449 14.0216 13.9449L13.7848 15.1933H12.7619C12.3039 15.1934 11.8791 15.3301 11.6919 15.8439ZM10.5713 13.6375H9.64904L9.83528 12.6978H10.7576L10.5713 13.6375ZM10.2304 10.4035C9.70425 10.4022 9.24149 10.8702 9.11875 11.4906L9.02594 11.9612C9.52041 11.9856 10.026 11.7336 10.1442 11.1258L10.1575 11.0597H11.0826L10.8837 12.0624H9.89816C9.33478 12.0693 8.90443 12.5682 8.78614 13.176L8.56641 14.2843H10.5228C11.0533 14.2723 11.4831 13.8333 11.6012 13.226L12.158 10.4035H10.2304ZM23.4807 13.1716C23.3608 13.7794 22.9863 14.2821 22.3863 14.2821H20.7539L20.8294 13.9002C20.9496 13.2928 21.4171 13.0776 21.9473 13.0655L21.8321 13.637H22.4339L22.5222 13.1916C22.5393 13.1044 22.5222 13.0331 22.4813 12.9839L21.4494 12.1962C21.3327 12.1046 21.244 11.8003 21.2983 11.5247V11.523C21.4236 10.8621 21.7979 10.4209 22.3743 10.4028H24.0273L23.9566 10.7676C23.8364 11.3752 23.3958 11.5919 22.8394 11.5972L22.9468 11.0594H22.3451L22.2659 11.4603C22.2485 11.5477 22.2659 11.6193 22.3069 11.6682L23.3198 12.4306C23.5746 12.6709 23.4807 13.1716 23.4807 13.1716Z" fill="#F15A28"/>
<path d="M13.3818 21.3557L13.596 21.3477C13.6421 21.346 13.676 21.3365 13.6983 21.3198C13.7349 21.2914 13.7529 21.2396 13.7516 21.1636C13.7502 21.0918 13.7317 21.0455 13.6966 21.0237C13.6765 21.0107 13.6416 21.005 13.5925 21.0074L13.4148 21.0137C13.3536 21.0162 13.3094 21.0331 13.2838 21.065C13.2599 21.0952 13.2483 21.1425 13.2492 21.2065C13.254 21.3101 13.2981 21.3597 13.3818 21.3557ZM13.8164 21.9169L13.4157 21.9319C13.3027 21.9363 13.2216 21.8854 13.172 21.7805C13.1442 21.7226 13.1312 21.655 13.1252 21.5834C13.1168 21.4882 13.1195 21.2545 13.1186 21.2012C13.1166 21.0641 13.1455 20.9796 13.1752 20.9263C13.2063 20.8708 13.2609 20.8211 13.3087 20.8192C13.3505 20.8168 13.3508 20.8173 13.3922 20.8161L13.5971 20.8084C13.6912 20.8053 13.757 20.8218 13.7958 20.8604C13.8488 20.912 13.8764 21.0155 13.8789 21.172C13.8796 21.3187 13.8519 21.4195 13.7996 21.4744C13.7616 21.5145 13.6975 21.5358 13.6075 21.5391C13.6075 21.5391 13.2581 21.5481 13.2583 21.5517C13.259 21.6073 13.2694 21.6724 13.3057 21.7024C13.341 21.7321 13.384 21.736 13.4231 21.7347L13.8167 21.7202L13.8164 21.9169ZM12.8781 21.2803C12.8431 21.2347 12.7892 21.2066 12.7319 21.19L12.479 21.1163C12.4452 21.1066 12.3704 21.0745 12.382 20.976L12.3921 20.8885C12.4002 20.82 12.4214 20.79 12.5077 20.8152C12.5077 20.8152 12.935 20.939 12.9509 20.9438C12.9537 20.9189 12.9673 20.8038 12.9703 20.7788L12.5409 20.6546C12.4694 20.6334 12.4139 20.6314 12.376 20.6486C12.3159 20.6749 12.2795 20.7465 12.2651 20.8689L12.2547 20.9571C12.2439 21.049 12.2585 21.124 12.2985 21.1859C12.3307 21.2348 12.3717 21.2672 12.4209 21.2811L12.7135 21.3661C12.7957 21.3903 12.8061 21.43 12.7977 21.5003L12.7889 21.5754C12.7814 21.6404 12.766 21.6827 12.6931 21.6613L12.2067 21.52C12.2039 21.545 12.1896 21.6654 12.1866 21.6905C12.206 21.696 12.6557 21.8269 12.6557 21.8269C12.7729 21.8608 12.8492 21.8357 12.8832 21.7529C12.8967 21.7199 12.9076 21.6672 12.9157 21.5971L12.9248 21.52C12.937 21.4174 12.9257 21.3433 12.8781 21.2803ZM11.7994 20.9651L11.5951 20.8612C11.5508 20.8389 11.5168 20.8297 11.4921 20.8343C11.4512 20.842 11.4234 20.8821 11.4084 20.9546C11.3948 21.0235 11.4023 21.077 11.4312 21.1154C11.4476 21.1385 11.4792 21.1619 11.5258 21.1855L11.6958 21.2718C11.7545 21.3018 11.7998 21.3084 11.831 21.2916C11.86 21.276 11.8806 21.2374 11.8934 21.1759C11.911 21.0754 11.8796 21.0052 11.7994 20.9651ZM11.5069 20.207L11.8891 20.4017C11.9975 20.4568 12.0634 20.5471 12.088 20.6729C12.1206 20.834 12.0663 21.0074 12.0352 21.158C12.0246 21.2096 12.0141 21.2604 12.0033 21.3119C11.9871 21.3906 11.9576 21.4575 11.9204 21.499C11.8844 21.5389 11.8406 21.5552 11.7952 21.5322C11.7552 21.5122 11.7154 21.4919 11.6755 21.4716L11.4794 21.3716C11.3895 21.3262 11.3309 21.2756 11.3025 21.2194C11.2632 21.1427 11.259 21.0297 11.2899 20.8805C11.3199 20.7413 11.3675 20.66 11.429 20.6355C11.4733 20.6175 11.5385 20.6307 11.6245 20.6743C11.6245 20.6743 11.9571 20.8471 11.9579 20.8442C11.9687 20.7911 11.9732 20.7245 11.945 20.6766C11.918 20.6302 11.8779 20.6039 11.8404 20.585L11.4647 20.3938L11.5069 20.207ZM15.4794 20.8867L15.2743 20.9885C15.2303 21.0105 15.1989 21.034 15.1807 21.0603C15.1505 21.1041 15.1424 21.1621 15.1571 21.2347C15.1713 21.3032 15.1975 21.3398 15.2353 21.3449C15.2572 21.3487 15.2914 21.3386 15.3384 21.3154L15.5085 21.2312C15.5674 21.2021 15.6066 21.1659 15.6257 21.1239C15.6437 21.0847 15.6461 21.0345 15.6338 20.973C15.6109 20.8747 15.5592 20.8461 15.4794 20.8867ZM14.9604 20.5364L15.3437 20.346C15.4521 20.2923 15.5393 20.3053 15.6059 20.3853C15.692 20.4871 15.7122 20.6776 15.7424 20.8287L15.7734 20.9829C15.7894 21.0616 15.7901 21.1435 15.7751 21.2104C15.7608 21.2763 15.7312 21.3294 15.6856 21.3523C15.6456 21.3723 15.6055 21.3922 15.5657 21.4116L15.3692 21.5094C15.2793 21.5541 15.2127 21.5665 15.1688 21.5468C15.1085 21.5197 15.0631 21.4322 15.0326 21.2825C15.0059 21.1418 15.0144 21.0318 15.0555 20.956C15.085 20.9005 15.1429 20.8523 15.2293 20.8095C15.2293 20.8095 15.5639 20.6467 15.5632 20.6438C15.5525 20.5907 15.5314 20.5321 15.4908 20.5191C15.4515 20.5057 15.4094 20.5214 15.3718 20.5401L14.9949 20.7267L14.9604 20.5364Z" fill="white"/>
<path d="M15.6992 19.748L15.817 19.6773L16.1542 21.0605L16.0364 21.1312L15.6992 19.748ZM16.4711 20.8284L16.3542 20.9044L15.9928 19.5362L16.1092 19.4604L16.4711 20.8284Z" fill="white"/>
<path d="M11.0925 20.3572L11.0869 20.3479C11.1393 20.3526 11.1794 20.3513 11.2176 20.2871C11.2367 20.2552 11.2606 20.1985 11.2889 20.1181C11.3165 20.039 11.3276 19.9584 11.3215 19.8777C11.3162 19.8032 11.2952 19.7335 11.262 19.6795C11.2386 19.6411 11.2011 19.5995 11.1507 19.5554L10.6896 19.155L10.2357 20.4431L10.7108 20.8554C10.7759 20.9123 10.8395 20.9363 10.8988 20.9264C10.9745 20.9125 11.0327 20.8449 11.0767 20.72C11.098 20.6601 11.113 20.6001 11.1216 20.5405C11.133 20.4633 11.1265 20.4145 11.0925 20.3572ZM10.9513 20.6598C10.9182 20.7301 10.8558 20.7259 10.7699 20.6514L10.4123 20.3411L10.5344 19.9948L10.5486 20.0069L10.903 20.3147C10.9856 20.3861 11.0159 20.4615 10.993 20.5405L10.9513 20.6598ZM11.1413 20.1201C11.1154 20.1939 11.0614 20.1964 10.9815 20.1269L10.6057 19.8006L10.731 19.4451L10.7452 19.4575L11.0935 19.7599C11.1823 19.837 11.2129 19.9174 11.1843 19.9985L11.1413 20.1201ZM14.8365 21.2896L14.8171 21.0766C14.8047 20.9363 14.768 20.8325 14.7072 20.7664C14.646 20.6997 14.5885 20.6728 14.4857 20.6955L14.3974 20.7153L14.144 20.7712L14.1127 20.426L13.9861 20.4539L14.0174 20.7993L14.0344 20.9908L14.0633 21.3126L14.0765 21.4582C14.0892 21.5987 14.1261 21.7022 14.1869 21.769C14.2481 21.8355 14.3054 21.8628 14.4081 21.8397L14.5144 21.816L14.5852 21.8004C14.6878 21.7773 14.7386 21.7264 14.7853 21.6362C14.8325 21.5456 14.849 21.4301 14.8365 21.2896ZM14.7082 21.2989C14.7155 21.3817 14.7049 21.4511 14.6759 21.5084C14.6473 21.5657 14.6275 21.5954 14.5684 21.6082L14.4972 21.6241L14.4793 21.6281L14.3905 21.6478C14.3314 21.6611 14.3067 21.641 14.2692 21.5983C14.2315 21.5557 14.2087 21.4932 14.2013 21.411L14.19 21.2844L14.161 20.9625L14.4322 20.9024L14.5036 20.8867C14.5627 20.8737 14.5871 20.8938 14.6246 20.9365C14.6622 20.9788 14.6849 21.0413 14.6923 21.1233L14.7082 21.2989ZM17.1989 18.2355L17.8246 19.3343C17.834 19.3213 17.9034 19.2237 17.9192 19.2019C17.9022 19.1727 17.3106 18.1335 17.2934 18.1033C17.2742 18.1301 17.2036 18.2288 17.1989 18.2355ZM16.6805 19.3036C16.689 19.2022 16.6997 19.1337 16.7718 19.0428C16.7718 19.0428 17.1151 18.6125 17.1463 18.5731C17.1198 18.521 17.0933 18.469 17.0667 18.4171C17.0355 18.4566 16.6929 18.8864 16.6929 18.8864C16.5798 19.0283 16.5499 19.139 16.536 19.282C16.5218 19.4298 16.5522 19.5789 16.6258 19.7231L16.7442 19.9562C16.8183 20.1011 16.9042 20.1798 16.9996 20.191C17.0913 20.2009 17.1664 20.1795 17.2794 20.0373C17.2794 20.0373 17.622 19.6077 17.6533 19.568C17.6356 19.5336 17.5916 19.4469 17.5741 19.4127C17.5427 19.4517 17.1997 19.8826 17.1997 19.8826C17.1274 19.9731 17.0827 19.9739 17.0176 19.9651C16.9483 19.9555 16.8878 19.9013 16.8385 19.8043L16.7409 19.6131C16.6916 19.5163 16.6713 19.4117 16.6805 19.3036ZM18.9363 16.4087L18.8215 16.2904C18.7459 16.2127 18.6565 16.2255 18.5846 16.2534C18.5127 16.2814 18.4615 16.3319 18.4048 16.4678L18.3559 16.5852L18.2154 16.9216L18.0296 16.7305L17.9595 16.8983L18.1455 17.0896L18.2487 17.1954L18.4219 17.3732L18.5002 17.4538C18.5758 17.5315 18.6498 17.556 18.7218 17.5283C18.7938 17.4999 18.8446 17.4499 18.9016 17.3137L18.9603 17.1725L18.9994 17.079C19.0563 16.943 19.0652 16.8493 19.0529 16.7347C19.0404 16.6197 19.012 16.4859 18.9363 16.4087ZM18.8408 16.6033C18.8852 16.6488 18.9113 16.7072 18.9197 16.7794C18.9284 16.851 18.9295 16.8938 18.8965 16.9726L18.8574 17.0663L18.8474 17.0902L18.7983 17.2078C18.7653 17.2867 18.7396 17.3025 18.6945 17.3189C18.6494 17.335 18.6043 17.3208 18.5603 17.2755L18.4918 17.2054L18.3189 17.0276L18.4687 16.6672L18.508 16.5732C18.5409 16.4945 18.5666 16.4791 18.6117 16.463C18.657 16.4464 18.7019 16.4608 18.7459 16.5064L18.8408 16.6033ZM18.3074 18.5651C18.2489 18.6691 18.1827 18.7233 18.1097 18.7262C18.0369 18.7287 17.9805 18.7022 17.9041 18.596L17.5986 18.1733L17.6854 18.0189L17.991 18.4421C18.0352 18.5033 18.062 18.5075 18.1075 18.5046C18.1532 18.5017 18.1928 18.4694 18.2275 18.4081L18.2877 18.3008C18.3222 18.2397 18.3378 18.1731 18.3339 18.1017C18.3301 18.0305 18.3239 17.9892 18.28 17.9279L17.9743 17.505L18.0608 17.351L18.3663 17.7735C18.4425 17.8793 18.4663 17.9643 18.4739 18.0782C18.4814 18.1918 18.4556 18.3013 18.3969 18.4059L18.3074 18.5651ZM9.17141 17.0453C9.16785 16.9525 9.14716 16.8574 9.10983 16.762C9.10983 16.762 8.84606 16.0886 8.82976 16.0474C8.8027 16.0711 8.03829 16.744 8.01172 16.7675C8.02384 16.7992 8.06658 16.9084 8.07898 16.9401C8.10453 16.9174 8.37063 16.683 8.37063 16.683L8.58016 17.219C8.62283 17.3278 8.67167 17.4047 8.72571 17.4481C8.79756 17.5065 8.8727 17.4994 8.95531 17.4269L9.07969 17.3173C9.14613 17.259 9.1762 17.1698 9.17141 17.0453ZM8.89339 17.254C8.85154 17.2905 8.78667 17.2962 8.7153 17.1134L8.50153 16.5678L8.76612 16.3351L8.77469 16.3565L8.98003 16.8804C8.99572 16.9205 9.00675 16.9671 9.01305 17.0177C9.02284 17.0958 9.01277 17.1487 8.98243 17.1752L8.89339 17.254ZM8.61461 18.1715L8.98825 17.6682C9.10141 17.5155 9.21031 17.5419 9.32032 17.751L9.49382 18.0811C9.47827 18.102 9.41368 18.1892 9.3984 18.2095C9.38532 18.1844 9.22531 17.8803 9.22531 17.8803C9.16059 17.7571 9.09928 17.7948 9.0723 17.8313L8.69982 18.3332C8.67153 18.2791 8.64313 18.2252 8.61461 18.1715ZM10.0468 19.0059C10.0386 18.8887 10.0136 18.8022 9.93506 18.6947L9.86718 18.6019L9.74437 18.4343C9.66594 18.327 9.60766 18.3002 9.53279 18.3039C9.4582 18.3079 9.39107 18.3636 9.33155 18.4711L9.24073 18.6346C9.18107 18.7421 9.15552 18.854 9.16326 18.9707C9.17127 19.0875 9.19627 19.1742 9.27497 19.2813L9.38422 19.4306L9.38415 19.4308L9.46546 19.5421C9.54409 19.6494 9.60245 19.6758 9.67731 19.6725C9.75184 19.6683 9.81883 19.6131 9.87848 19.5053L9.96924 19.3422C10.029 19.2341 10.0547 19.1222 10.0468 19.0059ZM9.78951 19.3582C9.75444 19.4214 9.71341 19.4544 9.66683 19.4582C9.62026 19.4617 9.59259 19.4573 9.54724 19.3954L9.47909 19.3022L9.46553 19.2837L9.35614 19.1344C9.31052 19.0722 9.30415 19.03 9.29991 18.9572C9.29573 18.8841 9.31114 18.8163 9.34621 18.7529L9.4208 18.6186C9.4558 18.5554 9.49656 18.5222 9.54327 18.5184C9.58985 18.5153 9.61745 18.5192 9.66272 18.5812L9.77218 18.7305L9.78581 18.7492L9.85403 18.8422C9.89937 18.9043 9.90595 18.9466 9.90979 19.0193C9.91424 19.0926 9.89924 19.1605 9.8639 19.2236L9.78951 19.3582Z" fill="white"/>
<path d="M9.8518 5.4146L9.76591 5.55339L9.41439 5.01696L9.00431 5.67895L9.35562 6.21538L9.26959 6.35384L8.59375 5.32237L8.67964 5.18358L8.90225 5.52307L9.31213 4.86087L9.08993 4.5217L9.17589 4.38281L9.8518 5.4146ZM14.1672 2.74267L13.9531 2.71569C13.907 2.70988 13.8723 2.71354 13.8492 2.72697C13.8105 2.74944 13.7894 2.79835 13.7855 2.87446C13.7824 2.94628 13.7977 2.9953 13.8312 3.02249C13.8506 3.03894 13.885 3.05012 13.934 3.05603L14.1118 3.0785C14.1733 3.08635 14.2182 3.07603 14.2461 3.04851C14.2718 3.02314 14.2864 2.97777 14.2897 2.91327C14.292 2.8091 14.251 2.75234 14.1672 2.74267ZM13.7709 2.11185L14.1712 2.16216C14.2845 2.17625 14.3621 2.23978 14.4045 2.3533C14.4597 2.498 14.4328 2.68634 14.4247 2.84415C14.422 2.89812 14.4192 2.95165 14.4162 3.0054C14.4122 3.08742 14.3936 3.16332 14.3634 3.21718C14.3344 3.2691 14.2943 3.3006 14.2468 3.29501C14.2048 3.28996 14.1632 3.28469 14.1212 3.27931L13.916 3.25373C13.822 3.24212 13.7575 3.21449 13.7216 3.1702C13.6719 3.10989 13.6513 3.00164 13.6594 2.84544C13.668 2.69935 13.7023 2.60292 13.7583 2.55648C13.7989 2.52283 13.864 2.51208 13.9542 2.52347C13.9542 2.52347 14.3032 2.57034 14.3032 2.56723C14.3063 2.51176 14.3004 2.445 14.266 2.4092C14.233 2.37373 14.1902 2.36276 14.151 2.35792L13.7573 2.30847L13.7709 2.11185ZM10.7551 3.15289C10.8353 3.08699 10.9102 3.07334 10.98 3.11172C11.0503 3.15074 11.098 3.20836 11.1464 3.35295L11.3392 3.92862L11.23 4.01892L11.0366 3.44175C11.009 3.35897 10.9842 3.3393 10.9403 3.31619C10.8964 3.29307 10.8507 3.30081 10.8039 3.3393L10.7037 3.42207C10.6568 3.46088 10.627 3.51549 10.6144 3.58526C10.6013 3.65503 10.5976 3.69824 10.6255 3.78123L10.8186 4.35787L10.7093 4.44817L10.5165 3.87229C10.4684 3.72759 10.465 3.63353 10.4844 3.52044C10.5038 3.40831 10.5536 3.31909 10.6337 3.25319L10.7551 3.15289ZM12.3315 2.28826L12.4439 2.89521C12.4609 2.98551 12.4517 3.02615 12.4302 3.09065C12.4087 3.15536 12.3729 3.19901 12.3218 3.22245L12.248 3.25609C12.1971 3.27921 12.1517 3.27276 12.1117 3.2361C12.0715 3.19955 12.0496 3.17289 12.033 3.0828L11.9205 2.47585L11.7963 2.5325L11.9087 3.13945C11.9256 3.22965 11.9166 3.27039 11.8949 3.33521C11.8734 3.39971 11.8373 3.44336 11.7863 3.4669L11.7128 3.50055C11.6621 3.52356 11.6163 3.51689 11.5762 3.48066C11.5359 3.44422 11.5144 3.41724 11.4975 3.32704L11.385 2.72009L11.2666 2.77406L11.3822 3.39885C11.4112 3.55516 11.4506 3.62665 11.5144 3.68663C11.5781 3.74673 11.6533 3.75694 11.7404 3.71706L11.8373 3.67277C11.9241 3.63331 11.9842 3.56107 12.0175 3.45733C12.0214 3.44497 12.0249 3.43261 12.0281 3.42014C12.035 3.42788 12.0425 3.43508 12.0499 3.44239C12.1136 3.50206 12.1889 3.51227 12.2756 3.47271L12.3729 3.42809C12.4595 3.38886 12.5194 3.31683 12.5528 3.21266C12.5861 3.10828 12.5949 3.01465 12.5659 2.85823L12.4502 2.23354L12.3315 2.28826ZM13.3741 2.24623C13.3194 2.16786 13.2469 2.13411 13.157 2.14539L13.02 2.16281C12.9544 2.17119 12.9011 2.20086 12.8585 2.25117L12.8357 1.80859L12.7122 1.82429L12.7885 3.30877L12.914 3.29286L12.8806 2.64334C12.8758 2.54981 12.8901 2.51272 12.9191 2.45596C12.9485 2.40006 12.9896 2.36824 13.0424 2.36158L13.1552 2.34739C13.2079 2.34051 13.2518 2.36158 13.2865 2.40952C13.321 2.45801 13.339 2.49133 13.3437 2.58486L13.3769 3.23449L13.5003 3.21879L13.4668 2.57024C13.4585 2.40791 13.4287 2.32535 13.3741 2.24623ZM10.1627 4.36851L9.99037 4.5704C9.95331 4.61361 9.92879 4.65242 9.9168 4.68682C9.89755 4.74326 9.90207 4.80206 9.93112 4.86334C9.95906 4.92031 9.99126 4.94138 10.0278 4.92709C10.0493 4.91956 10.0795 4.89226 10.1193 4.84625L10.2622 4.67865C10.3116 4.62071 10.3409 4.56696 10.3505 4.51719C10.3589 4.47118 10.3509 4.42226 10.3263 4.37034C10.2846 4.28993 10.2297 4.28939 10.1627 4.36851ZM9.59939 4.30562L9.9218 3.9284C10.0126 3.82176 10.0978 3.78897 10.1772 3.83058C10.2797 3.88218 10.3385 4.05149 10.3987 4.17856C10.4192 4.22199 10.44 4.2652 10.4602 4.3082C10.4916 4.37432 10.5097 4.45043 10.5094 4.52224C10.5096 4.59158 10.4927 4.65694 10.4547 4.70209L10.3538 4.81991L10.1886 5.01287C10.1132 5.10167 10.0528 5.14746 10.0074 5.15144C9.94461 5.15735 9.88351 5.09769 9.82372 4.97191C9.76885 4.85313 9.75426 4.7452 9.77673 4.65231C9.7933 4.58513 9.83762 4.50934 9.91009 4.42452C9.91009 4.42452 10.1924 4.09858 10.1909 4.09589C10.1699 4.05138 10.1376 4.0072 10.0965 4.01569C10.0565 4.02343 10.0202 4.05955 9.98865 4.09653L9.67179 4.46731L9.59939 4.30562ZM18.105 4.55879L17.4422 5.70873C17.4522 5.72259 17.5243 5.82569 17.5412 5.84901C17.5589 5.81816 18.1853 4.73101 18.2037 4.69929C18.1707 4.65253 18.1378 4.6057 18.105 4.55879ZM18.1109 5.94534L18.2605 6.20957C18.2926 6.26644 18.3208 6.30267 18.3445 6.31933C18.3838 6.34642 18.4224 6.3332 18.4605 6.27988C18.4963 6.22989 18.5073 6.17485 18.4946 6.11572C18.4874 6.08175 18.4666 6.03402 18.4321 5.97339L18.3079 5.75398C18.2654 5.67873 18.2265 5.63466 18.1929 5.62412C18.1611 5.61456 18.1289 5.63154 18.097 5.67691C18.0469 5.75302 18.0518 5.84246 18.1109 5.94534ZM18.1192 6.87404L17.8393 6.37975C17.7604 6.24053 17.7308 6.1039 17.751 5.97006C17.7618 5.89588 17.7876 5.83321 17.8199 5.77699C17.863 5.70131 17.984 5.54575 18.0108 5.50834C18.0796 5.41245 18.1422 5.39181 18.1895 5.3931C18.2392 5.39461 18.3016 5.42922 18.3353 5.48813C18.3649 5.53952 18.3646 5.53984 18.3937 5.59133L18.537 5.84418C18.6028 5.96049 18.639 6.05477 18.6456 6.12948C18.6553 6.23107 18.621 6.33707 18.543 6.44597C18.4682 6.54669 18.3981 6.58045 18.3344 6.55186C18.2879 6.53111 18.2335 6.46489 18.1705 6.35405C18.1705 6.35405 17.9285 5.92029 17.9266 5.92276C17.8987 5.96157 17.8723 6.01908 17.8818 6.08509C17.8905 6.14937 17.9178 6.20667 17.9454 6.25483L18.2206 6.74084L18.1192 6.87404ZM18.9014 7.66578C18.8987 7.59074 18.8742 7.50539 18.8413 7.4239L18.6968 7.06463C18.6777 7.01658 18.6403 6.90274 18.6968 6.84673L18.7474 6.79674C18.7867 6.75793 18.8168 6.7617 18.8659 6.88425C18.8659 6.88425 19.1098 7.4912 19.1187 7.51367L19.2137 7.4196L18.969 6.81039C18.9281 6.70859 18.8895 6.6399 18.8541 6.60614C18.7979 6.55164 18.7369 6.55895 18.6664 6.6285L18.6155 6.67914C18.5623 6.73181 18.5357 6.80233 18.5341 6.89543C18.5327 6.9695 18.5463 7.04249 18.5742 7.11193L18.7414 7.52807C18.7883 7.6446 18.776 7.68524 18.7357 7.72544L18.6923 7.76801C18.6546 7.80564 18.623 7.8165 18.5814 7.71319C18.5814 7.71319 18.3149 7.05012 18.3042 7.02282L18.2057 7.1201C18.2168 7.1473 18.4734 7.78575 18.4734 7.78575C18.5403 7.95205 18.607 8.0272 18.6719 8.00914C18.6977 8.00183 18.7314 7.97721 18.7721 7.93754L18.8163 7.89347C18.8758 7.83499 18.9042 7.76823 18.9014 7.66578ZM16.507 3.88519L16.3075 3.71738C16.2646 3.68147 16.2302 3.66212 16.2042 3.65976C16.1609 3.65567 16.1275 3.68889 16.1033 3.75984C16.0809 3.82703 16.0825 3.88422 16.1077 3.93281C16.1219 3.96173 16.1521 3.99484 16.1975 4.03322L16.3631 4.17243C16.4203 4.22048 16.4664 4.24069 16.5008 4.23263C16.5324 4.225 16.5585 4.19071 16.5791 4.13093C16.6092 4.03171 16.5849 3.95012 16.507 3.88519ZM16.2938 3.01454L16.6667 3.32801C16.7719 3.41681 16.8299 3.52936 16.8403 3.66685C16.8546 3.84316 16.778 4.00656 16.7279 4.1534C16.7105 4.20393 16.6936 4.25359 16.6767 4.3038C16.6504 4.37991 16.6121 4.44064 16.5684 4.47279C16.5266 4.50386 16.4792 4.50762 16.4349 4.47064C16.3959 4.43807 16.3569 4.40538 16.3183 4.37281L16.1271 4.21199C16.0398 4.13846 15.9848 4.06901 15.9622 4.00247C15.9307 3.91153 15.9396 3.7936 15.9893 3.64783C16.0369 3.51259 16.0958 3.4425 16.1625 3.43497C16.2104 3.42928 16.2764 3.46217 16.3601 3.53259C16.3601 3.53259 16.684 3.80875 16.6851 3.80596C16.7029 3.75436 16.7151 3.68653 16.6917 3.6288C16.6695 3.57279 16.6309 3.53398 16.5945 3.50324L16.2281 3.19525L16.2938 3.01454ZM17.6885 4.59577L17.6898 4.59351L17.6879 4.59093C17.6847 4.569 17.682 4.54632 17.6761 4.52364C17.6538 4.43269 17.615 4.35314 17.5605 4.2866L17.3765 4.06052C17.2286 3.87917 17.1149 3.87476 17.0287 4.04751L16.8364 4.43355C16.7417 4.62383 16.7674 4.804 16.9143 4.98449L17.1298 5.24873C17.1597 5.27614 17.2014 5.31796 17.2497 5.30484L17.21 5.38353C17.1884 5.42127 17.1608 5.45599 17.1217 5.45427C17.0801 5.45234 17.0323 5.41353 17.0001 5.37408L16.6703 4.96923L16.6009 5.10887L16.9474 5.53404C16.9991 5.59703 17.0455 5.63444 17.0906 5.64906C17.1272 5.66138 17.1653 5.65856 17.201 5.64089C17.2444 5.62036 17.2774 5.57596 17.308 5.52501L17.3385 5.46373L17.6467 4.84474C17.6853 4.76702 17.6984 4.68456 17.6885 4.59577ZM17.3826 5.03555C17.2992 5.20293 17.1989 5.0563 17.1989 5.0563L17.1982 5.05802L17.0018 4.81722C16.999 4.81367 16.9967 4.81023 16.9938 4.8069L16.9945 4.80561C16.9945 4.80561 16.8778 4.68682 16.9643 4.51815L16.9636 4.51719L17.0976 4.24833L17.0983 4.24919C17.1818 4.076 17.2837 4.22564 17.2837 4.22564L17.285 4.22263C17.3258 4.27327 17.4585 4.43602 17.4585 4.43602C17.4659 4.44516 17.4765 4.45871 17.4882 4.47526L17.4878 4.47623C17.4878 4.47623 17.4915 4.48031 17.4967 4.48709C17.5063 4.50042 17.5156 4.51547 17.5241 4.53213C17.5487 4.5819 17.5684 4.66263 17.5193 4.76111L17.3826 5.03555ZM15.3051 2.47972C15.3225 2.40039 15.3696 2.34707 15.4652 2.37534C15.4981 2.38254 15.9648 2.63925 16.037 2.67752L16.0859 2.45457C16.0638 2.44285 15.5542 2.16797 15.5542 2.16797C15.5202 2.14953 15.4848 2.13835 15.4489 2.13475C15.3398 2.12529 15.2314 2.18893 15.1937 2.36158L15.1649 2.49294C15.1308 2.64807 15.0782 2.88919 15.0721 2.91671C15.0565 2.98857 15.0408 3.06034 15.0249 3.13204C15.012 3.19127 15.0082 3.25448 15.0183 3.31576C15.0436 3.47034 15.1424 3.58322 15.2335 3.63245C15.2335 3.63245 15.743 3.90723 15.7654 3.91905C15.7725 3.88594 15.807 3.72877 15.8142 3.6962C15.7421 3.65696 15.2735 3.40853 15.2448 3.3838C15.1582 3.31328 15.1419 3.22556 15.159 3.14666L15.1965 2.97487C15.2052 2.93553 15.2028 2.94681 15.2028 2.94681C15.2028 2.94681 15.8009 3.2691 15.8267 3.28318C15.8339 3.24997 15.8679 3.09441 15.8754 3.06087C15.8496 3.04679 15.2516 2.72439 15.2516 2.72439L15.2877 2.55895L15.3051 2.47972Z" fill="white"/>
<path d="M10.2985 19.6435L10.2266 19.8059L10.0547 19.6268L10.1267 19.4644L10.2985 19.6435Z" fill="white"/>
</g>
<defs>
<clipPath id="clip0_328_3255">
<rect width="24.6621" height="24" fill="white" transform="translate(0.453125)"/>
</clipPath>
</defs>
</svg>
