<svg width="41" height="40" viewBox="0 0 41 40" fill="none" xmlns="http://www.w3.org/2000/svg">
<g clip-path="url(#clip0_328_2957)">
<path d="M9.35147 0V8.75606L0.398438 8.74646L2.79275 13.0262L4.7133 12.894L4.71143 22.0878L9.35147 20.5918V29.4483L20.3926 40.0001L31.4407 29.4437V20.6087L36.2477 22.3605C37.7057 22.4088 38.081 21.317 38.1772 20.5872C38.2238 20.2259 38.2526 19.8385 38.2629 19.5242C38.273 19.3014 38.2752 19.08 38.2754 18.8622C38.2755 18.5638 38.275 18.171 38.2744 17.7794C38.2733 16.9963 38.2713 16.2186 38.2713 16.2182V16.2178C38.2705 15.7757 38.2384 15.2697 38.0361 14.771C37.8952 14.4244 37.6793 14.1328 37.4236 13.9044L40.3984 8.76254L31.4408 8.76191V0H9.35147Z" fill="white"/>
<path d="M20.3924 35.6565L10.1562 27.8621V28.8937L20.3924 38.6691L30.6283 28.8937V27.8621L20.3924 35.6565Z" fill="#06141F"/>
<path d="M18.5994 29.5304H22.1874L23.0491 31.9454L30.6284 26.7106V20.779C23.884 18.8018 16.9006 18.8022 10.1562 20.78V26.7108L17.7352 31.9456L18.5994 29.5304Z" fill="#06141F"/>
<path d="M17.6915 9.85815H12.6406C12.7196 9.90535 13.3622 10.2029 13.3622 11.0694L13.3581 16.9534C13.3483 17.7935 13.8102 18.1974 14.7024 18.0748C16.1488 17.8824 17.6003 17.7655 19.0534 17.7246V13.4789C18.1 13.4912 17.2805 13.5185 16.3279 13.5624V14.9887C16.6364 14.9695 16.801 14.9536 17.1103 14.9375V16.414C16.5704 16.4466 16.1154 16.4892 15.5739 16.5391C15.4324 16.5516 15.3674 16.4889 15.3674 16.3386V11.4866C15.3674 11.3599 15.4353 11.2964 15.5746 11.2941C16.0186 11.2843 16.4196 11.2767 16.8634 11.2703C17.0021 11.2688 17.0586 11.3358 17.0586 11.4785V12.328C17.7272 12.3119 18.3984 12.3002 19.0664 12.2942L19.0696 11.1038C19.0707 10.3253 18.5728 9.85815 17.6918 9.85815" fill="#EA0029"/>
<path d="M29.3576 11.6938V13.7689C29.3576 13.9226 29.2933 14.0118 29.1548 13.9976C28.6505 13.9471 28.2473 13.9005 27.741 13.856V11.3716C28.2465 11.3883 28.6443 11.4075 29.1489 11.4244C29.2884 11.4315 29.3576 11.514 29.3576 11.6938ZM31.3666 14.4303V11.34C31.3532 10.4118 30.783 9.85899 29.9019 9.85815H25.0117C25.0972 9.90619 25.7585 10.1923 25.7585 11.0378L25.7605 18.0731C26.4092 18.1571 27.0952 18.2592 27.741 18.3734V15.3078C28.0659 15.3441 28.4099 15.3838 28.7348 15.4262C29.0794 16.5142 29.3361 17.5907 29.68 18.737C30.3314 18.8853 31.0409 19.0862 31.689 19.2658C31.3372 18.0574 30.9755 16.8544 30.6039 15.6568C31.0986 15.534 31.3745 15.0921 31.3666 14.4303Z" fill="#EA0029"/>
<path d="M3.21322 11.8949C3.99891 11.8368 4.74661 11.7811 5.53464 11.7314V20.3519C6.18142 20.1168 6.89018 19.8966 7.5421 19.6909V11.6113C8.01352 11.5848 8.56327 11.5597 9.03375 11.5374V9.85836H2.05469C2.43113 10.547 2.81738 11.2261 3.21322 11.8949ZM36.7298 14.64C36.1271 14.2776 34.7441 13.4344 34.3174 13.1687C34.1611 13.0702 34.103 12.9021 34.103 12.787V11.9387C34.101 11.7587 34.1703 11.6706 34.3078 11.6798C35.3336 11.742 36.5333 11.8113 37.5551 11.8876L38.7287 9.85836H31.3847C31.4858 9.93145 32.1455 10.2353 32.1455 11.2339C32.1455 11.2339 32.151 12.3052 32.151 12.8764C32.151 13.4492 32.3715 13.9097 32.905 14.2369C33.437 14.5639 35.1687 15.5601 35.3009 15.6563C35.4738 15.7791 35.5027 15.8996 35.5027 16.2409V18.3469C35.5035 18.633 35.3497 18.5869 35.2995 18.5716C34.9475 18.4647 34.6554 18.3847 34.3015 18.2845C34.2514 18.2703 34.1256 18.2245 34.1232 17.9529V16.5595C33.4815 16.4162 32.8385 16.2834 32.1944 16.1613V17.7659C32.2069 18.7963 32.7624 19.5617 33.6418 19.8555C34.4682 20.1266 35.2624 20.4219 36.0794 20.7441C36.9491 21.097 37.4554 20.6154 37.4537 19.3658C37.4599 19.3345 37.4521 16.2212 37.4521 16.2212C37.4506 15.4945 37.3323 15.0052 36.7296 14.64M10.077 11.1681V18.9717C10.7414 18.8086 11.4168 18.6585 12.0857 18.5257V9.85815H9.35924C9.54021 9.92916 10.0772 10.3314 10.0772 11.1684M19.2779 9.85815C19.3778 9.91955 20.0413 10.2019 20.0413 10.9863C20.0396 13.2281 20.0396 15.4686 20.0385 17.7089C21.6044 17.6985 23.1437 17.7783 24.7048 17.9422V16.5084C23.8011 16.4283 22.8961 16.3738 21.9906 16.3451V14.5454C22.7974 14.5669 23.6014 14.5909 24.4069 14.6377V13.1625C23.6017 13.1289 22.7962 13.1059 21.9906 13.0934C21.9928 11.3043 21.9906 11.3043 21.9906 11.2592C22.8916 11.2678 23.7368 11.2788 24.6369 11.2955V9.85836L19.2779 9.85815Z" fill="#EA0029"/>
<path d="M13.675 23.6221C13.7397 23.6108 13.7856 23.5816 13.8125 23.5344C13.839 23.4885 13.8523 23.4285 13.8523 23.3565C13.8523 23.2742 13.8371 23.2157 13.8041 23.1852C13.773 23.1556 13.73 23.1445 13.6749 23.1533C13.5827 23.1706 13.49 23.1875 13.397 23.2044V23.6712C13.49 23.6545 13.5827 23.6382 13.675 23.6221ZM13.6392 22.8833C13.7035 22.8714 13.7495 22.8427 13.7759 22.7976C13.8032 22.7532 13.8167 22.6959 13.8167 22.6256C13.8158 22.5431 13.8013 22.4871 13.7708 22.4579C13.7401 22.4286 13.6964 22.4194 13.6392 22.4297C13.5584 22.4434 13.4777 22.4581 13.397 22.4735V22.9273C13.479 22.9127 13.5582 22.8968 13.6392 22.8833ZM13.6443 22.1517C13.7207 22.1379 13.7837 22.1363 13.8371 22.1471C13.8907 22.1582 13.9325 22.1812 13.9672 22.2163C13.9999 22.253 14.0256 22.3004 14.0394 22.3606C14.0538 22.4205 14.0619 22.4942 14.0619 22.5819C14.0619 22.6588 14.0527 22.7275 14.0363 22.7857C14.0192 22.8427 13.9927 22.8931 13.9582 22.939C14.0016 22.9626 14.0363 23.0031 14.0609 23.0608C14.0852 23.1184 14.0975 23.2032 14.0975 23.3153C14.0975 23.4093 14.0885 23.4887 14.068 23.5569C14.0498 23.6222 14.0206 23.6811 13.9828 23.7288C13.9429 23.7779 13.8962 23.8161 13.8454 23.8412C13.7869 23.871 13.726 23.8912 13.664 23.9015C13.4961 23.9308 13.3282 23.9621 13.1602 23.9928V22.2407C13.3209 22.2104 13.483 22.1805 13.6443 22.1517ZM14.7083 23.0315C14.8132 23.0159 14.9198 22.9998 15.0248 22.9845C14.9726 22.7674 14.9209 22.55 14.8678 22.3328C14.8152 22.565 14.7597 22.7979 14.7083 23.0315ZM15.0925 23.2531C14.9421 23.274 14.7912 23.2961 14.6418 23.3191C14.6084 23.464 14.5757 23.6089 14.5433 23.7549C14.4587 23.7681 14.3754 23.7817 14.2917 23.7946C14.4322 23.1875 14.5746 22.5819 14.7144 21.9759C14.8161 21.9609 14.9191 21.9464 15.0204 21.9316L15.4422 23.6273C15.3585 23.6382 15.2752 23.6493 15.1919 23.6618C15.1573 23.5248 15.1256 23.3888 15.0925 23.2531ZM16.4619 22.0811C16.3964 22.065 16.33 22.0559 16.2634 22.0538C16.2011 22.0502 16.1435 22.0538 16.089 22.058C16.0597 22.0616 16.0305 22.0675 16.0017 22.0755C15.9734 22.0818 15.95 22.0945 15.9284 22.1125C15.9078 22.1278 15.8906 22.1501 15.8786 22.1772C15.865 22.2048 15.8594 22.2399 15.8594 22.2835C15.8575 22.3171 15.8624 22.3508 15.8734 22.381C15.8829 22.4068 15.8984 22.4278 15.9175 22.441C15.9387 22.4579 15.965 22.4704 15.9988 22.4802C16.0312 22.4907 16.072 22.4998 16.1195 22.5107C16.186 22.5266 16.2441 22.5445 16.2947 22.5646C16.3465 22.5838 16.3888 22.612 16.4232 22.6471C16.4568 22.6824 16.4831 22.7254 16.5013 22.777C16.5185 22.8298 16.5289 22.8941 16.5289 22.9708C16.5289 23.1556 16.4864 23.2961 16.4018 23.3959C16.3184 23.4958 16.2009 23.5509 16.0531 23.5653C15.9885 23.5701 15.92 23.5701 15.8473 23.5634C15.7757 23.5577 15.7046 23.5451 15.6344 23.5258V23.2677C15.7144 23.2796 15.7881 23.2865 15.8553 23.2894C15.9212 23.2949 15.9862 23.293 16.0516 23.2861C16.131 23.2767 16.1902 23.2493 16.2257 23.2057C16.2634 23.1618 16.2807 23.0936 16.2807 23.0023C16.2812 22.9734 16.2755 22.9449 16.2643 22.9202C16.2531 22.8955 16.2368 22.8756 16.2174 22.863C16.1924 22.8465 16.1657 22.8349 16.1382 22.8288C16.107 22.82 16.0668 22.8108 16.0249 22.802C15.9651 22.7902 15.906 22.7719 15.8483 22.7473C15.8012 22.7279 15.757 22.6973 15.7178 22.6571C15.683 22.6205 15.6554 22.573 15.6373 22.5189C15.6181 22.4543 15.6086 22.3852 15.6093 22.3157C15.6093 22.1653 15.6457 22.0429 15.72 21.9492C15.7932 21.8552 15.9091 21.8005 16.072 21.7813C16.2027 21.7665 16.3344 21.7799 16.4619 21.8209V22.0811ZM16.8035 21.7224C17.0978 21.6948 17.3931 21.671 17.6881 21.6487C17.6873 21.7422 17.6873 21.8353 17.6881 21.9283C17.4764 21.9439 17.2637 21.96 17.0522 21.979V22.4272C17.2567 22.4103 17.4612 22.3938 17.666 22.3789C17.6395 22.474 17.6116 22.5696 17.5845 22.6644C17.4076 22.6782 17.2294 22.6911 17.0522 22.7076V23.1723C17.2637 23.1535 17.4764 23.1374 17.6881 23.1226C17.6873 23.2151 17.6873 23.3091 17.6881 23.4024C17.3931 23.4223 17.0978 23.4473 16.8035 23.4751V21.7224ZM18.5004 23.0758C18.5657 23.0737 18.6113 23.0493 18.6374 23.0069C18.6645 22.9626 18.6786 22.9067 18.6786 22.8334C18.6786 22.7498 18.6633 22.6905 18.6303 22.6556C18.5991 22.6222 18.5543 22.6055 18.5004 22.6089C18.4066 22.6137 18.3141 22.6183 18.2202 22.6224V23.0902C18.3141 23.0856 18.4065 23.0804 18.5004 23.0758ZM18.4635 22.333C18.5287 22.3297 18.5745 22.3069 18.6021 22.2643C18.6283 22.2242 18.6418 22.167 18.6418 22.0976C18.6418 22.0162 18.6278 21.9577 18.5959 21.9251C18.5657 21.8913 18.5219 21.8765 18.4635 21.879C18.3823 21.8832 18.302 21.8871 18.2202 21.8922V22.3453C18.302 22.3409 18.3822 22.3361 18.4635 22.333ZM18.47 21.6008C18.5451 21.5975 18.6093 21.6054 18.6633 21.6223C18.7161 21.639 18.7609 21.6691 18.7944 21.7086C18.8271 21.7478 18.8524 21.7984 18.867 21.8606C18.8821 21.9233 18.8888 21.9972 18.8888 22.0841C18.8888 22.1626 18.881 22.2302 18.8637 22.2856C18.8466 22.3409 18.8198 22.3883 18.7854 22.4284C18.8301 22.4579 18.8637 22.5047 18.8882 22.5646C18.9131 22.6245 18.9256 22.7108 18.9256 22.8225C18.9256 22.9171 18.9156 22.9946 18.8961 23.0606C18.8776 23.1229 18.8479 23.1781 18.8097 23.2214C18.7689 23.266 18.7216 23.2989 18.6709 23.318C18.612 23.3396 18.5512 23.3516 18.4901 23.3535C18.3202 23.3623 18.1501 23.3721 17.9813 23.3824V21.6294C18.1442 21.618 18.3062 21.6098 18.47 21.6008ZM19.5393 22.6168L19.8581 22.6097C19.8042 22.3858 19.7525 22.162 19.6983 21.9373C19.6452 22.1638 19.5913 22.3898 19.5393 22.6168ZM19.924 22.8862C19.7737 22.8885 19.6231 22.8922 19.4713 22.8941C19.4386 23.0361 19.4054 23.1785 19.3725 23.3197C19.2881 23.3216 19.2036 23.3243 19.1202 23.3266C19.2615 22.7385 19.4043 22.1509 19.5456 21.5618C19.6476 21.5601 19.7503 21.5586 19.8517 21.5568C19.9935 22.1394 20.1336 22.722 20.2761 23.3066C20.192 23.3066 20.1075 23.3066 20.0229 23.3078C19.9903 23.1669 19.9579 23.0269 19.924 22.8862ZM20.4808 23.3066V21.5518C20.5636 21.5518 20.6468 21.5543 20.7304 21.5543V23.0276C20.9288 23.0293 21.1272 23.0328 21.3256 23.038C21.2978 23.1295 21.2708 23.2226 21.2442 23.3153C20.9897 23.3098 20.7352 23.3068 20.4808 23.3066ZM21.5455 23.3216V21.5687C21.6281 21.5724 21.7098 21.5749 21.7933 21.5787V23.0507C21.9923 23.0581 22.1904 23.0674 22.3881 23.0771C22.3616 23.17 22.3351 23.2608 22.3077 23.3527C22.0535 23.3414 21.7984 23.3302 21.5455 23.3216ZM24.0794 23.4047C24.0129 23.4254 23.9456 23.4408 23.8777 23.4507C23.8107 23.4615 23.7456 23.4632 23.6837 23.4584C23.5891 23.4496 23.51 23.422 23.4435 23.3721C23.3792 23.3236 23.3241 23.2557 23.2828 23.1737C23.2401 23.0854 23.2097 22.9875 23.1929 22.8847C23.1732 22.7666 23.1636 22.6458 23.1643 22.5247C23.1643 22.3883 23.1739 22.2643 23.1929 22.1565C23.2116 22.0471 23.2412 21.9569 23.2828 21.8817C23.3244 21.8086 23.3772 21.7529 23.4435 21.7178C23.51 21.6819 23.5911 21.6677 23.6837 21.6756C23.753 21.6819 23.8191 21.695 23.8814 21.7138C23.9423 21.7326 24.0098 21.7612 24.0792 21.7984V22.0502C24.0408 22.0371 24.0065 22.0239 23.975 22.0124C23.9431 22.0026 23.9131 21.9926 23.8844 21.9849C23.8565 21.9782 23.8283 21.9728 23.8006 21.9682C23.7729 21.9646 23.743 21.9598 23.7123 21.9577C23.607 21.9494 23.5301 21.9961 23.4856 22.0976C23.4396 22.2016 23.417 22.3497 23.417 22.5439C23.417 22.6371 23.4214 22.7223 23.4335 22.7978C23.4435 22.8743 23.4606 22.9411 23.4856 22.9946C23.51 23.0507 23.5412 23.0938 23.579 23.1263C23.6156 23.1583 23.6603 23.1769 23.7139 23.1806C23.743 23.1836 23.7715 23.1836 23.7975 23.1836C23.8255 23.1836 23.8528 23.1836 23.8824 23.1806C23.9104 23.1769 23.9402 23.1731 23.9729 23.1681C24.0043 23.1635 24.0408 23.1572 24.0794 23.1468V23.4047ZM24.3396 23.5081V21.7547C24.4209 21.7629 24.5028 21.7719 24.5876 21.7813V23.2544C24.7846 23.2767 24.9828 23.2997 25.1812 23.3233C25.153 23.4131 25.1266 23.5039 25.0999 23.5931C24.8467 23.5619 24.5932 23.5337 24.3396 23.5081ZM25.6573 23.0925C25.6573 23.2032 25.6794 23.284 25.7237 23.3343C25.7679 23.3872 25.8243 23.4177 25.8965 23.4262C25.9717 23.4379 26.0306 23.4246 26.0744 23.3859C26.1181 23.3473 26.1399 23.2725 26.1399 23.1614V21.9826C26.2233 21.9945 26.3063 22.0078 26.3915 22.0218V23.2026C26.3915 23.3078 26.3785 23.3968 26.3588 23.4678C26.3363 23.5384 26.3042 23.5933 26.2627 23.6338C26.2201 23.6745 26.1674 23.6994 26.1069 23.7111C26.0371 23.7241 25.9664 23.7244 25.8965 23.7117C25.8251 23.7029 25.7548 23.6828 25.6869 23.6518C25.6306 23.6252 25.5789 23.5836 25.5351 23.5294C25.4929 23.4752 25.4608 23.4085 25.4416 23.3345C25.4194 23.2464 25.4087 23.1538 25.4098 23.0608V21.8802C25.4924 21.8913 25.5757 21.9015 25.6573 21.9126V23.0925ZM27.2317 23.6382C27.2955 23.6493 27.3418 23.6369 27.3679 23.6C27.395 23.5634 27.4091 23.5081 27.4091 23.4365C27.4091 23.3527 27.393 23.2896 27.3611 23.2481C27.3281 23.2063 27.2854 23.1806 27.2318 23.1706C27.139 23.1533 27.0454 23.1372 26.9526 23.1213V23.5889C27.0454 23.6044 27.139 23.6223 27.2317 23.6382ZM27.1952 22.8864C27.2591 22.8983 27.3058 22.8864 27.3316 22.8503C27.3589 22.816 27.3721 22.7636 27.3721 22.6911C27.3732 22.6097 27.3578 22.5491 27.3274 22.5082C27.2966 22.4691 27.2532 22.4435 27.1952 22.4336C27.1144 22.4187 27.0335 22.4047 26.9526 22.3915V22.8446C27.0336 22.8586 27.1139 22.8728 27.1952 22.8864ZM27.2008 22.1565C27.2765 22.1711 27.3394 22.1925 27.3936 22.2223C27.4464 22.2515 27.4905 22.2912 27.5229 22.3372C27.5553 22.3842 27.5807 22.441 27.5953 22.5063C27.6104 22.5725 27.6174 22.6492 27.6184 22.735C27.6184 22.8141 27.6082 22.8791 27.5924 22.9307C27.5741 22.982 27.5491 23.0244 27.514 23.0547C27.5586 23.0969 27.5924 23.1493 27.6174 23.2151C27.6408 23.2813 27.6526 23.3696 27.6526 23.4828C27.6526 23.5757 27.6433 23.652 27.6244 23.7129C27.6062 23.7701 27.5765 23.8192 27.5385 23.8547C27.5003 23.8896 27.4544 23.9111 27.4005 23.9184C27.3406 23.9271 27.2801 23.9253 27.2206 23.913C27.0524 23.8834 26.8841 23.8537 26.7145 23.8261V22.0734C26.8767 22.1001 27.0392 22.1283 27.2008 22.1565Z" fill="white"/>
<path d="M11.3928 8.02885V2.7375H13.8868L15.6486 8.02885H25.0625L26.9033 2.7375H29.392V8.02885H30.6286V1.07959H10.1562V8.02885H11.3928Z" fill="#06141F"/>
<path d="M21.1127 6.15916C21.1127 6.18004 21.1174 6.19195 21.1266 6.19195C21.1337 6.19064 21.1404 6.1869 21.1462 6.18109L23.6914 3.96539C23.7344 3.92509 23.7858 3.90442 23.8383 3.9063H24.3977C24.4833 3.9063 24.5414 3.98294 24.5414 4.098V5.53058C24.5414 5.70349 24.5128 5.80415 24.3984 5.89624L23.7199 6.4438C23.7131 6.45014 23.7052 6.45396 23.697 6.45487C23.6889 6.45487 23.6806 6.44609 23.6806 6.41435V4.74308C23.6806 4.72324 23.6766 4.71008 23.6668 4.71008C23.6596 4.71124 23.6528 4.71507 23.6472 4.72115L21.7872 6.3421C21.7451 6.38059 21.6952 6.40085 21.6442 6.40015H20.4112C20.3247 6.40015 20.2675 6.32351 20.2675 6.2074V4.1429C20.2675 4.12745 20.2627 4.11325 20.2529 4.11325C20.2457 4.11439 20.2389 4.11815 20.2332 4.12411L19.006 5.11208C18.9936 5.12294 18.9905 5.13088 18.9905 5.1384C18.9905 5.14487 18.9929 5.15155 19.001 5.16346L19.878 6.33876C19.8895 6.354 19.8976 6.36611 19.8976 6.37927C19.8976 6.39013 19.8845 6.3989 19.8691 6.3989H19.077C19.0149 6.3989 18.9668 6.387 18.9333 6.3421L18.4018 5.62998C18.3997 5.62677 18.3972 5.62414 18.3944 5.62228C18.3916 5.62041 18.3886 5.61934 18.3854 5.61913C18.3796 5.61957 18.374 5.62186 18.3691 5.62581L17.4806 6.3421C17.4267 6.38595 17.3899 6.39785 17.3368 6.39785H16.5195C16.4323 6.39911 16.375 6.32121 16.375 6.20615V4.80113C16.375 4.62697 16.4037 4.52715 16.5187 4.43526L17.2013 3.88541C17.2067 3.88068 17.213 3.87801 17.2194 3.87769C17.23 3.87769 17.2356 3.89209 17.2356 3.92363V5.80519C17.2356 5.82503 17.2389 5.8338 17.2496 5.8338C17.2569 5.83225 17.2638 5.82854 17.2699 5.82294L19.5759 3.96226C19.6199 3.92154 19.674 3.9017 19.7277 3.90525H20.9689C21.0546 3.90525 21.1127 3.98189 21.1127 4.09675L21.1119 6.15916H21.1127Z" fill="white"/>
</g>
<defs>
<clipPath id="clip0_328_2957">
<rect width="40" height="40" fill="white" transform="translate(0.398438)"/>
</clipPath>
</defs>
</svg>
