<svg width="26" height="24" viewBox="0 0 26 24" fill="none" xmlns="http://www.w3.org/2000/svg">
<g clip-path="url(#clip0_328_3329)">
<path d="M12.8399 0C7.83288 0 3.77344 5.3724 3.77344 12C3.77344 18.627 7.83288 23.9997 12.8399 23.9997C17.8473 23.9997 21.9067 18.6273 21.9067 12C21.9067 5.3724 17.8473 0 12.8399 0Z" fill="#570514"/>
<path d="M12.8403 23.5603C8.0162 23.5603 4.10547 18.3851 4.10547 11.9997C4.10547 5.61524 8.0162 0.438965 12.8403 0.438965C17.6649 0.438965 21.5756 5.61524 21.5756 11.9997C21.5756 18.3855 17.6649 23.5603 12.8403 23.5603Z" fill="#7D0521"/>
<path d="M7.01788 6.74128L6.13643 5.85734L6.29331 5.58374L6.64584 5.93725L6.64769 5.93376L6.41065 5.37855L6.57096 5.09867L6.81722 5.73764L7.46111 5.96656L7.29552 6.25621L6.90239 6.09917L6.95671 6.24923L7.17397 6.46734L7.01788 6.74128ZM7.73769 5.57781L6.95064 4.55044L7.13257 4.30546L7.91962 5.33318L7.73769 5.57781ZM8.62678 3.9893L8.62942 3.9872L8.23128 3.09942L8.42877 2.90574L8.94108 4.22485L8.7072 4.45517L8.17828 3.69197L8.17618 3.69442L8.57247 4.58778L8.34149 4.81531L7.53282 3.78829L7.73374 3.59042L8.26029 4.35327V4.34734L7.88218 3.44386L8.08363 3.24494L8.62678 3.9893ZM9.46419 2.65483C9.45663 2.63445 9.44836 2.61454 9.43941 2.59516C9.4313 2.57606 9.42079 2.55894 9.4083 2.54456C9.3972 2.53082 9.38324 2.52182 9.36822 2.51874C9.35051 2.51536 9.33244 2.51977 9.3168 2.5313C9.30151 2.53974 9.28864 2.55439 9.28006 2.57315C9.27148 2.59191 9.26764 2.6138 9.26908 2.63564C9.26963 2.65761 9.27292 2.67931 9.27883 2.69985C9.28516 2.72079 9.2915 2.74278 9.29914 2.76267L9.50006 3.30148C9.50665 3.31962 9.51534 3.33951 9.52563 3.3608C9.53538 3.38174 9.54673 3.39954 9.55938 3.41454C9.57153 3.42931 9.58647 3.43944 9.60263 3.44386C9.62025 3.44851 9.63854 3.4448 9.6543 3.43339C9.67067 3.42383 9.68394 3.40689 9.69174 3.38558C9.69808 3.36614 9.70054 3.34487 9.69886 3.32381C9.69706 3.30046 9.69279 3.27756 9.6862 3.25576C9.67963 3.23456 9.6726 3.21361 9.66511 3.19295L9.46419 2.65483ZM9.88791 3.01497C9.9156 3.08826 9.93431 3.15735 9.94486 3.22017C9.95541 3.28368 9.95514 3.34231 9.94486 3.3957C9.93292 3.45147 9.91042 3.50228 9.87947 3.54331C9.84731 3.58903 9.80143 3.63091 9.74237 3.66929C9.68331 3.70768 9.63031 3.73036 9.58311 3.73734C9.53565 3.74432 9.49267 3.73734 9.45391 3.7171C9.41229 3.69382 9.37557 3.65754 9.34687 3.61136C9.31149 3.55502 9.28146 3.49314 9.25748 3.42711L9.05867 2.89388C9.01121 2.76616 9.00251 2.65134 9.03178 2.5484C9.06157 2.44615 9.12776 2.36135 9.22953 2.2947C9.33157 2.2277 9.42201 2.21094 9.50058 2.24235C9.57915 2.27516 9.64165 2.35472 9.68884 2.48175L9.88791 3.01497ZM10.6225 2.06577C10.6172 2.04483 10.6119 2.02285 10.6051 2.00121C10.5993 1.98101 10.5911 1.96216 10.5808 1.94538C10.5711 1.92967 10.5583 1.91763 10.5439 1.91048C10.5266 1.90351 10.508 1.90449 10.4912 1.91327C10.4743 1.91904 10.4593 1.93175 10.4482 1.94957C10.4396 1.96619 10.4341 1.98536 10.4324 2.0054C10.4303 2.02724 10.4308 2.04939 10.434 2.07101C10.4374 2.09439 10.4419 2.11637 10.4464 2.13731L10.58 2.71137C10.5848 2.73161 10.5911 2.7529 10.5985 2.77593C10.6052 2.79729 10.6142 2.81727 10.6251 2.83525C10.6359 2.8534 10.6491 2.86631 10.6644 2.87434C10.6813 2.8825 10.6998 2.8825 10.7166 2.87434C10.734 2.86869 10.7493 2.85494 10.7596 2.8356C10.7681 2.81763 10.7731 2.79711 10.7741 2.77593C10.7748 2.75237 10.7732 2.7288 10.7694 2.70578C10.7657 2.68343 10.7613 2.66131 10.7562 2.63948L10.6225 2.06577ZM10.9974 2.51106C11.0159 2.58888 11.0264 2.66112 11.0291 2.72533C11.0317 2.79093 11.0243 2.84816 11.0077 2.89842C10.9894 2.95111 10.9613 2.99676 10.926 3.03103C10.8802 3.07385 10.8292 3.10596 10.7752 3.12594C10.7219 3.14978 10.666 3.16123 10.6098 3.15979C10.5658 3.15769 10.5227 3.14127 10.4846 3.11199C10.4463 3.0803 10.4144 3.03669 10.3918 2.98496C10.3635 2.92224 10.3414 2.85505 10.3259 2.785L10.1935 2.21618C10.1619 2.08043 10.1671 1.96562 10.2083 1.8707C10.2502 1.77508 10.3253 1.70494 10.434 1.66062C10.5429 1.6163 10.6344 1.61839 10.7077 1.66655C10.7815 1.71506 10.8337 1.80684 10.8653 1.94224L10.9974 2.51106ZM11.5145 2.82304L11.3858 1.36993L11.7489 1.31339L11.9582 2.15162L11.9609 2.15057L12.0228 1.27117L12.383 1.21533L12.5117 2.6681L12.2657 2.70648L12.1911 1.56291L12.1884 1.5636L12.1075 2.73126L11.9158 2.76092L11.6376 1.6491H11.635L11.7589 2.785L11.5145 2.82304ZM13.6191 2.72742L13.7942 1.28268L14.0504 1.33712L13.9832 1.89164L14.1609 1.92967L14.2279 1.37481L14.4842 1.4289L14.3091 2.87364L14.0528 2.8192L14.1256 2.21792L13.9481 2.18058L13.8751 2.78151L13.6191 2.72742ZM14.7252 3.01044L15.0653 1.61944L15.6306 1.86128L15.5621 2.13975L15.2438 2.00296L15.1813 2.25945L15.4898 2.39171L15.4215 2.66949L15.113 2.53723L15.0397 2.83804L15.3746 2.98182L15.3071 3.2603L14.7252 3.01044ZM16.2144 2.87259L16.293 2.92494C16.3073 2.93566 16.3237 2.94052 16.3401 2.9389C16.3543 2.93697 16.3678 2.93024 16.3794 2.91935C16.3923 2.90745 16.4033 2.89255 16.4121 2.87538C16.4217 2.85744 16.4301 2.83854 16.4374 2.81885C16.4502 2.78886 16.4588 2.75614 16.463 2.72219C16.466 2.69845 16.4622 2.67409 16.4525 2.65379C16.4414 2.63189 16.4263 2.61401 16.4087 2.60179C16.3851 2.58392 16.361 2.56727 16.3365 2.55189L16.2144 2.87259ZM15.9278 3.62323L15.6963 3.46829L16.1946 2.16244L16.5324 2.38787C16.6283 2.45173 16.689 2.52676 16.7148 2.61331C16.7409 2.70055 16.7288 2.80873 16.6795 2.93855C16.6526 3.00834 16.6215 3.06243 16.5862 3.10082C16.55 3.1399 16.5028 3.15735 16.4432 3.15421L16.4422 3.15805C16.4696 3.18636 16.49 3.22489 16.5007 3.26867C16.5103 3.31342 16.5074 3.36122 16.4925 3.40338L16.4596 3.50388L16.419 3.62323L16.3805 3.73944C16.3707 3.76889 16.3624 3.79921 16.3557 3.83017C16.3544 3.85058 16.3563 3.87114 16.3612 3.89054L16.3544 3.90799L16.1013 3.73909C16.1034 3.72408 16.1047 3.70977 16.1073 3.69581C16.1099 3.682 16.1132 3.66847 16.1173 3.65533C16.1374 3.59601 16.1582 3.54087 16.1785 3.48992C16.1988 3.43897 16.2154 3.39221 16.2273 3.34859C16.2383 3.31318 16.2437 3.27518 16.2431 3.23692C16.2413 3.20551 16.2273 3.17899 16.2009 3.15875L16.1245 3.1078L15.9278 3.62323ZM17.4953 3.67522C17.505 3.65673 17.5145 3.63823 17.5235 3.61799C17.5323 3.59959 17.5388 3.57944 17.5427 3.55832C17.5462 3.53873 17.5457 3.51828 17.5414 3.49899C17.5352 3.47648 17.5237 3.45724 17.5085 3.44421C17.4947 3.42991 17.4779 3.42172 17.4605 3.42082C17.445 3.42166 17.4299 3.42728 17.4164 3.43723C17.4025 3.44879 17.3898 3.46288 17.3787 3.4791C17.3666 3.49655 17.3558 3.514 17.346 3.5318L17.08 4.01896C17.071 4.03571 17.0615 4.05525 17.0521 4.07689C17.043 4.09707 17.0362 4.11895 17.032 4.1418C17.0281 4.16293 17.0283 4.18506 17.0328 4.20601C17.0381 4.22887 17.0493 4.24852 17.0644 4.26149C17.0782 4.27624 17.0955 4.28392 17.1132 4.28313C17.1293 4.2813 17.1447 4.27409 17.1581 4.26219C17.1729 4.24946 17.1863 4.23381 17.1976 4.21578C17.2095 4.19659 17.2203 4.17914 17.2292 4.16169L17.4953 3.67522ZM17.4523 4.33931C17.4159 4.40562 17.379 4.46006 17.3416 4.50228C17.308 4.54133 17.2678 4.56921 17.2245 4.58359C17.1817 4.59613 17.1372 4.59372 17.0953 4.57661C17.0419 4.55437 16.9919 4.52001 16.9474 4.47506C16.9011 4.43261 16.8604 4.38024 16.8271 4.32012C16.8017 4.27227 16.7859 4.21669 16.781 4.15855C16.7765 4.10376 16.7836 4.04548 16.8008 3.98476C16.8192 3.92369 16.8467 3.86018 16.8825 3.79387L17.1462 3.3116C17.2089 3.19644 17.2812 3.13258 17.3637 3.11966C17.4465 3.1064 17.5338 3.14409 17.6261 3.23238C17.7186 3.32067 17.7721 3.41838 17.7874 3.52482C17.8027 3.63125 17.7787 3.74257 17.7157 3.85739L17.4523 4.33931ZM17.5691 5.08646L18.3453 4.04443L18.7683 4.59651L18.6132 4.80484L18.3749 4.49356L18.232 4.68549L18.4632 4.98665L18.3076 5.19534L18.0769 4.89383L17.909 5.11891L18.1597 5.44625L18.0049 5.65493L17.5691 5.08646ZM18.6995 5.99448L18.6372 6.0566C18.6251 6.06857 18.6141 6.08226 18.6043 6.09743C18.5947 6.11092 18.5875 6.127 18.5832 6.14454C18.5788 6.16223 18.5781 6.18119 18.5813 6.19933C18.5852 6.22196 18.5929 6.2431 18.604 6.26109C18.6225 6.2925 18.6443 6.30716 18.671 6.30367C18.6973 6.30018 18.7219 6.28727 18.7443 6.26423C18.7616 6.24849 18.7755 6.22709 18.7846 6.20212C18.7928 6.17997 18.7979 6.15612 18.7999 6.13163C18.8018 6.10629 18.8014 6.08074 18.7986 6.05555C18.7965 6.0293 18.7947 6.00301 18.7933 5.97668C18.7874 5.92041 18.7833 5.86383 18.7812 5.80708C18.7792 5.75603 18.7824 5.70487 18.7907 5.65493C18.7994 5.60677 18.8136 5.56211 18.8331 5.52023C18.8532 5.47835 18.8824 5.43822 18.9223 5.39914C19.0053 5.31643 19.0849 5.28398 19.1622 5.30387C19.2389 5.32306 19.308 5.38657 19.3686 5.49336C19.4024 5.55268 19.4251 5.61201 19.4367 5.67133C19.4483 5.73066 19.4493 5.78719 19.4404 5.84163C19.4317 5.89642 19.414 5.94772 19.3866 5.99657C19.3568 6.04743 19.3208 6.09132 19.28 6.12639L19.1369 5.87374L19.1754 5.83012C19.1889 5.81593 19.2008 5.79924 19.2107 5.78056C19.22 5.76377 19.2257 5.74402 19.2273 5.72333C19.2279 5.69971 19.2227 5.67646 19.2126 5.65703C19.1981 5.62702 19.1809 5.60922 19.1611 5.60398C19.1397 5.59879 19.1177 5.60466 19.0994 5.62039C19.0704 5.64237 19.0525 5.66994 19.0462 5.70169C19.0395 5.73715 19.0368 5.77373 19.0383 5.81022C19.0425 5.8877 19.0488 5.95679 19.0551 6.01751C19.062 6.07858 19.0631 6.13616 19.0588 6.1906C19.0542 6.24602 19.0408 6.29952 19.0196 6.34764C18.9977 6.3965 18.9597 6.44814 18.9059 6.50223C18.8202 6.58738 18.7377 6.62263 18.6583 6.60762C18.579 6.59192 18.5064 6.52701 18.4419 6.4122C18.4098 6.35861 18.3848 6.29819 18.368 6.23353C18.3547 6.18172 18.35 6.12675 18.354 6.0723C18.3579 6.02462 18.3698 5.97869 18.3889 5.93795C18.4081 5.89782 18.4321 5.86327 18.4611 5.8343L18.5552 5.74008L18.6995 5.99448ZM6.36635 16.9804C6.42884 16.9344 6.48658 16.8817 6.44598 16.7885C6.42146 16.7309 6.38797 16.7075 6.3413 16.7421C6.28857 16.7819 6.28699 16.8412 6.28461 16.9141C6.28198 16.9909 6.27513 17.1336 6.2601 17.2072C6.24217 17.2983 6.20815 17.3486 6.14856 17.3936C6.01752 17.4924 5.90019 17.4285 5.82821 17.261C5.74014 17.0561 5.79551 16.9176 5.91891 16.8248L5.96953 16.7864L6.04283 16.9574L6.00222 16.9877C5.93367 17.0349 5.89623 17.0984 5.93235 17.1832C5.96347 17.2547 6.00671 17.2669 6.05892 17.2285C6.10005 17.1971 6.11692 17.1521 6.12114 17.0907C6.13512 16.9616 6.12536 16.8223 6.16465 16.7012C6.18349 16.6491 6.21382 16.6058 6.25166 16.577C6.37004 16.4887 6.47208 16.5275 6.5496 16.7082C6.66667 16.9804 6.50504 17.0928 6.43728 17.1451L6.36635 16.9804ZM6.10136 17.8127L6.75658 17.216L6.99335 17.6707L6.89765 17.759L6.74472 17.4651L6.57966 17.6152L6.7202 17.886L6.62422 17.9736L6.48369 17.7024L6.28172 17.887L6.43464 18.1802L6.33866 18.2674L6.10136 17.8127ZM6.79349 18.452C6.74261 18.5082 6.66377 18.6042 6.72863 18.7075C6.79639 18.8157 6.88129 18.7249 6.94009 18.6604L7.09698 18.4876C7.14575 18.4342 7.2565 18.3184 7.1861 18.206C7.11148 18.0874 7.01076 18.2144 6.9633 18.266L6.79349 18.452ZM6.84043 18.1386C7.00048 17.9736 7.12677 17.8626 7.27812 18.1045C7.43026 18.3463 7.324 18.4901 7.17212 18.668L7.08512 18.7637C6.92164 18.9427 6.79218 19.0575 6.63688 18.809C6.48078 18.5609 6.58968 18.4133 6.75289 18.2343L6.84043 18.1386ZM7.81521 18.9071L7.92094 19.046L7.53072 19.5673C7.40679 19.7331 7.30712 19.7586 7.16896 19.5775C7.02922 19.3953 7.04768 19.2637 7.1716 19.0976L7.56182 18.5756L7.66782 18.7138L7.28629 19.2232C7.23251 19.2955 7.18241 19.3716 7.25439 19.4661C7.32268 19.5562 7.38042 19.4888 7.43421 19.4173L7.81521 18.9071ZM7.56973 20.0398L8.07704 19.2288L8.19094 19.3545L7.75852 20.0461L7.97077 20.2789L7.89695 20.3975L7.56973 20.0398ZM8.40609 20.8837L8.82401 19.9882L8.95004 20.0911L8.78472 20.446L8.96165 20.5902L9.12696 20.2356L9.25353 20.3386L8.83561 21.2351L8.70905 21.1311L8.90021 20.7221L8.72355 20.5776L8.53212 20.9869L8.40609 20.8837ZM9.07634 21.4082L9.43177 20.4666L9.80565 20.7137L9.75371 20.8522L9.51297 20.6924L9.4228 20.9297L9.64507 21.077L9.59286 21.2152L9.37085 21.0683L9.26144 21.3586L9.50243 21.5177L9.44996 21.6559L9.07634 21.4082ZM9.98257 21.2965L10.0917 21.353C10.1381 21.3726 10.1853 21.3513 10.2141 21.2532C10.2465 21.1433 10.2175 21.107 10.1656 21.0791L10.0627 21.0264L9.98257 21.2965ZM9.94038 21.4403L9.81593 21.8632L9.67751 21.791L9.96675 20.8107L10.2286 20.9468C10.3483 21.0075 10.4232 21.1094 10.3696 21.2902C10.338 21.397 10.2839 21.4989 10.1861 21.4682L10.1853 21.4706C10.2628 21.5275 10.2676 21.6095 10.2394 21.7034C10.2275 21.7442 10.1526 21.9826 10.1777 22.029L10.1724 22.0468L10.02 21.9682C10.0219 21.8967 10.0604 21.7781 10.0785 21.7125C10.0957 21.6514 10.1207 21.5697 10.0785 21.5265C10.0451 21.4933 10.0045 21.4734 9.9649 21.4532L9.94038 21.4403ZM10.632 21.8583C10.6138 21.9421 10.5898 22.0806 10.6879 22.1166C10.7905 22.1546 10.8205 22.0161 10.8413 21.9187L10.8967 21.6591C10.9138 21.5785 10.955 21.3994 10.849 21.3607C10.7367 21.3181 10.7082 21.4985 10.6916 21.5771L10.632 21.8583ZM10.5357 21.5645C10.5966 21.308 10.6528 21.122 10.8817 21.2082C11.11 21.2926 11.0847 21.4905 11.0357 21.7505L11.0051 21.895C10.9479 22.1651 10.8904 22.357 10.6557 22.2694C10.4205 22.1822 10.4474 21.9791 10.5049 21.7086L10.5357 21.5645ZM11.172 22.4146L11.3165 21.3792L11.7278 21.4797L11.7064 21.6311L11.4415 21.5662L11.4048 21.8276L11.649 21.8876L11.6279 22.0391L11.3842 21.9798L11.3394 22.2984L11.6044 22.3633L11.5833 22.5147L11.172 22.4146ZM12.1863 21.8709C12.1942 21.7781 12.1947 21.6845 12.1133 21.6741C12.064 21.6685 12.0302 21.6905 12.0249 21.7613C12.0191 21.8409 12.0547 21.8772 12.0985 21.9218C12.1441 21.9683 12.2277 22.0583 12.2651 22.1166C12.311 22.1888 12.3226 22.253 12.3158 22.3448C12.3013 22.543 12.1945 22.6334 12.05 22.6152C11.8725 22.5922 11.8188 22.453 11.8325 22.2656L11.8383 22.1888L11.9859 22.2073L11.9814 22.2694C11.9709 22.3706 11.9888 22.4484 12.0613 22.4572C12.1236 22.4652 12.1565 22.4257 12.1623 22.3458C12.1668 22.2848 12.1486 22.2397 12.1133 22.2003C12.0421 22.1103 11.9503 22.0412 11.8976 21.9285C11.8768 21.8779 11.8676 21.8204 11.8712 21.7631C11.8844 21.5837 11.9677 21.4961 12.1238 21.516C12.3593 21.5467 12.3353 21.7861 12.3287 21.889L12.1863 21.8709ZM13.1121 22.4802C13.1432 22.4788 13.1748 22.4809 13.2009 22.4641C13.2405 22.4387 13.2436 22.3696 13.2418 22.3155C13.2386 22.2021 13.2207 22.1549 13.1284 22.1602L13.0707 22.1633L13.0802 22.4819L13.1121 22.4802ZM13.0936 22.0073C13.1297 22.0059 13.1761 22.0059 13.1985 21.9655C13.2117 21.9382 13.2125 21.9009 13.2109 21.8503C13.2088 21.7718 13.1951 21.7337 13.1271 21.7348L13.0585 21.7383L13.0659 22.0087L13.0936 22.0073ZM12.9364 22.6435L12.9051 21.5914L13.1445 21.5788C13.2086 21.5753 13.271 21.5778 13.3159 21.6472C13.3512 21.7034 13.3581 21.7631 13.3604 21.8346C13.3631 21.9253 13.3512 22.0164 13.2716 22.0597V22.0628C13.3557 22.0736 13.3905 22.1647 13.3944 22.3008C13.3955 22.3448 13.3952 22.3881 13.3876 22.4299C13.3599 22.5653 13.304 22.6243 13.1983 22.6302L12.9364 22.6435ZM13.781 22.1445L13.9073 22.1228L13.8387 21.8332C13.8266 21.7857 13.8184 21.739 13.8095 21.6908C13.806 21.6677 13.8018 21.6448 13.7971 21.6221L13.7952 21.6228C13.7952 21.6451 13.7952 21.6692 13.7968 21.6933C13.7971 21.7421 13.7986 21.7903 13.796 21.8405L13.781 22.1445ZM13.602 22.6002L13.6882 21.5237L13.8867 21.4895L14.168 22.5032L14.0098 22.5297L13.9452 22.2722L13.7728 22.3015L13.7601 22.573L13.602 22.6002ZM14.557 21.6468C14.5427 21.5547 14.5208 21.4664 14.4412 21.4895C14.3927 21.5038 14.3661 21.539 14.3779 21.6088C14.3908 21.687 14.4333 21.7065 14.4852 21.7313C14.5393 21.7568 14.6408 21.8081 14.6898 21.8479C14.7502 21.8978 14.7763 21.955 14.7911 22.044C14.8238 22.2387 14.7436 22.3685 14.6018 22.4104C14.4275 22.4617 14.3439 22.3511 14.3131 22.1675L14.3004 22.0914L14.4454 22.0496L14.4554 22.1099C14.4694 22.2104 14.5042 22.276 14.5757 22.2555C14.6368 22.2373 14.6585 22.1867 14.6455 22.1078C14.6358 22.0485 14.6078 22.0126 14.5649 21.9895C14.4757 21.9337 14.3724 21.9058 14.2957 21.8199C14.2641 21.7803 14.242 21.7294 14.2321 21.6734C14.2031 21.4982 14.2611 21.3802 14.414 21.3349C14.645 21.2668 14.6785 21.5045 14.6967 21.6053L14.557 21.6468ZM15.0803 22.2251L14.8404 21.2211L15.238 21.0543L15.2736 21.2019L15.0168 21.3097L15.0772 21.5624L15.3139 21.4626L15.3493 21.6106L15.1125 21.7097L15.1863 22.0189L15.4437 21.911L15.4787 22.0583L15.0803 22.2251ZM15.8342 21.7121C15.8624 21.6961 15.893 21.6842 15.9127 21.6563C15.9431 21.614 15.928 21.547 15.9127 21.4985C15.8798 21.3931 15.8502 21.3582 15.7651 21.4047L15.7118 21.4336L15.8046 21.7278L15.8342 21.7121ZM15.6931 21.2769C15.7263 21.2591 15.7701 21.2386 15.7801 21.1897C15.7854 21.1583 15.777 21.123 15.7622 21.0763C15.7395 21.003 15.7163 20.974 15.6528 21.0058L15.5892 21.0414L15.6675 21.2912L15.6931 21.2769ZM15.7118 21.9463L15.407 20.974L15.6285 20.8522C15.6873 20.8194 15.7469 20.7929 15.8067 20.8379C15.8542 20.8742 15.8769 20.9269 15.898 20.9925C15.9243 21.077 15.9367 21.1681 15.8737 21.2445L15.8745 21.2469C15.9565 21.219 16.0121 21.2888 16.0522 21.4141C16.0649 21.4542 16.0754 21.4961 16.0796 21.5383C16.0891 21.6783 16.0525 21.7592 15.9544 21.8137L15.7118 21.9463ZM16.3721 21.0909L16.4846 21.0121L16.3438 20.773C16.3201 20.7339 16.3009 20.6928 16.2795 20.6526C16.2703 20.6324 16.2597 20.6122 16.2505 20.594L16.2484 20.5951C16.2542 20.616 16.2611 20.6387 16.2682 20.6603C16.2816 20.7064 16.2959 20.751 16.3067 20.7985L16.3721 21.0909ZM16.3241 21.6001L16.1221 20.5511L16.2995 20.4275L16.8287 21.249L16.6879 21.346L16.5595 21.1346L16.4055 21.2424L16.4643 21.502L16.3241 21.6001ZM17.0146 21.099L16.5843 20.2136L16.7093 20.1068L17.0758 20.8634L17.3081 20.6662L17.3714 20.7961L17.0146 21.099ZM17.5665 20.6122L17.0834 19.776L17.2013 19.6563L17.6134 20.371L17.8328 20.1487L17.9032 20.2712L17.5665 20.6122ZM18.5059 19.0188C18.5154 19.0341 18.5265 19.0495 18.5357 19.0641C18.6335 19.2065 18.6781 19.3573 18.5613 19.5115C18.3886 19.7408 18.2678 19.611 18.1181 19.4124L18.0374 19.3063C17.8984 19.1109 17.803 18.9552 17.9704 18.7326C18.0661 18.6098 18.1666 18.6042 18.2702 18.7211C18.2862 18.7374 18.3013 18.7554 18.3153 18.7748L18.2117 18.912C18.1713 18.8701 18.1075 18.7759 18.0556 18.845C17.9733 18.9542 18.0785 19.0753 18.1215 19.1325L18.2781 19.3388C18.3243 19.3998 18.4044 19.4951 18.4764 19.3995C18.5341 19.3227 18.4342 19.2096 18.4002 19.1587L18.5059 19.0188ZM18.8753 19.0355L18.266 18.3585L18.3614 18.2074L18.8814 18.7853L19.0586 18.5061L19.1482 18.6056L18.8753 19.0355ZM18.8468 17.3618L18.932 17.201L19.3871 17.6215C19.5313 17.7548 19.5675 17.8797 19.4564 18.0915C19.3444 18.3041 19.2429 18.3034 19.0984 18.1697L18.6428 17.7495L18.7279 17.5883L19.1727 17.9987C19.2352 18.0563 19.3011 18.1086 19.3589 17.9991C19.4143 17.8944 19.3544 17.8316 19.2917 17.7726L18.8468 17.3618ZM19.718 17.209C19.7336 17.1734 19.7515 17.1392 19.7552 17.1008C19.7589 17.0425 19.7164 17.0021 19.6814 16.9762C19.6062 16.92 19.5667 16.9169 19.5213 17.0223L19.4934 17.0886L19.703 17.2456L19.718 17.209ZM19.405 16.9804C19.4232 16.9392 19.4477 16.8872 19.4332 16.8408C19.4224 16.8112 19.3995 16.7916 19.3665 16.7665C19.3149 16.7278 19.2824 16.7222 19.2476 16.8003L19.2133 16.8792L19.3916 17.0129L19.405 16.9804ZM19.7312 17.4927L19.0388 16.9748L19.1569 16.6984C19.188 16.6252 19.2228 16.5554 19.2906 16.5425C19.3454 16.5313 19.3876 16.555 19.4343 16.5896C19.4949 16.6349 19.5464 16.696 19.5321 16.8084L19.5342 16.8098C19.5854 16.7204 19.6621 16.7299 19.7515 16.7969C19.7805 16.8185 19.8082 16.8422 19.8314 16.8729C19.9034 16.9748 19.9126 17.0691 19.8599 17.1912L19.7312 17.4927Z" fill="white"/>
<path d="M12.8416 20.6312C9.23992 20.6312 6.32031 16.7667 6.32031 11.9997C6.32031 7.2328 9.23992 3.36865 12.8416 3.36865C16.4433 3.36865 19.3635 7.23315 19.3635 11.9997C19.3635 16.7667 16.4436 20.6312 12.8416 20.6312Z" fill="#570514"/>
<path d="M15.2086 19.5611C12.0514 21.2913 8.43254 19.3078 7.12475 15.1292C5.81748 10.9517 7.31643 6.16135 10.4731 4.4308C13.6297 2.70096 17.2494 4.68416 18.5561 8.86203C19.8639 13.0406 18.3652 17.8306 15.2086 19.5611Z" fill="white"/>
<path d="M7.52635 8.51821C7.54059 8.44912 7.58224 8.38455 7.61863 8.37269C7.64447 8.36431 7.66082 8.3849 7.66372 8.42155C7.66429 8.44079 7.66286 8.46004 7.6595 8.47878C7.61731 8.67315 7.53136 9.2856 7.53136 9.2856C7.53136 9.2856 7.28509 9.62724 7.16855 9.78218C7.13822 9.82196 7.10553 9.8094 7.09577 9.75461C7.09202 9.72349 7.0935 9.69165 7.10011 9.66137C7.10672 9.63109 7.1183 9.60311 7.13401 9.57943C7.22603 9.45554 7.31964 9.32852 7.41614 9.19137C7.44251 8.9635 7.47942 8.73841 7.52635 8.51821ZM7.76101 8.66199C7.77024 8.58975 7.81348 8.51577 7.8562 8.49692C7.89047 8.48227 7.91421 8.50425 7.91948 8.54822C7.92079 8.56333 7.92044 8.57861 7.91843 8.59359C7.89074 8.80053 7.85673 9.43635 7.85673 9.43635C7.85673 9.43635 7.59148 9.845 7.46386 10.0282C7.43011 10.0764 7.38845 10.0715 7.37158 10.0163C7.35444 9.96051 7.36736 9.87675 7.40111 9.8279C7.49998 9.68342 7.6015 9.52778 7.70564 9.36621C7.71171 9.12996 7.7299 8.89615 7.76101 8.66199ZM8.09271 8.77226C8.09558 8.73375 8.10577 8.69682 8.12232 8.66491C8.13887 8.633 8.16125 8.60715 8.18737 8.58975C8.23061 8.56672 8.26436 8.58835 8.27174 8.64C8.27338 8.65032 8.27409 8.66087 8.27385 8.67141C8.2662 8.8773 8.29521 9.5201 8.29521 9.5201C8.29521 9.5201 8.01915 9.98703 7.88388 10.2065C7.84882 10.2645 7.79819 10.2693 7.77051 10.2177C7.7444 10.1664 7.751 10.0778 7.78633 10.0195C7.89311 9.84325 7.99884 9.66807 8.10536 9.48346C8.08838 9.24709 8.08424 9.00942 8.09297 8.77226M8.50245 8.80925C8.49797 8.73667 8.53857 8.64768 8.59394 8.61139C8.64509 8.57788 8.69097 8.59987 8.70205 8.66024L8.70495 8.67769C8.71919 8.88568 8.82201 9.51941 8.82201 9.51941C8.82201 9.51941 8.54305 10.0488 8.40199 10.2969C8.36534 10.3632 8.30496 10.3772 8.26857 10.3297C8.23271 10.2826 8.23351 10.1901 8.26963 10.1245C8.37774 9.93049 8.48637 9.72565 8.59421 9.51801C8.54938 9.2828 8.51827 9.0469 8.50219 8.80925M9.00869 8.87032C9.00132 8.83786 8.99455 8.80516 8.98839 8.77226C8.97389 8.70247 9.01107 8.6072 9.07171 8.56253C9.13236 8.51472 9.19406 8.53566 9.20829 8.60615C9.21489 8.63895 9.22174 8.67071 9.22912 8.70177C9.26682 8.86927 9.43742 9.41786 9.43742 9.41786C9.43742 9.41786 9.16479 10.0006 9.02531 10.2847C8.98839 10.3597 8.91983 10.3869 8.87106 10.3472C8.82386 10.3067 8.8149 10.2135 8.85102 10.1374C8.96039 9.91328 9.06753 9.68725 9.17243 9.45938C9.10651 9.26396 9.0522 9.06609 9.00843 8.87032M9.83134 9.29886C9.7206 9.08599 9.62462 8.86893 9.54631 8.64768C9.52179 8.57963 9.55501 8.48227 9.61803 8.42783C9.68368 8.37443 9.75514 8.38351 9.78018 8.45086C9.85006 8.64244 10.128 9.21755 10.128 9.21755C10.128 9.21755 9.87933 9.84744 9.74354 10.1552C9.70715 10.2376 9.63016 10.277 9.57163 10.2435C9.51362 10.21 9.49517 10.1161 9.53102 10.0334C9.6357 9.7937 9.73563 9.54593 9.8316 9.29886M10.5564 9.03748C10.4163 8.85039 10.2859 8.6509 10.1662 8.44039C10.1317 8.37862 10.1557 8.27777 10.221 8.21635C10.287 8.15423 10.3692 8.15354 10.4046 8.21565C10.5047 8.38944 10.8739 8.91394 10.8739 8.91394C10.8739 8.91394 10.6635 9.57105 10.544 9.90258C10.5108 9.99226 10.4296 10.045 10.3608 10.0212C10.2922 9.99785 10.2627 9.90711 10.2936 9.81882C10.3877 9.55465 10.4755 9.29572 10.5564 9.03748ZM11.1151 9.48207C11.1916 9.21022 11.2602 8.94326 11.3192 8.67943C11.1488 8.51543 10.9854 8.33893 10.8299 8.15075C10.7845 8.09456 10.799 7.99441 10.8631 7.92636C10.9264 7.85796 11.0168 7.84749 11.0624 7.90333C11.1921 8.05687 11.643 8.43585 11.643 8.43585C11.643 8.43585 11.4911 9.19103 11.3936 9.53302C11.3672 9.62584 11.2836 9.68866 11.2066 9.6754C11.1307 9.66144 11.089 9.57489 11.1151 9.48207ZM12.0717 9.22313C11.9908 9.21755 11.9396 9.13763 11.9584 9.04376C12.0104 8.78002 12.0533 8.51324 12.0868 8.24427C11.8898 8.10419 11.6977 7.95235 11.5112 7.78921C11.4566 7.74036 11.46 7.64334 11.5207 7.57285C11.581 7.50166 11.6736 7.48212 11.7284 7.53062C11.8851 7.66603 12.4013 7.99615 12.4013 7.99615C12.4013 7.99615 12.3225 8.72201 12.2542 9.06365C12.2347 9.15718 12.154 9.22767 12.0717 9.22313ZM12.7826 8.53112C12.8056 8.27251 12.8191 8.01257 12.8232 7.75222C12.6071 7.63613 12.3937 7.51184 12.183 7.37952C12.1202 7.33904 12.111 7.24691 12.163 7.17398C12.2144 7.10104 12.3082 7.07417 12.3715 7.11361C12.5455 7.22144 13.1122 7.50341 13.1122 7.50341C13.1122 7.50341 13.1095 8.17831 13.0824 8.51472C13.0745 8.60615 13.0012 8.68362 12.9189 8.68816C12.8364 8.69339 12.7749 8.62255 12.7826 8.53112ZM13.5433 7.95427C13.5383 7.70267 13.5182 7.45769 13.4892 7.22353C13.2606 7.13277 13.0338 7.03432 12.8089 6.9283C12.7396 6.8962 12.7193 6.81105 12.7628 6.73846C12.8061 6.66727 12.8954 6.63517 12.9637 6.66727C13.1525 6.75626 13.746 6.98658 13.746 6.98658C13.746 6.98658 13.8243 7.60251 13.832 7.91833C13.833 8.00522 13.7708 8.08304 13.6909 8.09282C13.611 8.10363 13.5448 8.04117 13.5433 7.95427ZM14.2064 7.35684C14.1704 7.12878 14.1225 6.90432 14.063 6.68507C13.8286 6.61388 13.5968 6.54025 13.3703 6.46347C13.2988 6.43835 13.2648 6.36227 13.2978 6.29248C13.3286 6.22373 13.412 6.18674 13.4824 6.21187C13.6759 6.27677 14.2794 6.46382 14.2794 6.46382C14.2794 6.46382 14.4245 7.00647 14.4727 7.29926C14.4862 7.37952 14.4376 7.45734 14.3646 7.47374C14.2908 7.4891 14.2196 7.4378 14.2064 7.35684ZM14.7474 6.75347C14.6856 6.54481 14.6113 6.34294 14.5254 6.14975C14.2992 6.10229 14.0719 6.05029 13.8436 5.99446C13.7708 5.97701 13.7286 5.90896 13.7489 5.843C13.7695 5.77845 13.8431 5.73971 13.914 5.75855C14.1091 5.80706 14.6997 5.94386 14.6997 5.94386C14.6997 5.94386 14.811 6.19023 14.8608 6.32074C14.9062 6.43835 14.9478 6.56049 14.985 6.68612C15.0074 6.75766 14.9718 6.83234 14.9067 6.85083C14.8413 6.86968 14.7696 6.82745 14.7474 6.75347ZM15.1638 6.17208C15.0773 5.98567 14.9812 5.80728 14.8764 5.63816C14.6588 5.60713 14.4415 5.57398 14.2243 5.5387C14.1542 5.52649 14.1033 5.46891 14.112 5.40819C14.1199 5.34886 14.1832 5.31047 14.2523 5.32094C14.4397 5.35235 15.0032 5.44134 15.0032 5.44134C15.0032 5.44134 15.2574 5.8601 15.3671 6.09461C15.3689 6.0974 15.3697 6.09985 15.3708 6.10334C15.395 6.16475 15.3734 6.22827 15.3207 6.24921C15.2917 6.2593 15.2611 6.25731 15.2331 6.2435C15.2051 6.2297 15.1809 6.20475 15.164 6.17208M15.452 5.61757C15.3497 5.45355 15.2358 5.29896 15.1166 5.15483C14.9188 5.14088 14.7153 5.12343 14.5054 5.10354C14.439 5.09726 14.3828 5.047 14.3815 4.99186C14.3788 4.93743 14.4316 4.89869 14.4975 4.90637C14.6768 4.92382 15.2015 4.97267 15.2015 4.97267C15.2015 4.97267 15.4942 5.33455 15.6228 5.53905C15.6267 5.54485 15.6302 5.55117 15.6331 5.5579C15.6555 5.6085 15.6437 5.66119 15.6025 5.68038C15.5545 5.70132 15.4881 5.6748 15.4522 5.61757M15.6294 5.10598C15.5081 4.96116 15.3858 4.83029 15.2566 4.7085C15.0762 4.70606 14.8885 4.70187 14.6976 4.69664C14.6343 4.69559 14.5742 4.65371 14.5626 4.60416C14.5518 4.55565 14.5927 4.51866 14.6549 4.52006C14.8186 4.52529 15.3012 4.53925 15.3012 4.53925C15.3012 4.53925 15.6189 4.84635 15.7663 5.02362C15.7734 5.0323 15.7798 5.04202 15.7852 5.05259C15.8053 5.09237 15.8019 5.1332 15.7715 5.15239C15.7333 5.17542 15.6698 5.15449 15.6292 5.10563M18.1612 15.4739C18.1467 15.5426 18.1053 15.6075 18.0686 15.6198C18.043 15.6274 18.0267 15.6072 18.0238 15.5706C18.0233 15.5513 18.0248 15.532 18.0283 15.5133C18.0699 15.3196 18.1561 14.7058 18.1561 14.7058C18.1561 14.7058 18.4024 14.3645 18.519 14.2103C18.5488 14.1691 18.582 14.1823 18.5917 14.2382C18.5955 14.2691 18.5941 14.3007 18.5875 14.3308C18.5808 14.3609 18.5692 14.3886 18.5535 14.412C18.4612 14.5366 18.3679 14.6636 18.2709 14.8007C18.2445 15.0276 18.2076 15.2537 18.1612 15.4739ZM17.9265 15.3301C17.9173 15.4017 17.874 15.4763 17.8308 15.4945C17.797 15.5095 17.773 15.4878 17.7675 15.4442C17.7665 15.4287 17.767 15.4131 17.7691 15.3978C17.7962 15.1912 17.8303 14.5554 17.8303 14.5554C17.8303 14.5554 18.096 14.1468 18.2234 13.9635C18.2577 13.9147 18.2988 13.9206 18.3157 13.9758C18.3325 14.0312 18.3202 14.1153 18.2859 14.1642C18.1875 14.3083 18.0858 14.4643 17.9819 14.6255C17.9759 14.8618 17.9574 15.0973 17.9265 15.3301ZM17.5948 15.2198C17.5919 15.2583 17.5817 15.2952 17.5651 15.3271C17.5486 15.359 17.5262 15.3849 17.5001 15.4023C17.4569 15.4254 17.4232 15.4037 17.4158 15.3517C17.4137 15.342 17.4134 15.3315 17.4137 15.32C17.4216 15.1141 17.3923 14.4713 17.3923 14.4713C17.3923 14.4713 17.6684 14.0047 17.8036 13.7856C17.839 13.7273 17.8891 13.7228 17.917 13.7744C17.9428 13.8254 17.9365 13.914 17.9012 13.9719C17.793 14.1491 17.6865 14.328 17.5816 14.5086C17.5993 14.7466 17.603 14.9867 17.5948 15.2198ZM17.1851 15.1825C17.1893 15.2558 17.1489 15.3441 17.0933 15.3807C17.0424 15.4142 16.9963 15.3915 16.9852 15.3326L16.9826 15.3144C16.9681 15.1061 16.865 14.4723 16.865 14.4723C16.865 14.4723 17.1445 13.9426 17.285 13.6945C17.3219 13.6282 17.3826 13.6142 17.4184 13.6624C17.4548 13.7095 17.4537 13.8013 17.4174 13.8676C17.3098 14.0616 17.2011 14.2658 17.093 14.4737C17.1379 14.7089 17.1692 14.9448 17.1853 15.1821M16.6788 15.1214C16.6862 15.1542 16.6928 15.1867 16.6991 15.2198C16.7131 15.2896 16.6764 15.3849 16.6158 15.4296C16.5549 15.4763 16.4935 15.4561 16.4792 15.3852C16.4724 15.3538 16.4658 15.3214 16.4584 15.2896C16.4204 15.1228 16.2501 14.5735 16.2501 14.5735C16.2501 14.5735 16.5225 13.9915 16.6622 13.7074C16.6991 13.6327 16.7674 13.6048 16.8164 13.6449C16.8634 13.6851 16.8723 13.7786 16.836 13.8543C16.7263 14.0811 16.6198 14.3034 16.5148 14.5324C16.5807 14.7271 16.6353 14.9257 16.6791 15.1214M15.8556 14.6932C15.9669 14.9061 16.0629 15.1228 16.1409 15.3444C16.1652 15.4118 16.1322 15.5095 16.069 15.5643C16.0036 15.618 15.9318 15.6075 15.9073 15.5409C15.8372 15.3493 15.5601 14.7742 15.5601 14.7742C15.5601 14.7742 15.8079 14.1447 15.944 13.8365C15.9804 13.7542 16.0571 13.7144 16.1159 13.7486C16.1739 13.7817 16.1923 13.876 16.1565 13.958C16.0521 14.2 15.9516 14.4451 15.8556 14.6932ZM15.1316 14.9539C15.2712 15.1416 15.4014 15.3412 15.5213 15.5514C15.5556 15.6135 15.5319 15.7133 15.4662 15.7754C15.4003 15.8382 15.3186 15.8389 15.283 15.7764C15.1828 15.6023 14.8136 15.0782 14.8136 15.0782C14.8136 15.0782 15.0238 14.4217 15.1435 14.0885C15.1762 13.9995 15.2579 13.9464 15.3267 13.9698C15.3953 13.9936 15.4243 14.085 15.3934 14.1729C15.2996 14.4371 15.2123 14.6964 15.1316 14.9539ZM14.5721 14.5093C14.4956 14.7819 14.4274 15.0488 14.3678 15.3123C14.5455 15.4826 14.7105 15.663 14.8577 15.8414C14.9025 15.8972 14.8888 15.9966 14.8244 16.0647C14.7612 16.1338 14.671 16.1443 14.6246 16.0884C14.4951 15.9349 14.0445 15.5566 14.0445 15.5566C14.0445 15.5566 14.1958 14.8011 14.2937 14.4587C14.32 14.3656 14.4034 14.3027 14.4809 14.3167C14.5563 14.3314 14.5982 14.4169 14.5721 14.5093ZM13.6152 14.7697C13.6967 14.7742 13.7479 14.8545 13.7286 14.9476C13.6767 15.2116 13.634 15.4787 13.6005 15.7478C13.8046 15.8951 13.9955 16.0413 14.1761 16.2025C14.2309 16.251 14.2275 16.3481 14.1666 16.4192C14.1065 16.4901 14.0137 16.5089 13.9588 16.4611C13.8022 16.3257 13.2862 15.9963 13.2862 15.9963C13.2862 15.9963 13.3645 15.2701 13.4333 14.9281C13.4528 14.8349 13.5335 14.7644 13.6152 14.7697ZM12.9047 15.4606C12.8815 15.7192 12.8681 15.9792 12.8643 16.2395C13.0882 16.3589 13.3036 16.4873 13.5045 16.6129C13.567 16.6527 13.576 16.7438 13.5245 16.8181C13.4731 16.8907 13.3793 16.9179 13.3155 16.8785C13.142 16.77 12.5751 16.4887 12.5751 16.4887C12.5751 16.4887 12.578 15.8138 12.6057 15.4767C12.6133 15.3863 12.6858 15.3085 12.7683 15.3043C12.8517 15.2984 12.9126 15.3688 12.9047 15.4606ZM12.1442 16.0378C12.1495 16.2891 12.1688 16.5344 12.198 16.7672C12.4306 16.8607 12.6576 16.9591 12.8783 17.0631C12.9474 17.0956 12.9682 17.1817 12.925 17.2526C12.8815 17.3252 12.7921 17.3573 12.7238 17.3252C12.535 17.2358 11.9417 17.0055 11.9417 17.0055C11.9417 17.0055 11.8632 16.3896 11.8553 16.0731C11.8542 15.9865 11.9167 15.9087 11.9963 15.8979C12.0762 15.8885 12.1429 15.9502 12.1442 16.0378ZM11.4806 16.6349C11.5191 16.8729 11.566 17.0949 11.6246 17.307C11.8584 17.3786 12.0905 17.4519 12.3172 17.5283C12.3887 17.5534 12.4227 17.6295 12.3897 17.6993C12.3586 17.7684 12.2761 17.8047 12.2049 17.7802C12.0111 17.715 11.4076 17.5283 11.4076 17.5283C11.4076 17.5283 11.2631 16.986 11.2148 16.6928C11.2008 16.6126 11.2496 16.5348 11.3229 16.5187C11.3967 16.5027 11.4679 16.554 11.4806 16.6349ZM10.9395 17.2386C11.0017 17.4469 11.076 17.6485 11.1615 17.8417C11.388 17.8898 11.6156 17.9415 11.8439 17.9976C11.9164 18.0151 11.9584 18.0828 11.9386 18.1491C11.918 18.213 11.8445 18.252 11.7733 18.2332C11.5116 18.1706 11.2499 18.1087 10.9881 18.0475C10.9881 18.0475 10.8765 17.8019 10.8267 17.671C10.7813 17.5534 10.7397 17.4313 10.702 17.306C10.6801 17.2341 10.7154 17.1594 10.7805 17.1406C10.8465 17.1224 10.9177 17.165 10.9395 17.2386ZM10.5237 17.8197C10.6131 18.0113 10.7075 18.1868 10.8111 18.3539C11.0286 18.3846 11.2459 18.4176 11.4629 18.453C11.5331 18.4646 11.5839 18.5228 11.5755 18.5832C11.5676 18.6436 11.5043 18.6823 11.435 18.6715C11.2478 18.6397 10.6838 18.5508 10.6838 18.5508C10.6838 18.5508 10.4299 18.132 10.3199 17.8971C10.3183 17.8946 10.3172 17.8916 10.3168 17.8884C10.2925 17.8273 10.3136 17.7635 10.3663 17.7422C10.3954 17.7322 10.4261 17.7343 10.4542 17.7481C10.4824 17.762 10.5067 17.787 10.5237 17.8197ZM10.2355 18.3742C10.3378 18.5382 10.4518 18.6931 10.5704 18.8369C10.7684 18.8512 10.972 18.8683 11.1821 18.8882C11.2488 18.8945 11.3047 18.9444 11.3066 18.9999C11.3084 19.0547 11.2557 19.0931 11.1905 19.0857C11.0105 19.0676 10.4858 19.0191 10.4858 19.0191C10.4858 19.0191 10.1931 18.6568 10.0647 18.4527C10.0607 18.4469 10.0572 18.4406 10.0541 18.4339C10.0317 18.384 10.0436 18.3309 10.085 18.311C10.133 18.2904 10.1994 18.318 10.2353 18.3742M10.0581 18.8865C10.1794 19.0309 10.3017 19.1622 10.4307 19.2825C10.6107 19.2853 10.799 19.2895 10.9896 19.2955C11.0529 19.2965 11.113 19.3384 11.1246 19.3879C11.1354 19.4361 11.0948 19.4734 11.0331 19.4717C10.8689 19.4661 10.3864 19.4525 10.3864 19.4525C10.3864 19.4525 10.0686 19.1454 9.92125 18.9681C9.91433 18.9595 9.9079 18.9501 9.902 18.9402C9.88196 18.8994 9.88618 18.8586 9.91598 18.8397C9.95395 18.817 10.0178 18.8373 10.0584 18.8865" fill="#7D0521"/>
<path d="M22.5409 7.92289L22.5246 7.92463L21.7362 9.08217L21.6012 8.03631L19.6308 8.2764L19.5248 8.56674C19.3613 8.43587 19.1615 8.36713 18.9429 8.36713C18.8994 8.36713 18.8551 8.37062 18.8116 8.37515L17.571 8.52591C17.1713 8.57477 16.7202 8.84696 16.356 9.25596C16.1525 8.91536 15.8015 8.74088 15.4055 8.78938L14.1647 8.93979L7.25604 9.77976L8.02463 8.65259L4.56292 9.07414L4.36201 9.62272L2.37869 9.86351L1.49197 12.2763L1.9033 12.2267L0.453125 16.16L2.70063 15.8878L3.15625 14.6517L3.70521 16.7965L5.81588 16.54L5.56039 15.5402L6.34084 15.4456L7.31721 12.7977L7.22176 15.3378L9.0271 15.1187L9.04634 15.1162L9.32953 14.5627L9.31028 15.0834L11.1148 14.8643L11.1341 14.8622L11.5694 14.0114C11.5826 14.047 11.5968 14.0812 11.6124 14.1143C11.8078 14.5279 12.1669 14.7355 12.6162 14.6814L13.848 14.5327C14.252 14.4832 14.7063 14.2099 15.0707 13.7989C15.2523 14.108 15.5395 14.2769 15.8864 14.2769C15.9302 14.2769 15.9758 14.2741 16.0222 14.2682L17.2541 14.1189C17.4996 14.0888 17.7577 13.9821 18.0069 13.8097L17.923 14.0379L20.1703 13.7647L20.2942 13.43L20.4273 14.464L20.97 13.6683L22.9712 13.4241L25.1154 7.60986L22.5409 7.92289Z" fill="#570514"/>
<path d="M4.16423 10.9418L4.42579 10.9097L3.87894 11.7117L4.16423 10.9418ZM4.93704 14.2072L4.62064 12.9704L6.30364 10.5014L4.93704 14.2072ZM14.5631 10.7101L13.9013 12.5056L13.4583 12.5597L14.1201 10.7639L14.5631 10.7101ZM17.9691 10.2966L17.3068 12.0927L16.8644 12.1461L17.5259 10.3503L17.9691 10.2966ZM22.6804 8.19161L22.6645 8.19405L21.55 9.82863L21.3596 8.35179L19.8211 8.53918L19.6036 9.13383C19.5934 9.1035 19.5815 9.07423 19.568 9.04624C19.448 8.79149 19.2271 8.6512 18.9465 8.6512C18.9117 8.6512 18.8746 8.65365 18.8379 8.65818L17.5974 8.80894C17.1222 8.86617 16.587 9.28528 16.2534 9.84573C16.2479 9.70896 16.2164 9.57624 16.1619 9.45977C16.042 9.20502 15.821 9.06543 15.5397 9.06543C15.5049 9.06543 15.4685 9.06788 15.4318 9.07171L14.191 9.22317C13.9511 9.25213 13.6832 9.37951 13.4332 9.58051L13.5783 9.29715L11.9617 9.49397L11.1725 11.0364L11.2274 9.58226L9.87345 9.74767L9.08455 11.2891L9.13913 9.83631L6.54094 10.1532L7.30927 9.02635L4.75327 9.33763L4.55155 9.88551L2.56798 10.1263L1.97894 11.7305L2.39158 11.681L0.941406 15.6139L2.51076 15.4233L3.20473 13.5406L3.90663 16.2849L5.42167 16.1003L5.16564 15.1005L6.15071 14.9815L7.40498 11.5808L7.65125 11.5501L7.52891 14.813L8.88232 14.6486L9.67068 13.1079L9.61689 14.5586L10.97 14.3946L12.088 12.2097L11.8802 12.7739C11.736 13.1655 11.7284 13.5333 11.8591 13.81C11.9794 14.0644 12.2001 14.2051 12.4798 14.2051C12.5154 14.2051 12.5521 14.2023 12.5892 14.1981L13.8214 14.0484C14.3031 13.9901 14.8423 13.5689 15.174 13.005C15.18 13.1491 15.2109 13.2806 15.2655 13.3965C15.4007 13.6827 15.6631 13.8247 15.9956 13.7846L17.2272 13.6349C17.8204 13.5626 18.4957 12.9348 18.7644 12.2051L19.5382 10.1064L19.6648 10.0911L18.411 13.4911L19.9804 13.3012L20.4286 12.0875L20.6129 13.5155L21.6244 12.0324L21.212 13.1515L22.7813 12.9606L24.6268 7.95605L22.6804 8.19161Z" fill="#EB008A"/>
<path d="M6.83407 9.34158L4.88055 9.57957L4.4898 10.6443L4.9027 10.5947L3.26953 12.9901L4.04234 16.0104L5.1603 15.8743L4.40146 12.9098L6.83407 9.34158ZM22.7586 8.43984L21.4273 10.393L21.2001 8.62863L19.9487 8.78078L19.5598 9.84619L19.9911 9.7921L18.7371 13.1942L19.8551 13.0581L20.5201 11.2599L20.7378 12.9506L22.4029 10.5089L21.5381 12.854L22.656 12.7179L24.3026 8.25244L22.7586 8.43984Z" fill="white"/>
<path d="M6.55244 10.4086L4.90583 14.8744L6.02352 14.7386L7.6704 10.2725L6.55244 10.4086ZM2.69365 10.3688L2.30263 11.4332L2.7158 11.3839L1.26562 15.3161L2.38331 15.1811L4.22636 10.1824L2.69365 10.3688ZM14.0267 12.7477L13.1323 12.8563L13.9929 10.5213L14.887 10.4131L14.0267 12.7477ZM15.4489 9.32712L14.2081 9.47752C13.7132 9.53789 13.1392 10.0558 12.875 10.657L12.0534 12.8863C11.815 13.5329 12.0468 14.0065 12.5704 13.9423L13.8025 13.7925C14.327 13.7287 14.945 13.1532 15.1834 12.5062L15.9659 10.3831C16.2046 9.73576 15.9731 9.2636 15.4489 9.32712ZM17.4325 12.3338L16.5378 12.4427L17.399 10.1081L18.2931 9.99923L17.4325 12.3338ZM18.855 8.91289L17.6141 9.06399C17.1195 9.12402 16.545 9.64154 16.281 10.2435L15.4594 12.4734C15.2211 13.1194 15.4528 13.5915 15.9768 13.5287L17.2086 13.379C17.7325 13.3151 18.3508 12.7394 18.5892 12.0927L19.372 9.96922C19.6106 9.32223 19.3791 8.84973 18.855 8.91289ZM12.0697 9.73751L10.9438 11.9385L11.0219 9.86488L9.98172 9.99121L8.85585 12.1918L8.93364 10.1189L7.81305 10.2561L7.42176 11.3208L7.85523 11.2674L7.73289 14.5299L8.77227 14.4039L9.89735 12.2047L9.82088 14.2769L10.8605 14.1499L13.1874 9.60176L12.0697 9.73751Z" fill="white"/>
<path d="M2.71786 11.3842L3.47327 10.7837L2.50033 10.9013L2.30469 11.4338L2.71786 11.3842ZM4.90288 10.5949L5.89454 9.96777L4.68536 10.1122L4.48998 10.6444L4.90288 10.5949Z" fill="#D1D1D1"/>
<path d="M6.83143 9.34158L5.89172 9.96763L3.83984 12.9778L4.59921 15.943L4.0397 16.0104L5.15766 15.8743L4.39882 12.9098L6.83143 9.34158ZM20.379 10.1899L19.4896 12.5943L18.7345 13.1942L19.8524 13.0581L20.5174 11.2599L20.379 10.1899ZM20.9475 11.0934L21.4247 10.393L21.1974 8.62863L20.692 9.1151L20.9475 11.0934ZM23.5446 8.85302L22.2908 12.2541L21.5357 12.8543L22.6531 12.7182L24.3 8.25244L23.5446 8.85302ZM23.0038 8.87151L21.0711 11.7045L20.7352 12.9506L22.4003 10.5089L23.0038 8.87151Z" fill="#D1D1D1"/>
<path d="M6.91288 10.8803L5.66045 14.2762L4.9061 14.8746L6.02379 14.7389L7.67066 10.2728L6.91288 10.8803ZM3.47121 10.7837L2.02103 14.7152L1.26562 15.3164L2.38331 15.1814L4.22636 10.1827L3.47121 10.7837ZM10.3432 13.1123L10.9438 11.9388L11.0219 9.86517L10.4431 10.4455L10.3432 13.1123ZM9.93795 11.1005L8.49014 13.9307L7.73289 14.5302L8.77227 14.4042L9.89735 12.205L9.93795 11.1005ZM12.3505 10.2131L10.5781 13.6777L9.82061 14.2769L10.8605 14.1502L13.1874 9.60205L12.3505 10.2131ZM7.85523 11.2677L8.35567 10.6989L7.61767 10.7878L7.42176 11.3211L7.85523 11.2677ZM19.9893 9.79224L20.6927 9.11523L19.7791 9.22656L19.5558 9.84633L19.9893 9.79224Z" fill="#D1D1D1"/>
<path d="M8.25781 13.366L8.85898 12.1921L8.9365 10.1192L8.35853 10.6988L8.25781 13.366ZM14.1917 9.99006L13.4365 10.5892L12.379 13.4588L13.1352 12.8572L13.9958 10.5215L14.8899 10.4134L15.645 9.81348L14.1917 9.99006Z" fill="#D1D1D1"/>
<path d="M15.9757 9.55073L15.6451 9.81315L14.5867 12.6838L13.8361 13.2819L12.379 13.4585L12.0508 13.7202C12.1504 13.8853 12.3303 13.9718 12.5734 13.9422L13.8055 13.7925C13.8311 13.7897 13.8574 13.7841 13.8835 13.7785C14.3895 13.671 14.9593 13.1214 15.1861 12.5062L15.9689 10.383C16.0965 10.0368 16.0894 9.74162 15.9757 9.55073ZM17.5981 9.5762L16.843 10.1754L15.7854 13.045L16.5408 12.4426L17.4019 10.108L18.296 9.99916L19.0514 9.39893L17.5981 9.5762Z" fill="#D1D1D1"/>
<path d="M19.3817 9.13721L19.0511 9.39963L17.9925 12.2703L17.2421 12.8684L15.785 13.045L15.457 13.3067C15.5564 13.4718 15.7365 13.5576 15.9794 13.5287L17.2112 13.3789C17.2371 13.3761 17.2632 13.3702 17.2893 13.365C17.795 13.2578 18.365 12.7079 18.5918 12.0926L19.3746 9.96915C19.5025 9.62332 19.4951 9.3274 19.3817 9.13721Z" fill="#D1D1D1"/>
</g>
<defs>
<clipPath id="clip0_328_3329">
<rect width="24.6621" height="24" fill="white" transform="translate(0.453125)"/>
</clipPath>
</defs>
</svg>
