<svg width="40" height="40" viewBox="0 0 40 40" fill="none" xmlns="http://www.w3.org/2000/svg">
<g clip-path="url(#clip0_328_2936)">
<path d="M36.1195 23.1462L40 16.0107H33.6139C34.1533 13.946 34.9132 12.0005 35.935 10.308C30.2658 10.1092 24.2251 8.60526 20.0001 3.91675C15.7749 8.60526 9.73443 10.1092 4.06504 10.308C5.08681 12.0005 5.84669 13.946 6.38632 16.0107H0L3.88069 23.1462L1.2722 28.7718H7.25479C7.11316 30.1923 6.89863 31.5413 6.62309 32.7713C6.62309 32.7713 14.3724 34.3602 20.0001 39.9999C25.6276 34.3602 33.3771 32.7713 33.3771 32.7713C33.1016 31.541 32.8868 30.1921 32.745 28.7718H38.7278L36.1195 23.1462Z" fill="#E2E3E4"/>
<path d="M34.5946 23.1463L37.1442 17.7015H31.0022C31.3462 15.6032 31.8878 13.6513 32.6724 12.0751C28.7071 12.0284 22.643 10.1145 20 6.94116C17.3569 10.1145 11.293 12.0284 7.32754 12.0751C8.11187 13.6513 8.65348 15.6032 8.99752 17.7015H2.85547L5.40537 23.1463L3.17969 27.7312H9.32592C9.20192 29.2033 9.00765 30.5632 8.75987 31.7188C8.75987 31.7188 14.3215 33.1063 20 38.5995C25.6784 33.1063 31.2401 31.7188 31.2401 31.7188C30.992 30.5632 30.7978 29.2033 30.674 27.7312H36.82L34.5946 23.1463Z" fill="#1B1B1B"/>
<path d="M20.0013 32.0083C17.8464 32.0098 15.9889 33.412 15.1328 35.4344L20.0013 39.0396L24.8699 35.4344C24.0135 33.412 22.1561 32.0098 20.0013 32.0083Z" fill="#E2E3E4"/>
<path d="M11.7226 26.2671L9.31301 23.2122L11.3819 20.6877H9.88348L8.24323 22.6554V18.9468H6.28516C6.65519 19.2917 6.96949 19.7491 6.96949 20.3656V26.2671H8.24323V23.9056L10.1348 26.2671H11.7226ZM28.2259 20.6877V26.2671H26.9524V22.1068C26.9524 21.4905 26.6379 21.0334 26.2676 20.6877H28.2259ZM33.5742 25.0911L34.1836 26.2671H29.1746L31.7489 21.8635H29.3451V20.6877H34.0744L31.2827 25.0911H33.5742ZM14.1313 24.6576V21.8635H15.0258L15.6357 20.6877H14.1313V18.9468L12.858 19.7518V20.6879H11.9197V21.8637H12.858V24.7344C12.858 24.9357 12.8939 25.1351 12.9636 25.321C13.0333 25.507 13.1355 25.676 13.2644 25.8183C13.3932 25.9607 13.5462 26.0736 13.7146 26.1507C13.8829 26.2277 14.0634 26.2673 14.2456 26.2673H15.2555V25.0913H14.5238C14.4197 25.0913 14.3199 25.0455 14.2463 24.9642C14.1727 24.8828 14.1313 24.7726 14.1313 24.6576ZM24.3279 20.6877L23.0642 23.6265L21.5958 20.5412L20.1265 23.627L18.8633 20.6877H16.8817C17.3316 20.967 17.8431 21.4375 18.1508 22.1274C18.4585 22.8174 20.0648 26.4009 20.0648 26.4009L21.5956 23.1711L23.1261 26.4009L25.6963 20.6877H24.3279Z" fill="white"/>
<path d="M28.8866 14.4757C27.41 13.6604 26.7765 12.8841 26.7765 12.8841C24.9953 1.21369 12.3088 -1.63927 6.64229 0.809598C10.245 1.83211 13.4585 3.30128 15.6402 5.93942C12.6216 5.09596 8.47261 4.90693 6.04297 5.73652C9.08294 6.17394 13.6555 8.45202 16.4335 12.7832C18.5868 16.1404 19.7825 17.5729 22.1606 19.0321C23.6731 18.3896 24.9678 16.8051 25.3911 15.6492C26.6292 15.7096 28.147 15.1311 28.8866 14.4757Z" fill="#E2E3E4"/>
<path d="M28.0882 14.5087C22.2278 13.1993 21.8552 6.3894 12.2344 6.3894C17.6227 9.65861 17.682 15.3178 22.2375 18.2046C22.2375 18.2046 22.7538 17.6064 23.2496 16.296L24.0993 16.5184C24.2562 15.3572 24.0626 14.19 24.0626 14.19C24.6511 14.4512 26.4081 15.1069 28.0882 14.5087Z" fill="#ED1B23"/>
<path d="M17.3098 6.44329C20.97 7.70275 23.7803 9.82441 25.4753 11.6748C24.0972 4.064 15.5281 -0.673406 8.23438 0.769006C8.23438 0.769006 13.9165 1.66331 17.3098 6.44329Z" fill="#1B1B1B"/>
<path d="M21.1976 14.3469C21.0824 13.3621 20.4505 12.2413 19.5508 11.4263C20.5208 11.8034 21.3604 11.6219 21.7395 10.9519C21.8547 11.9369 22.4866 13.0575 23.3863 13.8725C22.4165 13.4952 21.5767 13.6774 21.1976 14.3469Z" fill="white"/>
<path d="M25.7053 27.8884C25.4352 27.8884 25.2145 28.0025 25.0729 28.2L25.0035 27.9394H24.328C24.469 28.0708 24.5883 28.2448 24.5883 28.4798V30.0628H25.0729V28.7865C25.1284 28.5885 25.3529 28.3494 25.5775 28.3494C25.8339 28.3494 25.9597 28.6055 25.9597 28.9111V30.0628H26.444V28.85C26.444 28.1774 26.0572 27.8884 25.7053 27.8884ZM17.3261 29.0848C17.3261 29.4359 17.1915 29.6616 16.9085 29.6616C16.6254 29.6616 16.4906 29.4359 16.4906 29.0848V27.9353H15.7453C15.886 28.0674 16.0059 28.2414 16.0059 28.4761V29.1765H16.0087C16.0087 29.9146 16.5805 30.1136 16.9085 30.1136C17.236 30.1136 17.8082 29.9149 17.8082 29.1765V27.9353H17.3261V29.0848ZM21.0021 27.9394L20.5215 29.0741L19.9625 27.8669L19.4035 29.0746L18.9227 27.9394H18.1685C18.3399 28.046 18.5344 28.2248 18.6516 28.4876C18.7685 28.7498 19.38 30.1462 19.38 30.1462L19.9623 28.8678L20.5449 30.1462L21.523 27.9394H21.0021ZM22.8955 27.8779C22.3021 27.8779 21.8314 28.343 21.8314 29.0009C21.8314 29.6585 22.3021 30.1239 22.8955 30.1239C23.489 30.1239 23.9593 29.6585 23.9593 29.0009C23.9593 28.343 23.489 27.8779 22.8955 27.8779ZM22.8955 29.6925C22.5902 29.6925 22.3426 29.4025 22.3426 29.0009C22.3426 28.6002 22.5902 28.3092 22.8955 28.3092C23.2007 28.3092 23.4483 28.5999 23.4483 29.0009C23.4483 29.4023 23.2007 29.6925 22.8955 29.6925ZM14.3795 29.693C14.081 29.693 13.8196 29.4621 13.8029 29.2996L13.5586 29.8555C13.7214 30.0115 14.0216 30.1149 14.3956 30.1149C14.9775 30.1149 15.3231 29.8344 15.3231 29.4483C15.3178 29.1322 15.1502 28.9352 14.6711 28.7948C14.3337 28.698 14.139 28.66 14.139 28.5243C14.139 28.3735 14.3077 28.2941 14.524 28.2941C14.7059 28.2941 14.8784 28.3418 15.0343 28.4562L15.2235 28.0825C15.109 27.9776 14.7594 27.8866 14.5293 27.8866C13.9665 27.8866 13.6216 28.1959 13.6216 28.5729C13.6163 28.823 13.7784 29.0357 14.2954 29.1809C14.6222 29.2729 14.8039 29.3167 14.8039 29.4614C14.8041 29.6191 14.629 29.693 14.3795 29.693Z" fill="#E2E3E4"/>
<path d="M22.674 35.452C22.5874 35.3663 22.5511 35.145 22.598 34.9703L22.5987 34.9686L22.5982 34.9688L22.598 34.9693C22.5277 35.0666 22.4033 35.1262 22.3196 35.1238C22.2509 35.1218 21.8084 35.1153 21.8084 35.1153C21.7731 35.1147 21.739 35.1296 21.7136 35.1567C21.6883 35.1839 21.6737 35.221 21.6731 35.26C21.6726 35.299 21.6861 35.3367 21.7107 35.3647C21.7352 35.3927 21.7689 35.4088 21.8042 35.4094C21.8042 35.4094 22.1958 35.4174 22.2577 35.4167C22.3313 35.4167 22.428 35.3705 22.4762 35.3053L22.5033 35.2301C22.485 35.2824 22.4676 35.3352 22.4502 35.3878C22.4242 35.525 22.4542 35.6011 22.5495 35.6906C22.6504 35.7877 22.8035 35.9339 22.8035 35.9339C22.8281 35.9573 22.8602 35.969 22.8926 35.9663C22.9249 35.9637 22.955 35.9469 22.9762 35.9198C22.9973 35.8927 23.0079 35.8574 23.0055 35.8216C23.0031 35.7859 22.988 35.7527 22.9634 35.7293C22.9634 35.7293 22.7211 35.4984 22.674 35.452ZM22.9837 34.6543C22.9066 34.5584 22.8929 34.3339 22.9574 34.166L22.9583 34.1643L22.9577 34.1648L22.9574 34.165C22.8777 34.2533 22.748 34.2961 22.6652 34.2833C22.5973 34.2733 22.1579 34.2112 22.1579 34.2112C22.1406 34.2088 22.123 34.2101 22.1061 34.2152C22.0892 34.2202 22.0734 34.2289 22.0596 34.2407C22.0457 34.2525 22.0342 34.2672 22.0255 34.284C22.0168 34.3007 22.0111 34.3192 22.0089 34.3384C22.0067 34.3575 22.0079 34.377 22.0125 34.3956C22.0171 34.4142 22.0249 34.4317 22.0356 34.447C22.0463 34.4623 22.0596 34.4751 22.0748 34.4847C22.0899 34.4943 22.1067 34.5005 22.124 34.5029C22.124 34.5029 22.5121 34.5596 22.5738 34.5672C22.6467 34.5762 22.7478 34.5421 22.802 34.4837L22.8368 34.4122C22.8138 34.4608 22.7918 34.5097 22.7698 34.5584C22.7271 34.6876 22.7506 34.7742 22.8356 34.8756L23.0632 35.1491C23.0851 35.1754 23.1159 35.191 23.1483 35.1925C23.1807 35.1939 23.2122 35.1811 23.2361 35.1569C23.2599 35.1326 23.274 35.0989 23.2754 35.0631C23.2767 35.0274 23.2651 34.9925 23.2431 34.9661C23.2431 34.9664 23.0257 34.7063 22.9837 34.6543ZM22.0396 37.5763C22.0029 37.6938 21.9031 37.7955 21.8238 37.8247C21.7586 37.848 21.339 38.0045 21.339 38.0045C21.3067 38.0179 21.2803 38.0447 21.2655 38.0791C21.2507 38.1136 21.2486 38.1531 21.2596 38.1892C21.2707 38.2254 21.294 38.2554 21.3246 38.2729C21.3553 38.2905 21.3909 38.2942 21.424 38.2833C21.424 38.2833 21.7958 38.1466 21.854 38.1239C21.9231 38.0964 22.0185 38.0123 22.026 37.9383L22.0399 37.5775V37.5761L22.0396 37.5763ZM23.5986 34.2426C23.5986 34.2426 23.4094 33.9575 23.3729 33.9006C23.3059 33.7955 23.3156 33.5709 23.3969 33.4121L23.3977 33.4101L23.3973 33.4106L23.3971 33.4111C23.309 33.4887 23.1755 33.5152 23.0942 33.4923C23.0277 33.4736 22.5978 33.3573 22.5978 33.3573C22.5635 33.348 22.5274 33.3541 22.4972 33.3742C22.467 33.3944 22.4453 33.4269 22.4369 33.4647C22.4284 33.5025 22.4339 33.5425 22.4522 33.5758C22.4704 33.6092 22.4999 33.6331 22.5341 33.6425C22.5341 33.6425 22.9143 33.7476 22.9744 33.7624C23.0462 33.7804 23.15 33.759 23.2099 33.7079L23.2515 33.642C23.2242 33.687 23.1975 33.7317 23.1711 33.7767C23.1178 33.8935 23.1295 33.9903 23.2033 34.1018L23.4013 34.4017C23.4105 34.4168 23.4223 34.4296 23.4361 34.4394C23.4499 34.4493 23.4653 34.456 23.4815 34.4591C23.4977 34.4622 23.5143 34.4617 23.5302 34.4576C23.5462 34.4535 23.5613 34.4458 23.5746 34.4351C23.5878 34.4244 23.599 34.4109 23.6074 34.3953C23.6159 34.3798 23.6214 34.3625 23.6236 34.3445C23.6259 34.3265 23.6248 34.3083 23.6205 34.2908C23.6162 34.2733 23.6088 34.2569 23.5986 34.2426ZM22.6471 37.3362C22.6471 37.3362 22.3634 37.171 22.3084 37.1374C22.2066 37.0756 22.126 36.8688 22.1363 36.6869L22.1366 36.6849L22.1363 36.6852V36.6854L22.1361 36.6859C22.0877 36.7983 21.978 36.8868 21.8963 36.9053C21.8291 36.9204 21.3965 37.0236 21.3965 37.0236C21.3787 37.0269 21.3618 37.0341 21.3466 37.0448C21.3314 37.0555 21.3184 37.0695 21.3083 37.086C21.2982 37.1024 21.2912 37.121 21.2877 37.1405C21.2843 37.16 21.2844 37.1801 21.2882 37.1995C21.292 37.219 21.2993 37.2374 21.3096 37.2536C21.32 37.2699 21.3333 37.2836 21.3486 37.2941C21.3639 37.3045 21.381 37.3114 21.3988 37.3143C21.4166 37.3172 21.4348 37.3162 21.4522 37.3111V37.3114C21.4522 37.3114 21.8355 37.2218 21.8956 37.2063C21.9672 37.1878 22.0522 37.1185 22.0855 37.0435L22.0969 36.9625C22.0899 37.017 22.0839 37.0715 22.0777 37.1257C22.0819 37.261 22.1249 37.3362 22.2355 37.4009L22.5326 37.5746C22.5468 37.5836 22.5625 37.5893 22.5788 37.5915C22.595 37.5937 22.6115 37.5922 22.6273 37.5872C22.643 37.5821 22.6577 37.5737 22.6704 37.5623C22.6831 37.5508 22.6937 37.5367 22.7013 37.5207C22.709 37.5047 22.7137 37.4872 22.7151 37.4692C22.7166 37.4512 22.7147 37.433 22.7096 37.4158C22.7046 37.3986 22.6964 37.3826 22.6857 37.369C22.6749 37.3553 22.6618 37.3441 22.6471 37.3362ZM22.448 36.2835C22.3531 36.2091 22.2947 35.9938 22.3233 35.814L22.3238 35.8118L22.3233 35.8125L22.3231 35.813C22.2632 35.9191 22.1454 35.9928 22.0621 36.0011C21.9938 36.0079 21.5533 36.0568 21.5533 36.0568C21.5194 36.0621 21.4886 36.0818 21.4674 36.1116C21.4463 36.1414 21.4364 36.179 21.4397 36.2167C21.4431 36.2544 21.4595 36.2892 21.4856 36.3138C21.5116 36.3385 21.5453 36.3511 21.5795 36.349C21.5795 36.349 21.9694 36.3081 22.0308 36.3003C22.1037 36.2908 22.1954 36.2327 22.2363 36.1624L22.2557 36.084C22.2432 36.1378 22.2315 36.1918 22.2196 36.2456C22.2062 36.3738 22.2454 36.4584 22.3487 36.536L22.6262 36.7457C22.6529 36.766 22.6859 36.7736 22.7177 36.767C22.7335 36.7638 22.7486 36.7571 22.762 36.7474C22.7755 36.7377 22.787 36.7252 22.7961 36.7106C22.8052 36.696 22.8116 36.6795 22.8149 36.6621C22.8182 36.6448 22.8183 36.6269 22.8154 36.6095C22.8124 36.592 22.8064 36.5754 22.7976 36.5606C22.7889 36.5457 22.7775 36.5329 22.7643 36.5229C22.7643 36.5229 22.4993 36.3236 22.448 36.2835ZM17.3271 35.452C17.4136 35.3663 17.45 35.145 17.403 34.9703L17.4024 34.9686L17.4028 34.9688L17.403 34.9693C17.4733 35.0666 17.5977 35.1262 17.6814 35.1238C17.7502 35.1218 18.1927 35.1153 18.1927 35.1153C18.228 35.1147 18.2621 35.1296 18.2874 35.1567C18.3128 35.1839 18.3273 35.221 18.3279 35.26C18.3284 35.299 18.315 35.3367 18.2904 35.3647C18.2658 35.3927 18.2322 35.4088 18.1968 35.4094C18.1968 35.4094 17.8052 35.4174 17.7433 35.4167C17.6698 35.4167 17.5731 35.3705 17.5248 35.3053L17.4978 35.2301C17.5158 35.2824 17.5334 35.3352 17.5506 35.3878C17.577 35.525 17.5469 35.6011 17.4515 35.6906C17.3506 35.7877 17.1975 35.9339 17.1975 35.9339H17.1973C17.1728 35.9573 17.1408 35.969 17.1084 35.9663C17.0761 35.9637 17.046 35.9469 17.0249 35.9198C17.0037 35.8927 16.9931 35.8574 16.9955 35.8216C16.9979 35.7859 17.0131 35.7527 17.0376 35.7293C17.0376 35.7293 17.2799 35.4984 17.3271 35.452ZM17.0174 34.6543C17.0947 34.5584 17.1081 34.3339 17.0436 34.166L17.0427 34.1643L17.0434 34.1648V34.165C17.1233 34.2533 17.253 34.2961 17.3361 34.2833C17.4039 34.2733 17.8431 34.2112 17.8431 34.2112C17.8608 34.2079 17.879 34.2085 17.8965 34.213C17.914 34.2176 17.9305 34.2261 17.945 34.2379C17.9594 34.2497 17.9716 34.2646 17.9807 34.2817C17.9898 34.2988 17.9957 34.3178 17.998 34.3375C18.0003 34.3572 17.9989 34.3772 17.9941 34.3964C17.9892 34.4155 17.9808 34.4333 17.9695 34.4488C17.9582 34.4642 17.9442 34.477 17.9283 34.4863C17.9124 34.4956 17.895 34.5013 17.877 34.5029C17.877 34.5029 17.4889 34.5596 17.427 34.5672C17.3544 34.5762 17.2533 34.5421 17.1991 34.4837L17.1643 34.4122C17.1872 34.4608 17.2092 34.5097 17.2315 34.5584C17.274 34.6876 17.2502 34.7742 17.1654 34.8756L16.9379 35.1491C16.927 35.1621 16.9139 35.1727 16.8993 35.1802C16.8847 35.1876 16.869 35.1918 16.8529 35.1926C16.8369 35.1933 16.8209 35.1905 16.8058 35.1844C16.7907 35.1783 16.7769 35.169 16.7651 35.157C16.7533 35.145 16.7437 35.1305 16.7369 35.1144C16.7302 35.0983 16.7264 35.0809 16.7257 35.0632C16.725 35.0455 16.7275 35.0278 16.7331 35.0111C16.7386 34.9945 16.747 34.9792 16.7579 34.9661C16.7579 34.9664 16.9755 34.7063 17.0174 34.6543ZM17.9614 37.5763C17.9982 37.6938 18.0979 37.7955 18.1772 37.8247C18.2424 37.848 18.662 38.0045 18.662 38.0045C18.6943 38.0179 18.7207 38.0447 18.7355 38.0791C18.7503 38.1136 18.7524 38.1531 18.7414 38.1892C18.7304 38.2254 18.7071 38.2554 18.6764 38.2729C18.6457 38.2905 18.6101 38.2942 18.577 38.2833C18.577 38.2833 18.2052 38.1466 18.1471 38.1239C18.0779 38.0964 17.9825 38.0123 17.975 37.9383L17.9612 37.5775V37.5761L17.9614 37.5763ZM16.4024 34.2426C16.4024 34.2426 16.5916 33.9575 16.628 33.9006C16.6949 33.7955 16.6854 33.5709 16.6042 33.4121L16.6033 33.4101L16.6035 33.4106L16.604 33.4111C16.6921 33.4887 16.8253 33.5152 16.9068 33.4923C17.0721 33.447 17.2376 33.402 17.403 33.3573C17.42 33.3527 17.4376 33.3518 17.4549 33.3547C17.4721 33.3576 17.4887 33.3642 17.5037 33.3741C17.5186 33.3841 17.5316 33.3972 17.542 33.4127C17.5524 33.4283 17.5599 33.4459 17.564 33.4646C17.5682 33.4833 17.5691 33.5028 17.5664 33.5219C17.5638 33.5409 17.5578 33.5592 17.5488 33.5758C17.5398 33.5923 17.5279 33.6067 17.5139 33.6181C17.4998 33.6295 17.4839 33.6378 17.4669 33.6425C17.4669 33.6425 17.0868 33.7476 17.0264 33.7624C16.9546 33.7804 16.8511 33.759 16.7912 33.7079L16.7495 33.642C16.7769 33.687 16.8031 33.7317 16.8299 33.7767C16.883 33.8935 16.8713 33.9903 16.7978 34.1018L16.5995 34.4017C16.5901 34.416 16.5782 34.4281 16.5645 34.4373C16.5508 34.4465 16.5356 34.4527 16.5197 34.4554C16.5039 34.4581 16.4877 34.4574 16.4722 34.4532C16.4566 34.449 16.4419 34.4415 16.429 34.431C16.416 34.4206 16.4051 34.4074 16.3967 34.3923C16.3884 34.3772 16.3828 34.3604 16.3804 34.3429C16.3779 34.3254 16.3786 34.3075 16.3824 34.2903C16.3861 34.2731 16.393 34.2569 16.4024 34.2426ZM17.3539 37.3362C17.3539 37.3362 17.6376 37.171 17.6927 37.1374C17.7947 37.0756 17.875 36.8688 17.8647 36.6869L17.8645 36.6849L17.8647 36.6852V36.6854L17.8651 36.6859C17.9134 36.7983 18.0231 36.8868 18.105 36.9053C18.172 36.9204 18.6045 37.0236 18.6045 37.0236C18.6223 37.0269 18.6393 37.0341 18.6544 37.0448C18.6696 37.0555 18.6826 37.0695 18.6927 37.086C18.7029 37.1024 18.7099 37.121 18.7133 37.1405C18.7168 37.16 18.7166 37.1801 18.7128 37.1995C18.7091 37.219 18.7018 37.2374 18.6914 37.2536C18.681 37.2699 18.6677 37.2836 18.6524 37.2941C18.6371 37.3045 18.62 37.3114 18.6022 37.3143C18.5844 37.3172 18.5662 37.3162 18.5488 37.3111V37.3114C18.5488 37.3114 18.1656 37.2218 18.1054 37.2063C18.0339 37.1878 17.9488 37.1185 17.9158 37.0435L17.9041 36.9625C17.911 37.017 17.9171 37.0715 17.9231 37.1257C17.9191 37.261 17.8764 37.3362 17.7656 37.4009C17.6475 37.4702 17.4685 37.5746 17.4685 37.5746C17.4542 37.5836 17.4385 37.5893 17.4223 37.5915C17.406 37.5937 17.3895 37.5922 17.3737 37.5872C17.358 37.5821 17.3433 37.5737 17.3306 37.5623C17.3179 37.5508 17.3074 37.5367 17.2997 37.5207C17.292 37.5047 17.2873 37.4872 17.2859 37.4692C17.2845 37.4512 17.2864 37.433 17.2914 37.4158C17.2965 37.3986 17.3046 37.3826 17.3153 37.369C17.3261 37.3553 17.3392 37.3441 17.3539 37.3362ZM17.5533 36.2835C17.648 36.2091 17.7066 35.9938 17.6779 35.814L17.6775 35.8118L17.6779 35.8125L17.6781 35.813C17.7378 35.9191 17.8557 35.9928 17.9391 36.0011C18.0074 36.0079 18.4479 36.0568 18.4479 36.0568C18.4819 36.0621 18.5126 36.0818 18.5338 36.1116C18.555 36.1414 18.5649 36.179 18.5615 36.2167C18.5581 36.2544 18.5417 36.2892 18.5157 36.3138C18.4896 36.3385 18.456 36.3511 18.4217 36.349C18.4217 36.349 18.0316 36.3081 17.9704 36.3003C17.8975 36.2908 17.8059 36.2327 17.7649 36.1624L17.7453 36.084C17.7579 36.1378 17.7695 36.1918 17.7814 36.2456C17.7949 36.3738 17.7557 36.4584 17.6526 36.536L17.3748 36.7457C17.3616 36.7557 17.3467 36.7628 17.331 36.7664C17.3153 36.77 17.2991 36.7702 17.2833 36.767C17.2676 36.7637 17.2525 36.757 17.2391 36.7473C17.2257 36.7376 17.2141 36.7251 17.205 36.7105C17.196 36.6958 17.1896 36.6794 17.1863 36.662C17.183 36.6447 17.1829 36.6268 17.1858 36.6094C17.1888 36.592 17.1948 36.5754 17.2036 36.5605C17.2124 36.5457 17.2237 36.5329 17.237 36.5229C17.237 36.5229 17.5017 36.3236 17.5533 36.2835Z" fill="#ED1B23"/>
</g>
<defs>
<clipPath id="clip0_328_2936">
<rect width="40" height="40" fill="white"/>
</clipPath>
</defs>
</svg>
