<svg width="26" height="24" viewBox="0 0 26 24" fill="none" xmlns="http://www.w3.org/2000/svg">
<g clip-path="url(#clip0_328_2981)">
<path d="M20.4311 13.0748V12.8098L21.1354 11.6671L22.8308 13.0748H20.4311ZM25.1738 8.13631H22.7949L23.6487 6.75165L23.1518 5.98444C21.9465 4.11457 20.4068 2.60372 18.6496 1.56673C16.8925 0.529737 14.9641 -0.00608826 13.0113 -1.33514e-05C11.0584 -0.00608826 9.13006 0.529737 7.37291 1.56673C5.61576 2.60372 4.07603 4.11457 2.87077 5.98444L2.37377 6.75165L3.2286 8.13746H0.511719V10.3723H2.05759V15.3223H4.1601V10.4886L7.22251 15.4547H5.86217L8.03095 18.6019H9.6819L13.0113 24L16.3397 18.6019H17.9916L20.2541 15.3223H25.1738V12.1601L22.988 10.3446H25.1738V8.13631Z" fill="white"/>
<path d="M13.0391 14.8799H14.4439V8.57973H13.0391V14.8799Z" fill="#C00C3F"/>
<path d="M18.7027 11.9763L16.6097 8.57913H15.043L15.468 9.26916V14.8804H16.8312V11.4821L18.9242 14.8804H20.0659V8.57913H18.7027V11.9763Z" fill="#C00C3F"/>
<path d="M10.766 8.57979V12.4331L10.2321 13.2982L9.69818 12.4331V8.57979H8.36152V12.4331L7.82855 13.2982L7.29465 12.4331V8.57979H5.95703V12.6624L7.32494 14.8799H8.33122L9.02985 13.7464L9.72942 14.8799H10.7348L12.1036 12.6624V8.57979H10.766Z" fill="#C00C3F"/>
<path d="M13.0117 20.5085V23.2617L16.9431 16.8879H15.2449L13.0117 20.5085Z" fill="#231F20"/>
<path d="M13.0096 23.2622V20.509L10.7764 16.8872H9.07812L13.0096 23.2622Z" fill="#C00C3F"/>
<path d="M12.7689 6.56189H11.6103V4.19H11.0508V7.13672H12.7689V6.56189Z" fill="#6D6E71"/>
<path d="M14.0268 7.18018C14.4036 7.18018 14.7699 7.06383 14.9697 6.89334V5.4626H13.9994V6.01324H14.4547V6.52932C14.3241 6.58061 14.1877 6.60665 14.0505 6.6065C13.5478 6.6065 13.3793 6.29547 13.3793 5.66304C13.3793 5.05941 13.5384 4.70461 14.0429 4.70461C14.3222 4.70461 14.4822 4.81174 14.6137 5.01564L14.9621 4.62627C14.751 4.25764 14.379 4.14475 14.0306 4.14475C13.2477 4.14475 12.8359 4.66544 12.8359 5.65728C12.8359 6.64566 13.207 7.18018 14.0268 7.18018Z" fill="#6D6E71"/>
<path d="M6.64062 15.8974L8.19881 18.1587H17.8205L19.3787 15.8974H6.64062Z" fill="#6D6E71"/>
<path d="M10.1288 17.3501C10.2029 17.4005 10.2862 17.4275 10.3711 17.4285C10.4951 17.4285 10.5415 17.372 10.5415 17.2995C10.5415 17.2315 10.4961 17.1969 10.4743 17.1831C10.4042 17.1393 10.3219 17.1094 10.2461 17.0714C10.1344 17.0023 10.0776 16.9377 10.0776 16.7673C10.0776 16.5657 10.196 16.4447 10.4147 16.4447C10.5162 16.4414 10.6167 16.4704 10.7062 16.5288L10.6456 16.697C10.5754 16.6478 10.4957 16.6223 10.4147 16.6233C10.3011 16.6233 10.2556 16.6739 10.2556 16.7488C10.2556 16.7857 10.2651 16.8145 10.2831 16.8341C10.3 16.8521 10.3192 16.8669 10.3399 16.8778C10.3986 16.9112 10.4857 16.9481 10.5576 16.9896C10.6447 17.0426 10.7166 17.1082 10.7166 17.2868C10.7166 17.4872 10.5879 17.6128 10.3739 17.6128C10.2656 17.6123 10.1589 17.5808 10.0625 17.5206L10.1288 17.3501Z" fill="white"/>
<path d="M11.3906 16.4614H11.9586V16.6411H11.5686V16.9233H11.9454V17.0984H11.5686V17.4163H11.9738V17.5938H11.3906V16.4614Z" fill="white"/>
<path d="M12.8214 17.0409C12.8214 17.2575 12.8678 17.4361 13.024 17.4361C13.2077 17.4361 13.2626 17.2851 13.2626 17.011C13.2626 16.7967 13.2181 16.6159 13.06 16.6159C12.882 16.6159 12.8214 16.7702 12.8214 17.0409ZM13.4472 17.0329C13.4472 17.4188 13.3099 17.6123 13.0278 17.6123C12.7372 17.6123 12.6406 17.3831 12.6406 17.0213C12.6406 16.6343 12.775 16.4442 13.0581 16.4442C13.3449 16.4442 13.4472 16.6688 13.4472 17.0329Z" fill="white"/>
<path d="M14.125 16.4613H14.302V17.1594C14.302 17.3334 14.3465 17.4382 14.463 17.4382C14.6002 17.4382 14.6494 17.3552 14.6494 17.1295V16.4613H14.8265V17.1444C14.8265 17.4716 14.6958 17.6133 14.4648 17.6133C14.2358 17.6133 14.125 17.4739 14.125 17.1318V16.4613Z" fill="white"/>
<path d="M15.543 16.4614H15.7209V17.4163H16.0816V17.5938H15.543V16.4614Z" fill="white"/>
<path d="M13.0104 2.09472V0.441656C11.1125 0.436001 9.23845 0.957002 7.53084 1.96505C5.82322 2.9731 4.32695 4.44165 3.15578 6.25907L2.83203 6.75787L3.32713 7.56079H5.02541L4.55304 6.79589C5.60072 5.31642 6.89902 4.13026 8.35884 3.31879C9.81867 2.50732 11.4055 2.08975 13.0104 2.09472Z" fill="#C00C3F"/>
<path d="M23.191 6.75836L22.8673 6.25956C21.6958 4.44225 20.1994 2.97378 18.4916 1.96575C16.7839 0.957723 14.9098 0.436656 13.0117 0.442143V2.09521C16.2843 2.09521 19.3382 3.80012 21.4691 6.79522L20.9976 7.56128H22.6959L23.191 6.75836Z" fill="#231F20"/>
<path d="M0.875 9.92923H2.42182V14.8804H3.79636V9.92923H5.34223V8.57913H0.875V9.92923Z" fill="#C00C3F"/>
<path d="M24.8122 9.90158V8.57913H20.9679V10.9913L23.4386 13.0418V13.5176H20.8789V14.8804H24.8122V12.3933L22.3254 10.329V9.90158H24.8122Z" fill="#C00C3F"/>
</g>
<defs>
<clipPath id="clip0_328_2981">
<rect width="24.6621" height="24" fill="white" transform="translate(0.511719)"/>
</clipPath>
</defs>
</svg>
