<svg width="26" height="24" viewBox="0 0 26 24" fill="none" xmlns="http://www.w3.org/2000/svg">
<g clip-path="url(#clip0_328_3311)">
<path d="M12.3709 0C7.78636 0 4.01146 4.4479 3.45684 10.1934C3.36944 10.6851 3.31454 11.1704 3.27661 11.6506H2.83984C2.83984 18.4708 7.10637 23.9999 12.3709 23.9999C17.6353 23.9999 21.9031 18.4708 21.9031 11.6506H21.3638C21.3638 12.1558 21.3304 12.6502 21.2822 13.1384C21.1922 12.6387 21.0444 12.141 20.8244 11.6506H21.3638C21.3638 5.21547 17.3372 0 12.3709 0Z" fill="#042445"/>
<path d="M12.3751 23.3011C17.3414 23.3011 21.3674 18.0853 21.3674 11.6514H20.8286C20.8286 17.699 17.0433 22.6019 12.3751 22.6019C7.70698 22.6019 3.92163 17.699 3.92163 11.6514H3.38281C3.38281 18.0853 7.40881 23.3011 12.3751 23.3011Z" fill="#D01031"/>
<path d="M12.3714 0.699707C10.1294 0.699707 7.97927 1.85354 6.39393 3.90739C4.8086 5.96123 3.91797 8.74683 3.91797 11.6514H4.45772C4.45772 8.93229 5.29148 6.32455 6.77559 4.40184C8.25969 2.47913 10.2726 1.39896 12.3714 1.39894C13.4107 1.39893 14.4397 1.66411 15.3999 2.17934C16.36 2.69457 17.2325 3.44976 17.9673 4.40179C18.7022 5.35382 19.2851 6.48405 19.6828 7.72794C20.0805 8.97183 20.2852 10.305 20.2852 11.6514H20.8249C20.8249 10.2132 20.6063 8.78909 20.1815 7.46036C19.7566 6.13164 19.1339 4.92433 18.349 3.90737C17.564 2.89041 16.6321 2.08372 15.6065 1.53335C14.5808 0.982974 13.4816 0.699703 12.3714 0.699707Z" fill="#62B1E3"/>
<path d="M17.7706 11.6512C17.7706 13.5051 17.2021 15.2831 16.1903 16.594C15.1784 17.9049 13.806 18.6413 12.375 18.6413C10.944 18.6413 9.57165 17.9049 8.55978 16.594C7.54791 15.2831 6.97945 13.5051 6.97945 11.6512C6.97945 9.79736 7.54791 8.0194 8.55978 6.7085C9.57164 5.39761 10.944 4.66116 12.375 4.66116C13.806 4.66116 15.1784 5.39761 16.1902 6.7085C17.2021 8.0194 17.7706 9.79736 17.7706 11.6512ZM6.78906 5.92348L7.59911 6.84029L8.11102 6.08055L7.95925 5.90837L7.6054 6.43194L6.94803 5.6873L6.78906 5.92348ZM8.51244 5.64542C8.23046 5.95025 8.00685 5.83041 7.7949 5.50116C7.58385 5.17306 7.53176 4.86241 7.81286 4.55876C8.10024 4.2481 8.32297 4.37843 8.5322 4.70301C8.74595 5.03577 8.79892 5.33595 8.51247 5.64542M7.94487 4.76467C7.76795 4.95548 7.86134 5.11488 7.98169 5.30106C8.11191 5.50464 8.2125 5.62449 8.38043 5.44298C8.53309 5.27661 8.51244 5.1591 8.34812 4.90315C8.1999 4.67279 8.10562 4.59016 7.94487 4.76467Z" fill="white"/>
<path d="M8.99292 3.8411L9.43296 4.81377L9.21833 4.9778L8.77828 4.00395L8.50347 4.21227L8.40019 3.98303L9.16535 3.40249L9.26861 3.63167L8.99292 3.8411ZM10.0077 3.23609L10.3202 4.28905L10.0885 4.40538L9.77512 3.35245L9.47876 3.50019L9.40423 3.25239L10.2322 2.83936L10.3059 3.08717L10.0077 3.23609ZM10.7783 4.08891L10.5591 2.72418L11.3306 2.51708L11.3719 2.7777L10.8393 2.92081L10.886 3.21165L11.3467 3.08832L11.388 3.34431L10.9274 3.46879L10.975 3.76781L11.5075 3.62467L11.5488 3.88181L10.7783 4.08891ZM13.0988 3.42923C13.0899 3.70148 12.8923 3.85973 12.6462 3.84577C12.4945 3.83762 12.3517 3.76663 12.287 3.65959C12.2116 3.53393 12.1774 3.32453 12.1873 3.11395C12.1927 2.94058 12.2196 2.75093 12.2816 2.64623C12.3885 2.46357 12.5025 2.42168 12.684 2.43216C12.9022 2.44379 13.0953 2.60549 13.1105 2.93244L12.8654 2.91847C12.86 2.79281 12.798 2.70789 12.6768 2.70089C12.5888 2.69626 12.5223 2.72418 12.4963 2.787C12.4526 2.89134 12.4294 3.00803 12.4289 3.12673C12.4235 3.27798 12.4451 3.42227 12.4891 3.49556C12.5169 3.54093 12.5816 3.57352 12.6534 3.57467C12.7711 3.57933 12.8429 3.51767 12.8465 3.41179L12.8501 3.30939L12.6336 3.29776L12.6417 3.05925L13.1096 3.08369L13.0988 3.42923ZM13.3018 3.91788L13.5425 3.97373L13.7293 2.60082L13.4886 2.54501L13.3018 3.91788ZM14.481 4.30997L14.4648 4.00398L14.0948 3.8504L13.9502 4.09009L13.7051 3.98769L14.4423 2.83007L14.6426 2.91384L14.7234 4.41007L14.481 4.30997ZM14.4325 3.3152L14.2268 3.6363L14.4558 3.73055L14.4325 3.3152ZM15.4698 4.92661L15.3665 3.8911L15.0548 4.63574L14.8402 4.48449L15.3521 3.25935L15.5182 3.37571L15.6224 4.41352L15.934 3.66774L16.1505 3.81899L15.6377 5.04413L15.4698 4.92661ZM16.7666 4.74162L16.225 5.6247L16.0301 5.42456L16.5717 4.54152L16.322 4.28438L16.4495 4.07613L17.1446 4.79166L17.0171 4.99876L16.7666 4.74162ZM16.7989 6.3693C16.6992 6.22156 16.657 6.04586 16.6669 5.80736L16.886 5.80154C16.8725 5.98302 16.8932 6.08309 16.9632 6.18549C17.0423 6.3053 17.1195 6.33323 17.1788 6.26808C17.2129 6.23086 17.2272 6.14475 17.1734 6.04238L17.106 5.90391C17.0189 5.7294 16.9911 5.49089 17.1338 5.33034C17.2874 5.15931 17.4931 5.19653 17.6547 5.43737C17.7464 5.57907 17.7941 5.75989 17.7886 5.94465L17.5757 5.95394C17.5829 5.75617 17.5344 5.6747 17.4931 5.61303C17.4266 5.51303 17.3602 5.50022 17.2964 5.57C17.2524 5.62003 17.2587 5.68406 17.3018 5.7748C17.3144 5.80269 17.3539 5.87832 17.3647 5.89813C17.4769 6.11101 17.4823 6.36118 17.3449 6.51358C17.1904 6.6881 16.9677 6.62295 16.7989 6.3693ZM23.44 11.4083L25.1464 9.1977H19.1698L19.4832 7.68635H17.6278L17.3153 9.1977H5.65752L6.82498 7.68517H2.8753C2.57304 7.68578 2.27934 7.81534 2.03959 8.05381C1.79984 8.29229 1.62738 8.62641 1.54886 9.00456L0.523287 13.9644C0.478289 14.1779 0.472226 14.402 0.505577 14.6191C0.538927 14.8362 0.610778 15.0402 0.715453 15.2151C0.927398 15.5747 1.2498 15.7794 1.59825 15.7794H22.11C22.4122 15.7793 22.706 15.65 22.9458 15.4117C23.1856 15.1734 23.3581 14.8393 23.4365 14.4612L24.049 11.5002H23.3691L23.44 11.4083Z" fill="white"/>
<path d="M5.94016 15.4301L7.157 9.5465H7.32764L6.11077 15.4301H5.94016ZM9.61411 14.7809H8.68013C8.61194 14.7818 8.54452 14.7622 8.4832 14.7235C8.42188 14.6848 8.36833 14.6282 8.32679 14.5582C8.28525 14.4881 8.25684 14.4065 8.24382 14.3197C8.2308 14.233 8.23351 14.1436 8.25175 14.0584L8.9271 10.7937C8.96266 10.6222 9.04088 10.4706 9.14966 10.3625C9.25844 10.2544 9.3917 10.1958 9.5288 10.1957H11.6446L10.5616 15.4301H10.3909L11.4291 10.4086H9.5288C9.42796 10.4089 9.32999 10.4522 9.2501 10.5319C9.17021 10.6117 9.11287 10.7233 9.08695 10.8496L8.41161 14.1143C8.4002 14.1676 8.39852 14.2237 8.40669 14.278C8.41486 14.3323 8.43267 14.3835 8.45871 14.4274C8.48475 14.4712 8.51831 14.5067 8.55674 14.5309C8.59516 14.5551 8.6374 14.5674 8.68013 14.5669H9.77845L9.61411 14.7809ZM12.5894 15.4301L13.5368 10.8496C13.563 10.7233 13.6205 10.6118 13.7006 10.5323C13.7806 10.4528 13.8787 10.4097 13.9796 10.4098H15.8799L14.8408 15.4301H15.0124L16.0945 10.1957H13.9796C13.8424 10.1959 13.7091 10.2546 13.6002 10.3627C13.4913 10.4707 13.4129 10.6222 13.377 10.7937L12.4188 15.4301H12.5894ZM18.9216 14.7809H17.5817C17.5138 14.7815 17.4466 14.7614 17.3857 14.7224C17.3247 14.6835 17.2716 14.6266 17.2306 14.5564C17.1887 14.4869 17.16 14.4057 17.1466 14.3192C17.1332 14.2328 17.1355 14.1435 17.1534 14.0584L18.3999 8.03516H18.5705L18.1233 10.1957H20.0649L19.8996 10.4098H18.0792L17.3132 14.1143C17.3018 14.1676 17.3001 14.2237 17.3083 14.278C17.3165 14.3323 17.3343 14.3835 17.3603 14.4274C17.3863 14.4713 17.4199 14.5067 17.4583 14.5309C17.4968 14.5551 17.539 14.5674 17.5817 14.5669H18.9656L18.9216 14.7809ZM19.6949 14.5669H22.0523C22.153 14.5667 22.2509 14.5235 22.3308 14.444C22.4106 14.3645 22.4681 14.2531 22.4941 14.1271L22.8111 12.5948H20.6657L21.0375 10.7937C21.0732 10.622 21.1515 10.4703 21.2605 10.362C21.3694 10.2537 21.5028 10.1948 21.6401 10.1945H23.9957L23.8305 10.4086H21.6401C21.5393 10.4089 21.4413 10.4521 21.3613 10.5316C21.2813 10.6111 21.2237 10.7224 21.1973 10.8484L20.8803 12.3807H23.0267L22.654 14.1818C22.6185 14.3534 22.5403 14.5051 22.4315 14.6134C22.3227 14.7217 22.1895 14.7806 22.0523 14.7809H19.6509L19.6949 14.5669ZM2.93701 8.68439C2.79991 8.68445 2.66665 8.74308 2.55787 8.85119C2.4491 8.9593 2.37087 9.11086 2.33531 9.2824L1.34745 14.0585C1.32961 14.1435 1.32722 14.2327 1.34046 14.3191C1.3537 14.4055 1.38222 14.4867 1.42377 14.5564C1.46491 14.6265 1.51803 14.6833 1.57896 14.7222C1.63989 14.7612 1.70696 14.7813 1.77491 14.781H4.21764L4.87683 11.5943H3.42917L3.26391 11.8071H4.66219L4.09102 14.5681H1.77491C1.73232 14.5683 1.69028 14.5557 1.65209 14.5313C1.61391 14.5068 1.58063 14.4712 1.55488 14.4273C1.52855 14.3836 1.51046 14.3326 1.50204 14.2782C1.49362 14.2239 1.49511 14.1678 1.50639 14.1143L2.49425 9.33828C2.52037 9.21204 2.57792 9.10049 2.65798 9.02097C2.73804 8.94144 2.83613 8.89839 2.93701 8.89849H5.50995L5.6743 8.68442L2.93701 8.68439Z" fill="white"/>
<path d="M11.1813 7.03809C10.8005 7.03809 10.6047 7.34059 10.6047 7.68265C10.6047 8.02356 10.8104 8.32728 11.1813 8.32728C11.545 8.32728 11.7587 8.02356 11.7587 7.68265C11.7587 7.34059 11.5629 7.03809 11.1813 7.03809ZM11.9069 7.08815V7.23004H12.2661V8.27485H12.5472V7.23007H12.9073V7.08815H11.9069ZM13.0331 7.08815V7.23004H13.3923V8.27485H13.6734V7.23007H14.0327V7.08815H13.0331ZM9.67342 7.08933V8.11896C9.67342 8.226 9.71648 8.27603 9.79194 8.27603H10.479V8.13296H10.0075C9.96075 8.13296 9.9518 8.09919 9.9518 8.05152V7.08933H9.67342ZM14.3316 7.08933C14.2652 7.08933 14.2014 7.10671 14.2014 7.26148V8.10388C14.2014 8.26095 14.2616 8.27721 14.3407 8.27721H15.0699V8.13414H14.5445C14.4816 8.13414 14.4799 8.09804 14.4799 8.05033V7.71524H15.0609V7.5745L14.4799 7.57444V7.31615C14.4799 7.24052 14.5014 7.23123 14.5517 7.23123H15.0699V7.08933H14.3316ZM11.1813 7.17078C11.3546 7.17078 11.4866 7.40341 11.4866 7.68265C11.4866 7.96305 11.3546 8.19111 11.1813 8.19111C11.0079 8.19111 10.8759 7.96305 10.8759 7.68265C10.8759 7.40341 11.0079 7.17078 11.1813 7.17078ZM2.87508 8.03516C2.63201 8.03514 2.39572 8.13899 2.20284 8.33062C2.00995 8.52225 1.87124 8.79095 1.8082 9.09508L0.782609 14.0538C0.749137 14.2158 0.744878 14.3856 0.770159 14.5501C0.795441 14.7146 0.849587 14.8694 0.92841 15.0024C1.00723 15.1355 1.10862 15.2433 1.22473 15.3174C1.34085 15.3916 1.46857 15.4302 1.59803 15.4302H4.64337L5.54773 11.0579H3.83873L3.4265 11.5931H4.87414L4.21495 14.781H1.77227C1.70415 14.7817 1.63684 14.7619 1.57564 14.7231C1.51443 14.6844 1.46101 14.6278 1.41956 14.5577C1.37812 14.4877 1.3498 14.4062 1.33682 14.3195C1.32384 14.2329 1.32657 14.1435 1.34478 14.0585L2.33264 9.2824C2.36821 9.11086 2.44645 8.95931 2.55524 8.85121C2.66403 8.74311 2.79729 8.6845 2.9344 8.68445H5.67163L6.17272 8.03522L2.87508 8.03516ZM17.8341 8.03522L16.5885 14.055C16.5552 14.2169 16.5511 14.3866 16.5764 14.5509C16.6018 14.7153 16.656 14.8699 16.7348 15.0028C16.8136 15.1357 16.9149 15.2433 17.031 15.3174C17.147 15.3915 17.2746 15.4301 17.404 15.4302H18.7843L18.9181 14.7809H17.5782C17.5103 14.7813 17.4432 14.7612 17.3822 14.7222C17.3213 14.6833 17.2682 14.6265 17.227 14.5565C17.1855 14.4867 17.157 14.4055 17.1437 14.3191C17.1305 14.2327 17.1329 14.1435 17.1507 14.0585L18.3963 8.03522H17.8341ZM18.5669 8.03522L18.1197 10.1957H20.0604L20.5615 9.54657H18.8166L19.1291 8.03522H18.5669ZM2.93432 8.89734C2.83344 8.89724 2.73536 8.94028 2.6553 9.01979C2.57524 9.09931 2.51769 9.21084 2.49156 9.33707L2.49161 9.33713L1.50375 14.1132C1.49247 14.1666 1.49098 14.2227 1.49939 14.2771C1.50781 14.3314 1.52589 14.3824 1.55221 14.4261C1.57796 14.4701 1.61124 14.5057 1.64943 14.5301C1.68761 14.5545 1.72966 14.5671 1.77225 14.5669H4.08836L4.65953 11.806H3.26127L2.84813 12.3412H3.98598L3.65998 13.9177H2.10723L3.01159 9.54657H5.00615L5.50729 8.89734H2.93432ZM6.59214 9.54539L5.37527 15.429H5.93835L7.15523 9.54539H6.59214ZM7.32584 9.54539L6.10896 15.429H6.67119L7.88806 9.54539H7.32584ZM9.46687 9.54657C9.22395 9.5468 8.98786 9.65076 8.79515 9.84237C8.60244 10.034 8.46386 10.3025 8.40086 10.6065L7.68783 14.0538C7.65438 14.2157 7.6501 14.3854 7.67533 14.5498C7.70057 14.7142 7.75463 14.8689 7.83335 15.002C7.91207 15.135 8.01334 15.2428 8.12934 15.317C8.24534 15.3913 8.37295 15.43 8.50234 15.4302H9.11031L9.61144 14.781H8.67744C8.60925 14.7819 8.54183 14.7622 8.48052 14.7235C8.4192 14.6849 8.36565 14.6283 8.32411 14.5582C8.28257 14.4881 8.25416 14.4065 8.24114 14.3198C8.22812 14.2331 8.23083 14.1436 8.24906 14.0585L8.92438 10.7937C8.95994 10.6222 9.03817 10.4706 9.14696 10.3625C9.25574 10.2544 9.38901 10.1958 9.52611 10.1957H11.6419L10.5589 15.4302H11.122L12.3388 9.54657H9.46687ZM13.9168 9.54657C13.6738 9.5468 13.4378 9.65076 13.245 9.84237C13.0523 10.034 12.9137 10.3025 12.8507 10.6065L11.853 15.4301H12.4152L13.3743 10.7938V10.7937C13.4099 10.6222 13.4881 10.4706 13.5969 10.3625C13.7057 10.2544 13.8389 10.1958 13.976 10.1957H16.0919L15.0088 15.4301H15.5719L16.7887 9.54654L13.9168 9.54657ZM21.5781 9.54657C21.3352 9.5468 21.0991 9.65077 20.9064 9.84238C20.7137 10.034 20.5751 10.3025 20.5121 10.6065L19.9904 13.1277H22.1367L21.9733 13.9188H19.8269L19.6931 14.5681H22.0497C22.1507 14.5681 22.2488 14.5248 22.3289 14.4451C22.4089 14.3653 22.4664 14.2535 22.4923 14.1271L22.8094 12.596H20.663L21.0357 10.795C21.0712 10.6233 21.1494 10.4716 21.2582 10.3632C21.367 10.2549 21.5002 10.1961 21.6374 10.1957H23.9939L24.4951 9.54657H21.5781ZM13.976 10.4086C13.8753 10.4088 13.7774 10.452 13.6975 10.5315C13.6176 10.611 13.5602 10.7224 13.5342 10.8485L12.5867 15.429H13.1489L14.0533 11.0579H15.1803L14.276 15.429H14.8382L15.8763 10.4087L13.976 10.4086ZM9.52616 10.4098C9.42535 10.4101 9.32741 10.4533 9.24741 10.5328C9.16741 10.6122 9.10979 10.7236 9.0834 10.8496C8.91545 11.6663 8.40803 14.1143 8.40803 14.1143C8.39684 14.1677 8.39531 14.2238 8.40356 14.278C8.41182 14.3323 8.42963 14.3834 8.45562 14.4273C8.4816 14.4712 8.51506 14.5068 8.55339 14.5312C8.59171 14.5556 8.63387 14.5682 8.67658 14.5681H9.77581L10.0874 14.1643L9.82519 15.4302H10.3883L11.4264 10.4099L9.52616 10.4098ZM18.0766 10.4098L17.3105 14.1143C17.2991 14.1678 17.2975 14.2239 17.3057 14.2782C17.3138 14.3326 17.3316 14.3838 17.3577 14.4278C17.3837 14.4718 17.4172 14.5073 17.4557 14.5317C17.4941 14.556 17.5363 14.5685 17.5791 14.5681H18.963L19.0977 13.9188H17.914L18.505 11.0591H19.3958L19.897 10.4099L18.0766 10.4098ZM21.6374 10.4098C21.5367 10.41 21.4388 10.4532 21.359 10.5327C21.2791 10.6122 21.2217 10.7236 21.1956 10.8496L20.8785 12.3819H23.024L22.6513 14.1829C22.6158 14.3544 22.5375 14.506 22.4288 14.6141C22.32 14.7223 22.1868 14.7809 22.0497 14.781H19.6482L19.5144 15.4302H22.1089C22.3519 15.4302 22.5882 15.3263 22.7811 15.1347C22.974 14.9431 23.1127 14.6744 23.1758 14.3703L23.6966 11.8491H21.5512L21.7146 11.0591H23.3275L23.8287 10.4099L21.6374 10.4098ZM9.60333 11.0591H10.7295L10.1377 13.9189H9.01154L9.60333 11.0591Z" fill="#D01031"/>
<path d="M6.34375 17.5479L7.16906 16.6543L7.67377 17.4373L7.5166 17.6072L7.16815 17.0662L6.99123 17.257L7.29299 17.7247L7.13762 17.8934L6.83677 17.4257L6.65535 17.6223L7.00383 18.1622L6.84846 18.3309L6.34375 17.5479ZM7.28041 18.8986C7.16993 18.7648 7.11427 18.595 7.10618 18.3564L7.32444 18.3227C7.32444 18.5042 7.35317 18.602 7.43038 18.6939C7.51749 18.8044 7.59653 18.8218 7.65131 18.7497C7.68184 18.7078 7.68904 18.6206 7.62886 18.5251L7.55073 18.396C7.45014 18.2343 7.40523 18.0005 7.53456 17.8224C7.67377 17.6316 7.88212 17.6433 8.06084 17.862C8.16291 17.9912 8.22434 18.1649 8.23326 18.3495L8.02131 18.3867C8.01413 18.1889 7.95936 18.1133 7.91354 18.0575C7.83901 17.9655 7.77254 17.9621 7.71417 18.04C7.67466 18.0947 7.68544 18.1575 7.73484 18.2424C7.75835 18.2816 7.78261 18.32 7.80759 18.3576C7.93509 18.5554 7.96025 18.8032 7.83541 18.9719C7.69441 19.1651 7.46812 19.129 7.28041 18.8986ZM8.75503 18.9208L8.26919 19.8562L8.06262 19.6758L8.54846 18.7404L8.28445 18.51L8.39938 18.2902L9.13492 18.9324L9.01997 19.1523L8.75503 18.9208ZM8.54937 20.211L8.80443 20.3937L8.93913 20.0749L8.68408 19.8922L8.54937 20.211ZM9.78423 19.5909L9.69261 19.905L9.96113 19.8259L9.68003 20.7927L9.90366 20.9021L10.288 19.5816L10.1057 19.4931L9.78423 19.5909ZM10.8439 19.7794C11.0765 19.8527 11.1906 20.1075 11.1457 20.3448C11.1171 20.4664 11.0684 20.5784 11.0029 20.6729L10.6526 21.179L10.3868 21.0953L10.7038 20.6543C10.6523 20.6551 10.6012 20.6407 10.5546 20.6123C10.5079 20.5838 10.4669 20.5421 10.4345 20.4901C10.402 20.4382 10.3791 20.3774 10.3675 20.3123C10.3558 20.2472 10.3557 20.1796 10.3671 20.1144C10.4137 19.8678 10.5979 19.7014 10.8439 19.7794ZM10.7209 20.4053C10.835 20.4414 10.8888 20.3727 10.9077 20.2704C10.9265 20.1715 10.8888 20.0726 10.7945 20.0423C10.694 20.0109 10.6266 20.0737 10.6059 20.1854C10.5853 20.2936 10.6275 20.3762 10.7209 20.4053ZM11.5794 21.4105C11.3118 21.3745 11.1879 21.1581 11.2076 20.9103C11.2136 20.8459 11.2329 20.7848 11.2634 20.7334C11.2939 20.682 11.3345 20.6422 11.381 20.6182C11.345 20.5853 11.3165 20.5403 11.2986 20.488C11.2808 20.4358 11.2742 20.3783 11.2795 20.3216C11.2992 20.0761 11.4627 19.9365 11.6917 19.9679C11.9387 20.0005 12.0635 20.1901 12.0455 20.4216C12.0426 20.4791 12.0275 20.5344 12.0018 20.5815C11.9762 20.6285 11.9409 20.6654 11.9 20.6881C11.9403 20.7247 11.9727 20.7741 11.9941 20.8315C12.0155 20.8889 12.0251 20.9525 12.0222 21.0162C12.0033 21.2523 11.8525 21.4478 11.5794 21.4105ZM11.6252 20.7939C11.5363 20.7811 11.4645 20.8591 11.4573 20.944C11.4501 21.0336 11.4896 21.1209 11.5992 21.1348C11.7133 21.1511 11.7644 21.0755 11.7716 20.9859C11.7788 20.8998 11.7231 20.8067 11.6252 20.7939ZM11.6701 20.2296C11.5821 20.218 11.5292 20.2727 11.522 20.36C11.5157 20.4402 11.5678 20.5112 11.6468 20.5228C11.7348 20.5345 11.7932 20.4763 11.8013 20.3937C11.8093 20.3088 11.7617 20.2424 11.6702 20.2296M12.2126 21.4361L12.2072 21.2093L12.6311 20.6182C12.6796 20.5473 12.7056 20.4763 12.7047 20.4193C12.7029 20.3413 12.658 20.2773 12.57 20.2808C12.4667 20.2843 12.4218 20.3855 12.4164 20.5054L12.1784 20.5147C12.1758 20.2064 12.3653 20.0202 12.5628 20.0132C12.7667 20.0063 12.9463 20.1482 12.9517 20.4123C12.9544 20.5287 12.9229 20.6462 12.8313 20.7753L12.5565 21.1546L12.9768 21.1395L12.9831 21.4082L12.2126 21.4361ZM14.2377 21.1255L13.7635 21.2744L13.5094 19.9202L13.9566 19.7794C14.1892 19.7061 14.3616 19.8212 14.4074 20.0644C14.4182 20.1628 14.4026 20.2629 14.3634 20.3483C14.4326 20.403 14.5053 20.4902 14.526 20.6008C14.5745 20.8567 14.4622 21.0545 14.2377 21.1255ZM14.0276 20.0307L13.7932 20.1051L13.8462 20.3867L14.0886 20.3099C14.1605 20.2878 14.182 20.1994 14.1704 20.1366C14.1665 20.1173 14.1597 20.0993 14.1504 20.0835C14.1411 20.0677 14.1295 20.0545 14.1162 20.0446C14.1029 20.0348 14.0882 20.0285 14.073 20.0261C14.0578 20.0237 14.0423 20.0252 14.0276 20.0307ZM14.1371 20.5612L13.8929 20.638L13.9512 20.9463L14.2018 20.8672C14.2763 20.8439 14.2979 20.7578 14.2835 20.6811C14.2692 20.6031 14.2162 20.5368 14.1371 20.5612ZM15.5911 20.0144C15.6845 20.3018 15.5435 20.5426 15.3064 20.6718C15.0756 20.7986 14.8394 20.7637 14.746 20.4763L14.4631 19.6084L14.6921 19.4838L14.9777 20.3599C15.0172 20.4786 15.1196 20.4844 15.2265 20.4251C15.3352 20.3658 15.4034 20.2669 15.3648 20.1482L15.0792 19.2721L15.3082 19.1465L15.5911 20.0144ZM16.3095 20.0237C16.1793 20.1238 16.0383 20.1447 15.8587 20.0889L15.8946 19.8073C16.0303 19.8585 16.1102 19.8503 16.2 19.7805C16.3059 19.7026 16.3419 19.6083 16.3033 19.5211C16.2808 19.4699 16.2179 19.4373 16.1308 19.4862L16.0132 19.5467C15.865 19.6258 15.6782 19.6165 15.583 19.4059C15.4815 19.179 15.548 18.9242 15.7599 18.7625C15.8842 18.6715 16.0302 18.6437 16.1694 18.6845L16.138 18.958C15.9889 18.9126 15.918 18.9591 15.8641 18.9998C15.7752 19.0673 15.7527 19.1488 15.795 19.243C15.8246 19.3082 15.874 19.3128 15.9512 19.2744C15.9866 19.256 16.0216 19.2366 16.0563 19.2163C16.2386 19.1127 16.429 19.1523 16.5197 19.3547C16.6239 19.5828 16.5332 19.855 16.3095 20.0237ZM17.4465 18.8963L17.2381 18.7509L16.9409 19.0755L17.0199 19.3617L16.8232 19.5769L16.4586 18.1517L16.6194 17.976L17.6414 18.6845L17.4465 18.8963ZM16.7703 18.4204L16.8708 18.816L17.0549 18.6147L16.7703 18.4204ZM18.2745 17.7526L17.4716 17.6654L17.9674 18.2168L17.8084 18.4565L16.9921 17.5502L17.1142 17.3652L17.9198 17.4513L17.4223 16.8998L17.5821 16.6578L18.3993 17.5641L18.2745 17.7526Z" fill="white"/>
</g>
<defs>
<clipPath id="clip0_328_3311">
<rect width="24.6621" height="24" fill="white" transform="translate(0.484375)"/>
</clipPath>
</defs>
</svg>
