<svg width="26" height="25" viewBox="0 0 26 25" fill="none" xmlns="http://www.w3.org/2000/svg">
<mask id="mask0_328_3169" style="mask-type:luminance" maskUnits="userSpaceOnUse" x="0" y="-1" width="26" height="26">
<path d="M0.484375 -0.00030899H25.1218V24.4473H0.484375V-0.00030899Z" fill="white"/>
</mask>
<g mask="url(#mask0_328_3169)">
<path d="M19.122 12.224C19.122 16.8135 16.544 20.5342 13.3639 20.5342C10.1837 20.5342 7.60547 16.8135 7.60547 12.224C7.60547 7.63427 10.1837 3.91359 13.3639 3.91359C16.544 3.91359 19.122 7.63427 19.122 12.224Z" fill="white"/>
<path d="M16.0688 8.89746C16.0688 8.89746 16.3827 8.74695 16.5242 8.79655L16.5668 8.63538C16.4452 8.55005 16.1403 8.6527 16.1403 8.6527C16.1403 8.6527 15.9952 8.27044 15.891 8.23687L15.8398 8.41924C15.985 8.53959 16.0688 8.89746 16.0688 8.89746Z" fill="#C7A079"/>
<path d="M14.8786 19.6284C14.8786 19.6284 14.7507 19.3734 14.6705 19.3497L14.6328 19.4843C14.7453 19.5859 14.817 19.7988 14.817 19.7988C14.817 19.7988 15.0992 19.7146 15.2113 19.7623L15.2516 19.6306C15.156 19.5562 14.8786 19.6284 14.8786 19.6284Z" fill="#C7A079"/>
<path d="M15.4531 17.6049C15.4531 17.6049 15.2068 17.2565 15.1039 17.2641L15.0898 17.4503C15.25 17.5211 15.4168 17.8486 15.4168 17.8486C15.4168 17.8486 15.7092 17.553 15.8542 17.5564L15.8754 17.3717C15.7434 17.3279 15.4531 17.6049 15.4531 17.6049Z" fill="#C7A079"/>
<path d="M16.2797 8.30371C16.2797 8.30371 16.5923 8.23253 16.736 8.26008L16.8009 8.07303C16.6739 8.00696 16.3498 8.08074 16.3498 8.08074C16.3498 8.08074 16.2115 7.71512 16.106 7.69738L16.0547 7.8785C16.2071 7.97703 16.2797 8.30371 16.2797 8.30371Z" fill="#C7A079"/>
<path d="M16.5318 7.71801C16.5318 7.71801 16.7785 7.70027 16.9196 7.74023L16.9931 7.55812C16.8704 7.48071 16.6158 7.49206 16.6158 7.49206C16.6158 7.49206 16.4515 7.19595 16.3557 7.14013L16.2969 7.30262C16.4437 7.41273 16.5318 7.71801 16.5318 7.71801Z" fill="#C7A079"/>
<path d="M16.7585 7.18517C16.7585 7.18517 16.9945 7.14926 17.1327 7.20312L17.2167 7.01457C17.0989 6.92736 16.853 6.96753 16.853 6.96753C16.853 6.96753 16.7219 6.64323 16.62 6.60665L16.5586 6.75523C16.6989 6.87904 16.7585 7.18517 16.7585 7.18517Z" fill="#C7A079"/>
<path d="M16.9919 6.68451C16.9919 6.68451 17.2 6.70908 17.3346 6.77539L17.4106 6.62976C17.297 6.53016 17.0696 6.51303 17.0696 6.51303C17.0696 6.51303 16.9527 6.19857 16.853 6.15217L16.7891 6.28814C16.9231 6.42368 16.9919 6.68451 16.9919 6.68451Z" fill="#C7A079"/>
<path d="M14.7267 20.0231C14.7267 20.0231 14.5971 19.7719 14.5229 19.7479L14.4883 19.882C14.5924 19.9838 14.6697 20.1943 14.6697 20.1943C14.6697 20.1943 14.9213 20.1122 15.0256 20.1603L15.0624 20.0282C14.9744 19.954 14.7267 20.0231 14.7267 20.0231Z" fill="#C7A079"/>
<path d="M15.0309 19.193C15.0309 19.193 14.8544 18.8706 14.761 18.8518L14.7266 19.0212C14.8622 19.13 14.9715 19.4092 14.9715 19.4092C14.9715 19.4092 15.2756 19.2503 15.4069 19.2944L15.4447 19.1274C15.3307 19.0504 15.0309 19.193 15.0309 19.193Z" fill="#C7A079"/>
<path d="M15.1937 18.7409C15.1937 18.7409 14.974 18.3695 14.8715 18.3653L14.8477 18.5502C15.002 18.6439 15.1459 18.9814 15.1459 18.9814C15.1459 18.9814 15.4553 18.7135 15.5996 18.7369L15.6282 18.5539C15.5 18.4916 15.1937 18.7409 15.1937 18.7409Z" fill="#C7A079"/>
<path d="M15.3345 18.1583C15.3345 18.1583 15.1026 17.7959 15.0002 17.797L14.9805 17.9823C15.1373 18.0655 15.2924 18.3994 15.2924 18.3994C15.2924 18.3994 15.5944 18.1193 15.739 18.1339L15.764 17.9492C15.6342 17.8955 15.3345 18.1583 15.3345 18.1583Z" fill="#C7A079"/>
<path d="M10.8225 6.23535L10.929 6.10408C10.8398 6.03055 10.7452 5.60463 10.7452 5.60463C10.7452 5.60463 10.5388 5.59567 10.4445 5.55396L10.3086 5.69466L10.634 5.74959C10.634 5.74959 10.7097 6.15325 10.8225 6.23535Z" fill="#C7A079"/>
<path d="M11.1897 5.85938L11.3015 5.7371C11.1883 5.65475 11.112 5.24729 11.112 5.24729C11.112 5.24729 10.8998 5.21714 10.8207 5.15043L10.7109 5.27232C10.783 5.35335 11.0047 5.38645 11.0047 5.38645C11.0047 5.38645 11.0726 5.78819 11.1897 5.85938Z" fill="#C7A079"/>
<path d="M10.4725 6.66113C10.5039 6.61567 10.5363 6.57175 10.5697 6.52944C10.4665 6.34344 10.4305 5.99173 10.4305 5.99173C10.4305 5.99173 10.1895 5.97676 10.0739 5.96673C10.0384 6.01267 9.98828 6.10227 9.98828 6.10227L10.3054 6.15592C10.3054 6.15592 10.3691 6.49203 10.4725 6.66113Z" fill="#C7A079"/>
<path d="M10.1773 7.13281C10.2061 7.09071 10.2397 7.03685 10.2738 6.99429C10.1704 6.80741 10.1197 6.42728 10.1197 6.42728C10.1197 6.42728 9.88802 6.41278 9.77348 6.40186C9.73692 6.44826 9.70581 6.48631 9.6875 6.53825L9.99838 6.58764C9.99838 6.58764 10.0733 6.96456 10.1773 7.13281Z" fill="#C7A079"/>
<path d="M11.5485 5.48145L11.6677 5.36813C11.5285 5.32685 11.4584 4.8871 11.4584 4.8871C11.4584 4.8871 11.2715 4.8839 11.2091 4.82445C11.1611 4.86185 11.1107 4.88774 11.0625 4.93282C11.1334 4.98203 11.3425 5.00532 11.3425 5.00532C11.3425 5.00532 11.4418 5.41304 11.5485 5.48145Z" fill="#C7A079"/>
<path d="M9.95156 7.48651C9.85415 7.33319 9.76831 6.94091 9.76831 6.94091C9.76831 6.94091 9.54943 6.95651 9.43371 6.95243L9.33203 7.10809C9.44684 7.13547 9.65594 7.12071 9.65594 7.12071C9.65594 7.12071 9.72726 7.46126 9.86023 7.6582L9.95156 7.48651Z" fill="#C7A079"/>
<path d="M11.887 5.07812C11.9175 5.04584 11.9973 4.98365 11.9973 4.98365C11.8697 4.91222 11.861 4.59197 11.861 4.59197C11.861 4.59197 11.5807 4.58532 11.5154 4.54109C11.4755 4.57914 11.4327 4.59965 11.3945 4.64648C11.448 4.7119 11.7318 4.73028 11.7318 4.73028C11.7318 4.73028 11.7614 5.03987 11.887 5.07812Z" fill="#C7A079"/>
<path d="M9.16716 7.50213C9.13435 7.56649 9.10961 7.60731 9.07812 7.67124L9.37589 7.69197C9.37589 7.69197 9.43901 8.08709 9.53944 8.22754L9.62315 8.0488C9.53806 7.90427 9.48361 7.50043 9.48361 7.50043C9.48361 7.50043 9.26724 7.51348 9.16716 7.50213Z" fill="#C7A079"/>
<path d="M9.16556 8.10186C9.16556 8.10186 8.97617 8.13969 8.87743 8.10527L8.79297 8.25578C8.87104 8.29663 9.07903 8.29724 9.07903 8.29724C9.07903 8.29724 9.18704 8.81443 9.27207 8.87793L9.34933 8.68401C9.24014 8.55423 9.16556 8.10186 9.16556 8.10186Z" fill="#C7A079"/>
<path d="M8.62045 8.7515L8.54297 8.92722L8.82186 8.92683C8.82186 8.92683 8.8891 9.35012 9.01037 9.48438L9.08346 9.29753C9.00295 9.17373 8.91926 8.74144 8.91926 8.74144L8.62045 8.7515Z" fill="#C7A079"/>
<path d="M8.37411 9.43572L8.31641 9.62303L8.58885 9.60205C8.58885 9.60205 8.6972 9.98946 8.79809 10.125C8.82514 10.0606 8.83855 9.97279 8.86284 9.90971C8.74367 9.74296 8.66766 9.41584 8.66766 9.41584L8.37411 9.43572Z" fill="#C7A079"/>
<path d="M12.0687 4.42959C12.0817 4.59592 12.1992 4.76758 12.1992 4.76758L12.2992 4.67072C12.209 4.56128 12.1726 4.33017 12.1726 4.33017L11.9912 4.30088C11.9001 4.29362 11.707 4.39065 11.707 4.39065C11.7975 4.38617 12.0687 4.42959 12.0687 4.42959Z" fill="#C7A079"/>
<path d="M22.4746 12.9576L22.4616 13.059C22.4518 13.133 21.8836 13.279 21.3155 13.4492C21.3335 13.2024 21.3453 12.9532 21.3524 12.7024C21.9349 12.8347 22.4746 12.9576 22.4746 12.9576ZM17.6609 11.3189L17.4521 13.7949C17.4351 13.9466 17.3982 14.1361 17.3087 14.1733L16.741 14.2596L16.9498 11.7843C16.9656 11.63 17.0039 11.4416 17.0924 11.4046L17.6609 11.3189ZM13.3662 20.7284C11.5956 20.7282 10.0086 19.6 8.92828 17.8157C8.99303 17.8063 9.04132 17.7986 9.06638 17.7949C9.08022 17.7932 9.08798 17.7783 9.0903 17.7515C9.14029 17.16 9.72006 10.3021 9.72117 10.2886C9.72139 10.2741 9.70946 10.2685 9.70057 10.2709C9.69197 10.2728 9.38516 10.3532 9.09838 10.4314C8.93548 10.4768 8.77467 10.5595 8.62014 10.6715C8.62179 10.6619 8.62332 10.6525 8.62482 10.6452C8.50526 10.4808 8.48343 10.1109 8.48343 10.1109L8.15506 10.1791L8.11574 10.3618L8.37712 10.307C8.37712 10.307 8.39269 10.5629 8.49602 10.7697C8.05292 11.1461 7.67574 11.7677 7.47766 12.4693C7.47603 12.3874 7.47337 12.306 7.47337 12.2235C7.47337 7.5262 10.1117 3.71959 13.3662 3.71873C15.7935 3.71873 17.8771 5.83681 18.7802 8.86177C17.8626 9.00136 16.7574 9.17004 16.7574 9.17004C16.6187 9.19102 16.4828 9.23656 16.3505 9.29875L16.3663 9.23208C16.2424 9.15895 15.9417 9.29192 15.9417 9.29192C15.9417 9.29192 15.7733 8.91692 15.6689 8.89363L15.6225 9.07663C15.7714 9.18287 15.8779 9.53651 15.8779 9.53651C15.8779 9.53651 16.0028 9.46618 16.1301 9.42426C15.9818 9.52246 15.8412 9.64353 15.7108 9.78536C15.646 9.68058 15.5582 9.55745 15.4984 9.54999L15.4579 9.73491C15.5119 9.76762 15.563 9.83347 15.6066 9.90426C15.1763 10.4295 14.8698 11.1812 14.8012 11.9966C14.8012 11.9966 14.3958 16.8027 14.3936 16.8376C14.3907 16.8724 14.3893 16.9019 14.4228 16.8991C14.4329 16.8981 14.7553 16.8491 15.1923 16.7826L15.1906 16.8335C15.3533 16.8885 15.5373 17.204 15.5373 17.204C15.5373 17.204 15.8159 16.8876 15.9606 16.8759L15.9752 16.6911C15.8418 16.6595 15.5634 16.9588 15.5634 16.9588C15.5634 16.9588 15.4718 16.8451 15.3756 16.7546C16.3255 16.6103 17.6435 16.4087 17.6435 16.4087C18.0376 16.3491 18.4117 16.109 18.7268 15.7517C18.7061 15.8126 18.6868 15.8745 18.6688 15.9373C17.7134 18.7735 15.6982 20.7282 13.3662 20.7284ZM25.0973 7.84495C24.0529 8.00397 23.0085 8.16282 21.964 8.32151C21.623 8.37324 21.2971 8.56072 21.0108 8.84104C20.009 4.11983 16.9659 0.686272 13.3659 0.686272C9.83011 0.686272 6.83258 4.0003 5.77795 8.59262C4.91307 8.71895 2.72357 9.04947 2.72357 9.04947C1.13014 9.29192 0.678809 11.0799 0.552172 12.1253C0.442757 13.0213 0.497059 13.6535 0.503588 13.8308C0.504376 13.8609 0.512384 13.8977 0.526082 13.9039C0.544979 13.9124 0.570454 13.8983 0.603271 13.844C0.638527 13.7857 1.23266 12.724 1.32044 12.5837C1.408 12.4437 1.78762 11.7886 2.52849 11.6766L5.03885 11.2945C5.03375 11.3713 4.70932 15.4644 4.70932 15.4644C4.65307 16.0036 4.40665 16.3379 3.94679 16.4568C3.94679 16.4568 4.34102 11.5021 4.34138 11.494C4.34301 11.4857 4.34139 11.4754 4.332 11.478C4.322 11.4807 3.76364 11.6182 3.76364 11.6182C2.88366 11.8917 2.13759 13.0748 2.02887 14.3683L1.83738 16.7741C1.30822 16.8519 0.961622 16.7816 0.74437 16.7576C0.670901 16.7502 0.60194 16.7369 0.543057 16.7268C0.518616 16.7226 0.499868 16.7557 0.513493 16.785C0.602976 16.9857 0.816902 17.5313 1.09348 17.9527C1.46696 18.5244 2.01214 18.8081 2.68863 18.8081L4.37117 18.5887C5.37648 18.4357 5.97822 18.1368 6.34645 17.7481C7.70299 21.3311 10.3376 23.7617 13.3659 23.7617C16.9036 23.7617 19.9021 20.4445 20.9557 15.8492C21.9732 15.6948 22.9397 15.5475 22.9397 15.5475C24.49 15.3117 24.5493 14.2571 24.5813 13.6907C24.5845 13.6375 24.6575 12.7158 24.6669 12.4572C24.6976 11.7713 24.3492 11.1545 23.8411 10.9924C23.6351 10.9264 22.7978 10.7162 22.2609 10.5832C22.2705 10.5725 22.2816 10.5646 22.2934 10.5602L23.8031 10.3278C24.3284 10.248 24.7369 9.6915 24.9259 8.8004L25.1215 7.87809C25.1215 7.87809 25.1255 7.83983 25.0973 7.84495Z" fill="#C7A079"/>
<path d="M14.8341 9.51453C14.81 9.51794 11.615 10.0033 11.615 10.0033C10.6386 10.1531 9.77931 11.3948 9.65755 12.8318C9.65755 12.8318 9.24733 17.6988 9.24615 17.7099C9.24534 17.721 9.25312 17.7323 9.26394 17.7302C9.27269 17.7289 11.1567 17.4473 11.3815 17.4146C11.3954 17.4125 11.4037 17.3905 11.4059 17.3768C11.4073 17.3627 11.8132 12.5369 11.8132 12.5369C11.8322 12.4217 11.8695 12.2751 11.9405 12.2425L12.5181 12.1549C12.5181 12.1549 12.0957 17.1658 12.089 17.2391C12.0853 17.2797 12.0995 17.3045 12.1277 17.3009C12.4327 17.2543 14.2035 16.9849 14.2124 16.9832C14.2215 16.9824 14.2425 16.9678 14.2435 16.9447C14.2897 16.4062 14.8642 9.60132 14.8657 9.56328C14.8695 9.5237 14.8606 9.51005 14.8341 9.51453Z" fill="#C7A079"/>
<path d="M6.90077 9.29406C6.66805 8.9475 6.34199 8.7859 5.96561 8.84378L2.73096 9.33722C1.60234 9.50785 0.986286 10.6341 0.801258 11.5468C0.6863 12.1176 0.664225 12.4661 0.650798 12.6985C0.650798 12.6985 0.628452 13.2313 0.633576 13.3974C0.633576 13.4207 0.632738 13.4312 0.642076 13.4378C0.647422 13.4412 0.655257 13.4387 0.666442 13.4213C0.726582 13.3247 0.877979 13.0216 0.914295 12.9551C1.03815 12.7336 1.26599 12.3146 1.41641 12.1273C1.60419 11.894 1.99583 11.4901 2.52135 11.4106L5.13328 11.0138C5.1798 11.0053 5.20988 11.0185 5.21318 11.0266C5.25334 11.0861 5.23038 11.1988 5.23038 11.1988L4.89765 15.4883C4.82559 16.193 4.45499 16.6148 3.75546 16.7446L4.13517 11.8288C4.13633 11.8051 4.12724 11.7918 4.1096 11.7972C4.09154 11.8019 3.79116 11.8919 3.79116 11.8919C2.99281 12.1394 2.31705 13.2105 2.21752 14.3817L2.05131 16.4797L2.00329 17.0095L1.90849 17.0249C1.71686 17.0537 1.47384 17.0743 0.988503 17.0249C0.904218 17.0163 0.861842 17.0022 0.852061 17.0204C0.845039 17.0383 0.84903 17.0604 0.873249 17.1191C0.883104 17.1442 1.07451 17.6664 1.48953 18.1062C1.74768 18.3786 2.15639 18.5312 2.67304 18.5312C2.95681 18.5312 3.25734 18.4919 3.54126 18.4481L3.97522 18.382C5.99503 18.0744 6.61035 17.6874 6.78732 15.7105L7.19797 10.7012C7.24515 10.1466 7.13973 9.64745 6.90077 9.29406Z" fill="#071D3D"/>
<path d="M5.97575 9.11617L2.74058 9.60897C1.09035 9.85953 0.887678 12.1084 0.87701 12.1993C0.865233 12.2901 0.838502 12.6536 0.836802 12.6808C0.833303 12.7066 0.840645 12.7173 0.854861 12.6908C0.869668 12.6621 1.05802 12.3049 1.05802 12.3049C1.06226 12.2951 1.59595 11.2973 2.51126 11.1583L5.12428 10.7609C5.22379 10.7457 5.29985 10.7737 5.34858 10.8485C5.44607 10.9969 5.41517 11.29 5.38482 11.6003C5.37689 11.6755 5.07853 15.5225 5.07853 15.5225C4.95312 16.7817 3.98827 16.929 3.67035 16.9768L3.57892 16.9911C3.57892 16.9911 3.9459 12.1236 3.94656 12.1024C3.94735 12.081 3.93323 12.0729 3.91899 12.0774C3.90566 12.0819 3.81581 12.1095 3.81581 12.1095C3.08213 12.3383 2.46075 13.3207 2.37046 14.395L2.12559 17.2115C1.94588 17.2359 1.74772 17.2589 1.57802 17.2589C1.47521 17.2589 1.15403 17.2269 1.12959 17.2234C1.10666 17.2202 1.10035 17.2384 1.11456 17.2622C1.12871 17.2867 1.23048 17.4712 1.23048 17.4712C1.56425 18.0427 2.05833 18.3386 2.64098 18.2969C3.22308 18.2565 3.64879 18.1706 4.06551 18.118C5.2774 17.9628 6.42063 17.7868 6.60923 15.7055L7.01892 10.6916C7.05906 10.2178 6.9695 9.79134 6.76898 9.49413C6.5755 9.20616 6.28751 9.06785 5.97575 9.11617Z" fill="#1D467D"/>
<path d="M22.2682 10.2959L23.7957 10.062C24.1791 10.0034 24.5301 9.54143 24.6737 9.02274C24.7289 8.822 24.8299 8.30356 24.853 8.18402C24.8558 8.1676 24.8471 8.16095 24.8337 8.1618C24.8203 8.16589 21.9709 8.60841 21.9709 8.60841C21.1009 8.74096 20.3044 9.89097 20.1971 11.1714C20.1971 11.1714 20.1225 12.1166 20.1217 12.1262C20.1217 12.1352 20.1242 12.1403 20.1287 12.1411C20.1316 12.142 22.6868 12.7676 22.6868 12.7676C22.6868 12.7676 22.6678 12.9224 22.6434 13.1599C22.6175 13.3961 21.5138 13.5864 21.0676 13.7709C20.3931 14.0491 19.7154 14.2911 19.0868 15.3726C18.9912 15.539 18.9179 15.7725 18.8786 15.8614C18.8706 15.8806 18.8757 15.9043 18.8952 15.9022C18.9163 15.8999 22.9978 15.272 22.9978 15.272C23.8357 15.1448 24.2969 14.6855 24.3673 13.908L24.3755 13.8132C24.4063 13.4883 24.4617 12.8819 24.4772 12.4693C24.5005 11.9222 24.2046 11.4078 23.7889 11.2736C23.5376 11.1943 22.3408 10.8975 21.9814 10.8094C22.0265 10.5195 22.1252 10.3463 22.2682 10.2959Z" fill="#071D3D"/>
<path d="M22.2514 10.0464L23.7868 9.81086C24.2781 9.73516 24.4888 9.07603 24.5716 8.69096C24.5716 8.69096 24.6066 8.5204 24.6083 8.50412C24.6106 8.48766 24.6024 8.48254 24.5866 8.48446C24.5713 8.48641 21.9817 8.88104 21.9817 8.88104C21.194 9.00016 20.4756 10.0421 20.3773 11.2046C20.3773 11.2046 20.318 11.9319 20.3177 11.9405C20.3177 11.9488 20.3204 11.9548 20.3255 11.9565C20.3311 11.9569 22.8825 12.61 22.8825 12.61C22.8811 12.6343 22.8793 12.6586 22.8772 12.6828L22.847 13.0402C22.7902 13.5433 22.5415 13.6112 21.5073 13.8896C21.2635 13.9552 19.8315 14.4228 19.3335 15.3365C19.2803 15.4371 19.2425 15.5142 19.2223 15.5617C19.2085 15.5938 19.2141 15.6087 19.2369 15.6062C19.5027 15.563 22.3558 15.1198 22.7422 15.0608C23.6432 14.924 24.0896 14.7031 24.1892 13.8122C24.2459 13.2985 24.2823 12.8491 24.2972 12.4773C24.315 12.0508 24.0767 11.6503 23.7418 11.5424C23.454 11.4504 21.8404 11.0534 21.8249 11.0506C21.811 11.0477 21.779 11.0235 21.7816 10.9773C21.8324 10.3171 22.0634 10.1061 22.2514 10.0464Z" fill="#1D467D"/>
<path d="M22.1084 9.19967L24.426 8.84628C24.4457 8.77488 24.4626 8.70665 24.4749 8.64852L21.994 9.02651C21.25 9.13894 20.5704 10.1243 20.479 11.2209L20.4297 11.8343L20.5562 11.8672L20.594 11.3932C20.693 10.2344 21.3653 9.31256 22.1084 9.19967Z" fill="white"/>
<path d="M21.9246 11.3685C22.0923 11.4085 23.5696 11.7726 23.837 11.8583C23.9399 11.8908 24.0322 11.9558 24.1071 12.042C24.022 11.8701 23.8864 11.7307 23.7218 11.6841C23.4402 11.606 21.9766 11.2362 21.8088 11.1938C21.8056 11.1938 21.8024 11.1919 21.8008 11.1913C21.8114 11.2856 21.8663 11.3536 21.9246 11.3685Z" fill="white"/>
<path d="M23.0601 13.2365L23.0885 12.9057C23.0982 12.7946 23.1178 12.6684 23.0431 12.6477L22.981 12.6313C22.9793 12.6646 22.9446 13.0629 22.9446 13.0629C22.8708 13.713 22.6856 13.7297 21.5234 14.0325C21.078 14.1498 19.709 14.766 19.418 15.415C19.5016 15.402 19.5841 15.3909 19.6645 15.3785C20.1122 14.8094 21.2415 14.3098 21.639 14.2063C22.8024 13.9044 22.9868 13.8851 23.0601 13.2365Z" fill="white"/>
<path d="M8.9451 10.7846C8.2586 11.0769 7.62061 12.1634 7.5298 13.2392C7.5298 13.2392 7.15078 17.7325 7.14849 17.7704C7.14738 17.8086 7.16492 17.8174 7.18145 17.8163C7.19648 17.8129 8.76 17.5756 8.90718 17.5532C8.91391 17.551 8.91851 17.5446 8.91962 17.5335C8.9537 17.1375 9.50213 10.6217 9.50264 10.6061C9.50301 10.5942 9.49353 10.579 9.48042 10.5845C9.46835 10.5882 9.21774 10.6683 8.9451 10.7846Z" fill="#071D3D"/>
<path d="M9.15646 10.9821C8.42377 11.2102 7.80325 12.1922 7.71229 13.268C7.71229 13.268 7.35867 17.4714 7.35667 17.496C7.35258 17.5221 7.35815 17.536 7.38496 17.5327C7.40928 17.5276 8.62567 17.3425 8.74842 17.3245C8.75546 17.3228 8.75825 17.3172 8.75923 17.3076C8.78895 16.9595 9.29278 10.9785 9.29345 10.9656C9.29542 10.9528 9.28832 10.9408 9.27699 10.9443C9.26558 10.9483 9.15646 10.9821 9.15646 10.9821Z" fill="#1D467D"/>
<path d="M9.15996 11.3495L9.17923 11.1233C8.49226 11.339 7.89912 12.2703 7.8137 13.285L7.46875 17.3721L7.60081 17.352L7.92851 13.4571C8.00661 12.4339 8.53227 11.6347 9.15996 11.3495Z" fill="white"/>
<path d="M11.6248 10.2909C10.7537 10.4237 9.95732 11.5745 9.84875 12.8571C9.84875 12.8571 9.46593 17.3978 9.46512 17.4113C9.46364 17.4269 9.46807 17.4382 9.48037 17.4363C9.49244 17.4344 11.0297 17.2014 11.2182 17.1706C11.2309 17.1704 11.2382 17.1515 11.2397 17.1374C11.2405 17.125 11.629 12.5182 11.629 12.5182C11.6767 12.2105 11.7765 12.029 11.9179 11.9786L12.7382 11.8529C12.7382 11.8529 12.3152 16.898 12.3082 16.9412C12.3019 16.9824 12.3164 17.0057 12.3426 17.0014C12.6024 16.9619 14.0474 16.7406 14.0572 16.7396C14.0625 16.7394 14.0674 16.7363 14.0712 16.731C14.0749 16.7258 14.0771 16.7187 14.0774 16.7111C14.1168 16.2538 14.6522 9.93043 14.6522 9.88982C14.6539 9.84684 14.6287 9.83336 14.6102 9.83635C14.5911 9.84044 11.6248 10.2909 11.6248 10.2909Z" fill="#071D3D"/>
<path d="M11.6334 10.5629C10.8471 10.6833 10.127 11.7249 10.0298 12.8854C10.0298 12.8854 9.67365 17.1053 9.67222 17.126C9.67089 17.1454 9.6731 17.154 9.68473 17.1521C9.69646 17.1502 10.8905 16.968 11.0557 16.943C11.069 16.9408 11.0763 16.9274 11.0785 16.9103C11.079 16.9 11.4493 12.4957 11.4493 12.4957C11.5349 11.9293 11.766 11.7715 11.8993 11.7281L12.8905 11.5759C12.9004 11.5759 12.9138 11.5759 12.9269 11.593C12.9366 11.6071 12.9398 11.6261 12.9371 11.6479C12.9371 11.6479 12.5153 16.6249 12.5153 16.6623C12.5133 16.6986 12.5246 16.72 12.5526 16.7153C12.7858 16.6802 13.8797 16.5128 13.8903 16.5124C13.9089 16.5107 13.916 16.4852 13.9173 16.4707C13.9504 16.0767 14.446 10.1828 14.4501 10.1644C14.4503 10.146 14.4402 10.1364 14.4293 10.1377C14.4168 10.1398 11.6334 10.5629 11.6334 10.5629Z" fill="#1D467D"/>
<path d="M11.7596 10.8813L14.3192 10.4928L14.3343 10.3L11.644 10.7085C10.8994 10.8221 10.2215 11.8051 10.1289 12.9029L9.78516 16.9902L9.91689 16.9697L10.2456 13.0766C10.3371 11.9793 11.0164 10.9944 11.7596 10.8813Z" fill="white"/>
<path d="M13.1147 11.6647C13.0952 11.6335 13.0671 11.6139 13.0378 11.6072C13.0396 11.6266 13.0398 11.6462 13.0385 11.6656L12.625 16.5576L12.7572 16.5373L13.1538 11.8403C13.1597 11.7731 13.1448 11.7103 13.1147 11.6647Z" fill="white"/>
<path d="M2.33277 17.5179L2.58698 14.5861C2.66789 13.6349 3.19277 12.7592 3.82385 12.4757C3.83489 12.3235 3.83837 12.2521 3.83837 12.2521C3.15083 12.4657 2.55774 13.398 2.47101 14.4123L2.21754 17.3445C1.87553 17.3945 1.51562 17.4035 1.30859 17.3765C1.35117 17.4497 1.41754 17.5403 1.42392 17.5501C1.64036 17.6053 1.99196 17.5666 2.33277 17.5179Z" fill="white"/>
<path d="M2.86583 9.92672L6.10144 9.43477C6.35528 9.39609 6.58365 9.48803 6.75409 9.69369C6.73603 9.65921 6.71646 9.62643 6.6955 9.59555C6.52122 9.33749 6.269 9.21845 5.98671 9.26119L2.74999 9.75442C1.16152 9.99623 0.976562 12.2158 0.976562 12.2158C0.976562 12.2158 1.04367 12.0882 1.17196 11.9154C1.32484 11.2473 1.74683 10.0971 2.86583 9.92672Z" fill="white"/>
<path d="M3.79773 17.295C4.12629 17.2447 5.15725 17.0889 5.29472 15.7164C5.29472 15.7164 5.59256 11.8682 5.60116 11.796C5.63642 11.449 5.66857 11.1198 5.53841 10.9211C5.51823 10.8911 5.49515 10.8655 5.46989 10.845C5.54344 11.0464 5.51515 11.3263 5.4862 11.6213C5.47709 11.6957 5.1791 15.5434 5.1791 15.5434C5.04221 16.9166 4.01185 17.072 3.68159 17.1214L3.58232 17.134L3.56641 17.3281L3.79773 17.295Z" fill="white"/>
<path d="M17.3386 14.4558L16.5272 14.5794L16.763 11.7759C16.7894 11.5258 16.8636 11.2121 17.0666 11.1429L17.8791 11.0193L17.6413 13.8204C17.6161 14.0723 17.5408 14.3864 17.3386 14.4558ZM16.7662 9.45604C15.8961 9.58817 15.0992 10.739 14.9912 12.022C14.9912 12.022 14.6105 16.5427 14.6097 16.5625C14.608 16.5822 14.6132 16.6038 14.6322 16.6002C14.6509 16.5976 17.6403 16.1429 17.6403 16.1429C18.5086 16.0099 19.3055 14.8588 19.4142 13.5765C19.4142 13.5765 19.7942 9.06415 19.7966 9.03805C19.7978 9.00985 19.7792 8.99681 19.7637 9.00025C19.7461 9.00193 16.7662 9.45604 16.7662 9.45604Z" fill="#071D3D"/>
<path d="M17.8206 13.8367L17.8177 13.8592C17.7564 14.4723 17.5338 14.671 17.3566 14.7283L16.3718 14.8781C16.3614 14.8801 16.3489 14.8794 16.3356 14.86C16.326 14.8469 16.3226 14.8277 16.3245 14.8052L16.5807 11.7634C16.6434 11.144 16.8683 10.9478 17.043 10.8932L17.0564 10.8909L18.0265 10.7425C18.0414 10.7408 18.0541 10.7472 18.0636 10.7598C18.0728 10.7737 18.0766 10.7934 18.0745 10.8163L17.8206 13.8367ZM19.5671 9.30366C19.5569 9.30537 16.7725 9.72866 16.7725 9.72866C15.9865 9.84862 15.265 10.8913 15.1692 12.0516C15.1692 12.0516 14.8137 16.2545 14.8127 16.2766C14.8107 16.2999 14.8275 16.3174 14.8413 16.3153C14.8547 16.314 17.6257 15.8924 17.6257 15.8924C18.4125 15.772 19.1333 14.7306 19.232 13.5688C19.232 13.5688 19.5849 9.34725 19.5879 9.32823C19.5893 9.309 19.5775 9.30153 19.5671 9.30366Z" fill="#1D467D"/>
<path d="M18.1756 10.8325L17.9186 13.8797C17.8435 14.619 17.5439 14.8189 17.3717 14.8722L16.3813 15.0237C16.3674 15.0258 16.3534 15.0242 16.3398 15.0192C16.3447 15.0633 16.3573 15.1041 16.3785 15.136C16.4089 15.1813 16.4532 15.2037 16.4984 15.1971L17.4879 15.0464C17.6595 14.9938 17.9585 14.7926 18.0339 14.0535L18.2909 11.0053C18.298 10.9407 18.2828 10.8768 18.251 10.831C18.2308 10.8006 18.204 10.781 18.1748 10.7731C18.1756 10.793 18.1771 10.8133 18.1756 10.8325Z" fill="white"/>
<path d="M16.8999 10.0474L19.4585 9.6581L19.4748 9.46546L16.7844 9.8736C16.0409 9.98603 15.3619 10.9706 15.2702 12.0688L14.9258 16.1553L15.0578 16.135L15.3855 12.2411C15.4775 11.1446 16.1576 10.1599 16.8999 10.0474Z" fill="white"/>
<path d="M21.6679 12.7738C21.5665 12.7509 21.4606 12.7268 21.3533 12.7024V12.7027C21.3505 12.7961 21.3469 12.8894 21.3426 12.9827C21.3387 13.0708 21.334 13.1588 21.3286 13.2467C21.3246 13.3141 21.3213 13.3819 21.3164 13.4492C21.4255 13.4163 21.5346 13.3846 21.6399 13.3541C21.6523 13.1614 21.6619 12.9679 21.6679 12.7738Z" fill="#071D3D"/>
<path d="M5.77788 8.59264C5.90822 8.02538 6.06905 7.47368 6.2589 6.94254C6.26055 6.93806 6.26218 6.93337 6.2638 6.92889C6.31028 6.79945 6.35838 6.67122 6.40808 6.54429C6.40919 6.54148 6.41032 6.53892 6.41126 6.53614C6.60918 6.0334 6.83296 5.55279 7.08073 5.09838C7.09044 5.08064 7.09992 5.0629 7.10963 5.04516C7.16566 4.94373 7.2228 4.84358 7.28103 4.74475C7.29278 4.72487 7.30481 4.70521 7.31666 4.68555C7.50285 4.37433 7.70036 4.07759 7.90835 3.79659C7.91737 3.78443 7.92619 3.77198 7.93523 3.75961C7.99337 3.68178 8.05285 3.6063 8.11254 3.53106C8.13937 3.49707 8.16611 3.4635 8.19316 3.43015C8.24955 3.36091 8.30663 3.29285 8.36439 3.22599C8.3959 3.18945 8.42771 3.15346 8.45981 3.11801C8.51684 3.05366 8.57395 2.9893 8.63217 2.9275C8.66319 2.89458 8.69505 2.86272 8.72653 2.83065C8.82932 2.7248 8.93381 2.62244 9.03992 2.52366C9.0838 2.4826 9.12726 2.44135 9.17163 2.40178C9.22342 2.35559 9.276 2.31158 9.32853 2.26688C9.42797 2.18224 9.52876 2.10091 9.6308 2.02297C9.6859 1.98098 9.74136 1.93999 9.79718 1.90002C9.84532 1.86535 9.89324 1.82987 9.942 1.79677C10.0211 1.74205 10.1013 1.6907 10.1819 1.64004C10.2309 1.60925 10.2802 1.5791 10.3297 1.5498C10.4115 1.50104 10.4938 1.45422 10.5766 1.40935C10.6203 1.38585 10.6645 1.36402 10.7085 1.34158C10.7783 1.30606 10.8486 1.27143 10.9193 1.23872C10.9648 1.21782 11.0103 1.19709 11.0561 1.17718C11.1306 1.14468 11.2056 1.11453 11.2809 1.08505C11.322 1.06898 11.3628 1.05252 11.4042 1.03734C11.5166 0.99619 11.6296 0.958563 11.7432 0.924482C11.7543 0.921069 11.7654 0.918046 11.7766 0.91506C11.8881 0.882841 12.0001 0.853905 12.1124 0.828269C12.1519 0.819487 12.1914 0.812234 12.231 0.804127C12.3145 0.786776 12.3984 0.771167 12.4827 0.757905C12.5262 0.751078 12.5699 0.744465 12.6135 0.738492C12.6995 0.7269 12.7857 0.71794 12.8722 0.71026C12.9113 0.706811 12.9502 0.702544 12.9895 0.700198C13.1142 0.691665 13.2396 0.686296 13.3658 0.686296C13.4928 0.686296 13.619 0.691665 13.7445 0.700198C13.7842 0.702758 13.8236 0.707025 13.8631 0.710688C13.9493 0.717922 14.0354 0.727323 14.1213 0.738883C14.2484 0.756435 14.3751 0.778189 14.5015 0.804127C14.5437 0.812874 14.5861 0.82098 14.6281 0.830616C14.7223 0.852369 14.8162 0.876527 14.9098 0.903078C14.9366 0.910794 14.964 0.917193 14.9909 0.925122C15.1094 0.960471 15.2273 0.999818 15.3446 1.04313C15.377 1.05511 15.4089 1.06834 15.4412 1.08096C15.5262 1.11414 15.6108 1.14813 15.6946 1.18486C15.7368 1.20357 15.7788 1.22282 15.8208 1.2426C15.8947 1.27714 15.9684 1.31313 16.0417 1.35058C16.0845 1.37224 16.1272 1.39454 16.1697 1.41746C16.245 1.45843 16.32 1.50106 16.3945 1.54532C16.4311 1.56715 16.4683 1.58788 16.5048 1.61035C16.6122 1.67637 16.7185 1.74572 16.8238 1.81835C16.8465 1.83396 16.8686 1.8517 16.8911 1.86752C16.9746 1.92697 17.0575 1.98745 17.1393 2.05074C17.1798 2.08217 17.2195 2.1151 17.2595 2.14717C17.3229 2.19834 17.3858 2.25057 17.4484 2.30386C17.4908 2.34053 17.5331 2.37766 17.5752 2.41526C17.6351 2.4689 17.6944 2.52378 17.7532 2.57988C17.7937 2.61838 17.8345 2.65639 17.8744 2.69597C17.9405 2.76139 18.0052 2.82852 18.0697 2.89629C18.1003 2.92857 18.1316 2.95936 18.1618 2.99229C18.2508 3.0888 18.3383 3.18802 18.4243 3.28989C18.463 3.33565 18.5005 3.3829 18.5386 3.42969C18.5894 3.49213 18.6402 3.55435 18.6898 3.6187C18.7309 3.67129 18.7712 3.72537 18.8114 3.77927C18.8567 3.84038 18.9016 3.90217 18.946 3.96462C18.9863 4.02102 19.0263 4.07797 19.0658 4.13547C19.1096 4.19979 19.1523 4.26564 19.1951 4.33127C19.2325 4.3888 19.2704 4.44587 19.3071 4.50468C19.3716 4.60818 19.4348 4.71338 19.4967 4.82023C19.5394 4.89496 19.5816 4.97037 19.6233 5.04644C19.6606 5.11399 19.6981 5.18134 19.7342 5.25042C19.7711 5.32007 19.8066 5.39086 19.8423 5.46205C19.875 5.52686 19.9071 5.59221 19.9388 5.6581C19.9742 5.73162 20.009 5.80573 20.0432 5.88043C20.073 5.94597 20.1024 6.01198 20.1312 6.07844C20.1647 6.15517 20.1985 6.2315 20.2307 6.3093C20.2584 6.37643 20.2847 6.44462 20.3115 6.51264C20.369 6.6576 20.4242 6.80444 20.477 6.95303C20.5011 7.01998 20.5258 7.08665 20.5488 7.15506C20.5774 7.23929 20.6043 7.32505 20.6316 7.41035C20.6534 7.47876 20.6752 7.5472 20.6961 7.61646C20.7222 7.70318 20.7476 7.79034 20.7722 7.8779C20.7918 7.94761 20.811 8.0176 20.8296 8.08786C20.8533 8.17658 20.8764 8.26566 20.8988 8.3551C20.9161 8.42589 20.9323 8.49728 20.9488 8.56868C20.9697 8.65931 20.9914 8.74934 21.0108 8.84082C21.1002 8.75389 21.1937 8.67604 21.2906 8.60782C21.2127 8.2527 21.1242 7.90166 21.0228 7.55595C20.6042 6.12736 20.0055 4.8448 19.2424 3.744C18.4789 2.64295 17.5904 1.7771 16.601 1.17398C15.576 0.548625 14.487 0.232216 13.3658 0.232216C12.2445 0.232216 11.1565 0.548625 10.1315 1.17398C9.14229 1.7771 8.25337 2.64295 7.49013 3.744C6.72726 4.8448 6.12817 6.12736 5.70936 7.55595C5.60534 7.91184 5.51331 8.27479 5.43359 8.64352C5.56205 8.6245 5.67893 8.6074 5.77788 8.59264Z" fill="#071D3D"/>
<path d="M20.9535 15.8492C20.8236 16.4157 20.6632 16.9668 20.4739 17.4973C20.4715 17.5037 20.4693 17.5102 20.4671 17.5168C20.421 17.6454 20.3732 17.7728 20.3237 17.8988C20.3226 17.9018 20.3213 17.905 20.32 17.908C20.1225 18.4103 19.8991 18.8906 19.6518 19.3447C19.6418 19.3633 19.6316 19.3821 19.6212 19.4007C19.5656 19.5019 19.5088 19.6017 19.4507 19.7001C19.4388 19.7201 19.4266 19.7403 19.4145 19.7605C19.23 20.0688 19.0344 20.3629 18.8285 20.6416C18.8173 20.6568 18.8066 20.6724 18.7953 20.6873C18.7376 20.7643 18.6788 20.8394 18.6197 20.914C18.5923 20.9484 18.5651 20.983 18.5374 21.0168C18.4813 21.0857 18.4245 21.1534 18.3671 21.2199C18.3352 21.257 18.303 21.2935 18.2705 21.3296C18.2138 21.3933 18.1572 21.4572 18.0992 21.5188C18.0673 21.5528 18.0345 21.5849 18.0023 21.6182C17.901 21.7224 17.7981 21.8234 17.6937 21.921C17.6487 21.9626 17.6042 22.0052 17.5586 22.0458C17.5071 22.0912 17.4552 22.1358 17.403 22.1794C17.3535 22.2217 17.3036 22.2631 17.2534 22.3036C17.2027 22.3446 17.1516 22.3847 17.1002 22.424C17.0448 22.4662 16.9889 22.5074 16.9327 22.5476C16.8849 22.5824 16.8373 22.6173 16.789 22.6506C16.7075 22.7063 16.6253 22.7598 16.5424 22.8112C16.4953 22.8408 16.448 22.8697 16.4005 22.8978C16.3189 22.9461 16.2368 22.9937 16.1537 23.0382C16.11 23.0615 16.0658 23.0833 16.022 23.1056C15.952 23.1418 15.8817 23.1762 15.8109 23.2088C15.7656 23.23 15.72 23.2505 15.6743 23.2702C15.5994 23.3026 15.5242 23.3334 15.4486 23.3626C15.4078 23.3786 15.3672 23.3953 15.3261 23.4102C15.213 23.4517 15.0993 23.4896 14.985 23.524C14.9736 23.5274 14.9622 23.53 14.9508 23.5334C14.8402 23.5653 14.729 23.594 14.6175 23.6193C14.578 23.6283 14.5384 23.6358 14.4988 23.6437C14.4151 23.6611 14.3312 23.6765 14.2472 23.6899C14.2036 23.6967 14.1599 23.7032 14.1162 23.7093C14.0302 23.7206 13.944 23.7299 13.8577 23.7373C13.8186 23.7408 13.7795 23.745 13.7403 23.7478C13.6154 23.7559 13.4901 23.7617 13.3637 23.7617C13.241 23.7617 13.119 23.7559 12.9975 23.7482C12.9655 23.7459 12.9336 23.7437 12.9017 23.7412C12.7942 23.7322 12.6872 23.7206 12.581 23.7059C12.5663 23.7038 12.5515 23.7025 12.5369 23.7003C12.419 23.6826 12.3014 23.661 12.1842 23.6356C12.1537 23.6289 12.1232 23.6217 12.0927 23.6148C11.9954 23.5924 11.8985 23.5675 11.8018 23.54C11.7793 23.5334 11.7567 23.5278 11.7344 23.521C11.6211 23.4871 11.5083 23.4495 11.3962 23.4083C11.3678 23.3983 11.3398 23.3869 11.3115 23.3762C11.2205 23.3414 11.1302 23.3042 11.0405 23.2649C11.0137 23.2533 10.9868 23.242 10.9603 23.23C10.8519 23.181 10.7443 23.1284 10.6375 23.0724C10.6125 23.0592 10.5879 23.0451 10.563 23.0318C10.4766 22.9853 10.3909 22.9365 10.3057 22.8856C10.2766 22.8683 10.2474 22.8509 10.2186 22.833C10.1157 22.7696 10.0138 22.7031 9.91285 22.6335C9.89221 22.6192 9.8721 22.6042 9.85153 22.5892C9.76819 22.5305 9.68561 22.4695 9.60385 22.4063C9.5736 22.383 9.54332 22.3599 9.51338 22.3357C9.41649 22.2592 9.3207 22.1798 9.22609 22.0975C9.21221 22.0854 9.19874 22.0725 9.18489 22.0603C9.07127 21.9589 8.95931 21.8537 8.84911 21.7447C8.77193 21.6685 8.6957 21.5903 8.62045 21.5102C8.60421 21.4927 8.5877 21.4767 8.57172 21.4591C8.48548 21.3657 8.40125 21.2693 8.31778 21.1712C8.28844 21.1366 8.25934 21.1017 8.23046 21.0664C8.16608 20.9885 8.10257 20.9091 8.03994 20.8282C8.01752 20.7994 7.99471 20.7712 7.97248 20.7417C7.89442 20.6386 7.8178 20.5332 7.74269 20.4256C7.71544 20.3868 7.68878 20.3472 7.66181 20.3077C7.60636 20.2263 7.55181 20.1437 7.49819 20.0598C7.47367 20.0216 7.44877 19.984 7.42465 19.945C7.35449 19.8331 7.286 19.7191 7.21922 19.603C7.19485 19.5609 7.17122 19.5177 7.1473 19.4751C7.09895 19.3889 7.05147 19.3017 7.00487 19.2134C6.98065 19.1675 6.95636 19.1224 6.93259 19.076C6.87066 18.9552 6.8103 18.8327 6.75155 18.7087C6.73123 18.6653 6.71176 18.6212 6.69193 18.5778C6.64911 18.4845 6.60724 18.3903 6.56635 18.2952C6.5442 18.2437 6.52205 18.1921 6.50057 18.1402C6.44673 18.011 6.39463 17.8803 6.34429 17.7481C6.26577 17.8311 6.17577 17.9097 6.07422 17.9839C6.45213 18.9796 6.9251 19.8914 7.48804 20.7045C8.25128 21.8057 9.1402 22.6701 10.1294 23.2738C11.1544 23.8992 12.2424 24.2158 13.3637 24.2158C14.4849 24.2158 15.5739 23.8992 16.5989 23.2738C17.5883 22.6703 18.4768 21.8057 19.2403 20.7045C20.0034 19.6026 20.6021 18.3202 21.0207 16.8923C21.1263 16.5325 21.2185 16.1666 21.2985 15.7968C21.185 15.8139 21.0697 15.8314 20.9535 15.8492Z" fill="#071D3D"/>
<path d="M8.62778 4.65581L8.58053 4.5814C8.54911 4.53286 8.52014 4.5025 8.49334 4.49119C8.46601 4.47942 8.4429 4.48625 8.42423 4.51064C8.39668 4.54847 8.3837 4.58268 8.38565 4.61624C8.38816 4.65002 8.402 4.68746 8.42832 4.72934L8.79431 5.30488C8.81584 5.33845 8.83806 5.35832 8.85984 5.36067C8.88184 5.36472 8.90473 5.35018 8.92814 5.31878C8.94341 5.29933 8.9525 5.27814 8.95571 5.25421C8.95856 5.23162 8.95706 5.20833 8.95139 5.18687C8.94586 5.1636 8.93781 5.14174 8.92755 5.12209C8.91695 5.10179 8.90525 5.08017 8.89148 5.05987L8.82362 4.95295L9.01296 4.70239L9.10392 4.84458C9.17109 4.94997 9.20161 5.06307 9.19622 5.18193C9.19057 5.30168 9.14088 5.42396 9.048 5.54691C8.9631 5.65916 8.88184 5.70915 8.80379 5.69759C8.72562 5.68586 8.64749 5.61937 8.56939 5.49752L8.26529 5.01987C8.18453 4.89397 8.14624 4.77361 8.14853 4.65837C8.15164 4.54335 8.19594 4.42726 8.28217 4.31306C8.36512 4.20213 8.44675 4.14502 8.52541 4.1399C8.6046 4.13564 8.68097 4.19078 8.75452 4.30733L8.8171 4.40415L8.62778 4.65581Z" fill="#071D3D"/>
<path d="M9.67353 4.74707L9.08984 3.41043L9.30695 3.21267L9.53132 3.72599L9.68242 3.58917L9.45768 3.07603L9.67552 2.87767L10.2588 4.21559L10.0417 4.41207L9.79819 3.85619L9.64768 3.99262L9.89086 4.54931L9.67353 4.74707Z" fill="#071D3D"/>
<path d="M10.6666 2.51866L10.664 2.52037L10.7757 3.21818L10.9146 3.13822L10.6666 2.51866ZM10.6317 3.93164L10.4492 2.33544L10.7369 2.17104L11.3632 3.51152L11.1214 3.64965L11.009 3.38408L10.8216 3.49164L10.8719 3.79351L10.6317 3.93164Z" fill="#071D3D"/>
<path d="M11.8743 2.41351L11.872 2.4182L12.0131 3.27573L11.7742 3.34375L11.5625 1.79328L11.8215 1.71996L12.1344 2.53067L12.1392 2.52981L11.9966 1.67015L12.235 1.60174L12.447 3.15218L12.1891 3.22595L11.8743 2.41351Z" fill="#071D3D"/>
<path d="M13.4313 3.07429L13.4194 2.93445H13.4159C13.3898 3.00051 13.361 3.04691 13.3286 3.07361C13.2963 3.09993 13.2517 3.11319 13.1956 3.11425C13.1434 3.11447 13.0981 3.10423 13.0609 3.08005C13.0251 3.05735 12.994 3.02154 12.9707 2.97616C12.9472 2.93082 12.9306 2.87866 12.9198 2.81815C12.9098 2.75699 12.9046 2.69097 12.9038 2.61548L12.8985 1.96702C12.8974 1.79557 12.9237 1.66903 12.9793 1.5854C13.0348 1.50227 13.1211 1.45993 13.239 1.45779C13.3521 1.4552 13.4385 1.49136 13.4992 1.56361C13.5597 1.63632 13.5904 1.75173 13.5921 1.90889L13.593 2.02668L13.3355 2.03137L13.3346 1.94394C13.3346 1.87191 13.3286 1.8195 13.3177 1.7881C13.3066 1.75859 13.2852 1.74341 13.2532 1.74149C13.2151 1.74341 13.189 1.75646 13.1753 1.78316C13.1617 1.8099 13.1546 1.852 13.1556 1.90803L13.1617 2.68944C13.1621 2.73584 13.17 2.77025 13.1852 2.79401C13.2015 2.81836 13.2254 2.83013 13.2575 2.82928C13.2779 2.82839 13.2943 2.82284 13.3075 2.81153C13.3197 2.80019 13.3286 2.78458 13.3346 2.76748C13.3399 2.74778 13.3438 2.72769 13.345 2.70657C13.346 2.6841 13.3467 2.65737 13.3467 2.62508L13.3459 2.50046L13.2537 2.50238L13.2508 2.21783L13.5999 2.21228L13.6067 3.07152L13.4313 3.07429Z" fill="#071D3D"/>
<path d="M14.8659 2.84818L14.8694 2.84925L15.0966 1.78564L15.3351 1.85341L14.9451 3.35254L14.6613 3.27129L14.7328 2.1589L14.7301 2.15766L14.4978 3.22553L14.2188 3.14578L14.2495 1.54489L14.4933 1.61377L14.4205 2.72463L14.424 2.72036L14.6737 1.66443L14.9171 1.73391L14.8659 2.84818Z" fill="#071D3D"/>
<path d="M16.2353 2.83312C16.2438 2.80513 16.2508 2.7801 16.2551 2.75721C16.2594 2.73598 16.2616 2.71395 16.2615 2.69182C16.2615 2.6702 16.2578 2.65011 16.2501 2.63088C16.2419 2.61267 16.2292 2.59881 16.21 2.58682C16.192 2.57509 16.1762 2.57249 16.1606 2.5768C16.1456 2.58192 16.133 2.5907 16.122 2.60627C16.1107 2.6226 16.1008 2.64083 16.0925 2.66057C16.0831 2.68296 16.0748 2.70617 16.0675 2.73008L15.8912 3.32698C15.8842 3.35085 15.878 3.37517 15.8726 3.39987C15.8684 3.42403 15.8659 3.44876 15.8652 3.47365C15.8652 3.49801 15.8691 3.51962 15.8769 3.54014C15.8848 3.56065 15.8977 3.57584 15.9149 3.58697C15.9331 3.59763 15.9499 3.60062 15.9654 3.59529C15.9806 3.58979 15.9942 3.5777 16.0044 3.56065C16.0157 3.54321 16.0255 3.52391 16.0337 3.50316C16.0422 3.48179 16.0505 3.45761 16.0587 3.43045L16.2353 2.83312ZM16.3034 3.54718C16.2529 3.71738 16.1916 3.82789 16.1194 3.87859C16.0473 3.93075 15.9534 3.9198 15.8376 3.84865C15.722 3.77616 15.6503 3.68489 15.6256 3.57285C15.6009 3.46145 15.6133 3.32055 15.6632 3.15148L15.8381 2.5614C15.8795 2.42113 15.9395 2.33221 16.0176 2.29157C16.0957 2.2505 16.1856 2.26206 16.2888 2.32641C16.3919 2.38906 16.4598 2.47521 16.4916 2.58426C16.5241 2.69242 16.5197 2.81665 16.4788 2.95649L16.3034 3.54718Z" fill="#071D3D"/>
<path d="M17.1079 3.77677L17.104 3.77783L16.7852 4.52912L16.582 4.33499L17.1891 3.01993L17.4088 3.23053L17.235 4.12418L17.2385 4.12827L17.5571 3.37357L17.7602 3.56916L17.1529 4.88379L16.9345 4.6728L17.1079 3.77677Z" fill="#071D3D"/>
<path d="M7.90122 5.54138L7.98957 5.91126L8.21594 5.69747L8.11885 6.06198L8.38781 6.10838L8.15048 6.29779L8.3361 6.58255L8.07024 6.50774L8.08514 6.89814L7.91477 6.59368L7.75234 6.90625L7.75759 6.51525L7.49397 6.60566L7.6716 6.31041L7.42969 6.13359L7.69752 6.0729L7.59109 5.71393L7.82322 5.91553L7.90122 5.54138Z" fill="#071D3D"/>
<path d="M18.108 4.38568L18.1958 4.75553L18.4227 4.54198L18.3254 4.90628L18.5943 4.95265L18.3571 5.14251L18.5426 5.42685L18.2766 5.35226L18.2918 5.74241L18.1212 5.43798L17.9592 5.75098L17.9641 5.36036L17.7007 5.44975L17.8782 5.15467L17.6367 4.97832L17.9045 4.91674L17.7976 4.55798L18.0293 4.75979L18.108 4.38568Z" fill="#071D3D"/>
<path d="M9.72799 20.7114L9.96569 20.5216L9.69608 20.4747L9.79355 20.11L9.56718 20.3247L9.47935 19.9552L9.40066 20.3281L9.16874 20.1267L9.27547 20.4865L9.00781 20.5477L9.24926 20.7236L9.07165 21.0188L9.33519 20.9293L9.33029 21.3203L9.49223 21.0071L9.6628 21.3111L9.64784 20.921L9.91376 20.9955L9.72799 20.7114Z" fill="#071D3D"/>
<path d="M18.4696 19.1736L18.5677 18.8097L18.3404 19.0235L18.2521 18.6536L18.1741 19.0278L17.9425 18.8253L18.049 19.1854L17.7812 19.2468L18.0225 19.4227L17.8447 19.7169L18.1083 19.6277L18.1036 20.0186L18.2659 19.7058L18.4361 20.0098L18.4213 19.6194L18.6869 19.6944L18.5016 19.4096L18.7389 19.2202L18.4696 19.1736Z" fill="#071D3D"/>
<path d="M10.5282 20.5391L11.1096 20.8976L11.0205 21.1988L10.6947 20.9983L10.6231 21.2401L10.9283 21.4283L10.8425 21.7177L10.5374 21.5296L10.4542 21.8114L10.7922 22.0198L10.7031 22.3213L10.1094 21.955L10.5282 20.5391Z" fill="#071D3D"/>
<path d="M11.7648 21.6315L11.7709 21.5955C11.7862 21.5079 11.7742 21.4258 11.7221 21.4068C11.664 21.3858 11.6266 21.4414 11.615 21.5083C11.5639 21.8036 12.0298 21.8183 11.9351 22.3648C11.8798 22.6831 11.726 22.7785 11.4882 22.6927C11.2649 22.6119 11.1593 22.4561 11.213 22.1461L11.2221 22.0939L11.4831 22.1882L11.477 22.2234C11.4549 22.3513 11.4831 22.4107 11.5354 22.4296C11.5905 22.4494 11.6333 22.3981 11.6474 22.3165C11.6986 22.0212 11.2496 22.0148 11.3415 21.4852C11.3938 21.1838 11.5342 21.0585 11.7619 21.1408C11.9969 21.2259 12.0727 21.402 12.0171 21.7225L11.7648 21.6315Z" fill="#071D3D"/>
<path d="M12.5639 21.7297L12.3555 21.7017L12.3773 21.3624L13.0709 21.4548L13.0492 21.7943L12.8407 21.7665L12.7642 22.9609L12.4873 22.9242L12.5639 21.7297Z" fill="#071D3D"/>
<path d="M13.2461 22.564L13.4974 22.5581L13.5023 22.9855L13.251 22.9912L13.2461 22.564Z" fill="#071D3D"/>
<path d="M14.1805 21.9147C14.1626 21.7595 14.16 21.631 14.199 21.5286C14.2379 21.4264 14.3167 21.3533 14.4581 21.3165C14.7314 21.2453 14.8162 21.414 14.8443 21.6389C14.8698 21.8427 14.8347 21.9855 14.7708 22.1183L14.6373 22.3874C14.618 22.4276 14.5898 22.4809 14.5851 22.5281L14.9439 22.4347L14.9811 22.7321L14.2957 22.9102C14.2698 22.7023 14.2827 22.5016 14.3797 22.2947L14.5287 21.9795C14.572 21.8895 14.5856 21.8268 14.5713 21.7144C14.5554 21.5872 14.5225 21.554 14.4799 21.5652C14.4417 21.575 14.4071 21.6145 14.4283 21.7845L14.4364 21.848L14.1805 21.9147Z" fill="#071D3D"/>
<path d="M15.5924 21.9593C15.6424 22.165 15.6782 22.2084 15.7332 22.1806C15.7884 22.153 15.7975 22.0865 15.7476 21.8809L15.632 21.4046C15.5821 21.1989 15.5462 21.1553 15.4913 21.183C15.4362 21.2108 15.427 21.2771 15.4768 21.4828L15.5924 21.9593ZM15.434 20.9468C15.668 20.8284 15.8108 20.9278 15.9522 21.5099C16.0935 22.0925 16.0248 22.2986 15.7905 22.4171C15.5564 22.5353 15.4136 22.4359 15.2723 21.8537C15.131 21.2714 15.1998 21.0652 15.434 20.9468Z" fill="#071D3D"/>
<path d="M16.753 21.7852L16.4109 20.8697L16.2347 21.0072L16.1523 20.7865C16.3017 20.6679 16.3486 20.5751 16.3191 20.3871L16.4954 20.2501L16.9979 21.5949L16.753 21.7852Z" fill="#071D3D"/>
<path d="M17.6101 21.0293L17.1859 20.1887L17.024 20.3588L16.9219 20.1566C17.0588 20.0101 17.0966 19.9088 17.05 19.7286L17.2118 19.5582L17.835 20.7929L17.6101 21.0293Z" fill="#071D3D"/>
<path d="M18.7242 15.7518C18.6537 15.8312 18.5801 15.9048 18.5039 15.9722C18.2709 16.6362 17.9773 17.252 17.631 17.8034C17.5674 17.9046 17.5021 18.0037 17.4353 18.1005C17.3757 18.1857 17.315 18.2692 17.2532 18.3509C17.2472 18.359 17.2415 18.3672 17.2354 18.3751C17.2163 18.4005 17.196 18.4238 17.1766 18.4486C16.1609 19.7455 14.8264 20.5342 13.3638 20.5342H13.3636C11.773 20.5342 10.3343 19.6039 9.29162 18.1005C9.21924 17.996 9.14946 17.8881 9.0811 17.7782C9.07696 17.7876 9.07161 17.794 9.0637 17.795C9.03865 17.7987 8.99036 17.8064 8.92578 17.8158C8.92586 17.8162 8.92615 17.8167 8.9263 17.817C9.39746 18.5949 9.96509 19.248 10.6022 19.7374C10.6101 19.7431 10.6182 19.7489 10.626 19.7547C10.7059 19.8154 10.7867 19.8735 10.8684 19.9289C10.8876 19.942 10.9073 19.9539 10.9265 19.9666C10.9976 20.0135 11.0693 20.0583 11.1416 20.101C11.1682 20.1166 11.195 20.1314 11.2216 20.1466C11.2881 20.1841 11.355 20.2199 11.4224 20.2539C11.4537 20.2697 11.4852 20.2849 11.5168 20.3001C11.5809 20.3304 11.6453 20.3592 11.7101 20.3864C11.745 20.4012 11.7799 20.4159 11.8151 20.4296C11.8777 20.4542 11.941 20.4769 12.0044 20.4985C12.0419 20.5113 12.0792 20.5241 12.1169 20.5359C12.1796 20.5555 12.2429 20.5726 12.3062 20.5893C12.345 20.5994 12.3837 20.6103 12.4227 20.6193C12.4873 20.634 12.5523 20.6462 12.6175 20.658C12.656 20.6652 12.694 20.6733 12.7326 20.6793C12.803 20.69 12.8742 20.6977 12.9453 20.7046C12.9791 20.7082 13.0124 20.7131 13.0463 20.7159C13.1514 20.724 13.2571 20.7285 13.3636 20.7285C13.4545 20.7285 13.5447 20.7242 13.6346 20.7185C13.6599 20.717 13.6851 20.7148 13.7103 20.7127C13.7814 20.7065 13.8522 20.6988 13.9225 20.6892C13.943 20.6866 13.9636 20.6845 13.984 20.6813C14.0715 20.668 14.1585 20.652 14.2448 20.6334C14.2645 20.6291 14.2841 20.6239 14.3038 20.6195C14.3727 20.6035 14.4412 20.5857 14.5092 20.5667C14.5343 20.5592 14.5593 20.5521 14.5843 20.5447C14.6635 20.5208 14.7424 20.4945 14.8209 20.466C14.827 20.4638 14.8332 20.4619 14.8392 20.4594C14.9222 20.4288 15.004 20.3944 15.0857 20.3586C15.1724 20.32 15.2585 20.2787 15.3441 20.2349C15.366 20.2233 15.3882 20.2126 15.4099 20.2009C15.4879 20.1594 15.5652 20.1153 15.6418 20.0687C15.662 20.057 15.6817 20.0437 15.7017 20.0313C15.7605 19.9946 15.8188 19.9565 15.8767 19.9172C15.9022 19.8996 15.9278 19.8821 15.9531 19.8644C16.0157 19.8201 16.0777 19.7742 16.1391 19.7267C16.1525 19.7164 16.1663 19.7068 16.1796 19.6963C16.2504 19.6403 16.3204 19.5822 16.3895 19.5221C16.4147 19.5002 16.4396 19.4778 16.4644 19.4558C16.5134 19.4117 16.5619 19.3668 16.6101 19.3209C16.6338 19.298 16.6576 19.2762 16.681 19.2531C16.7461 19.189 16.8104 19.1231 16.8738 19.0554C16.8953 19.0325 16.9161 19.0083 16.9373 18.9848C16.9825 18.935 17.0272 18.8843 17.0714 18.8326C17.0969 18.8031 17.1223 18.7731 17.1475 18.7423C17.1923 18.6881 17.2364 18.6329 17.28 18.5767C17.3011 18.5497 17.3226 18.523 17.3434 18.4954C17.3975 18.4237 17.4506 18.3505 17.5028 18.2759C17.527 18.2414 17.5508 18.2064 17.5747 18.1713C17.6099 18.1191 17.6448 18.0664 17.6793 18.0131C17.7023 17.9768 17.7258 17.9413 17.7485 17.9047C17.7989 17.8237 17.8485 17.7412 17.8968 17.6573C17.9171 17.6221 17.9366 17.5862 17.9566 17.5503C17.9885 17.4931 18.02 17.4353 18.0509 17.3769C18.0733 17.3345 18.0954 17.2918 18.1173 17.2488C18.1474 17.1894 18.1769 17.1294 18.206 17.069C18.2278 17.0237 18.2496 16.9788 18.2709 16.9328C18.3088 16.8506 18.3458 16.7674 18.3818 16.6833C18.4012 16.6376 18.4201 16.5912 18.4391 16.545C18.4629 16.4866 18.4863 16.4279 18.5093 16.3688C18.5276 16.3216 18.546 16.2745 18.5635 16.2271C18.5969 16.1369 18.6292 16.0459 18.6604 15.954C18.6622 15.9485 18.6642 15.9431 18.6662 15.9374C18.6841 15.8746 18.7034 15.8127 18.7242 15.7518Z" fill="#071D3D"/>
<path d="M7.7554 10.3559C8.00118 8.81166 8.54315 7.43122 9.29358 6.34791C9.81489 5.59556 10.4354 4.98756 11.1243 4.56722C11.8132 4.14646 12.5707 3.91385 13.3658 3.91385C15.7223 3.91385 17.747 5.95794 18.638 8.88352C18.6856 8.87623 18.7329 8.86919 18.7795 8.86212C18.7318 8.70244 18.6803 8.54617 18.6263 8.39179C18.6112 8.34923 18.5964 8.30649 18.581 8.26414C18.5581 8.20157 18.5346 8.13942 18.5106 8.07773C18.4944 8.0359 18.4779 7.99435 18.461 7.95307C18.407 7.81908 18.3506 7.6872 18.2918 7.55755C18.2854 7.54343 18.2792 7.52868 18.2726 7.5146C18.2462 7.45707 18.2186 7.40107 18.1911 7.34439C18.1711 7.30292 18.1508 7.26173 18.1302 7.22084C18.1026 7.16616 18.0745 7.11193 18.0461 7.05814C18.0238 7.01644 18.0013 6.97511 17.9784 6.93415C17.9389 6.8622 17.8986 6.79119 17.8575 6.72118C17.8227 6.66219 17.7878 6.60295 17.7519 6.54525C17.7228 6.49885 17.693 6.4533 17.6632 6.40758C17.636 6.36538 17.6084 6.32361 17.5805 6.28228C17.5504 6.23783 17.5201 6.19386 17.4894 6.15037C17.4585 6.10673 17.4271 6.06368 17.3954 6.02123C17.3655 5.98041 17.3358 5.93956 17.3053 5.89981C17.2511 5.82962 17.196 5.76076 17.1402 5.69326C17.1108 5.65821 17.0809 5.624 17.0513 5.58958C17.015 5.54758 16.9784 5.50609 16.9415 5.46514C16.9111 5.43158 16.8809 5.39865 16.85 5.36594C16.8076 5.32099 16.7647 5.27694 16.7214 5.23382C16.696 5.20839 16.6712 5.18251 16.6456 5.15751C16.5805 5.09462 16.5146 5.03359 16.4478 4.97447C16.4198 4.94973 16.3912 4.92598 16.3629 4.90158C16.3171 4.86236 16.271 4.82408 16.2245 4.78678C16.1952 4.76315 16.1658 4.73984 16.1363 4.71687C16.0808 4.67441 16.0249 4.63314 15.9687 4.59307C15.9489 4.57899 15.9298 4.56445 15.91 4.55076C15.836 4.49967 15.7613 4.45084 15.6859 4.4043C15.6593 4.38806 15.6324 4.37245 15.6057 4.35641C15.551 4.32405 15.496 4.29284 15.4407 4.26279C15.4128 4.24761 15.3851 4.23243 15.357 4.21789C15.2884 4.18229 15.2192 4.14858 15.1497 4.11677C15.1371 4.11097 15.1245 4.10457 15.112 4.0986C15.0302 4.06242 14.9479 4.02876 14.8651 3.99766C14.8395 3.98784 14.8137 3.9791 14.7879 3.96989C14.7262 3.94767 14.6642 3.92694 14.6016 3.90767C14.5748 3.89935 14.5481 3.8912 14.5211 3.88331C14.4407 3.8602 14.3598 3.83904 14.2783 3.82087C14.2722 3.81938 14.2665 3.81767 14.2604 3.81639C14.1732 3.79712 14.0851 3.78176 13.9967 3.76807C13.9706 3.76381 13.9444 3.76103 13.9184 3.75716C13.852 3.7482 13.7855 3.74091 13.7184 3.73558C13.6918 3.73298 13.6649 3.73067 13.6382 3.72871C13.5478 3.72295 13.4569 3.71911 13.3655 3.71911C10.1111 3.71997 7.47266 7.52658 7.47266 12.2238C7.47266 12.3063 7.47534 12.3878 7.47697 12.4697C7.51459 12.3363 7.56059 12.207 7.61045 12.0804C7.61762 11.4886 7.66695 10.9116 7.7554 10.3559Z" fill="#071D3D"/>
<path d="M14.0075 6.74615L15.0732 6.57797C15.1006 6.57363 15.1255 6.53751 15.1289 6.49722L15.2028 5.62114C15.2062 5.58085 15.1868 5.5517 15.1594 5.556L13.7655 5.77598C13.7439 5.77943 13.7221 5.79578 13.7052 5.82124L13.2652 6.48538L12.9269 5.94405C12.9139 5.92329 12.8944 5.91351 12.8727 5.91689L11.583 6.12044C11.5613 6.12386 11.5394 6.14025 11.5226 6.16581L11.1073 6.79418C11.0916 6.81804 11.0814 6.84798 11.0788 6.87781L10.8715 9.3358C10.8681 9.37609 10.8875 9.40528 10.9148 9.40094L11.509 9.30714C11.5363 9.30284 11.5613 9.26672 11.5647 9.2264L11.7324 7.23778C11.738 7.17132 11.7791 7.1117 11.8242 7.10458L12.4573 7.00467C12.5023 6.99756 12.5343 7.04567 12.5287 7.11212L12.3609 9.10074C12.3575 9.14103 12.3769 9.17018 12.4043 9.16588L12.9985 9.07209C13.0258 9.06778 13.0507 9.03162 13.0541 8.99134L13.1017 8.42672L13.4398 8.96681C13.4528 8.98754 13.4724 8.99731 13.494 8.9939L14.888 8.77392C14.9153 8.76962 14.9402 8.73346 14.9436 8.69317L15.0175 7.81708C15.0209 7.7768 15.0015 7.74764 14.9742 7.75194L13.9085 7.92012C13.8634 7.92723 13.8314 7.87913 13.837 7.81267L13.9158 6.87938C13.9214 6.81289 13.9625 6.75326 14.0075 6.74615Z" fill="#071D3D"/>
</g>
</svg>
