<svg width="26" height="24" viewBox="0 0 26 24" fill="none" xmlns="http://www.w3.org/2000/svg">
<g clip-path="url(#clip0_328_3023)">
<path d="M13.2444 23.8121C9.43146 23.8767 6.12563 20.8922 4.71649 16.6104C4.77812 16.5782 4.83706 16.5363 4.89354 16.4877C6.26494 20.6895 9.49997 23.6145 13.2417 23.5508C17.2929 23.4799 20.6775 19.9343 21.7225 15.1361C21.7852 15.1667 21.8505 15.1881 21.9169 15.1999C20.8472 20.1045 17.3813 23.7397 13.2444 23.8121ZM3.99159 12.1565C3.92656 5.64696 7.96995 0.277781 13.005 0.187841C17.948 0.108238 22.0378 5.14457 22.2492 11.4851C22.1833 11.4637 22.1153 11.452 22.0459 11.4508C21.8213 5.25999 17.8379 0.371401 13.0075 0.449163C8.07414 0.53726 4.13004 5.77496 4.19388 12.1532C4.19665 12.4233 4.20717 12.691 4.2241 12.9563C4.15606 12.9716 4.08958 12.9968 4.02593 13.0314C4.00613 12.7404 3.99467 12.4486 3.99159 12.1565ZM23.1603 13.3296C23.1603 12.5038 22.8404 11.8041 22.3963 11.5515C22.2112 5.07561 18.0438 -0.0802307 13.0031 0.00100899C7.88839 0.0923805 3.78108 5.54638 3.84705 12.1589C3.85046 12.4845 3.8643 12.807 3.88756 13.1257C3.51051 13.4301 3.25 14.072 3.25 14.817C3.25 15.8553 3.75497 16.6971 4.37789 16.6971C4.44617 16.6971 4.5127 16.6853 4.57773 16.6658C6.00577 21.0248 9.3677 24.0649 13.2464 23.9989C17.461 23.9253 20.9901 20.2112 22.0657 15.2069C22.673 15.1773 23.1603 14.3492 23.1603 13.3296Z" fill="#BEC0C2"/>
<path d="M7.13768 9.75034C8.09976 5.49101 11.5509 3.04518 14.8464 4.2905C18.1407 5.5346 20.0307 9.99744 19.0687 14.2582C18.1062 18.5178 14.6549 20.9621 11.3599 19.7182C8.06614 18.4732 6.17513 14.0114 7.13768 9.75034Z" fill="white"/>
<path d="M16.431 6.5675L16.6142 5.75283L16.7844 5.65696L16.1549 5.22988C16.0974 5.18977 16.0519 5.21484 16.0364 5.25403L16.0176 5.3056C16.001 5.34745 16.0197 5.41273 16.0709 5.44721L16.56 5.78087L16.393 5.87623L16.2564 6.49863C16.2394 6.57077 16.262 6.63257 16.2972 6.64782L16.3374 6.66368C16.3693 6.67595 16.4139 6.64904 16.431 6.5675Z" fill="#BEC0C2"/>
<path d="M15.7883 6.85369L16.0132 6.0596L16.1873 5.9803L15.5824 5.4947C15.5268 5.44978 15.4804 5.47034 15.4626 5.508L15.4413 5.55578C15.4228 5.59783 15.4375 5.66373 15.4869 5.70302L15.9573 6.08119L15.7863 6.16069L15.6158 6.76805C15.5958 6.83968 15.6148 6.90362 15.6484 6.92133L15.6884 6.94077C15.72 6.95632 15.7659 6.93309 15.7883 6.85369Z" fill="#BEC0C2"/>
<path d="M15.1277 7.07818L15.3935 6.30803L15.5725 6.24428L14.9938 5.70394C14.9411 5.65452 14.8934 5.66946 14.8739 5.70578L14.8492 5.75316C14.8294 5.79193 14.8405 5.85905 14.8876 5.90295L15.3368 6.3242L15.1624 6.38774L14.9603 6.9776C14.9366 7.04697 14.9526 7.11226 14.9848 7.13354L15.0237 7.15646C15.0548 7.17508 15.1019 7.15615 15.1277 7.07818Z" fill="#BEC0C2"/>
<path d="M14.4622 7.24273L14.7683 6.49816L14.9495 6.45129L14.4007 5.85897C14.3517 5.80331 14.3031 5.81559 14.2813 5.85068L14.2544 5.89407C14.2317 5.93059 14.24 5.99956 14.2848 6.04703L14.7113 6.509L14.5331 6.55678L14.3006 7.1266C14.2733 7.19188 14.2855 7.25951 14.3173 7.28192L14.3548 7.31077C14.3843 7.33103 14.4321 7.31804 14.4622 7.24273Z" fill="#BEC0C2"/>
<path d="M13.7871 7.34296L14.1322 6.62918L14.3155 6.60033L13.798 5.95716C13.7518 5.89771 13.7036 5.90467 13.6799 5.93731L13.6509 5.97854C13.6265 6.01394 13.6315 6.08219 13.6727 6.13417L14.0742 6.63491L13.8941 6.66582L13.6328 7.21097C13.6018 7.27615 13.6105 7.34429 13.6396 7.36997L13.6765 7.40016C13.7046 7.42451 13.7529 7.41458 13.7871 7.34296Z" fill="#BEC0C2"/>
<path d="M13.1054 7.3788L13.4859 6.69972L13.6717 6.68887L13.1892 5.99914C13.1462 5.93601 13.0958 5.93754 13.0719 5.96773L13.0401 6.0063C13.0147 6.03904 13.0153 6.10842 13.0542 6.16316L13.4283 6.70135L13.2476 6.71465L12.9572 7.23464C12.9231 7.2949 12.9284 7.36335 12.9572 7.39252L12.9912 7.42679C13.018 7.45268 13.0671 7.44848 13.1054 7.3788Z" fill="#BEC0C2"/>
<path d="M12.4261 7.35284L12.8421 6.71099L13.0276 6.71601L12.5829 5.98361C12.5428 5.91608 12.4932 5.91413 12.4673 5.94166L12.4343 5.97747C12.4064 6.00745 12.4036 6.07672 12.4397 6.13514L12.7839 6.70659L12.6023 6.7027L12.2868 7.19435C12.2493 7.25103 12.2505 7.3201 12.2772 7.35212L12.3099 7.38916C12.3346 7.41832 12.384 7.41791 12.4261 7.35284Z" fill="#BEC0C2"/>
<path d="M11.7505 7.26245L12.1995 6.66143L12.3843 6.68343L11.9787 5.91164C11.9429 5.84114 11.8941 5.83419 11.867 5.85885L11.8314 5.89148C11.8015 5.91819 11.795 5.98797 11.8287 6.04947L12.1416 6.65059L11.9616 6.63064L11.6197 7.09045C11.5792 7.14427 11.5772 7.21416 11.6026 7.24895L11.6327 7.28691C11.6569 7.31883 11.7055 7.32384 11.7505 7.26245Z" fill="#BEC0C2"/>
<path d="M11.078 7.1088L11.5576 6.55228L11.7409 6.59137L11.3775 5.78326C11.345 5.70928 11.2965 5.69762 11.2677 5.72043L11.2304 5.74837C11.2002 5.77395 11.1908 5.84178 11.2201 5.90645L11.5011 6.53581L11.3217 6.49836L10.9566 6.92647C10.914 6.97517 10.9082 7.04393 10.9316 7.07964L10.9598 7.12312C10.9818 7.15648 11.0307 7.16589 11.078 7.1088Z" fill="#BEC0C2"/>
<path d="M10.4175 6.89272L10.9253 6.38194L11.1054 6.43821L10.7851 5.5991C10.7578 5.52103 10.7092 5.50568 10.6794 5.52522L10.6413 5.5507C10.6098 5.5728 10.5965 5.6388 10.6223 5.70684L10.87 6.36127L10.6927 6.30612L10.306 6.69872C10.2602 6.74425 10.2515 6.8126 10.2726 6.85025L10.2985 6.89568C10.3185 6.93201 10.3675 6.94551 10.4175 6.89272Z" fill="#BEC0C2"/>
<path d="M9.77283 6.61672L10.3062 6.15424L10.4834 6.22821L10.208 5.35953C10.1837 5.28105 10.1368 5.26048 10.1058 5.27737L10.0665 5.29865C10.0341 5.31748 10.0162 5.38255 10.0394 5.45295L10.2515 6.12743L10.079 6.05755L9.67157 6.4127C9.62355 6.45321 9.60994 6.52023 9.63011 6.56126L9.65353 6.60761C9.67157 6.64496 9.71959 6.66348 9.77283 6.61672Z" fill="#BEC0C2"/>
<path d="M9.13781 6.27956L9.69484 5.86773L9.86714 5.95869L9.6382 5.0679C9.61842 4.98594 9.57309 4.96057 9.54033 4.97489L9.50054 4.993C9.46692 5.00917 9.44588 5.0725 9.46502 5.14351L9.64136 5.83744L9.47174 5.75026L9.04818 6.06684C8.99818 6.10275 8.98196 6.16854 8.99834 6.20947L9.01931 6.25909C9.03584 6.29951 9.08236 6.32141 9.13781 6.27956ZM9.41099 17.616L9.31653 18.3944L9.164 18.5132L9.80093 18.7973C9.85884 18.8243 9.89974 18.794 9.91026 18.7546L9.92387 18.705C9.93494 18.6638 9.91184 18.6081 9.85979 18.5839L9.36463 18.3605L9.51288 18.244L9.58392 17.6498C9.59231 17.58 9.56502 17.5267 9.53108 17.5197L9.49097 17.5113C9.45909 17.5055 9.41913 17.5383 9.41099 17.616Z" fill="#BEC0C2"/>
<path d="M9.99438 17.2431L9.85681 18.0121L9.69922 18.1152L10.3187 18.4571C10.3754 18.4896 10.4176 18.4629 10.4308 18.4247L10.4464 18.3759C10.4603 18.3356 10.4395 18.2772 10.3892 18.2492L9.9072 17.9814L10.0624 17.8791L10.1641 17.2923C10.1772 17.2242 10.1529 17.1685 10.1183 17.1574L10.0793 17.1464C10.0485 17.1372 10.0072 17.1663 9.99438 17.2431Z" fill="#BEC0C2"/>
<path d="M10.5949 16.9246L10.4164 17.6783L10.2539 17.7661L10.8536 18.1645C10.9083 18.2019 10.9515 18.1789 10.9669 18.1425L10.985 18.0965C11.0008 18.0561 10.9838 17.9962 10.9351 17.9643L10.4689 17.6536L10.6285 17.5657L10.7631 16.9895C10.779 16.9216 10.7578 16.8641 10.7252 16.8508L10.6863 16.8361C10.6552 16.824 10.612 16.8493 10.5949 16.9246Z" fill="#BEC0C2"/>
<path d="M11.2102 16.6617L10.9923 17.3965L10.8242 17.4708L11.4012 17.922C11.4534 17.9632 11.4979 17.9454 11.5148 17.9106L11.5363 17.8645C11.5537 17.8268 11.5397 17.7658 11.493 17.7289L11.0453 17.3768L11.2086 17.3032L11.3741 16.7409C11.3938 16.6747 11.3756 16.6156 11.3441 16.5985L11.3056 16.5809C11.2756 16.5661 11.2312 16.5874 11.2102 16.6617Z" fill="#BEC0C2"/>
<path d="M11.8424 16.4541L11.5849 17.1682L11.4141 17.2268L11.9642 17.7285C12.0139 17.7763 12.0597 17.7612 12.0787 17.7268L12.1022 17.6845C12.1221 17.6489 12.1111 17.5857 12.0663 17.5454L11.6382 17.1537L11.8059 17.0949L12.0017 16.5476C12.0244 16.4854 12.0102 16.4235 11.9789 16.4054L11.9417 16.3822C11.9127 16.3655 11.8675 16.382 11.8424 16.4541Z" fill="#BEC0C2"/>
<path d="M12.4813 16.3044L12.1851 16.9935L12.0117 17.0358L12.534 17.5873C12.5812 17.6385 12.6269 17.6287 12.6478 17.5955L12.6735 17.5552C12.6953 17.5206 12.6876 17.4581 12.6456 17.4128L12.2401 16.9828L12.4104 16.9402L12.6346 16.4136C12.6611 16.3511 12.6497 16.2887 12.6207 16.2673L12.5843 16.2427C12.5562 16.2222 12.5107 16.2352 12.4813 16.3044Z" fill="#BEC0C2"/>
<path d="M13.126 16.2144L12.794 16.8749L12.6172 16.9009L13.1089 17.4982C13.1528 17.5534 13.2006 17.5475 13.2224 17.5178L13.2506 17.4796C13.2734 17.4473 13.2698 17.3824 13.2301 17.3353L12.849 16.8687L13.0202 16.8412L13.2735 16.3365C13.3032 16.2776 13.2951 16.2141 13.2665 16.1902L13.2325 16.1609C13.2053 16.1391 13.1591 16.1477 13.126 16.2144Z" fill="#BEC0C2"/>
<path d="M13.7753 16.1818L13.4081 16.8106L13.2305 16.822L13.6886 17.4614C13.7298 17.5209 13.7769 17.5188 13.8005 17.491L13.8304 17.4549C13.8554 17.4252 13.8547 17.3608 13.8179 17.3096L13.4635 16.8101L13.6369 16.798L13.9157 16.3172C13.9486 16.2619 13.944 16.1976 13.9176 16.1701L13.8845 16.139C13.8594 16.1136 13.8126 16.1182 13.7753 16.1818Z" fill="#BEC0C2"/>
<path d="M14.4258 16.2087L14.0253 16.8023L13.8477 16.7977L14.2699 17.4781C14.3074 17.5398 14.3544 17.5425 14.379 17.5173L14.4117 17.4838C14.4388 17.457 14.4417 17.3916 14.4069 17.3375L14.0806 16.8071L14.2534 16.8112L14.5585 16.357C14.5945 16.3041 14.5932 16.2388 14.5676 16.2089L14.537 16.1762C14.5125 16.1489 14.4658 16.1483 14.4258 16.2087Z" fill="#BEC0C2"/>
<path d="M15.0725 16.2944L14.6412 16.8497L14.4648 16.829L14.8477 17.5464C14.8822 17.612 14.9288 17.6186 14.9556 17.5949L14.9898 17.566C15.0177 17.5401 15.0234 17.477 14.9924 17.4193L14.6954 16.8601L14.8682 16.88L15.1969 16.4537C15.2352 16.4047 15.2376 16.3409 15.214 16.3095L15.1848 16.2721C15.1625 16.2423 15.1155 16.238 15.0725 16.2944Z" fill="#BEC0C2"/>
<path d="M15.7134 16.4397L15.2524 16.9549L15.0781 16.917L15.4219 17.6673C15.4517 17.7368 15.4988 17.7471 15.5264 17.7262L15.5613 17.6997C15.5906 17.6768 15.6003 17.6146 15.5725 17.5538L15.3065 16.9694L15.478 17.0051L15.8287 16.6097C15.8703 16.5642 15.8756 16.5001 15.8536 16.4665L15.827 16.4267C15.8063 16.3949 15.7588 16.3867 15.7134 16.4397Z" fill="#BEC0C2"/>
<path d="M16.3437 16.641L15.8557 17.1134L15.6836 17.0594L15.9864 17.8399C16.013 17.9107 16.0591 17.9264 16.0875 17.9079L16.124 17.8846C16.1541 17.8643 16.168 17.803 16.1431 17.74L15.9095 17.1334L16.0773 17.1832L16.4493 16.8207C16.4936 16.7796 16.5031 16.7163 16.4823 16.6804L16.4579 16.639C16.439 16.6057 16.3923 16.5929 16.3437 16.641Z" fill="#BEC0C2"/>
<path d="M16.9619 16.9001L16.45 17.3273L16.2812 17.2576L16.5406 18.0628C16.5634 18.1371 16.6075 18.1561 16.6382 18.1404L16.675 18.1204C16.7066 18.1025 16.7238 18.0428 16.7022 17.9783L16.5024 17.3511L16.6682 17.4172L17.0577 17.089C17.1034 17.0517 17.1162 16.9893 17.0984 16.9528L17.0762 16.9087C17.0587 16.8727 17.013 16.8567 16.9619 16.9001Z" fill="#BEC0C2"/>
<path d="M17.562 17.2153L17.028 17.5933L16.8633 17.5097L17.078 18.3363C17.0969 18.412 17.1398 18.4358 17.1702 18.423L17.2094 18.4058C17.2416 18.3921 17.2614 18.333 17.244 18.2669L17.0789 17.6234L17.2398 17.7045L17.6474 17.4115C17.6949 17.3785 17.7111 17.318 17.6947 17.2794L17.6754 17.2331C17.6593 17.1969 17.6148 17.1758 17.562 17.2153Z" fill="#BEC0C2"/>
<path d="M8.84573 6.63266C8.20841 6.77877 7.67986 7.46851 7.64236 8.20305C7.64093 8.23122 7.64025 8.25944 7.6403 8.28767C7.6403 8.61591 7.73999 8.91079 7.92511 9.12566C8.15611 9.39322 8.49439 9.49994 8.85285 9.41768C9.48985 9.27259 10.0187 8.58296 10.0566 7.8475C10.0748 7.48488 9.97481 7.15746 9.77394 6.92468C9.5427 6.65671 9.20458 6.5504 8.84573 6.63266ZM2.69188 8.71853L2.40889 10.139C2.40889 10.139 2.62534 10.0639 2.77732 10.0109C2.58935 11.0945 1.62197 16.6803 1.61564 16.7178C1.56556 16.9295 1.35109 17.0851 1.16542 17.1611L1.00767 17.2255L0.511719 19.3486L1.12309 19.0202C3.12477 17.9455 6.11812 16.9082 6.14826 16.898L6.30633 16.8434L7.00021 14.3649L6.25182 14.5931C6.15024 14.6237 6.08679 14.6797 6.04557 14.7434C5.95183 14.8919 5.64907 15.2988 5.36434 15.4195L4.04642 15.8889L4.0401 15.8909C4.04642 15.8543 5.54211 7.41888 5.54211 7.41888L2.69188 8.71853Z" fill="#A1A1A4"/>
<path d="M7.2601 10.0344L6.98764 11.4131C6.98764 11.4131 7.15188 11.3577 7.30124 11.3068C7.12545 12.1758 6.7405 14.0817 6.7405 14.0817C6.69691 14.3119 6.67578 14.5352 6.67578 14.7457C6.67578 15.21 6.77926 15.613 6.97933 15.8997C7.16762 16.1695 7.53106 16.4668 8.19362 16.349C8.70753 16.2583 9.18481 15.9367 9.61288 15.3924L9.90172 15.0252L9.01329 14.3354L8.84028 14.5488C8.8277 14.5646 8.8148 14.578 8.80262 14.5913C8.80752 14.5417 8.81528 14.4832 8.8277 14.4155C8.82683 14.4188 9.74484 9.55601 9.74484 9.55601L9.88257 8.82587L7.2601 10.0344Z" fill="#A1A1A4"/>
<path d="M12.861 9.14663C12.8981 9.14121 12.9379 9.14059 12.9752 9.14325L12.1717 13.3437C12.141 13.4975 11.9593 13.6305 11.7499 13.6497C11.741 13.6505 11.7319 13.6475 11.7224 13.6446C11.7644 13.429 12.5534 9.35362 12.5575 9.33193C12.5871 9.2732 12.7372 9.16464 12.861 9.14663ZM13.0559 7.57051C11.5415 7.81178 10.4001 8.98077 10.0783 10.6206L9.62736 12.9804L9.6291 12.9705C9.46929 13.724 9.53132 14.3189 9.81391 14.7391C10.1403 15.2238 10.7104 15.401 11.5087 15.2662C13.0305 15.009 14.1571 13.9374 14.4498 12.4691C14.45 12.4675 14.9597 9.85816 14.9597 9.85816C15.1028 9.09803 15.0307 8.5053 14.7469 8.09213C14.4205 7.61911 13.8518 7.44313 13.0559 7.57051ZM19.2974 5.89024C18.9834 5.95582 18.6179 6.12148 18.2875 6.33297C18.316 6.18614 18.3469 6.02867 18.3469 6.02867L15.6997 7.30182L15.4462 8.67146L15.7606 8.54868L14.7038 14.1468L16.9391 13.4393L17.8438 8.59739C17.895 8.3111 18.0054 8.13173 18.1966 8.02358L17.6604 10.9419C17.6613 10.938 17.6309 11.0911 17.6309 11.0911C17.5117 11.6821 17.3488 12.4919 17.6923 12.9919C17.882 13.2682 18.1764 13.3735 18.5671 13.3044C19.2583 13.1816 19.8664 12.7156 20.3751 11.9183L20.6013 11.5642C20.6013 11.5642 19.8401 10.9399 19.7682 10.8813C19.9377 9.96682 20.3556 7.70875 20.3556 7.70875C20.398 7.48477 20.4197 7.2789 20.4197 7.09115C20.4197 6.73232 20.3411 6.44091 20.1853 6.22175C19.9813 5.93566 19.6579 5.81534 19.2974 5.89024ZM2.22884 20.886L2.08984 20.3689L2.56111 20.0923C5.07686 18.7033 8.54638 17.1417 12.0801 15.8072C15.7051 14.4386 18.9254 13.4953 20.9159 13.2195L21.2697 13.1702L21.2496 14.4782L21.0007 14.5407C19.2836 14.9691 13.2102 16.7777 7.15338 22.0647L6.98448 22.2119L6.8117 22.0719C5.49781 21.0087 3.66282 20.8628 2.68603 20.8702C2.54133 20.8673 2.22884 20.886 2.22884 20.886Z" fill="#A1A1A4"/>
<path d="M22.6144 5.13021C21.3335 5.47789 20.6144 6.6654 20.6421 8.38988C20.6584 9.42186 21.1541 10.2731 21.6336 11.0962C22.045 11.8021 22.4335 12.4692 22.4464 13.1397C22.47 14.3857 22.0453 14.561 21.9044 14.6023C21.6562 14.6743 21.4727 14.48 21.4209 14.3984C21.852 14.1383 22.2851 13.6432 22.2851 12.9328C22.2851 12.8865 22.2832 12.8394 22.2796 12.7913C22.2437 12.333 22.0722 12.0822 21.9349 11.9517C21.6292 11.6626 21.267 11.7317 21.1633 11.7596C20.4092 11.9628 19.9298 12.9262 20.0718 13.9529C20.3017 15.6154 21.5031 16.128 22.5224 15.8999C23.26 15.7347 23.8764 15.255 24.2575 14.5482C24.6346 13.8481 24.7621 12.9726 24.6259 12.0169C24.4851 11.0269 24.0758 10.2466 23.68 9.49113C23.2694 8.70778 22.881 7.9673 22.8525 7.07846C22.8433 6.79493 22.9068 6.58293 22.9736 6.49882C22.9997 6.46618 23.0164 6.46434 23.0323 6.46567C23.0563 6.46782 23.1123 6.47304 23.1721 6.5904C23.3054 6.85274 23.3236 7.39575 23.2134 7.80114L23.1766 7.9363L23.3664 8.63012L25.1737 7.53715L25.1483 7.24841C25.0892 6.55346 24.821 5.95142 24.3943 5.55104C23.9117 5.09941 23.2797 4.95002 22.6144 5.13021Z" fill="#A1A1A4"/>
<path d="M8.88314 6.91913C8.35254 7.04048 7.89575 7.62523 7.86545 8.22236C7.86422 8.24357 7.86367 8.26484 7.86379 8.28611C7.86379 8.53106 7.9372 8.75002 8.07359 8.9082C8.25278 9.11601 8.52176 9.19715 8.81186 9.13054C9.34262 9.0096 9.79941 8.42516 9.83018 7.82761C9.84395 7.55688 9.7699 7.31306 9.62173 7.14147C9.4427 6.93335 9.17356 6.85252 8.88314 6.91913ZM2.87833 8.94125L2.72161 9.72747C2.72161 9.72747 2.97604 9.63917 3.07667 9.60377C3.01614 9.954 1.83303 16.7846 1.83097 16.7958C1.7415 17.1914 1.38186 17.3773 1.23147 17.4385L1.18693 17.4568L0.863281 18.843L1.03519 18.7509C3.05088 17.6688 6.05807 16.6266 6.08813 16.6164L6.13283 16.6005L6.64476 14.7718L6.3768 14.853C6.26162 14.8881 6.21898 14.9015 6.20553 14.947C6.13575 15.0525 5.79692 15.544 5.42944 15.6975L4.09705 16.1719C3.96414 16.2134 3.86667 16.207 3.82593 16.1537C3.7893 16.1052 3.78535 15.9963 3.81485 15.8461C3.81557 15.8433 5.22929 7.86957 5.22929 7.86957L2.87833 8.94125ZM7.446 10.2563L7.29798 11.006C7.29798 11.006 7.52914 10.9279 7.61403 10.899C7.54584 11.2355 6.95725 14.1489 6.95725 14.1489C6.91753 14.3583 6.89831 14.5595 6.89831 14.7476C6.89831 15.1386 6.98201 15.4721 7.14442 15.7048C7.296 15.9221 7.59599 16.1606 8.16061 16.0606C8.62508 15.9783 9.06003 15.6836 9.45274 15.1846L9.53415 15.0816L9.042 14.6994L8.99382 14.7596C8.88868 14.8888 8.7837 14.9634 8.68117 14.9812C8.63354 14.99 8.61804 14.968 8.61115 14.9586C8.56843 14.8981 8.54177 14.7028 8.60617 14.349L9.56223 9.28157L7.446 10.2563ZM12.3412 9.24944C12.3796 9.04879 12.6594 8.88344 12.8355 8.85725C12.9837 8.83566 13.1872 8.86502 13.2365 8.93767C13.2414 8.94453 13.2441 8.95036 13.241 8.96755L12.3903 13.4139C12.3341 13.695 12.0773 13.9117 11.7657 13.9404C11.6716 13.9489 11.5689 13.8996 11.5145 13.8205C11.4914 13.7865 11.4805 13.7516 11.4805 13.7143C11.4805 13.7048 11.4813 13.6949 11.4829 13.6845C11.4843 13.6763 12.3412 9.24944 12.3412 9.24944ZM13.0838 7.85954C11.6632 8.08618 10.5951 9.17137 10.2965 10.6927L9.84609 13.0505C9.70764 13.7015 9.75392 14.2058 9.98374 14.5477C10.2537 14.9487 10.7708 15.0972 11.4797 14.9776C12.9083 14.7359 13.9628 13.7477 14.2316 12.3966L14.7417 9.78681C14.8654 9.12768 14.8108 8.62315 14.5785 8.28652C14.3047 7.88839 13.8014 7.74494 13.0838 7.85954ZM19.3337 6.17783C18.8907 6.27053 18.32 6.58741 17.9367 6.9358L18.0231 6.49573L15.8908 7.52086L15.7564 8.24641C15.7564 8.24641 15.9885 8.15616 16.073 8.12301L15.0106 13.75L16.7527 13.199L17.6252 8.5287C17.6988 8.11524 17.8843 7.84879 18.1916 7.71302C18.3109 7.66084 18.4027 7.68283 18.4409 7.72847C18.4495 7.7386 18.4759 7.77011 18.4592 7.85391L17.8796 11.0093C17.8801 11.0084 17.8488 11.1645 17.8488 11.1645C17.7427 11.6925 17.5974 12.4152 17.8604 12.7986C17.9974 12.9983 18.2247 13.0709 18.5367 13.0157C19.1699 12.9035 19.7302 12.4721 20.2016 11.7331L20.2652 11.6337L19.7607 11.2199L19.7126 11.3082C19.5989 11.5153 19.4709 11.6081 19.4187 11.5989C19.4158 11.5871 19.4144 11.5747 19.4147 11.5624C19.4147 11.5433 19.4168 11.5192 19.4233 11.4924L19.4244 11.4885L20.1364 7.64119C20.1751 7.43921 20.194 7.25576 20.194 7.09225C20.194 6.80801 20.1362 6.5827 20.0198 6.4194C19.8682 6.20689 19.618 6.11859 19.3337 6.17783ZM20.9397 13.5094C18.9621 13.7832 15.7562 14.7229 12.1432 16.0871C8.61804 17.4182 5.15754 18.976 2.6497 20.3602L2.55564 20.4129L2.59219 20.5763L2.68467 20.5791C3.68606 20.571 5.569 20.7229 6.9313 21.8256L6.98011 21.8652L7.02726 21.8236C13.1196 16.5054 19.2301 14.6857 20.9579 14.2549L21.0281 14.2373L21.0393 13.4955L20.9397 13.5094Z" fill="white"/>
<path d="M22.659 5.41586C21.477 5.73632 20.8401 6.79041 20.8654 8.38423C20.8803 9.32229 21.3539 10.1351 21.8118 10.921C22.2457 11.6654 22.6552 12.369 22.6695 13.1333C22.6881 14.1134 22.4492 14.6935 21.959 14.8574C21.7719 14.9195 21.533 14.8574 21.3501 14.6976C21.2179 14.5824 21.1308 14.4257 21.0932 14.2509C21.5066 14.0858 22.058 13.6228 22.058 12.9271C22.058 12.892 22.0567 12.8571 22.0539 12.8213C22.0318 12.539 21.9462 12.3255 21.8003 12.187C21.6171 12.0139 21.3741 12.0001 21.2078 12.0451C20.5632 12.2188 20.1693 13.0169 20.2918 13.9014C20.4947 15.3685 21.5694 15.817 22.4821 15.6133C23.1603 15.4617 23.7244 15.0245 24.0707 14.3818C24.4132 13.7468 24.528 12.9479 24.4027 12.0698C24.2703 11.1403 23.8747 10.3854 23.4918 9.65452C23.0625 8.83597 22.6566 8.06295 22.6256 7.09113C22.6147 6.75767 22.6874 6.45082 22.8146 6.29059C22.8814 6.20658 22.9595 6.16811 23.0463 6.17568C23.1732 6.18734 23.2782 6.27278 23.3585 6.43066C23.5309 6.77087 23.5593 7.40146 23.4239 7.89822L23.4138 7.93608L23.4941 8.23044L24.93 7.36186L24.923 7.28062C24.8706 6.66845 24.6352 6.13854 24.2601 5.78749C23.8299 5.38445 23.2614 5.25236 22.659 5.41586Z" fill="white"/>
<path d="M9.74479 7.8208C9.71631 8.36933 9.29314 8.9063 8.79933 9.01834C8.30512 9.13191 7.92759 8.7784 7.95584 8.22997C7.98384 7.68052 8.40733 7.14427 8.90138 7.03172C9.39528 6.91825 9.77271 7.27176 9.74479 7.8208ZM6.29054 14.9976L6.5092 14.9309L6.06816 16.5066C6.06816 16.5066 3.04886 17.548 1.00391 18.6455L1.2607 17.548C1.53997 17.4338 1.83498 17.1985 1.91868 16.8267L3.19736 9.4448L2.84744 9.56718L2.95425 9.02857L5.11027 8.0456L3.73231 15.8182C3.65161 16.2265 3.79014 16.3852 4.12336 16.282L5.45939 15.8061C5.9002 15.6217 6.29054 14.9976 6.29054 14.9976ZM9.05699 14.842C8.94386 14.982 8.8229 15.0724 8.69529 15.0946C8.4722 15.1354 8.44285 14.7654 8.52299 14.3232L9.44068 9.46005L7.52254 10.344L7.42342 10.8473L7.74026 10.7394L7.04519 14.1779C6.85872 15.1673 7.11101 16.1323 8.15109 15.9478C8.62528 15.8636 9.03919 15.5534 9.39361 15.1035L9.05699 14.842ZM14.6589 9.75923C14.9381 8.27264 14.2466 7.78939 13.0971 7.97274C11.7717 8.18465 10.6877 9.17796 10.3846 10.7207L9.93442 13.0781C9.6205 14.5549 10.3227 15.0584 11.4708 14.8648C12.7873 14.6423 13.8739 13.7501 14.149 12.3686L14.6589 9.75923ZM11.7747 14.0548C11.5832 14.0719 11.3615 13.9004 11.399 13.6616L12.2584 9.22216C12.3084 8.95961 12.63 8.77328 12.8282 8.74433C13.0013 8.71885 13.3742 8.74873 13.3293 8.99378L12.4786 13.4417C12.4073 13.7985 12.0991 14.0248 11.7747 14.0548ZM15.9685 7.60716L15.8806 8.07987L16.1977 7.95648L15.1332 13.5951L16.6823 13.1051L17.5421 8.50224C17.6313 8.00497 17.8654 7.73782 18.1658 7.60491C18.3993 7.50228 18.5982 7.62384 18.5474 7.88219L17.9679 11.0359C17.836 11.7218 17.4831 13.0882 18.5274 12.9031C19.3068 12.765 19.825 12.1486 20.1362 11.6606L19.7871 11.3745C19.6595 11.6069 19.4928 11.7483 19.3887 11.7067C19.3269 11.6813 19.3168 11.5626 19.3421 11.4585L20.053 7.61463C20.2758 6.44799 19.7797 6.20079 19.3502 6.29093C18.8175 6.40184 18.1184 6.83895 17.7899 7.23615L17.8994 6.67831L15.9685 7.60716Z" fill="#0066B3"/>
<path d="M22.5409 7.09527C22.5229 6.53262 22.7239 6.03238 23.0559 6.06205C23.5841 6.10963 23.7116 7.19759 23.5108 7.93612L23.548 8.07384L24.8388 7.29376C24.7304 6.03289 23.8206 5.21844 22.68 5.52734C21.4517 5.86018 20.9347 6.98118 20.9567 8.38162C20.9851 10.1479 22.73 11.4949 22.7611 13.13C22.7844 14.3506 22.4076 14.8262 21.9843 14.968C21.6047 15.0946 21.0518 14.7739 20.9905 14.1705C21.4308 14.0326 22.0257 13.5465 21.9693 12.8327C21.914 12.1262 21.438 12.1001 21.2292 12.1564C20.6992 12.2991 20.317 12.9384 20.3654 13.7164C15.9566 14.5084 7.61061 17.7476 2.6875 20.4656C4.06966 20.4545 5.76107 20.7413 6.9812 21.7292C11.8733 17.459 17.0957 15.1932 20.4638 14.2701C20.7686 15.321 21.6373 15.687 22.4706 15.5011C23.7216 15.2215 24.5833 13.9446 24.3193 12.091C24.0453 10.1641 22.6023 8.99154 22.5409 7.09527ZM8.87134 5.14579C8.55774 5.45929 8.3564 5.27911 8.20791 4.99466L8.46114 4.74153C8.55062 4.89112 8.63084 5.01216 8.77015 4.873C8.85559 4.78747 8.8548 4.67389 8.79127 4.56769C8.62277 4.28559 8.10245 4.77754 7.8239 4.31117C7.67738 4.06592 7.65136 3.78014 7.95997 3.47175C8.20672 3.22547 8.41463 3.24634 8.59365 3.59065L8.3469 3.83713C8.27689 3.71987 8.19066 3.61561 8.08821 3.71793C8.00609 3.79989 7.99249 3.90722 8.05712 4.01568C8.2348 4.31291 8.72917 3.77758 9.02331 4.27004C9.26563 4.67594 9.06429 4.95322 8.87134 5.14579ZM9.4623 2.74406L9.4585 2.74631L9.62163 3.59668L9.89496 3.4211L9.4623 2.74406ZM9.45953 4.53024L9.15835 2.51354L9.53627 2.27104L10.5891 3.8047L10.2872 3.99859L10.0605 3.65459L9.66941 3.90569L9.74259 4.34852L9.45953 4.53024ZM10.8256 3.67629L10.4894 1.74502L10.9921 1.59912L11.4543 2.84423L11.4583 2.843L11.4781 1.45751L11.9641 1.3161L12.3002 3.24737L11.9962 3.33577L11.7369 1.8458L11.7327 1.84703L11.7044 3.42059L11.4067 3.50715L10.8744 2.0969L10.8703 2.09792L11.1296 3.58778L10.8256 3.67629ZM13.0885 3.27551C12.692 3.27233 12.6193 2.97008 12.6378 2.62742L12.9579 2.63028C12.9571 2.81937 12.9628 2.97827 13.1385 2.98001C13.2467 2.98072 13.3 2.89079 13.3008 2.75624C13.3024 2.40006 12.6582 2.37264 12.661 1.78329C12.6624 1.47347 12.7782 1.2277 13.1681 1.23087C13.4797 1.23333 13.6336 1.41576 13.6105 1.82943L13.299 1.82667C13.2997 1.67882 13.2813 1.52769 13.152 1.52688C13.048 1.52606 12.9862 1.59942 12.9856 1.73653C12.9837 2.11214 13.6284 2.08451 13.6254 2.70682C13.6229 3.21964 13.3322 3.27755 13.0885 3.27551ZM15.2805 1.6208L15.0617 2.99566C15.0154 3.28563 14.84 3.55811 14.458 3.4564C14.1133 3.36452 13.984 3.08928 14.0421 2.72421L14.261 1.34935L14.5744 1.43285L14.3599 2.78069C14.3217 3.01981 14.3857 3.13482 14.5 3.16521C14.637 3.20163 14.7181 3.10013 14.7523 2.88526L14.9669 1.53731L15.2805 1.6208ZM15.3291 3.70064L15.9492 1.89103L16.3445 2.11756L16.2873 3.58389L16.2911 3.58625L16.7206 2.33315L16.9938 2.4898L16.3737 4.29941L15.988 4.0783L16.0598 2.53615L16.0559 2.5339L15.6024 3.85729L15.3291 3.70064ZM17.8863 3.97383C17.9715 3.827 18.0264 3.67844 17.8893 3.54931C17.7281 3.39778 17.5697 3.67936 17.395 3.98959C17.1131 4.49043 17.1008 4.61475 17.2485 4.7535C17.2913 4.79381 17.345 4.824 17.3943 4.84354L17.5939 4.4888L17.4534 4.3565L17.5918 4.11032L17.9912 4.48634L17.5348 5.29773C17.4544 5.24913 17.258 5.11847 17.155 5.02178C16.7197 4.61189 16.8008 4.33225 17.1428 3.72519C17.3699 3.32155 17.616 2.92598 18.0393 3.32451C18.2931 3.56333 18.3472 3.89597 18.1433 4.21602L17.8863 3.97383ZM10.6905 21.2121L10.8428 21.2747C10.8926 21.2953 10.9725 21.2809 11.006 21.1443C11.0315 21.041 10.9958 20.9425 10.919 20.911L10.7787 20.8534L10.6905 21.2121ZM10.539 21.8283L10.6657 21.8804C10.7139 21.9003 10.823 21.943 10.8714 21.7461C10.9021 21.6213 10.8846 21.5302 10.77 21.4831L10.6373 21.4285L10.539 21.8283ZM10.258 21.9511L10.6043 20.5432L11.0084 20.7094C11.1817 20.7806 11.3092 20.904 11.2353 21.2043C11.1956 21.3663 11.105 21.4576 10.9736 21.4381L10.9727 21.442C11.1269 21.5377 11.136 21.6895 11.0885 21.8827C11.0008 22.2395 10.7572 22.1564 10.6607 22.1167L10.258 21.9511ZM11.7758 21.2463L11.7727 21.2454L11.5769 21.8484L11.8011 21.9011L11.7758 21.2463ZM11.1577 22.3134L11.6735 20.9332L11.9832 21.006L12.0839 22.5314L11.8364 22.4731L11.8195 22.1363L11.4988 22.0608L11.3897 22.368L11.1577 22.3134ZM12.5684 22.5956C12.2731 22.5736 12.2278 22.3447 12.2518 22.0903L12.4903 22.1081C12.484 22.2491 12.4835 22.3679 12.6146 22.3778C12.6952 22.3837 12.7377 22.3192 12.7422 22.2191C12.754 21.9536 12.2746 21.9013 12.2942 21.4621C12.3043 21.2312 12.3979 21.0538 12.6885 21.0755C12.9207 21.0928 13.0301 21.2362 13.0005 21.5435L12.7683 21.5262C12.7732 21.4159 12.764 21.3026 12.6677 21.2954C12.5903 21.2895 12.542 21.3413 12.5374 21.4434C12.5249 21.7233 13.0063 21.7346 12.9855 22.1984C12.9685 22.5804 12.7501 22.6091 12.5684 22.5956ZM13.2025 22.5965L13.1421 21.1211L13.7646 21.0785L13.774 21.3054L13.39 21.3316L13.4049 21.6954L13.7588 21.6712L13.7681 21.8979L13.4142 21.9222L13.4318 22.3533L13.8284 22.3262L13.8376 22.5531L13.2025 22.5965ZM14.2645 22.2492L14.3955 22.2206C14.4455 22.2098 14.5576 22.1833 14.531 21.9795C14.5141 21.8503 14.4665 21.7798 14.3479 21.8056L14.2106 21.8356L14.2645 22.2492ZM14.1814 21.6115L14.339 21.5773C14.3906 21.566 14.4565 21.5058 14.4381 21.3647C14.4242 21.2578 14.3578 21.1913 14.2782 21.2087L14.133 21.2402L14.1814 21.6115ZM14.058 22.5244L13.8683 21.0675L14.2864 20.9764C14.4659 20.9375 14.6227 20.9717 14.6633 21.2826C14.685 21.45 14.6368 21.585 14.5131 21.6451L14.5137 21.6492C14.6845 21.6431 14.7464 21.7728 14.7723 21.9727C14.8205 22.342 14.5745 22.4122 14.4746 22.4338L14.058 22.5244ZM15.1593 21.001L15.1563 21.0021L15.1946 21.6541L15.4127 21.569L15.1593 21.001ZM14.9853 22.3152L14.9579 20.7825L15.2594 20.6648L15.8866 21.9631L15.6457 22.0572L15.5119 21.7676L15.1999 21.8894L15.211 22.2271L14.9853 22.3152ZM16.0492 21.8698L15.5996 20.5116L15.8192 20.3901L16.1941 21.5225L16.523 21.3405L16.5976 21.5662L16.0492 21.8698ZM16.7476 21.4654L16.2005 20.1685L16.4102 20.0206L16.8664 21.102L17.1803 20.8806L17.2713 21.0959L16.7476 21.4654ZM17.4036 20.1057C17.219 19.796 17.0434 19.501 17.3554 19.19C17.5485 18.9977 17.7083 19.0581 17.8504 19.3168L17.6649 19.5016C17.5722 19.346 17.5161 19.309 17.4598 19.3651C17.3532 19.4712 17.4167 19.6147 17.5953 19.9145C17.774 20.2145 17.8651 20.3304 17.9716 20.2243C18.0594 20.1368 17.9686 19.9947 17.9161 19.8998L18.1029 19.7136C18.2893 20.0264 18.2526 20.2232 18.076 20.3994C17.7638 20.7104 17.5862 20.4121 17.4036 20.1057ZM18.4963 19.9191L17.7082 18.8493L17.8812 18.6363L18.5383 19.5282L18.7972 19.2091L18.9282 19.387L18.4963 19.9191ZM18.6684 17.514L19.2883 18.1884C19.419 18.3308 19.495 18.5765 19.3075 18.8646C19.1384 19.1245 18.9528 19.1364 18.7881 18.9573L18.1683 18.2828L18.3221 18.0464L18.9298 18.7077C19.0376 18.8249 19.1187 18.8116 19.1747 18.7253C19.242 18.6222 19.2193 18.517 19.1224 18.4117L18.5146 17.7503L18.6684 17.514Z" fill="#0066B3"/>
<path d="M19.6761 17.8101L19.7482 17.6657C19.7756 17.6108 19.8362 17.4858 19.7019 17.3736C19.6168 17.3026 19.5444 17.3006 19.4791 17.4313L19.4036 17.5824L19.6761 17.8101ZM19.2561 17.4592L19.3428 17.2857C19.3711 17.2288 19.3813 17.1255 19.2883 17.0477C19.2178 16.9889 19.1351 17.0073 19.0913 17.0951L19.0115 17.2549L19.2561 17.4592ZM19.6941 18.1929L18.7344 17.3911L18.9644 16.9306C19.0632 16.733 19.1885 16.6061 19.3932 16.7773C19.5035 16.8695 19.5481 17.0065 19.499 17.1652L19.5016 17.1674C19.6134 17.0001 19.7291 17.0287 19.8608 17.1385C20.104 17.3417 19.9782 17.624 19.9232 17.734L19.6941 18.1929Z" fill="#0066B3"/>
</g>
<defs>
<clipPath id="clip0_328_3023">
<rect width="24.6621" height="24" fill="white" transform="translate(0.511719)"/>
</clipPath>
</defs>
</svg>
