<svg width="26" height="24" viewBox="0 0 26 24" fill="none" xmlns="http://www.w3.org/2000/svg">
<g clip-path="url(#clip0_328_3132)">
<path d="M23.8151 13.3616C23.9407 13.0695 24.032 12.7303 24.0891 12.3816L24.2147 11.5995C24.2604 11.3168 24.2832 11.0247 24.2832 10.7421C24.2832 10.5536 24.2718 10.3651 24.249 10.1861L24.4488 10.1578L24.9683 6.95406L24.032 5.11661L20.4469 5.63486C20.2414 5.22026 20.013 4.81508 19.7675 4.43816C19.6705 2.69494 18.7799 1.3192 17.6952 1.3192C17.4383 1.3192 17.1986 1.39458 16.9702 1.53592C15.5487 0.555948 13.9046 0 12.1463 0C9.07494 0 6.33471 1.70554 4.58781 4.35336L1.1454 4.86219L2.81237 7.34982L0.511719 21.5218L1.52789 23.3498L8.24145 21.3616C9.43459 21.9929 10.7533 22.3416 12.1463 22.3416C14.5554 22.3416 16.759 21.2956 18.4431 19.5618L18.9169 24L20.7837 17.0648L25.1681 13.8704L23.8151 13.3616Z" fill="#D5D5D6"/>
<path d="M24.6306 7.08594L23.8998 5.64424L20.309 6.1625C20.0635 5.63482 19.7781 5.12599 19.4641 4.65484C19.4356 3.08123 18.6534 1.81857 17.6887 1.81857C17.4318 1.81857 17.1863 1.91279 16.9636 2.07298C15.5593 1.08358 13.9094 0.508789 12.1454 0.508789C9.09689 0.508789 6.39091 2.21432 4.70681 4.8433L1.86382 5.26733L3.14831 7.18959L0.847656 21.3804L1.64118 22.8033L8.2634 20.8433C9.44513 21.4746 10.7639 21.8327 12.1511 21.8327C14.6915 21.8327 16.9979 20.6454 18.6706 18.7232L19.0531 22.285L20.5602 16.6784L24.2024 14.0212L23.2376 13.6631C23.5002 13.305 23.7057 12.8056 23.7914 12.2497L23.917 11.4676C23.9569 11.2226 23.9741 10.9776 23.9741 10.742C23.9741 10.4876 23.9455 10.2426 23.8998 10.0164C23.8827 9.92222 23.8542 9.82799 23.8313 9.74318L24.2081 9.68664L24.6306 7.08594Z" fill="#CF0022"/>
<path d="M18.0653 17.4792C16.9121 18.7796 15.4735 19.6465 13.9036 20.0234C14.6971 19.5429 15.4335 18.9304 16.09 18.1954C16.13 18.1483 16.1757 18.1012 16.2156 18.054L14.8912 18.4404C13.424 19.6842 11.6029 20.4192 9.62196 20.4192C9.43357 20.4192 9.24518 20.4098 9.0625 20.4003C10.0216 20.8055 11.0606 21.0317 12.1395 21.0317C14.68 21.0317 16.9635 19.8161 18.562 17.875L18.4649 16.9893C18.345 17.1494 18.208 17.3191 18.0653 17.4792Z" fill="white"/>
<path d="M1.66406 21.0316L1.90954 21.4839L18.8875 16.4992L18.8362 15.9998L1.66406 21.0316ZM20.0008 15.7548L19.1502 18.9114L19.3842 19.2978L20.2348 16.1411L22.0959 14.7842L21.8618 14.3979L20.0008 15.7548ZM23.5802 6.90674L23.3861 8.08459L22.1473 8.26363C22.0959 8.27305 22.0445 8.34843 22.0331 8.43324L21.8961 9.26245C21.8847 9.34726 21.9132 9.41322 21.9589 9.40379L22.193 9.3661L22.2729 8.87611C22.2843 8.79131 22.3243 8.75362 22.3642 8.74419L23.6202 8.56516L23.8143 7.3873L23.5802 6.90674ZM15.8562 12.3155L16.0902 12.2778L16.1873 11.6653L17.8485 11.4297L18.1397 9.62994C18.1625 9.4886 18.1739 9.35668 18.1739 9.23418C18.1739 9.11169 18.1625 8.98919 18.1397 8.88554C18.1169 8.78189 18.0883 8.68766 18.0426 8.60285C18.0027 8.52747 17.8543 8.23536 17.8086 8.15055C17.9228 8.39555 17.9627 8.75362 17.8942 9.1588L17.6031 10.9586L15.9418 11.1941L15.782 12.1741C15.7762 12.2589 15.8048 12.3249 15.8562 12.3155Z" fill="#970022"/>
<path d="M19.8687 9.1023L20.9591 8.94211L21.1247 7.9056C21.1304 7.85849 21.1418 7.82079 21.1532 7.77368L20.902 7.28369L20.7136 8.46155L19.6518 8.61231C19.6004 8.62174 19.549 8.69712 19.5376 8.78192L18.8469 13.0316L17.8364 13.1824L17.9277 12.6264L17.6366 13.2201L15.4216 13.5405C15.0847 13.5876 14.845 13.3049 14.7822 12.8432L14.3597 13.7007L13.7489 13.7855C13.5947 13.8043 13.4692 13.7383 13.3949 13.597C13.3264 13.7478 13.218 13.8608 13.1152 13.8703L12.1447 14.0116C11.8079 14.0587 11.5681 13.776 11.5053 13.3143L11.0829 14.1718L10.5291 14.2566C10.3008 14.2849 10.1181 14.1718 10.0039 13.9456C10.0496 14.0399 10.198 14.332 10.238 14.4074C10.2779 14.4827 10.3236 14.5487 10.375 14.6052C10.4264 14.6524 10.4892 14.6995 10.552 14.7183C10.6205 14.7372 10.689 14.7466 10.7689 14.7372L11.237 14.6712L11.6652 13.8043C11.728 13.9268 11.825 14.1153 11.8536 14.1718C11.8935 14.2472 11.9392 14.3131 11.9906 14.3697C12.042 14.4168 12.1047 14.4639 12.1675 14.4827C12.2361 14.5016 12.3046 14.511 12.3845 14.5016L13.355 14.3603C13.4577 14.3414 13.5662 14.2378 13.6347 14.087C13.7089 14.2189 13.8288 14.2943 13.9887 14.2754L14.5139 14.2001L14.942 13.3332C15.0048 13.4557 15.1019 13.6441 15.1304 13.7007C15.1704 13.776 15.2161 13.842 15.2674 13.8985C15.3188 13.9456 15.3816 13.9928 15.4444 14.0116C15.5129 14.0305 15.5814 14.0399 15.6613 14.0305L17.8764 13.7101L17.9734 13.5122L18.0762 13.6818L19.0866 13.531L19.7831 9.24364C19.7945 9.15884 19.8345 9.11172 19.8687 9.1023ZM23.1113 10.1294C23.0714 10.054 22.9229 9.7619 22.8773 9.67709C22.9915 9.92209 23.0314 10.2802 22.9629 10.6853L22.7802 11.8161C22.7231 12.1836 22.5062 12.5134 22.3064 12.5416L20.0743 12.862L20.1713 13.776L20.4967 13.8985L20.4339 13.3237L22.3292 13.0505C22.6603 13.0034 22.98 12.5228 23.0714 11.948L23.197 11.1659C23.2198 11.0246 23.2312 10.8926 23.2312 10.7701C23.2312 10.6476 23.2198 10.5252 23.197 10.4215C23.1798 10.3084 23.1513 10.2142 23.1113 10.1294Z" fill="#970022"/>
<path d="M19.9558 11.7222L20.2641 11.6846L20.2412 11.4867L19.8645 10.8648L19.9558 11.7222ZM21.0405 10.0732C21.0804 10.1581 21.2403 10.4596 21.2802 10.5444C21.3202 10.6198 21.3659 10.6857 21.4173 10.7423C21.4686 10.7894 21.5314 10.8365 21.5942 10.8553C21.6627 10.8742 21.7312 10.8836 21.8112 10.8742L21.9539 10.8553L22.0167 10.4879C22.0281 10.403 21.9996 10.3371 21.9539 10.3465L21.5771 10.403C21.3373 10.4219 21.1547 10.2994 21.0405 10.0732ZM14.2356 12.5515L14.4696 12.5138L15.697 4.94722L15.4573 4.47607L14.1671 12.4101C14.1557 12.4949 14.1842 12.5609 14.2356 12.5515ZM16.502 9.73403C16.5134 9.64922 16.5648 9.57384 16.6161 9.56441L16.8445 9.52672L16.9073 9.15923C16.9187 9.07443 16.8902 9.00847 16.8445 9.01789L16.3764 9.08385C16.325 9.09327 16.2736 9.16865 16.2622 9.25346L16.1024 10.2334L16.4278 10.1863L16.502 9.73403ZM5.52393 6.45487L5.28416 5.97431L3.54297 16.6975L3.86837 16.6504L5.52393 6.45487ZM6.84266 14.5397C6.77416 14.6904 6.66569 14.8035 6.56293 14.8129L5.59243 14.9543C5.3755 14.9826 5.19282 14.8789 5.07864 14.6622L5.30128 15.1051C5.34124 15.1804 5.38692 15.2464 5.43829 15.3029C5.48967 15.35 5.55247 15.3972 5.61527 15.416C5.68377 15.4348 5.75228 15.4443 5.8322 15.4348L6.8027 15.2935C6.90546 15.2747 7.01393 15.171 7.08243 15.0202C7.15665 15.1522 7.27653 15.2275 7.43638 15.2087L8.04722 15.1239L8.15569 14.9072L8.24703 15.0956L9.25749 14.9449L9.97109 10.5444L10.2908 10.4973L10.3536 10.1298C10.365 10.045 10.3365 9.97902 10.2908 9.98844L9.73703 10.0732L9.01772 14.4549L8.00726 14.6056L8.0986 14.0497L7.80745 14.6339L7.19661 14.7187C7.03676 14.747 6.91117 14.6716 6.84266 14.5397ZM7.01964 10.959L7.08243 10.5915C7.09385 10.5067 7.06531 10.4407 7.01964 10.4502L5.44971 10.6763L5.68948 11.1475L7.01964 10.959Z" fill="#970022"/>
<path d="M6.02481 13.7387L6.25887 13.701L6.3445 13.1922C6.35592 13.1074 6.4073 13.032 6.45868 13.0226L6.68703 12.9849L6.77266 12.4666L6.21891 12.5514C6.16753 12.5609 6.11615 12.6363 6.10473 12.7211L5.96201 13.6068C5.94488 13.6822 5.97343 13.7482 6.02481 13.7387ZM12.5785 12.787L12.8126 12.7493L13.2236 10.2052C13.235 10.1204 13.2864 10.045 13.3378 10.0355L13.5661 9.99786L13.6518 9.4796L13.098 9.5644C13.0466 9.57383 12.9953 9.64921 12.9839 9.73402L12.51 12.6457C12.4986 12.7305 12.5271 12.7964 12.5785 12.787ZM7.68036 13.4937L7.91442 13.456L8.30833 11.0438C8.33117 10.9024 8.34258 10.7705 8.34258 10.648C8.34258 10.5255 8.33117 10.403 8.30833 10.2994C8.2855 10.1957 8.25695 10.1015 8.21128 10.0167C8.17132 9.94132 8.02289 9.64921 7.97722 9.5644C8.0914 9.8094 8.13136 10.1675 8.06285 10.5726L7.61186 13.3524C7.60044 13.4372 7.62898 13.5032 7.68036 13.4937ZM10.9572 13.0226L11.1913 12.9849L11.5852 10.5726C11.608 10.4313 11.6194 10.2994 11.6194 10.1769C11.6194 10.0544 11.608 9.9319 11.5852 9.82824C11.5624 9.72459 11.5338 9.63036 11.4881 9.54556C11.4482 9.47018 11.2997 9.17807 11.2541 9.09326C11.3683 9.33826 11.4082 9.69632 11.3397 10.1015L10.8887 12.8812C10.8773 12.9661 10.9058 13.032 10.9572 13.0226Z" fill="#970022"/>
<path d="M22.0331 8.43349C22.0445 8.34868 22.0959 8.2733 22.1473 8.26387L23.3861 8.08484L23.5802 6.90698L21.6049 7.18967C21.3994 7.21794 21.1882 7.54774 21.1311 7.91523L20.9484 9.04597C20.8171 9.85634 21.0969 10.4594 21.5707 10.384L21.9475 10.3275C21.9988 10.3181 22.0274 10.384 22.0103 10.4688L21.8733 11.298C21.8618 11.3828 21.8105 11.4582 21.7591 11.4676L19.9494 11.7315L19.858 10.8646L19.0074 14.0212L18.2482 14.5772L3.54226 16.6973L5.28345 5.97412L3.43379 6.24738L3.94188 7.01063L1.66406 21.0318L18.8362 16L19.1502 18.9117L20.0008 15.755L21.8675 14.3981L20.1777 13.7762L20.0807 12.8622L22.3128 12.5418C22.5184 12.5136 22.7296 12.1838 22.7867 11.8163L22.9693 10.6855C23.1007 9.87518 22.8209 9.27212 22.3471 9.33808L21.9703 9.39462C21.9189 9.40404 21.8904 9.33808 21.9075 9.25327L22.0331 8.43349Z" fill="white"/>
<path d="M17.6898 7.17098C18.5001 7.17098 19.157 6.08676 19.157 4.74931C19.157 3.41186 18.5001 2.32764 17.6898 2.32764C16.8795 2.32764 16.2227 3.41186 16.2227 4.74931C16.2227 6.08676 16.8795 7.17098 17.6898 7.17098Z" fill="white"/>
<path d="M16.7974 2.81723C15.4501 1.86552 13.8573 1.30957 12.1447 1.30957C11.5281 1.30957 10.9287 1.38495 10.3521 1.51687C12.6699 1.68648 14.7422 2.87376 16.2208 4.69237C16.2322 3.92912 16.4548 3.25068 16.7974 2.81723ZM20.7136 8.47094L20.902 7.29308L19.1094 7.55692C18.9039 7.58519 18.6927 7.91499 18.6356 8.28248L18.0305 12.0139L15.8554 12.3249C15.804 12.3343 15.7755 12.2683 15.7926 12.1835L15.9525 11.2036L17.6137 10.968L17.9049 9.16823C18.0362 8.35786 17.7564 7.7548 17.2826 7.82076L15.8383 8.02806C15.6328 8.05633 15.4215 8.38613 15.3645 8.75362L14.805 12.2024C14.7879 12.2966 14.7822 12.3908 14.7764 12.4851L14.2455 12.5605C14.1941 12.5699 14.1656 12.5039 14.1827 12.4191L15.4729 4.48507L13.8117 4.73007L14.3197 5.49332L13.863 8.32017L12.5728 8.50863C12.3673 8.5369 12.1561 8.8667 12.099 9.23419L11.5395 12.683C11.5224 12.7772 11.5167 12.8714 11.511 12.9656L10.9801 13.041C10.9287 13.0504 10.9002 12.9845 10.9173 12.8997L11.3683 10.1199C11.4996 9.30957 11.2199 8.70651 10.746 8.77247L8.93633 9.03631L8.22273 13.4368L7.70322 13.5122C7.65184 13.5216 7.6233 13.4556 7.64043 13.3708L8.09142 10.5911C8.22273 9.78071 7.94299 9.17765 7.46916 9.24361L5.65947 9.50745L5.46537 10.6853L7.03529 10.4592C7.08667 10.4497 7.11522 10.5157 7.09809 10.6005L6.94966 11.5239L5.67089 11.7124C5.46537 11.7407 5.24843 12.0516 5.19135 12.4097L4.99725 13.6252C4.86594 14.4356 5.14568 15.0387 5.61951 14.9727L6.59001 14.8314C6.69276 14.8125 6.80123 14.7089 6.86974 14.5581C6.94395 14.69 7.06384 14.7654 7.22368 14.7466L7.83453 14.6618L8.12568 14.0775L8.03434 14.6335L9.0448 14.4827L9.7584 10.0822L10.3122 9.99744C10.3635 9.98802 10.3921 10.054 10.3749 10.1388L9.92395 12.9185C9.79265 13.7289 10.0724 14.332 10.5462 14.266L11.1 14.1812L11.5224 13.3237C11.5852 13.7854 11.825 14.0681 12.1618 14.021L13.1323 13.8797C13.2351 13.8608 13.3435 13.7572 13.412 13.6064C13.4863 13.7383 13.6061 13.8137 13.766 13.7948L14.3768 13.71L14.7993 12.8526C14.8621 13.3143 15.1018 13.597 15.4387 13.5499L17.6537 13.2295L17.9448 12.6358L17.8535 13.1918L18.864 13.041L19.5547 8.79131C19.5661 8.70651 19.6175 8.63112 19.6689 8.6217L20.7136 8.47094ZM16.2607 9.26246C16.2722 9.17765 16.3235 9.10227 16.3749 9.09284L16.843 9.02689C16.8944 9.01746 16.923 9.08342 16.9058 9.16823L16.746 10.1482L16.1009 10.2424L16.2607 9.26246ZM6.60142 13.5027C6.59001 13.5875 6.53863 13.6629 6.48725 13.6724L6.01912 13.7383C5.96775 13.7477 5.9392 13.6818 5.95633 13.597L6.09905 12.7112C6.11047 12.6264 6.16184 12.551 6.21322 12.5416L6.76698 12.4568L6.60142 13.5027ZM13.1551 12.5605C13.1437 12.6453 13.0923 12.7206 13.041 12.7301L12.5728 12.796C12.5215 12.8054 12.4929 12.7395 12.51 12.6547L12.9839 9.74302C12.9953 9.65822 13.0467 9.58283 13.0981 9.57341L13.6518 9.4886L13.1551 12.5605Z" fill="white"/>
<path d="M5.8112 14.3414C5.5486 14.3791 5.39446 14.0493 5.46867 13.597L5.63994 12.5511C5.65706 12.438 5.70274 12.3344 5.75411 12.259L5.3545 11.9198C5.26887 12.0423 5.20036 12.2119 5.17182 12.3909L4.97772 13.6065C4.84641 14.4168 5.12614 15.0199 5.59998 14.9539L6.57047 14.8126C6.67323 14.7937 6.7817 14.6901 6.85021 14.5393C6.92442 14.6712 7.04431 14.7466 7.20415 14.7278L7.80358 14.643L7.66657 14.087L5.8112 14.3414ZM9.32783 9.53578L8.9168 9.01752L8.0091 14.6053L9.01956 14.4545L8.60852 13.9363L9.32783 9.53578ZM13.8035 4.7207L14.3116 5.47453L13.8492 8.31081L14.2602 8.82907L14.854 5.173L13.8035 4.7207ZM17.1774 10.5534L15.5219 10.789L15.9501 11.1942L17.6113 10.9586L17.1774 10.5534ZM18.8216 7.78313C18.736 7.91505 18.6674 8.08466 18.6389 8.27312L17.8397 13.1824L18.8501 13.0317L18.4391 12.5134L19.0842 8.52753C19.1013 8.41446 19.147 8.31081 19.1984 8.226L18.8216 7.78313ZM19.3868 8.08466C19.324 8.09408 19.2612 8.15062 19.2041 8.226L19.5866 8.66888C19.6094 8.64061 19.6322 8.62176 19.6551 8.61234L20.7169 8.46158L20.3972 7.9339L19.3868 8.08466ZM10.9434 13.6065L10.7436 13.6347C10.481 13.6724 10.3269 13.3426 10.4011 12.8903L10.8521 10.1106C10.9263 9.6677 10.7722 9.32848 10.5096 9.36617L9.32783 9.53578L9.73887 10.054L10.2926 9.96923C10.344 9.95981 10.3725 10.0258 10.3554 10.1106L9.90442 12.8903C9.77312 13.7007 10.0528 14.3037 10.5267 14.2378L11.0804 14.153L10.9434 13.6065Z" fill="#D5D5D6"/>
<path d="M7.35776 11.9199L5.93056 12.1272C5.86776 12.1366 5.79926 12.1932 5.74788 12.2686L6.1475 12.6078C6.17033 12.5795 6.19317 12.5607 6.216 12.5512L6.76976 12.4664L6.6042 13.5029C6.59849 13.5406 6.58137 13.5878 6.55853 13.616L6.85539 14.1908C6.9296 14.1814 7.00382 14.0683 7.02094 13.9458L7.35776 11.9199ZM7.23217 9.83746L5.95911 10.0165L5.63941 9.48881L5.44531 10.6667L7.01524 10.4405C7.06662 10.4311 7.09516 10.4971 7.07803 10.5819L6.9296 11.5053L7.35776 11.9105L7.5747 10.5724C7.64891 10.139 7.49478 9.79977 7.23217 9.83746ZM17.0627 8.42403L16.1094 8.56537C16.0466 8.5748 15.9838 8.63133 15.9267 8.70672L16.3092 9.14959C16.332 9.12132 16.3549 9.10248 16.3777 9.09305L16.8458 9.02709C16.8972 9.01767 16.9257 9.08363 16.9086 9.16844L16.7488 10.1484L17.1769 10.5536L17.4053 9.15901C17.4795 8.71614 17.3254 8.38634 17.0627 8.42403ZM23.0684 7.55713L21.8753 7.72674C21.8125 7.73616 21.7497 7.7927 21.6926 7.86808L22.0751 8.31096C22.0979 8.28269 22.1208 8.26384 22.1436 8.25442L23.3824 8.07539L23.0684 7.55713Z" fill="#D5D5D6"/>
<path d="M21.3157 7.42529L21.6982 7.86817C21.6468 7.95297 21.6012 8.05662 21.5841 8.1697L21.4242 9.14967C21.35 9.59255 21.5041 9.93177 21.7667 9.89408L22.1435 9.83754C22.4061 9.79985 22.5603 10.1297 22.486 10.5819L22.3262 11.5619C22.3091 11.675 22.2634 11.7786 22.212 11.8635L21.8295 11.4206C21.8524 11.3923 21.8638 11.3546 21.8752 11.3075L22.0122 10.4783C22.0236 10.3935 21.9951 10.3275 21.9494 10.337L21.5726 10.3935C21.0988 10.4595 20.8191 9.86581 20.9504 9.05545L21.1331 7.91528" fill="#D5D5D6"/>
<path d="M22.2172 11.8539C22.1658 11.9387 22.0973 11.9858 22.0345 11.9953L20.339 12.2403L19.9508 11.722L20.0707 12.8622L22.3028 12.5418C22.4056 12.5229 22.5083 12.4381 22.594 12.3062L22.2172 11.8539ZM14.2192 13.126L12.3638 13.3898C12.1012 13.4275 11.947 13.0977 12.0213 12.6454L12.5351 9.46994C12.5522 9.35687 12.5978 9.25322 12.6492 9.16841L12.2667 8.72554C12.1811 8.85746 12.1126 9.02707 12.0841 9.21553L11.5246 12.6643C11.3933 13.4747 11.673 14.0777 12.1469 14.0118L13.1173 13.8704C13.2201 13.8516 13.3286 13.7479 13.3971 13.5972C13.4713 13.7291 13.5912 13.8045 13.751 13.7856L14.3619 13.7008L14.2192 13.126ZM17.496 12.6549L15.6406 12.9187C15.378 12.9564 15.2239 12.6266 15.2981 12.1743L15.8119 8.9988C15.829 8.88573 15.8747 8.78207 15.9261 8.69727L15.5436 8.25439C15.458 8.38631 15.3895 8.55593 15.3609 8.74438L14.8014 12.1931C14.6701 13.0035 14.9499 13.6066 15.4237 13.5406L17.6387 13.2202L17.496 12.6549Z" fill="#D5D5D6"/>
<path d="M18.8362 16.0002L18.0198 15.6987L2.44617 19.8447L4.56985 6.74697L3.43379 6.24756L3.94188 7.01081L1.66406 21.032L18.8362 16.0002Z" fill="#D5D5D6"/>
<path d="M12.8311 9.0367C12.7683 9.04612 12.7055 9.10266 12.6484 9.17804L13.0309 9.62091C13.0538 9.59264 13.0766 9.5738 13.0994 9.56437L13.6532 9.47957L13.1565 12.542C13.1508 12.5797 13.1337 12.6268 13.1109 12.6551L13.4077 13.2299C13.4819 13.2204 13.5561 13.1074 13.5733 12.9849L14.2526 8.81055L12.8311 9.0367Z" fill="#D5D5D6"/>
<path d="M19.9618 14.1341L19.7506 12.1553L19.174 14.2943L18.2834 14.9444L3.18359 17.743L3.74306 18.5817L18.1749 15.3214L19.0541 15.6417L19.2653 17.6205L19.8419 15.4815L21.1093 14.5581L19.9618 14.1341Z" fill="#FAC109"/>
<path d="M19.6198 13.6064L19.7683 14.4545L20.2592 14.7278L19.6998 15.2272L19.3972 16.1695L19.2488 15.312L18.7578 15.0387L19.3173 14.5487L19.6198 13.6064Z" fill="#004537"/>
<path d="M16.52 3.27928C15.8121 2.79872 15.0471 2.43123 14.2422 2.20508C14.99 2.68564 15.6808 3.28871 16.2917 4.00484C16.343 3.741 16.423 3.49601 16.52 3.27928Z" fill="#FAC109"/>
<path d="M18.0095 6.43592C17.2674 6.43592 16.6679 5.44652 16.6679 4.22155C16.6679 3.50541 16.8735 2.86466 17.1932 2.45947C16.628 2.7987 16.2227 3.69387 16.2227 4.7398C16.2227 6.07785 16.8792 7.16148 17.6898 7.16148C18.3235 7.16148 18.8658 6.49245 19.0714 5.55959C18.8259 6.09669 18.4434 6.43592 18.0095 6.43592Z" fill="#D5D5D6"/>
<path d="M18.0594 5.57837L17.9738 5.258L17.911 5.38049L17.9852 5.66318L17.9281 5.76683L18.145 5.90817L18.2021 5.7951L18.0137 5.66318L18.0594 5.57837ZM18.2649 5.24857L18.2249 4.90935L18.145 5.013L18.185 5.30511L18.1165 5.39934L18.3106 5.60664L18.3848 5.51241L18.2135 5.32396L18.2649 5.24857ZM18.5104 5.00358L18.5047 4.65494L18.4248 4.7209V5.03185L18.3448 5.09781L18.5104 5.36165L18.596 5.28627L18.4476 5.05069L18.5104 5.00358ZM18.7787 4.83397L18.8187 4.49475L18.7273 4.53244L18.6931 4.83397L18.6074 4.87166L18.733 5.18262L18.8244 5.14492L18.7102 4.86224L18.7787 4.83397ZM19.0641 4.75859L19.1384 4.43821L19.047 4.44763L18.9785 4.73032L18.8872 4.73974L18.9785 5.08839L19.0699 5.07896L18.9956 4.76801L19.0641 4.75859ZM17.8938 5.96471L17.774 5.68203L17.7283 5.82337L17.831 6.06836L17.7911 6.20028L18.0137 6.26624L18.0594 6.1249L17.8596 6.06836L17.8938 5.96471ZM17.7797 6.39816L17.6255 6.16259L17.597 6.31336L17.734 6.52066L17.7054 6.662L17.9338 6.65258L17.9623 6.50181L17.7568 6.51124L17.7797 6.39816ZM17.7169 6.85988L17.5399 6.68085L17.5285 6.83161L17.6826 6.9918L17.6769 7.14257L17.8995 7.05776L17.911 6.907L17.7112 6.97296L17.7169 6.85988ZM17.4314 3.64669L17.2202 3.50535L17.1631 3.62784L17.3515 3.75976L17.3058 3.84457L17.3915 4.15552L17.4543 4.04245L17.3743 3.75976L17.4314 3.64669ZM17.0546 3.8163L16.9804 3.91053L17.1517 4.09899L17.0946 4.16495L17.1403 4.50417L17.2145 4.40994L17.1745 4.10841L17.2487 4.0236L17.0546 3.8163ZM16.8548 4.0613L16.7692 4.12726L16.9176 4.37225L16.8548 4.41936V4.76801L16.9405 4.69263V4.3911L17.0204 4.32514L16.8548 4.0613ZM16.6322 4.23091L16.5351 4.27802L16.6493 4.56071L16.5865 4.58898L16.5466 4.9282L16.6379 4.89051L16.6722 4.58898L16.7578 4.55128L16.6322 4.23091ZM16.4038 4.33456L16.3068 4.34398L16.3867 4.65494L16.3182 4.66436L16.2383 4.98474L16.3353 4.97531L16.4038 4.69263L16.4895 4.6832L16.4038 4.33456ZM17.5913 3.74092L17.6369 3.59958L17.5285 3.35458L17.5741 3.22266L17.3515 3.1567L17.3001 3.28862L17.5056 3.35458L17.4714 3.45823L17.5913 3.74092ZM17.5799 3.05305L17.734 3.29804L17.7625 3.14728L17.6255 2.93055L17.6541 2.79863H17.4257L17.3972 2.9494H17.6027L17.5799 3.05305ZM17.6484 2.6196L17.8253 2.79863L17.8367 2.64787L17.6769 2.48768L17.6883 2.33691L17.4657 2.42172L17.4543 2.57249L17.6541 2.50653L17.6484 2.6196Z" fill="#CF0022"/>
<path d="M6.20312 7.07648L6.4429 6.59591C6.60845 6.82206 6.78542 6.97283 6.99665 6.97283C7.16221 6.97283 7.26496 6.85975 7.26496 6.68072V6.6713C7.26496 6.50169 7.20217 6.41688 6.88818 6.28496C6.5114 6.12477 6.27163 5.95516 6.27163 5.34268V5.33325C6.27163 4.7773 6.53995 4.40981 6.92244 4.40981C7.19075 4.40981 7.42481 4.55116 7.6132 4.79615L7.40198 5.30498C7.23642 5.11653 7.07657 5.00345 6.91673 5.00345C6.76259 5.00345 6.67696 5.12595 6.67696 5.26729V5.27672C6.67696 5.4746 6.75688 5.54056 7.07657 5.6819C7.45336 5.84209 7.66458 6.06824 7.66458 6.60534V6.61476C7.66458 7.22725 7.38485 7.56647 6.97952 7.56647C6.71121 7.56647 6.42577 7.40628 6.20312 7.07648ZM7.79017 7.07648L8.02994 6.59591C8.1955 6.82206 8.37247 6.97283 8.5837 6.97283C8.74926 6.97283 8.85201 6.85975 8.85201 6.68072V6.6713C8.85201 6.50169 8.78922 6.41688 8.47523 6.28496C8.09845 6.12477 7.85868 5.95516 7.85868 5.34268V5.33325C7.85868 4.7773 8.127 4.40981 8.50949 4.40981C8.7778 4.40981 9.01186 4.55116 9.20025 4.79615L8.98903 5.30498C8.82347 5.11653 8.66362 5.00345 8.50378 5.00345C8.34393 5.00345 8.26401 5.12595 8.26401 5.26729V5.27672C8.26401 5.4746 8.34393 5.54056 8.66362 5.6819C9.04041 5.84209 9.25163 6.06824 9.25163 6.60534V6.61476C9.25163 7.22725 8.9719 7.56647 8.56657 7.56647C8.29826 7.56647 8.01282 7.40628 7.79017 7.07648ZM9.4229 5.99285C9.4229 5.11653 9.83393 4.40039 10.3991 4.40039C10.7359 4.40039 10.9357 4.55116 11.1298 4.82442L10.8729 5.33325C10.7302 5.13537 10.6046 5.0223 10.3877 5.0223C10.0908 5.0223 9.85676 5.45575 9.85676 5.97401V5.98343C9.85676 6.5488 10.0908 6.95398 10.4219 6.95398C10.5704 6.95398 10.7017 6.88802 10.8044 6.76553V6.32265H10.3877V5.73844H11.1926V7.06706C11.0042 7.3309 10.7359 7.55705 10.3991 7.55705C9.82251 7.57589 9.4229 6.90687 9.4229 5.99285Z" fill="white"/>
</g>
<defs>
<clipPath id="clip0_328_3132">
<rect width="24.6621" height="24" fill="white" transform="translate(0.511719)"/>
</clipPath>
</defs>
</svg>
