<svg width="24" height="32" viewBox="0 0 24 32" fill="none" xmlns="http://www.w3.org/2000/svg">
<g clip-path="url(#clip0_1109_3278)">
<path d="M12.5201 0.0166687C11.3037 -0.0626457 10.0854 0.141845 8.96147 0.614002C7.8357 1.08633 6.83531 1.8142 6.03947 2.74C5.24086 3.66755 4.6671 4.76691 4.36287 5.95249C4.05865 7.13806 4.03216 8.37785 4.28547 9.57534C4.53682 10.7725 5.06161 11.8953 5.81881 12.856C6.57418 13.8152 7.54177 14.586 8.64547 15.108C9.74731 15.6296 10.9555 15.8876 12.1743 15.8614C13.393 15.8353 14.589 15.5257 15.6675 14.9573C15.702 14.9397 15.7407 14.9315 15.7794 14.9336C15.8182 14.9357 15.8557 14.948 15.8881 14.9693C16.9123 15.6552 18.1203 16.0143 19.3528 15.9993C19.3819 15.9995 19.4108 15.9939 19.4377 15.9828C19.4646 15.9718 19.4891 15.9555 19.5097 15.9349C19.5303 15.9143 19.5466 15.8898 19.5577 15.8629C19.5687 15.836 19.5743 15.8071 19.5741 15.778V13.086C19.5745 13.0334 19.5562 12.9824 19.5225 12.942C19.4888 12.9016 19.4419 12.8745 19.3901 12.8653C19.1366 12.8249 18.8889 12.7535 18.6528 12.6527C18.6088 12.6329 18.5725 12.5993 18.5495 12.5569C18.5265 12.5145 18.518 12.4657 18.5255 12.418C18.5293 12.3862 18.5408 12.3558 18.5588 12.3293C19.3289 11.1703 19.7816 9.8296 19.8719 8.441C19.9622 7.05239 19.6869 5.66436 19.0735 4.41534C18.4616 3.1682 17.5323 2.1041 16.3788 1.33C15.2281 0.557616 13.8937 0.102943 12.5108 0.012002L12.5201 0.0166687ZM7.22947 7.932C7.22876 6.98235 7.5082 6.05359 8.03281 5.262C8.55684 4.47302 9.30258 3.85672 10.1761 3.49067C11.0493 3.12543 12.0116 3.02917 12.9398 3.21421C13.868 3.39926 14.7198 3.85718 15.3861 4.52934C16.0547 5.20339 16.5097 6.05966 16.6941 6.991C16.8785 7.92233 16.7841 8.88737 16.4228 9.76534C16.0614 10.6423 15.4483 11.3925 14.6608 11.9213C13.7421 12.5371 12.6379 12.8142 11.5373 12.7052C10.4367 12.5963 9.40825 12.108 8.62814 11.324C7.7316 10.4223 7.22767 9.20288 7.22614 7.93134L7.22947 7.932Z" fill="#F7F8FA"/>
</g>
<path d="M22.5 26.75H21.75V21.5C21.75 21.1022 21.592 20.7206 21.3107 20.4393C21.0294 20.158 20.6478 20 20.25 20H16.5V13.25C16.5 12.8522 16.342 12.4706 16.0607 12.1893C15.7794 11.908 15.3978 11.75 15 11.75H9C8.60218 11.75 8.22064 11.908 7.93934 12.1893C7.65804 12.4706 7.5 12.8522 7.5 13.25V16.25H3.75C3.35218 16.25 2.97064 16.408 2.68934 16.6893C2.40804 16.9706 2.25 17.3522 2.25 17.75V26.75H1.5C1.30109 26.75 1.11032 26.829 0.96967 26.9697C0.829018 27.1103 0.75 27.3011 0.75 27.5C0.75 27.6989 0.829018 27.8897 0.96967 28.0303C1.11032 28.171 1.30109 28.25 1.5 28.25H22.5C22.6989 28.25 22.8897 28.171 23.0303 28.0303C23.171 27.8897 23.25 27.6989 23.25 27.5C23.25 27.3011 23.171 27.1103 23.0303 26.9697C22.8897 26.829 22.6989 26.75 22.5 26.75ZM7.5 26.75H3.75V17.75H7.5V26.75ZM13.125 20.75C13.125 20.9489 13.046 21.1397 12.9053 21.2803C12.7647 21.421 12.5739 21.5 12.375 21.5C12.1761 21.5 11.9853 21.421 11.8447 21.2803C11.704 21.1397 11.625 20.9489 11.625 20.75V18.0406L11.4872 18.0866C11.3937 18.1177 11.2951 18.1301 11.1968 18.1232C11.0986 18.1162 11.0027 18.0899 10.9146 18.0459C10.8265 18.0018 10.7479 17.9408 10.6834 17.8664C10.6188 17.792 10.5696 17.7056 10.5384 17.6122C10.5073 17.5187 10.4949 17.4201 10.5018 17.3218C10.5088 17.2236 10.5351 17.1277 10.5791 17.0396C10.6232 16.9515 10.6842 16.8729 10.7586 16.8084C10.833 16.7438 10.9194 16.6946 11.0128 16.6634L12.1378 16.2884C12.2506 16.2509 12.3706 16.2406 12.4881 16.2585C12.6056 16.2764 12.7171 16.322 12.8135 16.3915C12.91 16.461 12.9885 16.5524 13.0426 16.6582C13.0968 16.764 13.125 16.8812 13.125 17V20.75ZM20.25 26.75H16.5V21.5H20.25V26.75Z" fill="#F7F8FA"/>
<defs>
<clipPath id="clip0_1109_3278">
<rect width="16" height="16" fill="white" transform="translate(4)"/>
</clipPath>
</defs>
</svg>
