<svg width="29" height="32" viewBox="0 0 29 32" fill="none" xmlns="http://www.w3.org/2000/svg">
<g clip-path="url(#clip0_1264_3282)">
<path d="M20.1099 4.06819L21.8464 5.79362L24.4288 5.98612C24.5456 5.99594 24.6868 6.08513 24.7089 6.24644L28.2112 29.9371L18.7451 31.985L20.1099 4.06819ZM17.8599 32L0 28.6537L2.437 9.85431C2.55481 9.00869 2.58319 8.98037 3.48056 8.69894L6.37631 7.80081C6.99625 5.17219 8.97288 0 13.1104 0C13.6508 0 14.2766 0.290188 14.7817 0.958188C16.6752 0.87 17.7174 2.46619 18.2896 4.11225L19.2376 3.81962L17.8599 32ZM14.2261 2.27338C13.2171 2.70638 12.063 3.854 11.4473 6.23025L14.6448 5.24006C14.6565 3.84369 14.4805 2.911 14.2261 2.27338ZM7.65231 7.40544L10.1798 6.62269C10.78 3.48444 12.2013 1.91281 13.5273 1.28887C13.3552 1.17031 13.1753 1.10975 12.9967 1.10975C10.0248 1.10975 8.35531 5.01175 7.65231 7.40544ZM14.9317 11.464C14.9317 11.464 14.1054 10.9849 12.4327 10.9849C8.09194 10.9849 5.9415 13.8842 5.9415 16.8803C5.9415 20.44 9.49319 20.5366 9.49319 22.7031C9.49319 23.2267 9.12281 23.9434 8.21256 23.9434C6.81931 23.9434 5.16831 22.5259 5.16831 22.5259L4.3275 25.3046C4.3275 25.3046 5.93362 27.2594 9.0745 27.2594C11.6919 27.2594 13.6331 25.2886 13.6331 22.2282C13.6331 18.3381 9.30387 17.7018 9.30387 16.041C9.30387 15.7366 9.40075 14.5287 11.3254 14.5287C12.6383 14.5287 13.7094 15.1003 13.7094 15.1003L14.9317 11.464ZM15.7301 4.90413L17.2782 4.42506C16.886 3.22663 16.2764 2.18544 15.3613 2.0705C15.6426 2.881 15.7423 3.84519 15.7301 4.90413Z" fill="white"/>
</g>
<defs>
<clipPath id="clip0_1264_3282">
<rect width="28.25" height="32" fill="white"/>
</clipPath>
</defs>
</svg>
