<svg width="32" height="32" viewBox="0 0 32 32" fill="none" xmlns="http://www.w3.org/2000/svg">
<path d="M9.33464 6.6665L4.0013 9.33317V3.99984L9.33464 6.6665ZM24.0013 3.99984V9.33317L29.3346 6.6665L24.0013 3.99984ZM14.668 2.6665V7.99984L20.0013 5.33317L14.668 2.6665ZM6.66797 13.3865C8.50797 14.0398 11.6946 14.6665 16.0013 14.6665C20.308 14.6665 23.4946 14.0398 25.3346 13.3865C25.3346 13.1465 21.628 11.9998 16.0013 11.9998C10.3746 11.9998 6.66797 13.1465 6.66797 13.3865ZM20.0013 22.6665H12.0013V29.1732C6.58797 28.6532 2.66797 27.1198 2.66797 25.3332V13.3332C2.66797 11.1198 8.6413 9.33317 16.0013 9.33317C23.3613 9.33317 29.3346 11.1198 29.3346 13.3332V25.3332C29.3346 27.1198 25.4146 28.6398 20.0013 29.1598V22.6665Z" fill="white"/>
</svg>
