<svg width="32" height="32" viewBox="0 0 32 32" fill="none" xmlns="http://www.w3.org/2000/svg">
<path d="M30.6361 11.3374L27.878 8.57925C27.6555 8.35972 27.3588 8.23154 27.0464 8.21997C26.734 8.2084 26.4287 8.31429 26.1905 8.51675C25.8228 8.82971 25.351 8.99312 24.8685 8.9746C24.386 8.95608 23.9281 8.75698 23.5855 8.41675C23.2455 8.07418 23.0465 7.61639 23.0279 7.13405C23.0094 6.65172 23.1727 6.18002 23.4855 5.81238C23.688 5.57422 23.7939 5.26885 23.7823 4.95648C23.7707 4.6441 23.6425 4.3474 23.423 4.12488L20.6624 1.36363C20.4291 1.13078 20.1129 1 19.7833 1C19.4537 1 19.1375 1.13078 18.9043 1.36363L14.5074 5.75988C14.236 6.03235 14.0313 6.36391 13.9093 6.72863C13.8855 6.79875 13.8459 6.86247 13.7936 6.91482C13.7412 6.96717 13.6775 7.00676 13.6074 7.0305C13.2425 7.15248 12.9109 7.35744 12.6386 7.62925L1.36363 18.9043C1.13078 19.1375 1 19.4537 1 19.7833C1 20.1129 1.13078 20.4291 1.36363 20.6624L4.12488 23.4205C4.3474 23.64 4.6441 23.7682 4.95648 23.7798C5.26885 23.7914 5.57422 23.6855 5.81238 23.483C6.17918 23.1675 6.65166 23.0023 7.13514 23.0204C7.61861 23.0386 8.07737 23.2388 8.41948 23.5809C8.76159 23.923 8.96178 24.3818 8.97994 24.8652C8.99809 25.3487 8.83287 25.8212 8.51738 26.188C8.31491 26.4262 8.20902 26.7315 8.22059 27.0439C8.23216 27.3563 8.36035 27.653 8.57988 27.8755L11.338 30.6336C11.5713 30.8665 11.8874 30.9973 12.2171 30.9973C12.5467 30.9973 12.8628 30.8665 13.0961 30.6336L24.3711 19.3586C24.6429 19.0865 24.8478 18.7552 24.9699 18.3905C24.9935 18.3201 25.0331 18.2562 25.0856 18.2037C25.1381 18.1513 25.202 18.1116 25.2724 18.088C25.6369 17.966 25.9683 17.7613 26.2405 17.4899L30.6368 13.093C30.8688 12.8597 30.9989 12.5441 30.9988 12.2151C30.9987 11.8861 30.8683 11.5705 30.6361 11.3374ZM16.363 9.48425C16.2701 9.57713 16.1599 9.65081 16.0385 9.70108C15.9172 9.75135 15.7872 9.77722 15.6558 9.77722C15.5245 9.77722 15.3944 9.75135 15.2731 9.70108C15.1517 9.65081 15.0415 9.57713 14.9486 9.48425L14.2293 8.76488C14.0463 8.57639 13.9448 8.32349 13.9468 8.06081C13.9488 7.79813 14.054 7.54678 14.2398 7.36107C14.4256 7.17537 14.677 7.07022 14.9397 7.06836C15.2024 7.0665 15.4552 7.16807 15.6436 7.35113L16.363 8.06988C16.4559 8.16274 16.5296 8.27299 16.5798 8.39433C16.6301 8.51567 16.656 8.64572 16.656 8.77706C16.656 8.9084 16.6301 9.03846 16.5798 9.1598C16.5296 9.28114 16.4559 9.39139 16.363 9.48425ZM19.113 12.2343C18.9255 12.4216 18.6712 12.5269 18.4061 12.5269C18.141 12.5269 17.8868 12.4216 17.6993 12.2343L17.0118 11.5468C16.8242 11.3592 16.7188 11.1048 16.7188 10.8396C16.7188 10.5743 16.8242 10.3199 17.0118 10.1324C17.1993 9.94482 17.4537 9.83945 17.7189 9.83945C17.9842 9.83945 18.2386 9.94482 18.4261 10.1324L19.1136 10.8199C19.2068 10.9127 19.2808 11.0231 19.3313 11.1446C19.3818 11.266 19.4078 11.3963 19.4079 11.5279C19.4079 11.6594 19.382 11.7897 19.3316 11.9113C19.2812 12.0328 19.2074 12.1432 19.1143 12.2361L19.113 12.2343ZM21.863 14.9843C21.7701 15.0771 21.6599 15.1508 21.5385 15.2011C21.4172 15.2514 21.2872 15.2772 21.1558 15.2772C21.0245 15.2772 20.8944 15.2514 20.7731 15.2011C20.6517 15.1508 20.5415 15.0771 20.4486 14.9843L19.7611 14.2968C19.5782 14.1083 19.4767 13.8554 19.4787 13.5927C19.4807 13.33 19.5859 13.0787 19.7717 12.8929C19.9575 12.7072 20.2089 12.6021 20.4716 12.6002C20.7342 12.5984 20.9871 12.6999 21.1755 12.883L21.863 13.5705C21.9565 13.6632 22.0307 13.7734 22.0815 13.8949C22.1322 14.0164 22.1585 14.1467 22.1588 14.2783C22.1591 14.4099 22.1334 14.5403 22.0832 14.662C22.0329 14.7837 21.9592 14.8943 21.8661 14.9874L21.863 14.9843ZM24.6399 17.768C24.547 17.8609 24.4368 17.9346 24.3154 17.9848C24.1941 18.0351 24.064 18.061 23.9327 18.061C23.8013 18.061 23.6713 18.0351 23.55 17.9848C23.4286 17.9346 23.3184 17.8609 23.2255 17.768L22.5105 17.0493C22.4157 16.9567 22.3402 16.8462 22.2884 16.7241C22.2367 16.6021 22.2097 16.471 22.2091 16.3385C22.2085 16.206 22.2342 16.0746 22.2848 15.9521C22.3353 15.8296 22.4098 15.7184 22.5037 15.6249C22.5976 15.5314 22.7092 15.4575 22.832 15.4076C22.9547 15.3576 23.0862 15.3325 23.2187 15.3338C23.3512 15.335 23.4822 15.3627 23.604 15.415C23.7257 15.4673 23.8359 15.5433 23.928 15.6386L24.6436 16.3568C24.7365 16.4497 24.8101 16.5599 24.8603 16.6813C24.9105 16.8027 24.9363 16.9327 24.9363 17.0641C24.9362 17.1954 24.9103 17.3255 24.86 17.4468C24.8097 17.5681 24.7359 17.6783 24.643 17.7711L24.6399 17.768Z" fill="white"/>
</svg>
