<svg width="24" height="24" viewBox="0 0 24 24" fill="none" xmlns="http://www.w3.org/2000/svg">
<path d="M16.0352 2.45407C16.3159 2.73536 16.4736 3.11683 16.4736 3.51457C16.4736 3.91232 16.3159 4.29378 16.0352 4.57507L8.62249 12.0001L16.0352 19.4251C16.308 19.708 16.4589 20.0869 16.4555 20.4802C16.4521 20.8735 16.2946 21.2497 16.0169 21.5278C15.7393 21.8059 15.3637 21.9637 14.9711 21.9671C14.5784 21.9705 14.2001 21.8193 13.9177 21.5461L5.44626 13.0606C5.16552 12.7793 5.00781 12.3978 5.00781 12.0001C5.00781 11.6023 5.16552 11.2209 5.44626 10.9396L13.9177 2.45407C14.1985 2.17287 14.5794 2.01489 14.9764 2.01489C15.3735 2.01489 15.7544 2.17287 16.0352 2.45407Z" fill="#A4A4A4"/>
</svg>
