<svg width="24" height="24" viewBox="0 0 24 24" fill="none" xmlns="http://www.w3.org/2000/svg">
<g clip-path="url(#clip0_987_3268)">
<path d="M12.7783 0.025003C10.9535 -0.0939686 9.12613 0.212767 7.44026 0.921003C5.7516 1.6295 4.25101 2.7213 3.05726 4.11C1.85933 5.50133 0.998699 7.15037 0.542358 8.92873C0.0860176 10.7071 0.0462858 12.5668 0.426257 14.363C0.803284 16.1587 1.59046 17.8429 2.72626 19.284C3.85932 20.7228 5.3107 21.8791 6.96626 22.662C8.61902 23.4444 10.4312 23.8314 12.2594 23.7921C14.0876 23.7529 15.8816 23.2886 17.4993 22.436C17.5511 22.4095 17.609 22.3973 17.6672 22.4004C17.7253 22.4036 17.7816 22.4221 17.8303 22.454C19.3665 23.4828 21.1785 24.0215 23.0273 23.999C23.0709 23.9993 23.1142 23.9909 23.1546 23.9743C23.195 23.9577 23.2317 23.9332 23.2626 23.9024C23.2935 23.8715 23.3179 23.8348 23.3345 23.7944C23.3511 23.754 23.3595 23.7107 23.3593 23.667V19.629C23.3597 19.5501 23.3323 19.4736 23.2818 19.413C23.2313 19.3524 23.1609 19.3117 23.0833 19.298C22.7029 19.2374 22.3315 19.1303 21.9773 18.979C21.9112 18.9494 21.8568 18.8989 21.8223 18.8353C21.7877 18.7717 21.7751 18.6985 21.7863 18.627C21.792 18.5793 21.8092 18.5337 21.8363 18.494C22.9913 16.7554 23.6705 14.7444 23.8059 12.6615C23.9414 10.5786 23.5284 8.49655 22.6083 6.623C21.6905 4.7523 20.2964 3.15616 18.5663 1.995C16.8402 0.836425 14.8386 0.154414 12.7643 0.018003L12.7783 0.025003ZM4.84226 11.898C4.84118 10.4735 5.26034 9.08039 6.04726 7.893C6.83331 6.70954 7.95192 5.78507 9.26226 5.236C10.572 4.68814 12.0154 4.54375 13.4077 4.82132C14.8 5.09889 16.0778 5.78578 17.0773 6.794C18.0802 7.80509 18.7626 9.08949 19.0392 10.4865C19.3158 11.8835 19.1742 13.331 18.6323 14.648C18.0901 15.9635 17.1704 17.0888 15.9893 17.882C14.6112 18.8056 12.9548 19.2213 11.304 19.0578C9.65309 18.8944 8.11042 18.1619 6.94026 16.986C5.59544 15.6335 4.83956 13.8043 4.83726 11.897L4.84226 11.898Z" fill="#F7F8FA"/>
</g>
<defs>
<clipPath id="clip0_987_3268">
<rect width="24" height="24" fill="white"/>
</clipPath>
</defs>
</svg>
