<svg width="24" height="24" viewBox="0 0 24 24" fill="none" xmlns="http://www.w3.org/2000/svg">
<path d="M13.0536 6.0526L12.8998 2.93072C12.8661 2.46197 12.5023 2.1001 12.0655 2.1001H12.0223C11.5836 2.1001 11.2198 2.46197 11.188 2.93072L11.0267 6.1651C11.0098 6.41447 11.0886 6.6601 11.248 6.84197C11.4055 7.02572 11.6286 7.12885 11.8611 7.12885H12.2323C12.6936 7.12885 13.0686 6.7276 13.0686 6.23072C13.0723 6.1726 13.0667 6.11072 13.0536 6.0526ZM9.3486 23.9345C7.61797 23.9345 6.11797 22.7626 5.69985 21.0845C5.55735 20.5145 5.9061 19.937 6.4761 19.7945C7.04422 19.6501 7.6236 20.0007 7.7661 20.5707C7.85394 20.9239 8.05751 21.2374 8.34433 21.4614C8.63115 21.6853 8.9847 21.8068 9.3486 21.8063C10.2486 21.8063 10.9798 21.0751 10.9798 20.1732V8.48635C10.9798 8.20414 11.092 7.93349 11.2915 7.73394C11.4911 7.53439 11.7617 7.42229 12.0439 7.42229C12.3261 7.42229 12.5968 7.53439 12.7963 7.73394C12.9959 7.93349 13.108 8.20414 13.108 8.48635V20.1713C13.108 22.247 11.4223 23.9345 9.3486 23.9345Z" fill="#78A3AD"/>
<path d="M4.77 12.6507C6.33 12.6507 7.68563 13.517 8.385 14.7938C9.08438 13.517 10.4419 12.6507 12 12.6507C13.56 12.6507 14.9156 13.517 15.615 14.7938C16.3144 13.517 17.67 12.6507 19.23 12.6507C20.4881 12.6507 21.6131 13.217 22.3688 14.1057C22.3913 13.8938 22.4062 13.682 22.4062 13.4663C22.4062 9.1576 17.7469 5.6626 12 5.6626C6.25313 5.6626 1.59375 9.15572 1.59375 13.4663C1.59375 13.682 1.60875 13.8938 1.63125 14.1057C2.38688 13.217 3.51188 12.6507 4.77 12.6507Z" fill="#006CA2"/>
<path d="M16.4981 7.44942C16.4494 7.44942 16.4006 7.46067 16.3575 7.48317C16.1044 7.6088 15.2306 9.38443 15.2306 10.4101C15.2306 11.1094 15.8006 11.6775 16.4981 11.6775C17.1975 11.6775 17.7675 11.1075 17.7675 10.4101C17.7656 9.6338 16.965 7.44942 16.4981 7.44942ZM18.4012 0.0656738C18.3506 0.0656738 18.3 0.0769238 18.255 0.0994238C17.9925 0.226924 17.0869 2.07005 17.0869 3.13317C17.0869 3.8588 17.6775 4.44755 18.4012 4.44755C19.1269 4.44755 19.7156 3.8588 19.7156 3.13317C19.7156 2.33067 18.8869 0.0656738 18.4012 0.0656738ZM5.25188 0.0656738C5.20125 0.0656738 5.15062 0.0769238 5.10562 0.0994238C4.84312 0.226924 3.9375 2.07005 3.9375 3.13317C3.9375 3.8588 4.52813 4.44755 5.25188 4.44755C5.9775 4.44755 6.56625 3.8588 6.56625 3.13317C6.56812 2.33067 5.7375 0.0656738 5.25188 0.0656738Z" fill="#40C0E7"/>
<path d="M15.6139 15.2381C15.4527 15.2381 15.3027 15.15 15.2258 15.0075C14.9088 14.4286 14.442 13.9457 13.8743 13.6092C13.3066 13.2727 12.6588 13.0951 11.9989 13.095C10.6564 13.095 9.41891 13.8281 8.77203 15.0075C8.61641 15.2925 8.14953 15.2925 7.99391 15.0075C7.67695 14.4286 7.21016 13.9457 6.64245 13.6092C6.07473 13.2727 5.42697 13.0951 4.76703 13.095C3.68891 13.095 2.66891 13.5693 1.96578 14.3943C1.85141 14.5293 1.66766 14.5818 1.49703 14.5312C1.32828 14.4787 1.20641 14.3306 1.18578 14.1543C1.16141 13.9275 1.14453 13.6987 1.14453 13.4662C1.14453 8.91935 6.01203 5.21997 11.9952 5.21997C17.9783 5.21997 22.8458 8.91935 22.8458 13.4662C22.8458 13.6968 22.8308 13.9275 22.8045 14.1543C22.7858 14.3306 22.662 14.4787 22.4933 14.5312C22.3227 14.58 22.1408 14.5293 22.0264 14.3943C21.3252 13.5693 20.3033 13.095 19.2252 13.095C17.8808 13.095 16.6452 13.8281 16.0002 15.0075C15.9252 15.15 15.777 15.2381 15.6139 15.2381ZM4.76891 12.2081C6.19766 12.2081 7.52703 12.8756 8.38391 13.9875C8.81006 13.4339 9.35762 12.9857 9.98437 12.6772C10.6111 12.3687 11.3003 12.2082 11.9989 12.2081C13.4277 12.2081 14.757 12.8756 15.6139 13.9875C16.0399 13.4338 16.5875 12.9854 17.2142 12.6769C17.841 12.3684 18.5303 12.208 19.2289 12.2081C20.2189 12.2081 21.1695 12.5287 21.9495 13.11C21.6983 9.21747 17.3314 6.10685 11.9989 6.10685C6.66641 6.10685 2.29953 9.21747 2.04828 13.11C2.82828 12.5287 3.77891 12.2081 4.76891 12.2081Z" fill="#006CA2"/>
</svg>
