<svg width="33" height="33" viewBox="0 0 33 33" fill="none" xmlns="http://www.w3.org/2000/svg">
<path d="M29.3906 16.5C29.3906 16.9103 29.2276 17.3037 28.9376 17.5938C28.6475 17.8839 28.254 18.0469 27.8438 18.0469H18.0469V27.8438C18.0469 28.254 17.8839 28.6475 17.5938 28.9376C17.3037 29.2276 16.9103 29.3906 16.5 29.3906C16.0897 29.3906 15.6963 29.2276 15.4062 28.9376C15.1161 28.6475 14.9531 28.254 14.9531 27.8438V18.0469H5.15625C4.74599 18.0469 4.35254 17.8839 4.06244 17.5938C3.77235 17.3037 3.60938 16.9103 3.60938 16.5C3.60938 16.0897 3.77235 15.6963 4.06244 15.4062C4.35254 15.1161 4.74599 14.9531 5.15625 14.9531H14.9531V5.15625C14.9531 4.74599 15.1161 4.35254 15.4062 4.06244C15.6963 3.77235 16.0897 3.60938 16.5 3.60938C16.9103 3.60938 17.3037 3.77235 17.5938 4.06244C17.8839 4.35254 18.0469 4.74599 18.0469 5.15625V14.9531H27.8438C28.254 14.9531 28.6475 15.1161 28.9376 15.4062C29.2276 15.6963 29.3906 16.0897 29.3906 16.5Z" fill="#7C7C7C"/>
</svg>
