<svg width="24" height="24" viewBox="0 0 24 24" fill="none" xmlns="http://www.w3.org/2000/svg">
<path d="M7.92575 21.5459C7.64501 21.2646 7.48729 20.8832 7.48729 20.4854C7.48729 20.0877 7.64501 19.7062 7.92575 19.4249L15.3384 11.9999L7.92575 4.57493C7.65296 4.29202 7.50202 3.91312 7.50543 3.51982C7.50884 3.12653 7.66634 2.75031 7.94399 2.4722C8.22164 2.19409 8.59723 2.03633 8.98988 2.03292C9.38252 2.0295 9.7608 2.18069 10.0432 2.45393L18.5147 10.9394C18.7954 11.2207 18.9531 11.6022 18.9531 11.9999C18.9531 12.3977 18.7954 12.7791 18.5147 13.0604L10.0432 21.5459C9.76241 21.8271 9.38158 21.9851 8.98449 21.9851C8.5874 21.9851 8.20657 21.8271 7.92575 21.5459Z" fill="#A4A4A4"/>
</svg>
